<svg version="1.1" viewBox="0.0 0.0 455.0 281.0" fill="none" stroke="none" stroke-linecap="square" stroke-miterlimit="10" width="455" height="281" xmlns:xlink="http://www.w3.org/1999/xlink" xmlns="http://www.w3.org/2000/svg"><path fill="#ffffff" d="M0 0L455.0 0L455.0 281.0L0 281.0L0 0Z" fill-rule="nonzero"/><path stroke="#333333" stroke-width="1.0" stroke-linecap="butt" d="M76.5 203.5L440.5 203.5" fill-rule="nonzero"/><path stroke="#cccccc" stroke-width="1.0" stroke-linecap="butt" d="M76.5 171.5L440.5 171.5" fill-rule="nonzero"/><path stroke="#cccccc" stroke-width="1.0" stroke-linecap="butt" d="M76.5 139.5L440.5 139.5" fill-rule="nonzero"/><path stroke="#cccccc" stroke-width="1.0" stroke-linecap="butt" d="M76.5 108.5L440.5 108.5" fill-rule="nonzero"/><path stroke="#cccccc" stroke-width="1.0" stroke-linecap="butt" d="M76.5 76.5L440.5 76.5" fill-rule="nonzero"/><path stroke="#cccccc" stroke-width="1.0" stroke-linecap="butt" d="M76.5 44.5L440.5 44.5" fill-rule="nonzero"/><clipPath id="id_0"><path d="M76.05 44.416668L440.95 44.416668L440.95 203.56667L76.05 203.56667L76.05 44.416668Z" clip-rule="nonzero"/></clipPath><path stroke="#000000" stroke-width="0.0" stroke-linecap="butt" stroke-opacity="0.0" clip-path="url(#id_0)" d="M104.0 204.0L94.0 204.0L94.0 78.0C94.0 76.89543 94.89543 76.0 96.0 76.0L102.0 76.0C103.10457 76.0 104.0 76.89543 104.0 78.0Z" fill-rule="nonzero"/><path fill="#4285f4" clip-path="url(#id_0)" d="M104.0 204.0L94.0 204.0L94.0 78.0C94.0 76.89543 94.89543 76.0 96.0 76.0L102.0 76.0C103.10457 76.0 104.0 76.89543 104.0 78.0Z" fill-rule="nonzero"/><path stroke="#000000" stroke-width="0.0" stroke-linecap="butt" stroke-opacity="0.0" clip-path="url(#id_0)" d="M153.0 204.0L143.0 204.0L143.0 78.0C143.0 76.89543 143.89543 76.0 145.0 76.0L151.0 76.0C152.10457 76.0 153.0 76.89543 153.0 78.0Z" fill-rule="nonzero"/><path fill="#4285f4" clip-path="url(#id_0)" d="M153.0 204.0L143.0 204.0L143.0 78.0C143.0 76.89543 143.89543 76.0 145.0 76.0L151.0 76.0C152.10457 76.0 153.0 76.89543 153.0 78.0Z" fill-rule="nonzero"/><path stroke="#000000" stroke-width="0.0" stroke-linecap="butt" stroke-opacity="0.0" clip-path="url(#id_0)" d="M203.0 204.0L193.0 204.0L193.0 78.0C193.0 76.89543 193.89543 76.0 195.0 76.0L201.0 76.0C202.10457 76.0 203.0 76.89543 203.0 78.0Z" fill-rule="nonzero"/><path fill="#4285f4" clip-path="url(#id_0)" d="M203.0 204.0L193.0 204.0L193.0 78.0C193.0 76.89543 193.89543 76.0 195.0 76.0L201.0 76.0C202.10457 76.0 203.0 76.89543 203.0 78.0Z" fill-rule="nonzero"/><path stroke="#000000" stroke-width="0.0" stroke-linecap="butt" stroke-opacity="0.0" clip-path="url(#id_0)" d="M253.0 204.0L243.0 204.0L243.0 78.0C243.0 76.89543 243.89543 76.0 245.0 76.0L251.0 76.0C252.10457 76.0 253.0 76.89543 253.0 78.0Z" fill-rule="nonzero"/><path fill="#4285f4" clip-path="url(#id_0)" d="M253.0 204.0L243.0 204.0L243.0 78.0C243.0 76.89543 243.89543 76.0 245.0 76.0L251.0 76.0C252.10457 76.0 253.0 76.89543 253.0 78.0Z" fill-rule="nonzero"/><path stroke="#000000" stroke-width="0.0" stroke-linecap="butt" stroke-opacity="0.0" clip-path="url(#id_0)" d="M302.0 204.0L292.0 204.0L292.0 78.0C292.0 76.89543 292.89542 76.0 294.0 76.0L300.0 76.0C301.10458 76.0 302.0 76.89543 302.0 78.0Z" fill-rule="nonzero"/><path fill="#4285f4" clip-path="url(#id_0)" d="M302.0 204.0L292.0 204.0L292.0 78.0C292.0 76.89543 292.89542 76.0 294.0 76.0L300.0 76.0C301.10458 76.0 302.0 76.89543 302.0 78.0Z" fill-rule="nonzero"/><path stroke="#000000" stroke-width="0.0" stroke-linecap="butt" stroke-opacity="0.0" clip-path="url(#id_0)" d="M352.0 204.0L342.0 204.0L342.0 78.0C342.0 76.89543 342.89542 76.0 344.0 76.0L350.0 76.0C351.10458 76.0 352.0 76.89543 352.0 78.0Z" fill-rule="nonzero"/><path fill="#4285f4" clip-path="url(#id_0)" d="M352.0 204.0L342.0 204.0L342.0 78.0C342.0 76.89543 342.89542 76.0 344.0 76.0L350.0 76.0C351.10458 76.0 352.0 76.89543 352.0 78.0Z" fill-rule="nonzero"/><path stroke="#000000" stroke-width="0.0" stroke-linecap="butt" stroke-opacity="0.0" clip-path="url(#id_0)" d="M401.0 204.0L391.0 204.0L391.0 78.0C391.0 76.89543 391.89542 76.0 393.0 76.0L399.0 76.0C400.10458 76.0 401.0 76.89543 401.0 78.0Z" fill-rule="nonzero"/><path fill="#4285f4" clip-path="url(#id_0)" d="M401.0 204.0L391.0 204.0L391.0 78.0C391.0 76.89543 391.89542 76.0 393.0 76.0L399.0 76.0C400.10458 76.0 401.0 76.89543 401.0 78.0Z" fill-rule="nonzero"/><path stroke="#000000" stroke-width="0.0" stroke-linecap="butt" stroke-opacity="0.0" clip-path="url(#id_0)" d="M115.0 204.0L105.0 204.0L105.0 80.0C105.0 78.89543 105.89543 78.0 107.0 78.0L113.0 78.0C114.10457 78.0 115.0 78.89543 115.0 80.0Z" fill-rule="nonzero"/><path fill="#ea4335" clip-path="url(#id_0)" d="M115.0 204.0L105.0 204.0L105.0 80.0C105.0 78.89543 105.89543 78.0 107.0 78.0L113.0 78.0C114.10457 78.0 115.0 78.89543 115.0 80.0Z" fill-rule="nonzero"/><path stroke="#000000" stroke-width="0.0" stroke-linecap="butt" stroke-opacity="0.0" clip-path="url(#id_0)" d="M164.0 204.0L154.0 204.0L154.0 79.0C154.0 77.89543 154.89543 77.0 156.0 77.0L162.0 77.0C163.10457 77.0 164.0 77.89543 164.0 79.0Z" fill-rule="nonzero"/><path fill="#ea4335" clip-path="url(#id_0)" d="M164.0 204.0L154.0 204.0L154.0 79.0C154.0 77.89543 154.89543 77.0 156.0 77.0L162.0 77.0C163.10457 77.0 164.0 77.89543 164.0 79.0Z" fill-rule="nonzero"/><path stroke="#000000" stroke-width="0.0" stroke-linecap="butt" stroke-opacity="0.0" clip-path="url(#id_0)" d="M214.0 204.0L204.0 204.0L204.0 79.0C204.0 77.89543 204.89543 77.0 206.0 77.0L212.0 77.0C213.10457 77.0 214.0 77.89543 214.0 79.0Z" fill-rule="nonzero"/><path fill="#ea4335" clip-path="url(#id_0)" d="M214.0 204.0L204.0 204.0L204.0 79.0C204.0 77.89543 204.89543 77.0 206.0 77.0L212.0 77.0C213.10457 77.0 214.0 77.89543 214.0 79.0Z" fill-rule="nonzero"/><path stroke="#000000" stroke-width="0.0" stroke-linecap="butt" stroke-opacity="0.0" clip-path="url(#id_0)" d="M264.0 204.0L254.0 204.0L254.0 78.0C254.0 76.89543 254.89543 76.0 256.0 76.0L262.0 76.0C263.10458 76.0 264.0 76.89543 264.0 78.0Z" fill-rule="nonzero"/><path fill="#ea4335" clip-path="url(#id_0)" d="M264.0 204.0L254.0 204.0L254.0 78.0C254.0 76.89543 254.89543 76.0 256.0 76.0L262.0 76.0C263.10458 76.0 264.0 76.89543 264.0 78.0Z" fill-rule="nonzero"/><path stroke="#000000" stroke-width="0.0" stroke-linecap="butt" stroke-opacity="0.0" clip-path="url(#id_0)" d="M313.0 204.0L303.0 204.0L303.0 81.0C303.0 79.89543 303.89542 79.0 305.0 79.0L311.0 79.0C312.10458 79.0 313.0 79.89543 313.0 81.0Z" fill-rule="nonzero"/><path fill="#ea4335" clip-path="url(#id_0)" d="M313.0 204.0L303.0 204.0L303.0 81.0C303.0 79.89543 303.89542 79.0 305.0 79.0L311.0 79.0C312.10458 79.0 313.0 79.89543 313.0 81.0Z" fill-rule="nonzero"/><path stroke="#000000" stroke-width="0.0" stroke-linecap="butt" stroke-opacity="0.0" clip-path="url(#id_0)" d="M363.0 204.0L353.0 204.0L353.0 78.0C353.0 76.89543 353.89542 76.0 355.0 76.0L361.0 76.0C362.10458 76.0 363.0 76.89543 363.0 78.0Z" fill-rule="nonzero"/><path fill="#ea4335" clip-path="url(#id_0)" d="M363.0 204.0L353.0 204.0L353.0 78.0C353.0 76.89543 353.89542 76.0 355.0 76.0L361.0 76.0C362.10458 76.0 363.0 76.89543 363.0 78.0Z" fill-rule="nonzero"/><path stroke="#000000" stroke-width="0.0" stroke-linecap="butt" stroke-opacity="0.0" clip-path="url(#id_0)" d="M412.0 204.0L402.0 204.0L402.0 79.0C402.0 77.89543 402.89542 77.0 404.0 77.0L410.0 77.0C411.10458 77.0 412.0 77.89543 412.0 79.0Z" fill-rule="nonzero"/><path fill="#ea4335" clip-path="url(#id_0)" d="M412.0 204.0L402.0 204.0L402.0 79.0C402.0 77.89543 402.89542 77.0 404.0 77.0L410.0 77.0C411.10458 77.0 412.0 77.89543 412.0 79.0Z" fill-rule="nonzero"/><path stroke="#000000" stroke-width="0.0" stroke-linecap="butt" stroke-opacity="0.0" clip-path="url(#id_0)" d="M126.0 204.0L116.0 204.0L116.0 89.0C116.0 87.89543 116.89543 87.0 118.0 87.0L124.0 87.0C125.10457 87.0 126.0 87.89543 126.0 89.0Z" fill-rule="nonzero"/><path fill="#fbbc04" clip-path="url(#id_0)" d="M126.0 204.0L116.0 204.0L116.0 89.0C116.0 87.89543 116.89543 87.0 118.0 87.0L124.0 87.0C125.10457 87.0 126.0 87.89543 126.0 89.0Z" fill-rule="nonzero"/><path stroke="#000000" stroke-width="0.0" stroke-linecap="butt" stroke-opacity="0.0" clip-path="url(#id_0)" d="M175.0 204.0L165.0 204.0L165.0 85.0C165.0 83.89543 165.89543 83.0 167.0 83.0L173.0 83.0C174.10457 83.0 175.0 83.89543 175.0 85.0Z" fill-rule="nonzero"/><path fill="#fbbc04" clip-path="url(#id_0)" d="M175.0 204.0L165.0 204.0L165.0 85.0C165.0 83.89543 165.89543 83.0 167.0 83.0L173.0 83.0C174.10457 83.0 175.0 83.89543 175.0 85.0Z" fill-rule="nonzero"/><path stroke="#000000" stroke-width="0.0" stroke-linecap="butt" stroke-opacity="0.0" clip-path="url(#id_0)" d="M225.0 204.0L215.0 204.0L215.0 86.0C215.0 84.89543 215.89543 84.0 217.0 84.0L223.0 84.0C224.10457 84.0 225.0 84.89543 225.0 86.0Z" fill-rule="nonzero"/><path fill="#fbbc04" clip-path="url(#id_0)" d="M225.0 204.0L215.0 204.0L215.0 86.0C215.0 84.89543 215.89543 84.0 217.0 84.0L223.0 84.0C224.10457 84.0 225.0 84.89543 225.0 86.0Z" fill-rule="nonzero"/><path stroke="#000000" stroke-width="0.0" stroke-linecap="butt" stroke-opacity="0.0" clip-path="url(#id_0)" d="M275.0 204.0L265.0 204.0L265.0 121.0C265.0 119.89543 265.89542 119.0 267.0 119.0L273.0 119.0C274.10458 119.0 275.0 119.89543 275.0 121.0Z" fill-rule="nonzero"/><path fill="#fbbc04" clip-path="url(#id_0)" d="M275.0 204.0L265.0 204.0L265.0 121.0C265.0 119.89543 265.89542 119.0 267.0 119.0L273.0 119.0C274.10458 119.0 275.0 119.89543 275.0 121.0Z" fill-rule="nonzero"/><path stroke="#000000" stroke-width="0.0" stroke-linecap="butt" stroke-opacity="0.0" clip-path="url(#id_0)" d="M324.0 204.0L314.0 204.0L314.0 99.0C314.0 97.89543 314.89542 97.0 316.0 97.0L322.0 97.0C323.10458 97.0 324.0 97.89543 324.0 99.0Z" fill-rule="nonzero"/><path fill="#fbbc04" clip-path="url(#id_0)" d="M324.0 204.0L314.0 204.0L314.0 99.0C314.0 97.89543 314.89542 97.0 316.0 97.0L322.0 97.0C323.10458 97.0 324.0 97.89543 324.0 99.0Z" fill-rule="nonzero"/><path stroke="#000000" stroke-width="0.0" stroke-linecap="butt" stroke-opacity="0.0" clip-path="url(#id_0)" d="M374.0 204.0L364.0 204.0L364.0 79.0C364.0 77.89543 364.89542 77.0 366.0 77.0L372.0 77.0C373.10458 77.0 374.0 77.89543 374.0 79.0Z" fill-rule="nonzero"/><path fill="#fbbc04" clip-path="url(#id_0)" d="M374.0 204.0L364.0 204.0L364.0 79.0C364.0 77.89543 364.89542 77.0 366.0 77.0L372.0 77.0C373.10458 77.0 374.0 77.89543 374.0 79.0Z" fill-rule="nonzero"/><path stroke="#000000" stroke-width="0.0" stroke-linecap="butt" stroke-opacity="0.0" clip-path="url(#id_0)" d="M423.0 204.0L413.0 204.0L413.0 93.0C413.0 91.89543 413.89542 91.0 415.0 91.0L421.0 91.0C422.10458 91.0 423.0 91.89543 423.0 93.0Z" fill-rule="nonzero"/><path fill="#fbbc04" clip-path="url(#id_0)" d="M423.0 204.0L413.0 204.0L413.0 93.0C413.0 91.89543 413.89542 91.0 415.0 91.0L421.0 91.0C422.10458 91.0 423.0 91.89543 423.0 93.0Z" fill-rule="nonzero"/><path fill="#000000" d="M25.050013 194.26146L16.456263 194.26146L16.456263 193.10521L23.206263 188.58958L16.456263 188.58958L16.456263 187.49583L25.050013 187.49583L25.050013 188.66771L18.300013 193.18333L25.050013 193.18333L25.050013 194.26146ZM21.940638 185.77708Q20.206263 185.77708 19.378138 184.82396Q18.690638 184.02708 18.690638 182.87083Q18.690638 181.58958 19.534388 180.77708Q20.362513 179.94896 21.846888 179.94896Q23.050013 179.94896 23.737513 180.30833Q24.425013 180.66771 24.815638 181.37083Q25.190638 182.05833 25.190638 182.87083Q25.190638 184.16771 24.362513 184.98021Q23.518763 185.77708 21.940638 185.77708ZM21.940638 184.69896Q23.128138 184.69896 23.721888 184.18333Q24.315638 183.65208 24.315638 182.87083Q24.315638 182.07396 23.721888 181.55833Q23.128138 181.04271 21.909388 181.04271Q20.753138 181.04271 20.159388 181.57396Q19.565638 182.08958 19.565638 182.87083Q19.565638 183.65208 20.159388 184.18333Q20.737513 184.69896 21.940638 184.69896ZM25.050013 178.40208L18.831263 178.40208L18.831263 177.44896L19.768763 177.44896Q19.112513 177.08958 18.909388 176.79271Q18.690638 176.48021 18.690638 176.10521Q18.690638 175.57396 19.018763 175.02708L20.003138 175.38646Q19.768763 175.77708 19.768763 176.15208Q19.768763 176.51146 19.987513 176.79271Q20.190638 177.05833 20.565638 177.16771Q21.128138 177.35521 21.784388 177.35521L25.050013 177.35521L25.050013 178.40208ZM25.050013 174.38646L18.831263 174.38646L18.831263 173.44896L19.706263 173.44896Q19.237513 173.15208 18.971888 172.66771Q18.690638 172.18333 18.690638 171.55833Q18.690638 170.87083 18.971888 170.43333Q19.253138 169.98021 19.768763 169.80833Q18.690638 169.05833 18.690638 167.88646Q18.690638 166.94896 19.206263 166.46458Q19.706263 165.96458 20.784388 165.96458L25.050013 165.96458L25.050013 167.01146L21.128138 167.01146Q20.503138 167.01146 20.221888 167.12083Q19.940638 167.21458 19.768763 167.48021Q19.596888 167.74583 19.596888 168.12083Q19.596888 168.77708 20.034388 169.21458Q20.471888 169.63646 21.440638 169.63646L25.050013 169.63646L25.050013 170.69896L21.003138 170.69896Q20.300013 170.69896 19.956263 170.96458Q19.596888 171.21458 19.596888 171.79271Q19.596888 172.24583 19.831263 172.62083Q20.065638 172.99583 20.518763 173.16771Q20.971888 173.33958 21.815638 173.33958L25.050013 173.33958L25.050013 174.38646ZM24.284388 160.32396Q24.784388 160.91771 24.987513 161.46458Q25.190638 161.99583 25.190638 162.62083Q25.190638 163.65208 24.690638 164.19896Q24.190638 164.74583 23.409388 164.74583Q22.956263 164.74583 22.581263 164.54271Q22.190638 164.33958 21.971888 163.99583Q21.737513 163.65208 21.628138 163.23021Q21.534388 162.93333 21.456263 162.29271Q21.315638 161.02708 21.096888 160.41771Q20.878138 160.41771 20.831263 160.41771Q20.175013 160.41771 19.909388 160.71458Q19.565638 161.12083 19.565638 161.91771Q19.565638 162.65208 19.831263 163.01146Q20.081263 163.37083 20.737513 163.54271L20.596888 164.57396Q19.940638 164.43333 19.534388 164.10521Q19.128138 163.77708 18.909388 163.16771Q18.690638 162.55833 18.690638 161.76146Q18.690638 160.96458 18.878138 160.46458Q19.065638 159.96458 19.346888 159.73021Q19.628138 159.49583 20.065638 159.40208Q20.331263 159.35521 21.034388 159.35521L22.440638 159.35521Q23.909388 159.35521 24.300013 159.29271Q24.690638 159.21458 25.050013 159.01146L25.050013 160.12083Q24.721888 160.27708 24.284388 160.32396ZM21.925013 160.41771Q22.159388 160.99583 22.331263 162.13646Q22.425013 162.79271 22.550013 163.05833Q22.659388 163.32396 22.878138 163.48021Q23.096888 163.62083 23.378138 163.62083Q23.800013 163.62083 24.081263 163.30833Q24.362513 162.98021 24.362513 162.37083Q24.362513 161.76146 24.096888 161.29271Q23.831263 160.80833 23.362513 160.58958Q23.003138 160.41771 22.315638 160.41771L21.925013 160.41771ZM25.050013 157.41771L16.456263 157.41771L16.456263 156.35521L25.050013 156.35521L25.050013 157.41771ZM17.675013 154.38646L16.456263 154.38646L16.456263 153.32396L17.675013 153.32396L17.675013 154.38646ZM25.050013 154.38646L18.831263 154.38646L18.831263 153.32396L25.050013 153.32396L25.050013 154.38646ZM23.190638 151.80833L23.034388 150.77708Q23.659388 150.68333 23.987513 150.29271Q24.315638 149.88646 24.315638 149.15208Q24.315638 148.43333 24.034388 148.08958Q23.737513 147.73021 23.331263 147.73021Q22.971888 147.73021 22.768763 148.04271Q22.628138 148.26146 22.409388 149.12083Q22.112513 150.27708 21.909388 150.73021Q21.690638 151.16771 21.315638 151.40208Q20.940638 151.63646 20.471888 151.63646Q20.065638 151.63646 19.706263 151.44896Q19.346888 151.26146 19.112513 150.93333Q18.940638 150.68333 18.815638 150.26146Q18.690638 149.83958 18.690638 149.33958Q18.690638 148.62083 18.909388 148.07396Q19.112513 147.51146 19.471888 147.24583Q19.831263 146.98021 20.425013 146.88646L20.565638 147.91771Q20.096888 147.98021 19.831263 148.32396Q19.550013 148.65208 19.550013 149.27708Q19.550013 149.99583 19.800013 150.30833Q20.034388 150.62083 20.362513 150.62083Q20.565638 150.62083 20.721888 150.49583Q20.893763 150.35521 21.003138 150.08958Q21.065638 149.93333 21.268763 149.15208Q21.581263 148.02708 21.768763 147.58958Q21.956263 147.15208 22.315638 146.90208Q22.675013 146.65208 23.221888 146.65208Q23.753138 146.65208 24.221888 146.96458Q24.675013 147.26146 24.940638 147.83958Q25.190638 148.41771 25.190638 149.15208Q25.190638 150.37083 24.690638 151.01146Q24.175013 151.63646 23.190638 151.80833ZM23.050013 141.13646L23.175013 140.04271Q24.128138 140.29271 24.659388 140.99583Q25.190638 141.69896 25.190638 142.77708Q25.190638 144.13646 24.346888 144.94896Q23.503138 145.74583 21.987513 145.74583Q20.425013 145.74583 19.565638 144.93333Q18.690638 144.12083 18.690638 142.83958Q18.690638 141.58958 19.534388 140.80833Q20.378138 140.01146 21.925013 140.01146Q22.018763 140.01146 22.206263 140.01146L22.206263 144.65208Q23.237513 144.58958 23.784388 144.07396Q24.315638 143.55833 24.315638 142.77708Q24.315638 142.19896 24.018763 141.79271Q23.706263 141.37083 23.050013 141.13646ZM21.346888 144.58958L21.346888 141.12083Q20.550013 141.18333 20.159388 141.51146Q19.550013 142.02708 19.550013 142.82396Q19.550013 143.55833 20.034388 144.05833Q20.518763 144.54271 21.346888 144.58958ZM25.050013 134.35521L24.268763 134.35521Q25.190638 134.94896 25.190638 136.08958Q25.190638 136.83958 24.784388 137.46458Q24.362513 138.08958 23.628138 138.43333Q22.893763 138.77708 21.940638 138.77708Q21.018763 138.77708 20.253138 138.46458Q19.487513 138.15208 19.096888 137.52708Q18.690638 136.90208 18.690638 136.13646Q18.690638 135.57396 18.925013 135.13646Q19.159388 134.69896 19.534388 134.41771L16.456263 134.41771L16.456263 133.37083L25.050013 133.37083L25.050013 134.35521ZM21.940638 137.68333Q23.143763 137.68333 23.737513 137.18333Q24.315638 136.68333 24.315638 135.99583Q24.315638 135.30833 23.753138 134.82396Q23.190638 134.33958 22.034388 134.33958Q20.753138 134.33958 20.159388 134.83958Q19.565638 135.32396 19.565638 136.04271Q19.565638 136.74583 20.143763 137.21458Q20.706263 137.68333 21.940638 137.68333ZM22.034388 122.120834L22.331263 120.995834Q23.721888 121.35521 24.456263 122.277084Q25.190638 123.19896 25.190638 124.54271Q25.190638 125.933334 24.628138 126.808334Q24.065638 127.683334 23.003138 128.13646Q21.925013 128.58958 20.690638 128.58958Q19.346888 128.58958 18.346888 128.07396Q17.346888 127.558334 16.831263 126.620834Q16.315638 125.66771 16.315638 124.527084Q16.315638 123.245834 16.971888 122.370834Q17.628138 121.48021 18.815638 121.13646L19.081263 122.26146Q18.143763 122.558334 17.721888 123.13646Q17.284388 123.69896 17.284388 124.558334Q17.284388 125.54271 17.768763 126.214584Q18.237513 126.870834 19.034388 127.152084Q19.831263 127.41771 20.690638 127.41771Q21.784388 127.41771 22.596888 127.10521Q23.409388 126.777084 23.815638 126.10521Q24.221888 125.433334 24.221888 124.63646Q24.221888 123.683334 23.675013 123.027084Q23.128138 122.35521 22.034388 122.120834ZM25.050013 119.26146L16.456263 119.26146L16.456263 116.01146Q16.456263 115.16771 16.534388 114.714584Q16.643763 114.07396 16.940638 113.652084Q17.237513 113.214584 17.768763 112.964584Q18.300013 112.69896 18.940638 112.69896Q20.034388 112.69896 20.800013 113.402084Q21.550013 114.089584 21.550013 115.91771L21.550013 118.120834L25.050013 118.120834L25.050013 119.26146ZM20.550013 118.120834L20.550013 115.902084Q20.550013 114.79271 20.143763 114.339584Q19.721888 113.870834 18.971888 113.870834Q18.440638 113.870834 18.065638 114.152084Q17.675013 114.41771 17.550013 114.85521Q17.471888 115.152084 17.471888 115.91771L17.471888 118.120834L20.550013 118.120834ZM25.050013 111.058334L16.456263 111.058334L16.456263 109.933334L25.050013 109.933334L25.050013 111.058334Z" fill-rule="nonzero"/><path fill="#000000" d="M46.55 203.33229Q46.55 201.80104 46.8625 200.87917Q47.175 199.94167 47.784374 199.44167Q48.409374 198.94167 49.346874 198.94167Q50.034374 198.94167 50.55 199.22292Q51.08125 199.50417 51.425 200.03542Q51.76875 200.55104 51.95625 201.30104Q52.14375 202.05104 52.14375 203.33229Q52.14375 204.84792 51.83125 205.76979Q51.534374 206.69167 50.909374 207.20729Q50.3 207.70729 49.346874 207.70729Q48.1125 207.70729 47.39375 206.81667Q46.55 205.75417 46.55 203.33229ZM47.628124 203.33229Q47.628124 205.44167 48.128124 206.14479Q48.628124 206.84792 49.346874 206.84792Q50.08125 206.84792 50.565624 206.14479Q51.065624 205.44167 51.065624 203.33229Q51.065624 201.20729 50.565624 200.51979Q50.08125 199.81667 49.33125 199.81667Q48.6125 199.81667 48.175 200.42604Q47.628124 201.20729 47.628124 203.33229ZM54.14375 207.56667L54.14375 206.36354L55.346874 206.36354L55.346874 207.56667L54.14375 207.56667ZM56.55 203.33229Q56.55 201.80104 56.8625 200.87917Q57.175 199.94167 57.784374 199.44167Q58.409374 198.94167 59.346874 198.94167Q60.034374 198.94167 60.55 199.22292Q61.08125 199.50417 61.425 200.03542Q61.76875 200.55104 61.95625 201.30104Q62.14375 202.05104 62.14375 203.33229Q62.14375 204.84792 61.83125 205.76979Q61.534374 206.69167 60.909374 207.20729Q60.3 207.70729 59.346874 207.70729Q58.1125 207.70729 57.39375 206.81667Q56.55 205.75417 56.55 203.33229ZM57.628124 203.33229Q57.628124 205.44167 58.128124 206.14479Q58.628124 206.84792 59.346874 206.84792Q60.08125 206.84792 60.565624 206.14479Q61.065624 205.44167 61.065624 203.33229Q61.065624 201.20729 60.565624 200.51979Q60.08125 199.81667 59.33125 199.81667Q58.6125 199.81667 58.175 200.42604Q57.628124 201.20729 57.628124 203.33229ZM63.55 203.33229Q63.55 201.80104 63.8625 200.87917Q64.175 199.94167 64.78438 199.44167Q65.40938 198.94167 66.34688 198.94167Q67.03438 198.94167 67.55 199.22292Q68.08125 199.50417 68.425 200.03542Q68.76875 200.55104 68.95625 201.30104Q69.14375 202.05104 69.14375 203.33229Q69.14375 204.84792 68.83125 205.76979Q68.53438 206.69167 67.90938 207.20729Q67.3 207.70729 66.34688 207.70729Q65.1125 207.70729 64.39375 206.81667Q63.55 205.75417 63.55 203.33229ZM64.62813 203.33229Q64.62813 205.44167 65.12813 206.14479Q65.62813 206.84792 66.34688 206.84792Q67.08125 206.84792 67.56563 206.14479Q68.06563 205.44167 68.06563 203.33229Q68.06563 201.20729 67.56563 200.51979Q67.08125 199.81667 66.33125 199.81667Q65.6125 199.81667 65.175 200.42604Q64.62813 201.20729 64.62813 203.33229Z" fill-rule="nonzero"/><path fill="#000000" d="M46.55 171.50229Q46.55 169.97104 46.8625 169.04916Q47.175 168.11166 47.784374 167.61166Q48.409374 167.11166 49.346874 167.11166Q50.034374 167.11166 50.55 167.39291Q51.08125 167.67416 51.425 168.20541Q51.76875 168.72104 51.95625 169.47104Q52.14375 170.22104 52.14375 171.50229Q52.14375 173.01791 51.83125 173.93979Q51.534374 174.86166 50.909374 175.37729Q50.3 175.87729 49.346874 175.87729Q48.1125 175.87729 47.39375 174.98666Q46.55 173.92416 46.55 171.50229ZM47.628124 171.50229Q47.628124 173.61166 48.128124 174.31479Q48.628124 175.01791 49.346874 175.01791Q50.08125 175.01791 50.565624 174.31479Q51.065624 173.61166 51.065624 171.50229Q51.065624 169.37729 50.565624 168.68979Q50.08125 167.98666 49.33125 167.98666Q48.6125 167.98666 48.175 168.59604Q47.628124 169.37729 47.628124 171.50229ZM54.14375 175.73666L54.14375 174.53354L55.346874 174.53354L55.346874 175.73666L54.14375 175.73666ZM62.096874 174.72104L62.096874 175.73666L56.409374 175.73666Q56.409374 175.36166 56.534374 175.00229Q56.753124 174.42416 57.221874 173.86166Q57.70625 173.29916 58.6125 172.56479Q60.01875 171.40854 60.503124 170.73666Q61.003124 170.06479 61.003124 169.47104Q61.003124 168.84604 60.55 168.42416Q60.096874 167.98666 59.378124 167.98666Q58.6125 167.98666 58.159374 168.43979Q57.70625 168.89291 57.690624 169.70541L56.6125 169.59604Q56.721874 168.37729 57.440624 167.75229Q58.175 167.11166 59.409374 167.11166Q60.64375 167.11166 61.3625 167.79916Q62.08125 168.48666 62.08125 169.50229Q62.08125 170.01791 61.8625 170.51791Q61.659374 171.00229 61.159374 171.56479Q60.675 172.11166 59.55 173.06479Q58.596874 173.86166 58.315624 174.15854Q58.05 174.43979 57.878124 174.72104L62.096874 174.72104ZM63.55 173.48666L64.65938 173.39291Q64.78438 174.20541 65.22188 174.61166Q65.675 175.01791 66.31563 175.01791Q67.06563 175.01791 67.59688 174.43979Q68.12813 173.86166 68.12813 172.92416Q68.12813 172.01791 67.6125 171.50229Q67.1125 170.97104 66.28438 170.97104Q65.78438 170.97104 65.3625 171.20541Q64.95625 171.43979 64.72188 171.79916L63.7375 171.67416L64.56563 167.26791L68.84688 167.26791L68.84688 168.26791L65.40938 168.26791L64.95625 170.58041Q65.72188 170.03354 66.56563 170.03354Q67.69063 170.03354 68.45625 170.81479Q69.2375 171.59604 69.2375 172.83041Q69.2375 173.98666 68.56563 174.84604Q67.7375 175.87729 66.31563 175.87729Q65.14375 175.87729 64.39375 175.22104Q63.659374 174.56479 63.55 173.48666Z" fill-rule="nonzero"/><path fill="#000000" d="M46.55 139.67229Q46.55 138.14104 46.8625 137.21916Q47.175 136.28166 47.784374 135.78166Q48.409374 135.28166 49.346874 135.28166Q50.034374 135.28166 50.55 135.56291Q51.08125 135.84416 51.425 136.37541Q51.76875 136.89104 51.95625 137.64104Q52.14375 138.39104 52.14375 139.67229Q52.14375 141.18791 51.83125 142.10979Q51.534374 143.03166 50.909374 143.54729Q50.3 144.04729 49.346874 144.04729Q48.1125 144.04729 47.39375 143.15666Q46.55 142.09416 46.55 139.67229ZM47.628124 139.67229Q47.628124 141.78166 48.128124 142.48479Q48.628124 143.18791 49.346874 143.18791Q50.08125 143.18791 50.565624 142.48479Q51.065624 141.78166 51.065624 139.67229Q51.065624 137.54729 50.565624 136.85979Q50.08125 136.15666 49.33125 136.15666Q48.6125 136.15666 48.175 136.76604Q47.628124 137.54729 47.628124 139.67229ZM54.14375 143.90666L54.14375 142.70354L55.346874 142.70354L55.346874 143.90666L54.14375 143.90666ZM56.55 141.65666L57.659374 141.56291Q57.784374 142.37541 58.221874 142.78166Q58.675 143.18791 59.315624 143.18791Q60.065624 143.18791 60.596874 142.60979Q61.128124 142.03166 61.128124 141.09416Q61.128124 140.18791 60.6125 139.67229Q60.1125 139.14104 59.284374 139.14104Q58.784374 139.14104 58.3625 139.37541Q57.95625 139.60979 57.721874 139.96916L56.7375 139.84416L57.565624 135.43791L61.846874 135.43791L61.846874 136.43791L58.409374 136.43791L57.95625 138.75041Q58.721874 138.20354 59.565624 138.20354Q60.690624 138.20354 61.45625 138.98479Q62.2375 139.76604 62.2375 141.00041Q62.2375 142.15666 61.565624 143.01604Q60.7375 144.04729 59.315624 144.04729Q58.14375 144.04729 57.39375 143.39104Q56.659374 142.73479 56.55 141.65666ZM63.55 139.67229Q63.55 138.14104 63.8625 137.21916Q64.175 136.28166 64.78438 135.78166Q65.40938 135.28166 66.34688 135.28166Q67.03438 135.28166 67.55 135.56291Q68.08125 135.84416 68.425 136.37541Q68.76875 136.89104 68.95625 137.64104Q69.14375 138.39104 69.14375 139.67229Q69.14375 141.18791 68.83125 142.10979Q68.53438 143.03166 67.90938 143.54729Q67.3 144.04729 66.34688 144.04729Q65.1125 144.04729 64.39375 143.15666Q63.55 142.09416 63.55 139.67229ZM64.62813 139.67229Q64.62813 141.78166 65.12813 142.48479Q65.62813 143.18791 66.34688 143.18791Q67.08125 143.18791 67.56563 142.48479Q68.06563 141.78166 68.06563 139.67229Q68.06563 137.54729 67.56563 136.85979Q67.08125 136.15666 66.33125 136.15666Q65.6125 136.15666 65.175 136.76604Q64.62813 137.54729 64.62813 139.67229Z" fill-rule="nonzero"/><path fill="#000000" d="M46.55 107.84229Q46.55 106.31104 46.8625 105.38917Q47.175 104.45167 47.784374 103.95167Q48.409374 103.45167 49.346874 103.45167Q50.034374 103.45167 50.55 103.73292Q51.08125 104.01417 51.425 104.54542Q51.76875 105.06104 51.95625 105.81104Q52.14375 106.56104 52.14375 107.84229Q52.14375 109.35792 51.83125 110.27979Q51.534374 111.20167 50.909374 111.71729Q50.3 112.21729 49.346874 112.21729Q48.1125 112.21729 47.39375 111.32667Q46.55 110.26417 46.55 107.84229ZM47.628124 107.84229Q47.628124 109.95167 48.128124 110.65479Q48.628124 111.35792 49.346874 111.35792Q50.08125 111.35792 50.565624 110.65479Q51.065624 109.95167 51.065624 107.84229Q51.065624 105.71729 50.565624 105.02979Q50.08125 104.32667 49.33125 104.32667Q48.6125 104.32667 48.175 104.93604Q47.628124 105.71729 47.628124 107.84229ZM54.14375 112.07667L54.14375 110.87354L55.346874 110.87354L55.346874 112.07667L54.14375 112.07667ZM56.6125 104.60792L56.6125 103.59229L62.175 103.59229L62.175 104.42042Q61.3625 105.29542 60.55 106.74854Q59.753124 108.18604 59.315624 109.71729Q58.9875 110.79542 58.909374 112.07667L57.815624 112.07667Q57.83125 111.06104 58.20625 109.62354Q58.596874 108.18604 59.3 106.85792Q60.01875 105.52979 60.83125 104.60792L56.6125 104.60792ZM63.55 109.82667L64.65938 109.73292Q64.78438 110.54542 65.22188 110.95167Q65.675 111.35792 66.31563 111.35792Q67.06563 111.35792 67.59688 110.77979Q68.12813 110.20167 68.12813 109.26417Q68.12813 108.35792 67.6125 107.84229Q67.1125 107.31104 66.28438 107.31104Q65.78438 107.31104 65.3625 107.54542Q64.95625 107.77979 64.72188 108.13917L63.7375 108.01417L64.56563 103.60792L68.84688 103.60792L68.84688 104.60792L65.40938 104.60792L64.95625 106.92042Q65.72188 106.37354 66.56563 106.37354Q67.69063 106.37354 68.45625 107.15479Q69.2375 107.93604 69.2375 109.17042Q69.2375 110.32667 68.56563 111.18604Q67.7375 112.21729 66.31563 112.21729Q65.14375 112.21729 64.39375 111.56104Q63.659374 110.90479 63.55 109.82667Z" fill-rule="nonzero"/><path fill="#000000" d="M50.51875 80.246666L49.471874 80.246666L49.471874 73.527916Q49.08125 73.88729 48.45625 74.26229Q47.846874 74.621666 47.3625 74.79354L47.3625 73.777916Q48.2375 73.35604 48.89375 72.777916Q49.565624 72.184166 49.846874 71.621666L50.51875 71.621666L50.51875 80.246666ZM54.14375 80.246666L54.14375 79.04354L55.346874 79.04354L55.346874 80.246666L54.14375 80.246666ZM56.55 76.01229Q56.55 74.48104 56.8625 73.559166Q57.175 72.621666 57.784374 72.121666Q58.409374 71.621666 59.346874 71.621666Q60.034374 71.621666 60.55 71.902916Q61.08125 72.184166 61.425 72.715416Q61.76875 73.23104 61.95625 73.98104Q62.14375 74.73104 62.14375 76.01229Q62.14375 77.527916 61.83125 78.44979Q61.534374 79.371666 60.909374 79.88729Q60.3 80.38729 59.346874 80.38729Q58.1125 80.38729 57.39375 79.496666Q56.55 78.434166 56.55 76.01229ZM57.628124 76.01229Q57.628124 78.121666 58.128124 78.82479Q58.628124 79.527916 59.346874 79.527916Q60.08125 79.527916 60.565624 78.82479Q61.065624 78.121666 61.065624 76.01229Q61.065624 73.88729 60.565624 73.19979Q60.08125 72.496666 59.33125 72.496666Q58.6125 72.496666 58.175 73.10604Q57.628124 73.88729 57.628124 76.01229ZM63.55 76.01229Q63.55 74.48104 63.8625 73.559166Q64.175 72.621666 64.78438 72.121666Q65.40938 71.621666 66.34688 71.621666Q67.03438 71.621666 67.55 71.902916Q68.08125 72.184166 68.425 72.715416Q68.76875 73.23104 68.95625 73.98104Q69.14375 74.73104 69.14375 76.01229Q69.14375 77.527916 68.83125 78.44979Q68.53438 79.371666 67.90938 79.88729Q67.3 80.38729 66.34688 80.38729Q65.1125 80.38729 64.39375 79.496666Q63.55 78.434166 63.55 76.01229ZM64.62813 76.01229Q64.62813 78.121666 65.12813 78.82479Q65.62813 79.527916 66.34688 79.527916Q67.08125 79.527916 67.56563 78.82479Q68.06563 78.121666 68.06563 76.01229Q68.06563 73.88729 67.56563 73.19979Q67.08125 72.496666 66.33125 72.496666Q65.6125 72.496666 65.175 73.10604Q64.62813 73.88729 64.62813 76.01229Z" fill-rule="nonzero"/><path fill="#000000" d="M50.51875 48.416668L49.471874 48.416668L49.471874 41.697918Q49.08125 42.057293 48.45625 42.432293Q47.846874 42.791668 47.3625 42.963543L47.3625 41.947918Q48.2375 41.526043 48.89375 40.947918Q49.565624 40.354168 49.846874 39.791668L50.51875 39.791668L50.51875 48.416668ZM54.14375 48.416668L54.14375 47.213543L55.346874 47.213543L55.346874 48.416668L54.14375 48.416668ZM62.096874 47.401043L62.096874 48.416668L56.409374 48.416668Q56.409374 48.041668 56.534374 47.682293Q56.753124 47.104168 57.221874 46.541668Q57.70625 45.979168 58.6125 45.244793Q60.01875 44.088543 60.503124 43.416668Q61.003124 42.744793 61.003124 42.151043Q61.003124 41.526043 60.55 41.104168Q60.096874 40.666668 59.378124 40.666668Q58.6125 40.666668 58.159374 41.119793Q57.70625 41.572918 57.690624 42.385418L56.6125 42.276043Q56.721874 41.057293 57.440624 40.432293Q58.175 39.791668 59.409374 39.791668Q60.64375 39.791668 61.3625 40.479168Q62.08125 41.166668 62.08125 42.182293Q62.08125 42.697918 61.8625 43.197918Q61.659374 43.682293 61.159374 44.244793Q60.675 44.791668 59.55 45.744793Q58.596874 46.541668 58.315624 46.838543Q58.05 47.119793 57.878124 47.401043L62.096874 47.401043ZM63.55 46.166668L64.65938 46.072918Q64.78438 46.885418 65.22188 47.291668Q65.675 47.697918 66.31563 47.697918Q67.06563 47.697918 67.59688 47.119793Q68.12813 46.541668 68.12813 45.604168Q68.12813 44.697918 67.6125 44.182293Q67.1125 43.651043 66.28438 43.651043Q65.78438 43.651043 65.3625 43.885418Q64.95625 44.119793 64.72188 44.479168L63.7375 44.354168L64.56563 39.947918L68.84688 39.947918L68.84688 40.947918L65.40938 40.947918L64.95625 43.260418Q65.72188 42.713543 66.56563 42.713543Q67.69063 42.713543 68.45625 43.494793Q69.2375 44.276043 69.2375 45.510418Q69.2375 46.666668 68.56563 47.526043Q67.7375 48.557293 66.31563 48.557293Q65.14375 48.557293 64.39375 47.901043Q63.659374 47.244793 63.55 46.166668Z" fill-rule="nonzero"/><path fill="#000000" d="M91.82831 242.85593L85.75161 236.77922L87.85083 234.68Q88.55794 233.97289 89.02198 233.68562Q89.662796 233.28789 90.336754 233.23264Q91.23169 233.1553 92.10452 233.5641Q92.977356 233.95079 93.7839 234.75734Q94.47996 235.4534 94.84456 236.14946Q95.220215 236.83446 95.31965 237.44214Q95.41908 238.0498 95.3086 238.55803Q95.20916 239.05522 94.8998 239.58556Q94.5794 240.10483 94.02697 240.65726L91.82831 242.85593ZM91.916695 241.33122L93.20937 240.03854Q93.81705 239.43088 94.049065 238.97787Q94.28108 238.52489 94.270035 238.11609Q94.28108 237.55261 93.94963 236.9118Q93.62922 236.25993 92.944214 235.57494Q91.99403 234.62476 91.1654 234.43694Q90.336754 234.227 89.71804 234.49217Q89.265045 234.70209 88.55794 235.4092L87.276306 236.69083L91.916695 241.33122ZM99.69487 232.16093L100.556656 231.47592Q101.05384 232.32666 100.93231 233.1995Q100.810776 234.07233 100.04842 234.83467Q99.087204 235.7959 97.91605 235.7738Q96.75596 235.74066 95.68425 234.66895Q94.5794 233.5641 94.54625 232.3819Q94.50205 231.18866 95.408035 230.28268Q96.29192 229.39879 97.44097 229.443Q98.60107 229.47614 99.69487 230.56995Q99.76116 230.63623 99.893745 230.76881L96.61233 234.05023Q97.38573 234.73524 98.137024 234.75734Q98.87728 234.76839 99.4297 234.21596Q99.8385 233.80716 99.91584 233.30998Q99.99318 232.7907 99.69487 232.16093ZM96.04885 233.39836L98.501625 230.94559Q97.89396 230.42632 97.38573 230.38211Q96.59023 230.31583 96.02676 230.8793Q95.50748 231.39857 95.49642 232.09464Q95.49642 232.77965 96.04885 233.39836ZM105.90415 228.78008L105.35172 228.22765Q105.58375 229.29936 104.7772 230.1059Q104.24687 230.63623 103.51767 230.79091Q102.77741 230.93454 102.01507 230.65833Q101.252716 230.38211 100.57876 229.70816Q99.92689 229.05629 99.60648 228.29395Q99.28607 227.53159 99.451805 226.81343Q99.60648 226.08423 100.147865 225.54285Q100.54561 225.14511 101.0207 225.00148Q101.49578 224.85785 101.95982 224.92413L99.78326 222.74757L100.52351 222.00732L106.60021 228.08401L105.90415 228.78008ZM101.35215 228.93475Q102.20289 229.78549 102.97629 229.85179Q103.73864 229.90703 104.22478 229.4209Q104.71091 228.93475 104.65567 228.1945Q104.600426 227.45425 103.78283 226.63666Q102.876854 225.73068 102.103455 225.66438Q101.3411 225.58705 100.83287 226.09528Q100.335686 226.59247 100.413025 227.33272Q100.47932 228.06192 101.35215 228.93475ZM110.88705 223.79718L110.23518 223.14532Q110.4672 224.4159 109.58332 225.29979Q109.19662 225.68648 108.71048 225.88536Q108.22435 226.06213 107.83765 226.0069Q107.4399 225.9406 107.04215 225.67543Q106.78804 225.5097 106.3019 225.02357L103.58396 222.30563L104.33526 221.55432L106.776985 223.99606Q107.35151 224.57059 107.60563 224.73631Q107.95918 224.95728 108.356926 224.91309Q108.75468 224.84679 109.09718 224.50429Q109.428635 224.17284 109.55017 223.71985Q109.67171 223.24475 109.49493 222.8249Q109.3292 222.39401 108.765724 221.83054L106.412384 219.4772L107.15264 218.73695L111.54996 223.13428L110.88705 223.79718ZM114.64355 223.42154L108.5558 217.33379L109.22977 216.65982L109.79324 217.2233Q109.70485 216.64877 109.83743 216.18474Q109.981064 215.70966 110.41196 215.27876Q110.97544 214.71527 111.693596 214.57164Q112.41175 214.42801 113.152 214.74841Q113.903305 215.05779 114.53307 215.68755Q115.20703 216.36151 115.50534 217.14595Q115.814705 217.91936 115.637924 218.67065Q115.46115 219.42195 114.95291 219.93019Q114.57726 220.30585 114.12427 220.44948Q113.66023 220.58206 113.24039 220.53786L115.383804 222.68127L114.64355 223.42154ZM111.45052 218.88058Q112.30126 219.73132 113.05256 219.7976Q113.792816 219.85286 114.278946 219.36671Q114.77614 218.86952 114.70985 218.09613Q114.643555 217.32272 113.759674 216.43884Q112.91998 215.59915 112.168686 215.53287Q111.406334 215.45552 110.92019 215.94167Q110.44511 216.41675 110.522446 217.2233Q110.599785 218.02985 111.45052 218.88058Z" fill-rule="nonzero"/><path fill="#000000" d="M125.11167 255.30763L125.796684 254.49004Q126.31596 254.89883 126.8021 254.98723Q127.28824 255.0756 127.88486 254.85464Q128.48148 254.61157 129.00075 254.0923Q129.45375 253.63931 129.67471 253.15317Q129.88464 252.65599 129.81834 252.25824Q129.75206 251.8384 129.47585 251.56218Q129.18858 251.27492 128.81293 251.23073Q128.42622 251.17548 127.90695 251.4075Q127.5534 251.56218 126.51484 252.20299Q125.48732 252.83276 124.97909 252.98744Q124.30513 253.19736 123.76375 253.07582Q123.21132 252.94324 122.79148 252.52339Q122.338486 252.0704 122.194855 251.41855Q122.05122 250.74458 122.34953 250.04852Q122.64785 249.33037 123.255516 248.7227Q123.929474 248.04874 124.66972 247.75043Q125.398926 247.44107 126.10603 247.59575Q126.80209 247.73938 127.35452 248.24762L126.63637 249.07626Q125.99555 248.56802 125.34369 248.64537Q124.691826 248.7006 123.995766 249.39665Q123.26656 250.12587 123.20027 250.72249Q123.13398 251.3191 123.509636 251.69476Q123.84109 252.02621 124.28303 252.00412Q124.724976 251.98203 125.91821 251.23071Q127.122505 250.46837 127.65283 250.2695Q128.43727 249.99329 129.06705 250.11482Q129.68576 250.22531 130.18295 250.72249Q130.66908 251.20863 130.82376 251.91573Q130.96739 252.61179 130.69118 253.37415Q130.40392 254.12544 129.75206 254.77731Q128.92342 255.60594 128.12793 255.9374Q127.33243 256.24677 126.52589 256.08102Q125.73039 255.90425 125.11167 255.30763ZM133.70743 250.62305L127.96219 247.57365L128.7356 246.80026L131.97281 248.64537L133.17711 249.31932Q133.1329 249.23094 132.50314 248.18132L130.6249 244.91095L131.38724 244.1486L134.60237 246.0379L135.66302 246.65663L135.0664 245.55177L133.27654 242.25931L134.00574 241.5301L137.022 247.30849L136.2486 248.0819L132.91194 246.13734L131.9949 245.57387L134.49188 249.83861L133.70743 250.62305ZM141.5961 241.65164Q141.5298 242.42503 141.28673 242.95537Q141.05472 243.47464 140.61278 243.91658Q139.88358 244.6458 139.14331 244.67894Q138.40306 244.71208 137.85063 244.15965Q137.53023 243.83925 137.40869 243.43045Q137.27611 243.0106 137.3645 242.61285Q137.44185 242.20406 137.66281 241.82841Q137.80644 241.5522 138.2042 241.04396Q138.99968 240.04959 139.2759 239.46402Q139.12122 239.30934 139.08807 239.2762Q138.62404 238.81216 138.22629 238.83426Q137.69595 238.87845 137.13248 239.44193Q136.6132 239.96121 136.5469 240.40315Q136.46957 240.83405 136.81207 241.41962L135.98343 242.04938Q135.61884 241.4859 135.56358 240.96663Q135.50835 240.44734 135.78456 239.86177Q136.06078 239.2762 136.62425 238.71272Q137.18773 238.14925 137.67386 237.92828Q138.16 237.7073 138.5246 237.74045Q138.8892 237.77359 139.26485 238.01666Q139.48582 238.17134 139.983 238.66853L140.97737 239.6629Q142.01595 240.70146 142.33635 240.93349Q142.6678 241.15445 143.06555 241.26494L142.2811 242.04938Q141.9386 241.92786 141.5961 241.65164ZM139.86147 240.04959Q139.61841 240.62411 138.9334 241.5522Q138.53564 242.08253 138.4362 242.35875Q138.32573 242.6239 138.36992 242.88907Q138.42516 243.14319 138.62404 243.34206Q138.92235 243.64038 139.3422 243.61827Q139.77309 243.58513 140.20398 243.15424Q140.63487 242.72334 140.7785 242.20406Q140.93318 241.67374 140.75641 241.18759Q140.62383 240.81195 140.13768 240.3258L139.86147 240.04959ZM145.90503 241.80632L139.81728 235.71857L140.49124 235.0446L141.05472 235.60808Q140.96632 235.03355 141.0989 234.56952Q141.24254 234.09444 141.67343 233.66354Q142.23691 233.10007 142.95506 232.95644Q143.67322 232.8128 144.41347 233.13321Q145.16478 233.44257 145.79454 234.07234Q146.4685 234.74629 146.76682 235.53075Q147.07617 236.30414 146.8994 237.05544Q146.72261 237.80675 146.21439 238.31497Q145.83873 238.69063 145.38574 238.83426Q144.9217 238.96684 144.50186 238.92265L146.64528 241.06607L145.90503 241.80632ZM142.71199 237.26537Q143.56273 238.1161 144.31404 238.18239Q145.05429 238.23764 145.54042 237.7515Q146.03761 237.25432 145.97131 236.48091Q145.90503 235.70752 145.02115 234.82364Q144.18146 233.98395 143.43015 233.91765Q142.6678 233.84032 142.18167 234.32645Q141.70657 234.80154 141.78392 235.60808Q141.86125 236.41463 142.71199 237.26537ZM150.12556 232.87909L150.88792 233.42047Q150.6338 233.80717 150.39073 234.05023Q149.98193 234.45903 149.63943 234.55847Q149.28587 234.64687 148.97652 234.53638Q148.6782 234.41484 148.00424 233.74088L145.47414 231.21077L144.93275 231.75214L144.35823 231.17761L144.89961 230.63625L143.8058 229.54243L144.10411 228.36024L145.63986 229.89598L146.39116 229.14468L146.96568 229.71921L146.21439 230.4705L148.7887 233.04482Q149.1091 233.36523 149.23064 233.42047Q149.36322 233.46466 149.50685 233.43152Q149.65048 233.39838 149.81621 233.23265Q149.94879 233.10007 150.12556 232.87909ZM146.07076 227.82991L145.20897 226.96812L145.96027 226.21683L146.82205 227.07861L146.07076 227.82991ZM151.28566 233.04482L146.88835 228.6475L147.63965 227.8962L152.03697 232.29352L151.28566 233.04482ZM150.93211 229.00105Q149.70572 227.77466 149.79411 226.51514Q149.87146 225.46552 150.68904 224.64793Q151.59503 223.74194 152.76617 223.76404Q153.93732 223.76404 154.98692 224.81366Q155.83766 225.6644 156.06969 226.40465Q156.30171 227.1449 156.08073 227.91829Q155.85976 228.6696 155.28523 229.24413Q154.36821 230.16115 153.20811 230.1501Q152.04802 230.11696 150.93211 229.00105ZM151.69446 228.23871Q152.53415 229.0784 153.3186 229.13364Q154.11409 229.17783 154.66652 228.6254Q155.23 228.06192 155.17476 227.27748Q155.1195 226.49304 154.25772 225.63124Q153.44012 224.81366 152.64464 224.76945Q151.86018 224.71422 151.30777 225.26665Q150.75534 225.81908 150.79953 226.61456Q150.84372 227.38797 151.69446 228.23871ZM158.35674 225.97375L153.95941 221.57643L154.62233 220.91351L155.24104 221.53224Q155.00902 220.32794 155.92606 219.41092Q156.3238 219.01317 156.79889 218.82535Q157.28502 218.62646 157.68277 218.69276Q158.08052 218.75905 158.45618 219.00212Q158.69923 219.1789 159.21852 219.69818L161.92542 222.40508L161.18517 223.14532L158.51141 220.47157Q158.04738 220.00754 157.73802 219.87495Q157.42865 219.74237 157.0751 219.83076Q156.7105 219.9081 156.41219 220.20642Q155.9371 220.6815 155.89291 221.3444Q155.84871 221.98523 156.6884 222.82492L159.09698 225.2335L158.35674 225.97375ZM161.69339 220.00754L162.31212 219.16785Q162.82034 219.5435 163.32858 219.49931Q163.84785 219.44406 164.36714 218.92479Q164.87538 218.41655 164.91957 217.97461Q164.96376 217.51057 164.6765 217.22331Q164.42238 216.9692 164.05779 217.04652Q163.80367 217.10178 163.04132 217.55476Q162.01381 218.16243 161.54976 218.3392Q161.08572 218.4939 160.65483 218.39445Q160.22394 218.29501 159.89249 217.96356Q159.60522 217.6763 159.48369 217.2896Q159.36215 216.9029 159.42844 216.50516Q159.48369 216.20685 159.6936 215.82014Q159.90353 215.43344 160.25708 215.0799Q160.76532 214.57166 161.3067 214.33963Q161.84807 214.08553 162.29001 214.15181Q162.73196 214.21811 163.2181 214.57166L162.58833 215.4003Q162.21268 215.11304 161.78178 215.16827Q161.35089 215.20142 160.90895 215.64337Q160.40071 216.1516 160.35652 216.54935Q160.30128 216.93605 160.5333 217.16806Q160.67693 217.31169 160.87581 217.33379Q161.09677 217.3559 161.36194 217.2454Q161.51662 217.17911 162.21268 216.77031Q163.22914 216.19579 163.67108 216.01901Q164.11302 215.84224 164.54391 215.91957Q164.97481 215.99692 165.36151 216.38362Q165.73717 216.75926 165.84764 217.31169Q165.95813 217.84203 165.73717 218.43864Q165.50514 219.02422 164.98586 219.5435Q164.12407 220.40529 163.31754 220.50473Q162.51099 220.58206 161.69339 220.00754Z" fill-rule="nonzero"/><path fill="#000000" d="M180.55843 253.41832L174.48172 247.34163L178.58073 243.24261L179.29889 243.96077L176.00642 247.25323L177.88467 249.13148L180.7352 246.28096L181.45335 246.99911L178.60283 249.84964L181.36496 252.61179L180.55843 253.41832ZM185.36453 248.61221L180.96721 244.21489L181.64117 243.54092L182.3041 244.20384Q182.09416 243.48569 182.16046 243.13213Q182.22675 242.75648 182.49191 242.49132Q182.86757 242.11566 183.48628 241.96098L183.92822 242.91116Q183.48628 243.02165 183.22112 243.28682Q182.967 243.54092 182.9228 243.89449Q182.87862 244.22594 183.06644 244.56844Q183.3316 245.09877 183.79564 245.5628L186.10478 247.87196L185.36453 248.61221ZM189.795 241.35332L190.65678 240.6683Q191.15398 241.51904 191.03244 242.39188Q190.9109 243.26471 190.14856 244.02707Q189.18733 244.98828 188.01619 244.96619Q186.8561 244.93304 185.78438 243.86134Q184.67952 242.75648 184.64638 241.5743Q184.60219 240.38104 185.50816 239.47507Q186.39204 238.59119 187.54109 238.63538Q188.7012 238.66852 189.795 239.76233Q189.8613 239.82861 189.99388 239.9612L186.71246 243.24261Q187.48586 243.92763 188.23715 243.94972Q188.9774 243.96077 189.52983 243.40834Q189.93863 242.99954 190.01598 242.50237Q190.0933 241.98308 189.795 241.35332ZM186.14899 242.59076L188.60176 240.13797Q187.9941 239.6187 187.48586 239.57451Q186.69035 239.50821 186.12689 240.07169Q185.6076 240.59097 185.59656 241.28703Q185.59656 241.97203 186.14899 242.59076ZM197.65051 239.70708L195.49605 237.55261Q195.56235 237.97246 195.40767 238.4586Q195.25298 238.92264 194.89943 239.27618Q194.11497 240.06064 192.93279 240.0054Q191.73955 239.9391 190.64574 238.84529Q189.98283 238.18239 189.69557 237.43109Q189.39725 236.66873 189.56299 235.97267Q189.72871 235.25452 190.24799 234.73524Q191.06558 233.91765 192.21463 234.13861L191.62906 233.55304L192.30302 232.87909L198.39076 238.96683L197.65051 239.70708ZM191.44124 238.11609Q192.29198 238.96683 193.06537 239.03313Q193.84982 239.08836 194.347 238.59119Q194.82208 238.11609 194.76685 237.37584Q194.70056 236.62454 193.88297 235.80695Q192.99908 234.92307 192.19254 234.84572Q191.39703 234.75734 190.89986 235.25452Q190.42477 235.72961 190.5021 236.49196Q190.5684 237.24326 191.44124 238.11609ZM198.1035 235.87325L193.70619 231.47592L194.3691 230.813L194.98782 231.43173Q194.86629 230.89035 195.02097 230.36002Q195.1646 229.81863 195.60654 229.3767Q196.09267 228.89056 196.6009 228.78008Q197.12018 228.65854 197.60632 228.90161Q197.3743 227.60893 198.20294 226.78029Q198.86586 226.11737 199.57297 226.13947Q200.28008 226.13947 201.04242 226.90182L204.05867 229.91808L203.31842 230.65833L200.54523 227.88515Q200.10329 227.4432 199.82707 227.32167Q199.56192 227.18909 199.25255 227.25537Q198.94319 227.32167 198.67802 227.58684Q198.21399 228.05087 198.21399 228.66959Q198.22504 229.27725 198.91005 229.96227L201.46227 232.51448L200.71097 233.26578L197.8494 230.4042Q197.3522 229.90703 196.92131 229.85178Q196.49042 229.77444 196.08162 230.18324Q195.76122 230.50365 195.66177 230.93454Q195.56235 231.36543 195.76122 231.80737Q195.96008 232.24931 196.55672 232.84593L198.84377 235.13298L198.1035 235.87325ZM199.95966 223.58727L199.09787 222.72548L199.84918 221.97417L200.71097 222.83595L199.95966 223.58727ZM205.17458 228.80217L200.77725 224.40485L201.52855 223.65355L205.92587 228.05087L205.17458 228.80217ZM207.2959 226.68085L202.89857 222.28352L203.5615 221.62062L204.1802 222.23933Q203.94818 221.03505 204.86522 220.11801Q205.26297 219.72028 205.73805 219.53244Q206.22418 219.33357 206.62193 219.39986Q207.01968 219.46616 207.39532 219.70921Q207.6384 219.886 208.15768 220.40527L210.86458 223.11217L210.12433 223.85242L207.45058 221.17868Q206.98654 220.71463 206.67717 220.58206Q206.36781 220.44948 206.01427 220.53786Q205.64966 220.6152 205.35135 220.91351Q204.87627 221.3886 204.83206 222.05151Q204.78787 222.69232 205.62756 223.53201L208.03615 225.9406L207.2959 226.68085ZM213.83664 217.31169L214.69843 216.62668Q215.1956 217.47742 215.07407 218.35025Q214.95253 219.22308 214.19019 219.98543Q213.22896 220.94666 212.05782 220.92456Q210.89772 220.89142 209.826 219.8197Q208.72116 218.71484 208.688 217.53265Q208.64381 216.33942 209.5498 215.43344Q210.43369 214.54955 211.58273 214.59375Q212.74283 214.62689 213.83664 215.7207Q213.90292 215.78699 214.0355 215.91957L210.75409 219.20099Q211.52748 219.886 212.2788 219.9081Q213.01904 219.91914 213.57147 219.36671Q213.98027 218.95792 214.0576 218.46074Q214.13495 217.94145 213.83664 217.31169ZM210.19061 218.54912L212.64339 216.09634Q212.03572 215.57707 211.52748 215.53287Q210.732 215.46658 210.16852 216.03006Q209.64923 216.54933 209.63818 217.24539Q209.63818 217.9304 210.19061 218.54912Z" fill-rule="nonzero"/><path fill="#000000" d="M214.5047 265.20712L215.18971 264.38953Q215.70898 264.79834 216.19513 264.88672Q216.68126 264.9751 217.27788 264.75412Q217.8745 264.51108 218.39378 263.9918Q218.84677 263.5388 219.06775 263.05267Q219.27766 262.55548 219.21138 262.1577Q219.14508 261.73788 218.86887 261.46167Q218.5816 261.1744 218.20596 261.13022Q217.81926 261.07498 217.29997 261.30698Q216.94643 261.46167 215.90787 262.10248Q214.88034 262.73224 214.37212 262.88693Q213.69815 263.09686 213.15677 262.9753Q212.60434 262.84274 212.1845 262.42288Q211.7315 261.9699 211.58788 261.31802Q211.44424 260.64407 211.74255 259.94803Q212.04086 259.22986 212.64854 258.6222Q213.3225 257.94824 214.06276 257.64993Q214.79196 257.34058 215.49907 257.49524Q216.19513 257.6389 216.74754 258.1471L216.02939 258.97574Q215.38858 258.4675 214.73671 258.54486Q214.08485 258.6001 213.3888 259.29614Q212.65959 260.02536 212.59329 260.62198Q212.52701 261.2186 212.90265 261.59424Q213.23412 261.92572 213.67606 261.9036Q214.118 261.8815 215.31123 261.13022Q216.51553 260.36786 217.04587 260.16898Q217.8303 259.89276 218.46007 260.0143Q219.0788 260.1248 219.57597 260.62198Q220.06212 261.10812 220.2168 261.81522Q220.36043 262.5113 220.08421 263.27362Q219.79695 264.02493 219.14508 264.6768Q218.31644 265.50543 217.52095 265.83688Q216.72545 266.14624 215.91891 265.98053Q215.12341 265.80374 214.5047 265.20712ZM223.25514 259.04202L224.01749 259.5834Q223.76338 259.97012 223.52031 260.2132Q223.11151 260.62198 222.76901 260.7214Q222.41545 260.8098 222.1061 260.6993Q221.80779 260.5778 221.13382 259.9038L218.6037 257.37372L218.06233 257.9151L217.48781 257.34058L218.02917 256.7992L216.93538 255.70538L217.23369 254.52318L218.76944 256.05893L219.52074 255.30763L220.09526 255.88216L219.34396 256.63345L221.91827 259.20776Q222.23868 259.52817 222.36021 259.5834Q222.4928 259.62762 222.63643 259.59445Q222.78006 259.5613 222.94579 259.3956Q223.07837 259.263 223.25514 259.04202ZM224.40419 259.2188L220.00687 254.82149L220.68083 254.14754L221.34375 254.81044Q221.13382 254.09229 221.20012 253.73874Q221.2664 253.36308 221.53157 253.09792Q221.90723 252.72227 222.52594 252.5676L222.96788 253.51776Q222.52594 253.62825 222.26077 253.89342Q222.00665 254.14754 221.96246 254.50108Q221.91827 254.83253 222.1061 255.17505Q222.37126 255.70538 222.8353 256.1694L225.14444 258.47855L224.40419 259.2188ZM228.83466 251.95992L229.69644 251.27492Q230.19363 252.12566 230.0721 252.99849Q229.95056 253.87132 229.18822 254.63367Q228.22699 255.5949 227.05585 255.5728Q225.89574 255.53964 224.82404 254.46794Q223.71918 253.36308 223.68604 252.1809Q223.64185 250.98766 224.54782 250.08167Q225.4317 249.19778 226.58075 249.24197Q227.74084 249.27513 228.83466 250.36893Q228.90094 250.43523 229.03352 250.56781L225.7521 253.84923Q226.52551 254.53423 227.27681 254.55634Q228.01706 254.56738 228.56949 254.01495Q228.97829 253.60616 229.05563 253.10896Q229.13297 252.58969 228.83466 251.95992ZM225.18864 253.19736L227.64142 250.74458Q227.03374 250.2253 226.52551 250.1811Q225.73001 250.1148 225.16653 250.67828Q224.64726 251.19757 224.63622 251.89363Q224.63622 252.57864 225.18864 253.19736ZM234.52466 248.0156Q234.45836 248.78899 234.2153 249.31932Q233.98328 249.83861 233.54134 250.28055Q232.81213 251.00975 232.07188 251.0429Q231.33163 251.07603 230.7792 250.5236Q230.45879 250.2032 230.33727 249.7944Q230.20468 249.37456 230.29306 248.9768Q230.3704 248.56802 230.59137 248.19237Q230.735 247.91615 231.13275 247.40791Q231.92825 246.41356 232.20447 245.82797Q232.04979 245.6733 232.01663 245.64015Q231.5526 245.17612 231.15485 245.19821Q230.62453 245.2424 230.06105 245.80588Q229.54176 246.32516 229.47548 246.7671Q229.39813 247.198 229.74063 247.78357L228.912 248.41335Q228.5474 247.84987 228.49216 247.33058Q228.4369 246.8113 228.71312 246.22572Q228.98933 245.64015 229.55281 245.07668Q230.11629 244.5132 230.60242 244.29224Q231.08856 244.07126 231.45316 244.1044Q231.81776 244.13756 232.19342 244.38062Q232.41438 244.5353 232.91158 245.03249L233.90594 246.02686Q234.9445 247.06541 235.26491 247.29744Q235.59636 247.5184 235.99411 247.62889L235.20967 248.41335Q234.86716 248.29181 234.52466 248.0156ZM232.79004 246.41356Q232.54697 246.98808 231.86195 247.91615Q231.4642 248.44649 231.36478 248.7227Q231.25429 248.98787 231.29848 249.25302Q231.35373 249.50714 231.5526 249.70602Q231.8509 250.00433 232.27075 249.98224Q232.70164 249.94908 233.13254 249.51819Q233.56343 249.0873 233.70706 248.56802Q233.86174 248.03769 233.68497 247.55156Q233.55238 247.1759 233.06625 246.68976L232.79004 246.41356ZM237.14316 246.47984L232.74583 242.08252L233.40875 241.41962L234.02747 242.03833Q233.90594 241.49695 234.06062 240.96661Q234.20425 240.42525 234.6462 239.9833Q235.13232 239.49716 235.64056 239.38667Q236.15984 239.26514 236.64598 239.50821Q236.41396 238.21553 237.2426 237.38689Q237.90552 236.72398 238.61261 236.74608Q239.31972 236.74608 240.08208 237.50842L243.09833 240.52467L242.35808 241.26492L239.58488 238.49174Q239.14294 238.0498 238.86673 237.92827Q238.60156 237.79568 238.2922 237.86198Q237.98285 237.92827 237.71768 238.19344Q237.25365 238.65747 237.25365 239.2762Q237.2647 239.88387 237.9497 240.56888L240.50192 243.12108L239.75061 243.87239L236.88904 241.01082Q236.39186 240.51363 235.96097 240.45839Q235.53008 240.38104 235.12128 240.78984Q234.80087 241.11024 234.70143 241.54114Q234.60199 241.97203 234.80087 242.41399Q234.99974 242.85593 235.59636 243.45255L237.8834 245.7396L237.14316 246.47984ZM245.47377 234.92307L246.3024 234.2933Q246.93217 235.16614 246.86588 236.09421Q246.79959 237.0223 246.08144 237.74045Q245.17545 238.64642 244.03745 238.61328Q242.89944 238.55804 241.7946 237.45319Q241.0875 236.74608 240.78918 235.98373Q240.49088 235.19928 240.70079 234.45903Q240.92177 233.70773 241.49629 233.13321Q242.2034 232.4261 243.02098 232.3377Q243.83858 232.22722 244.64513 232.7686L244.0264 233.60829Q243.48503 233.26578 242.99889 233.30998Q242.50171 233.34312 242.12605 233.71878Q241.56258 234.28226 241.61783 235.0446Q241.66202 235.7959 242.53485 236.66873Q243.42978 237.56367 244.17003 237.61891Q244.9103 237.67415 245.45166 237.13278Q245.8936 236.69083 245.91571 236.13841Q245.94885 235.57494 245.47377 234.92307ZM248.43477 235.18823L242.35808 229.11153L243.10936 228.36024L249.18607 234.43694L248.43477 235.18823ZM253.46185 230.16115L252.80998 229.5093Q253.042 230.77988 252.15813 231.66376Q251.77142 232.05046 251.28528 232.24933Q250.79915 232.4261 250.41245 232.37086Q250.01471 232.30457 249.61696 232.03941Q249.36284 231.87367 248.87671 231.38754L246.15877 228.6696L246.91006 227.9183L249.35179 230.36003Q249.92632 230.93456 250.18044 231.10028Q250.53398 231.32126 250.93173 231.27705Q251.32948 231.21077 251.67198 230.86826Q252.00345 230.5368 252.12497 230.08382Q252.2465 229.60873 252.06973 229.18889Q251.904 228.758 251.34053 228.19452L248.98718 225.84117L249.72745 225.10092L254.12476 229.49825L253.46185 230.16115ZM253.91484 227.07861L254.53355 226.23892Q255.0418 226.61458 255.55002 226.57037Q256.0693 226.51514 256.5886 225.99585Q257.09683 225.48763 257.14102 225.04568Q257.1852 224.58163 256.89795 224.29437Q256.64383 224.04027 256.27924 224.1176Q256.02512 224.17285 255.26276 224.62584Q254.23524 225.2335 253.77121 225.41028Q253.30717 225.56496 252.87628 225.46553Q252.44539 225.36609 252.11392 225.03464Q251.82666 224.74738 251.70512 224.36067Q251.5836 223.97397 251.64989 223.57622Q251.70512 223.27791 251.91505 222.89122Q252.12497 222.50452 252.47853 222.15096Q252.98676 221.64273 253.52814 221.4107Q254.06952 221.15659 254.51146 221.22289Q254.9534 221.28917 255.43954 221.64273L254.80977 222.47137Q254.43413 222.18411 254.00323 222.23935Q253.57233 222.27249 253.13039 222.71443Q252.62216 223.22267 252.57797 223.62042Q252.52272 224.00711 252.75475 224.23914Q252.89838 224.38277 253.09724 224.40486Q253.31822 224.42696 253.58339 224.31648Q253.73807 224.25018 254.43413 223.84138Q255.45059 223.26686 255.89253 223.09009Q256.33447 222.91331 256.76535 222.99065Q257.19626 223.068 257.58295 223.4547Q257.95862 223.83034 258.0691 224.38277Q258.17957 224.9131 257.95862 225.50972Q257.7266 226.09529 257.2073 226.61458Q256.34552 227.47636 255.53897 227.57579Q254.73244 227.65314 253.91484 227.07861ZM260.73178 221.56538L261.49414 222.10677Q261.24002 222.49347 260.99695 222.73653Q260.58817 223.14532 260.24567 223.24477Q259.8921 223.33316 259.58273 223.22267Q259.28442 223.10114 258.61047 222.42717L256.08035 219.89706L255.53897 220.43843L254.96445 219.8639L255.50583 219.32254L254.41202 218.22873L254.71033 217.04654L256.2461 218.58228L256.99738 217.83098L257.5719 218.4055L256.82062 219.1568L259.39493 221.73111Q259.71533 222.05153 259.83685 222.10677Q259.96945 222.15096 260.11307 222.11781Q260.2567 222.08467 260.42242 221.91895Q260.55502 221.78636 260.73178 221.56538ZM263.48288 217.3117L264.34467 216.6267Q264.84186 217.47743 264.7203 218.35027Q264.5988 219.2231 263.83643 219.98544Q262.8752 220.94667 261.70407 220.92458Q260.54398 220.89143 259.47226 219.81972Q258.3674 218.71486 258.33426 217.53267Q258.29007 216.33943 259.19604 215.43344Q260.07993 214.54956 261.22897 214.59375Q262.38907 214.6269 263.48288 215.7207Q263.54916 215.787 263.68176 215.91959L260.40033 219.201Q261.17374 219.88602 261.92502 219.90811Q262.66528 219.91916 263.2177 219.36673Q263.6265 218.95793 263.70386 218.46075Q263.7812 217.94147 263.48288 217.3117ZM259.83685 218.54913L262.28964 216.09636Q261.68198 215.57707 261.17374 215.53288Q260.37823 215.4666 259.81476 216.03008Q259.29547 216.54935 259.28442 217.2454Q259.28442 217.93042 259.83685 218.54913Z" fill-rule="nonzero"/><path fill="#000000" d="M296.89883 236.37042L296.21384 232.48134L292.62305 231.85158L293.55112 230.9235L295.2526 231.27705Q295.73874 231.38753 296.05914 231.46487Q295.95972 231.01189 295.90448 230.64728L295.60614 228.86847L296.5011 227.97354L297.04248 231.56432L301.00888 232.26038L300.1029 233.16635L297.8269 232.70232L297.21924 232.58078L297.79376 235.4755L296.89883 236.37042ZM304.6328 227.20013L305.35098 227.91829L301.3293 231.93996Q301.06415 231.67479 300.8984 231.33229Q300.6443 230.76881 300.578 230.03961Q300.52277 229.29936 300.6443 228.13927Q300.82108 226.3273 300.68848 225.5097Q300.56696 224.68108 300.1471 224.26123Q299.70517 223.81929 299.08646 223.84138Q298.45667 223.85243 297.94846 224.36066Q297.40707 224.90204 297.40707 225.54286Q297.40707 226.18367 297.97055 226.76924L297.13086 227.45425Q296.3464 226.51512 296.4127 225.56496Q296.479 224.59268 297.35184 223.71985Q298.22467 222.84702 299.21902 222.82492Q300.2134 222.80281 300.93155 223.52097Q301.29614 223.88557 301.49503 224.39381Q301.6939 224.87994 301.7381 225.63124Q301.7823 226.36044 301.66077 227.82991Q301.55026 229.06734 301.5613 229.47614Q301.57236 229.86284 301.64972 230.18324L304.6328 227.20013ZM305.66034 218.43864L304.9753 219.23413Q304.43393 218.89163 304.0583 218.86954Q303.42853 218.85849 302.98657 219.30043Q302.63303 219.65398 302.5557 220.12907Q302.47836 220.73674 302.76562 221.44385Q303.0529 222.12886 303.9478 223.04588Q303.80417 222.37192 303.992 221.78635Q304.1909 221.18973 304.62177 220.75883Q305.36203 220.01859 306.43372 220.05173Q307.51648 220.07382 308.37827 220.93561Q308.9528 221.51013 309.19586 222.26144Q309.43893 222.99065 309.2732 223.6867Q309.09644 224.3717 308.55505 224.91309Q307.61594 225.85222 306.34534 225.75278Q305.07477 225.65334 303.50586 224.08444Q301.7381 222.31668 301.59445 220.86932Q301.46188 219.60979 302.4231 218.64856Q303.14127 217.9304 304.00305 217.88622Q304.86484 217.81993 305.66034 218.43864ZM305.24048 224.09549Q305.6272 224.4822 306.1354 224.68108Q306.64365 224.85785 307.11874 224.7584Q307.60486 224.64792 307.93634 224.31647Q308.40036 223.85243 308.36722 223.13428Q308.32303 222.40508 307.67117 221.7532Q307.0414 221.12344 306.3343 221.10133Q305.63824 221.06819 305.13 221.57643Q304.62177 222.08466 304.6328 222.80281Q304.6549 223.50992 305.24048 224.09549ZM313.71472 219.55455L312.25632 218.09613L309.62677 220.7257L308.94174 220.04068L307.78165 213.33421L308.3893 212.72655L312.3226 216.65982L313.1402 215.84224L313.8252 216.52724L313.0076 217.34483L314.466 218.80324L313.71472 219.55455ZM311.5713 217.41113L308.84232 214.68214L309.67096 219.31148L311.5713 217.41113Z" fill-rule="nonzero"/><path fill="#000000" d="M316.06216 266.85336L309.98547 260.77664L314.08447 256.67764L314.80264 257.39578L311.51016 260.68826L313.38843 262.56653L316.23895 259.716L316.9571 260.43414L314.10657 263.28467L316.8687 266.0468L316.06216 266.85336ZM320.85724 262.0583L314.78055 255.98158L315.53183 255.23029L321.60855 261.30698L320.85724 262.0583ZM325.88434 257.0312L325.23245 256.37933Q325.46448 257.6499 324.5806 258.53378Q324.1939 258.9205 323.70776 259.1194Q323.22162 259.29614 322.83493 259.2409Q322.4372 259.17462 322.03943 258.90945Q321.7853 258.7437 321.2992 258.2576L318.58124 255.53964L319.33255 254.78835L321.77426 257.23007Q322.3488 257.8046 322.6029 257.97034Q322.95645 258.19128 323.35422 258.1471Q323.75195 258.0808 324.09445 257.7383Q324.4259 257.40686 324.54745 256.95386Q324.66898 256.47876 324.49222 256.05893Q324.32648 255.62804 323.763 255.06456L321.40967 252.71121L322.14993 251.97096L326.54724 256.3683L325.88434 257.0312ZM322.7355 249.7502L321.87372 248.88841L322.625 248.13712L323.4868 248.9989L322.7355 249.7502ZM327.9504 254.96512L323.55307 250.5678L324.30438 249.8165L328.7017 254.21382L327.9504 254.96512ZM332.92224 249.99327L332.3698 249.44084Q332.60184 250.51256 331.7953 251.31909Q331.26495 251.84943 330.53577 252.0041Q329.7955 252.14774 329.03317 251.87152Q328.2708 251.5953 327.59686 250.92136Q326.94498 250.26949 326.62457 249.50714Q326.30417 248.74478 326.4699 248.02663Q326.62457 247.29742 327.16595 246.75606Q327.5637 246.3583 328.0388 246.21468Q328.5139 246.07104 328.9779 246.13733L326.80136 243.96077L327.5416 243.22052L333.61832 249.29721L332.92224 249.99327ZM328.37024 250.14795Q329.22098 250.99869 329.9944 251.06499Q330.75674 251.12022 331.24286 250.6341Q331.729 250.14795 331.67377 249.4077Q331.61853 248.66745 330.80093 247.84985Q329.89496 246.94388 329.12155 246.87758Q328.3592 246.80025 327.85095 247.30847Q327.3538 247.80566 327.43112 248.54591Q327.4974 249.27512 328.37024 250.14795ZM337.35272 244.48006Q337.2864 245.25345 337.04337 245.78378Q336.81134 246.30305 336.3694 246.745Q335.6402 247.47421 334.89993 247.50735Q334.1597 247.5405 333.60727 246.98807Q333.28683 246.66766 333.1653 246.25887Q333.03275 245.83902 333.12112 245.44127Q333.19846 245.03247 333.41943 244.65683Q333.56305 244.38062 333.96082 243.87238Q334.75632 242.878 335.03253 242.29243Q334.87784 242.13776 334.8447 242.10461Q334.38065 241.64058 333.9829 241.66267Q333.45258 241.70686 332.8891 242.27034Q332.3698 242.78963 332.30353 243.23157Q332.2262 243.66246 332.5687 244.24803L331.74005 244.87779Q331.37546 244.31432 331.32022 243.79504Q331.26495 243.27576 331.54117 242.69019Q331.81738 242.10461 332.38086 241.54114Q332.94434 240.97766 333.43048 240.7567Q333.91663 240.53572 334.28122 240.56886Q334.6458 240.602 335.02148 240.84508Q335.24243 240.99976 335.73962 241.49695L336.734 242.49132Q337.77255 243.52988 338.09296 243.7619Q338.4244 243.98286 338.82217 244.09335L338.03772 244.87779Q337.69522 244.75627 337.35272 244.48006ZM335.6181 242.878Q335.37503 243.45253 334.69 244.38062Q334.29227 244.91095 334.19284 245.18716Q334.08234 245.45232 334.12653 245.71748Q334.1818 245.9716 334.38065 246.17047Q334.67896 246.46878 335.09882 246.44669Q335.5297 246.41354 335.9606 245.98265Q336.39148 245.55176 336.53513 245.03247Q336.6898 244.50215 336.51303 244.016Q336.38043 243.64037 335.89432 243.15422L335.6181 242.878ZM339.97122 242.9443L335.57388 238.54698L336.23682 237.88406L336.85553 238.50279Q336.6235 237.2985 337.54053 236.38147Q337.9383 235.98372 338.41336 235.7959Q338.8995 235.59702 339.29727 235.66331Q339.695 235.7296 340.07065 235.97267Q340.31372 236.14944 340.833 236.66873L343.5399 239.37563L342.79965 240.11588L340.1259 237.44212Q339.66187 236.97809 339.3525 236.8455Q339.04315 236.71292 338.68958 236.80132Q338.32498 236.87865 338.02667 237.17696Q337.55157 237.65205 337.5074 238.31496Q337.4632 238.95578 338.3029 239.79547L340.71146 242.20406L339.97122 242.9443ZM339.70605 232.77965L338.84427 231.91786L339.59558 231.16655L340.45737 232.02834L339.70605 232.77965ZM344.92096 237.99455L340.52365 233.59723L341.27493 232.84593L345.67227 237.24326L344.92096 237.99455ZM347.0423 235.87323L342.64496 231.47592L343.3079 230.813L343.9266 231.43172Q343.80505 230.89034 343.95975 230.36002Q344.10336 229.81863 344.54532 229.3767Q345.03146 228.89055 345.53967 228.78008Q346.05896 228.65854 346.5451 228.90161Q346.31308 227.60892 347.14172 226.78029Q347.80463 226.11737 348.51175 226.13947Q349.21884 226.13947 349.9812 226.90182L352.99744 229.91808L352.2572 230.65833L349.484 227.88513Q349.04208 227.44319 348.76587 227.32166Q348.5007 227.18909 348.19135 227.25537Q347.882 227.32166 347.61682 227.58682Q347.15277 228.05087 347.15277 228.66959Q347.16382 229.27725 347.84882 229.96227L350.40103 232.51448L349.64975 233.26578L346.78818 230.4042Q346.291 229.90703 345.86008 229.85178Q345.4292 229.77444 345.02042 230.18323Q344.69998 230.50365 344.60056 230.93454Q344.50113 231.36543 344.69998 231.80737Q344.89886 232.24931 345.49548 232.84593L347.78253 235.13298L347.0423 235.87323ZM356.4446 225.38817Q356.3783 226.16156 356.13522 226.6919Q355.90323 227.21118 355.46127 227.65312Q354.7321 228.38232 353.99182 228.41547Q353.25156 228.44861 352.69913 227.89618Q352.37872 227.57578 352.2572 227.16698Q352.1246 226.74713 352.213 226.3494Q352.29034 225.9406 352.51132 225.56494Q352.65494 225.28873 353.0527 224.7805Q353.84818 223.78613 354.1244 223.20056Q353.96973 223.04588 353.93658 223.01273Q353.47253 222.54869 353.0748 222.57079Q352.54446 222.61499 351.981 223.17845Q351.4617 223.69774 351.39542 224.13968Q351.31808 224.57057 351.66058 225.15614L350.83194 225.78592Q350.46735 225.22244 350.41208 224.70316Q350.35684 224.18387 350.63306 223.5983Q350.90927 223.01273 351.47275 222.44925Q352.03622 221.88577 352.52237 221.66481Q353.0085 221.44383 353.3731 221.47699Q353.7377 221.51013 354.11334 221.75319Q354.33432 221.90788 354.8315 222.40506L355.82587 223.39943Q356.86444 224.43799 357.18484 224.67001Q357.5163 224.89098 357.91406 225.00146L357.1296 225.78592Q356.7871 225.66438 356.4446 225.38817ZM354.70996 223.78613Q354.46692 224.36066 353.7819 225.28873Q353.38416 225.81906 353.2847 226.09528Q353.17422 226.36044 353.2184 226.62561Q353.27365 226.87971 353.47253 227.0786Q353.77084 227.3769 354.1907 227.35481Q354.62158 227.32166 355.0525 226.89076Q355.48337 226.45987 355.627 225.9406Q355.78168 225.41026 355.60492 224.92413Q355.47232 224.54848 354.98618 224.06235L354.70996 223.78613ZM360.02432 221.56537L360.78668 222.10675Q360.53256 222.49345 360.2895 222.73651Q359.8807 223.14531 359.53818 223.24475Q359.18463 223.33315 358.87527 223.22266Q358.57697 223.10112 357.903 222.42715L355.3729 219.89703L354.8315 220.43842L354.257 219.86389L354.79837 219.32251L353.70456 218.22871L354.00287 217.04652L355.5386 218.58226L356.28992 217.83096L356.86444 218.40549L356.11313 219.15678L358.68744 221.7311Q359.00787 222.05151 359.1294 222.10675Q359.26196 222.15094 359.4056 222.1178Q359.54922 222.08466 359.71497 221.91893Q359.84753 221.78635 360.02432 221.56537ZM362.77542 217.31168L363.6372 216.62668Q364.13437 217.47742 364.01285 218.35025Q363.89133 219.22308 363.12897 219.98543Q362.16776 220.94666 360.99658 220.92456Q359.8365 220.8914 358.7648 219.8197Q357.65994 218.71484 357.6268 217.53265Q357.5826 216.33942 358.4886 215.43343Q359.37247 214.54955 360.5215 214.59373Q361.6816 214.62689 362.77542 215.72069Q362.8417 215.78699 362.97427 215.91957L359.69287 219.20099Q360.46628 219.88599 361.21756 219.9081Q361.95782 219.91914 362.51025 219.36671Q362.91904 218.95792 362.99637 218.46072Q363.07373 217.94145 362.77542 217.31168ZM359.1294 218.54912L361.58218 216.09634Q360.9745 215.57706 360.46628 215.53287Q359.67078 215.46657 359.1073 216.03004Q358.588 216.54933 358.57697 217.24539Q358.57697 217.9304 359.1294 218.54912Z" fill-rule="nonzero"/><path fill="#000000" d="M382.679 249.8828L378.93353 241.47485L379.79532 240.61307L388.35794 244.20384L387.45193 245.10983L384.8887 243.98288L382.35858 246.513L383.52972 249.03206L382.679 249.8828ZM381.93872 245.6291L383.99374 243.57408L381.6846 242.52448Q380.62396 242.06042 379.99417 241.69583Q380.45822 242.40294 380.8228 243.18738L381.93872 245.6291ZM390.1257 242.43608L384.06006 239.70709L384.84448 238.92265L388.42422 240.60202Q388.99875 240.88928 389.58432 241.2097Q389.34125 240.76775 389.0319 240.10484L387.3304 236.43672L388.09277 235.67438L390.82175 241.74002L390.1257 242.43608ZM394.744 234.98936L395.60577 234.30435Q396.10297 235.15509 395.9814 236.02792Q395.8599 236.90076 395.09753 237.66312Q394.13632 238.62433 392.96518 238.60223Q391.80508 238.56909 390.73337 237.49739Q389.6285 236.39253 389.59537 235.21034Q389.55118 234.01709 390.45715 233.11111Q391.34103 232.22723 392.49008 232.27142Q393.65018 232.30457 394.744 233.39838Q394.81027 233.46466 394.94287 233.59724L391.66144 236.87866Q392.43484 237.56367 393.18616 237.58577Q393.9264 237.59682 394.47882 237.04439Q394.88763 236.6356 394.96497 236.13841Q395.0423 235.61913 394.744 234.98936ZM391.09796 236.2268L393.55075 233.77402Q392.94308 233.25475 392.43484 233.21056Q391.63934 233.14426 391.07587 233.70773Q390.55658 234.22702 390.54553 234.92308Q390.54553 235.60808 391.09796 236.2268ZM398.0917 234.47008L393.69437 230.07277L394.36835 229.3988L395.03125 230.0617Q394.82132 229.34355 394.88763 228.99Q394.95392 228.61435 395.2191 228.34918Q395.59473 227.97354 396.21344 227.81886L396.6554 228.76903Q396.21344 228.87952 395.94827 229.14468Q395.69415 229.3988 395.64996 229.75235Q395.60577 230.08382 395.7936 230.42632Q396.05878 230.95665 396.5228 231.42068L398.83194 233.72983L398.0917 234.47008ZM403.26242 228.21661Q403.19614 228.99 402.95306 229.52034Q402.72104 230.03961 402.27908 230.48155Q401.5499 231.21077 400.80963 231.24391Q400.0694 231.27705 399.51697 230.72462Q399.19656 230.40422 399.075 229.99542Q398.94244 229.57558 399.03082 229.17783Q399.10815 228.76903 399.32913 228.39339Q399.47278 228.11717 399.8705 227.60893Q400.66602 226.61456 400.94223 226.02899Q400.78754 225.87431 400.7544 225.84117Q400.29034 225.37714 399.8926 225.39923Q399.36227 225.44342 398.7988 226.0069Q398.2795 226.52618 398.21323 226.96812Q398.1359 227.39902 398.4784 227.98459L397.64975 228.61435Q397.28516 228.05087 397.22992 227.5316Q397.17468 227.01231 397.45087 226.42674Q397.72708 225.84117 398.29056 225.2777Q398.85403 224.71422 399.34018 224.49326Q399.82632 224.27228 400.19092 224.30542Q400.5555 224.33856 400.93118 224.58163Q401.15213 224.73631 401.64932 225.2335L402.6437 226.22787Q403.68225 227.26643 404.00266 227.49846Q404.33414 227.71942 404.73187 227.82991L403.94742 228.61435Q403.60492 228.49283 403.26242 228.21661ZM401.5278 226.61456Q401.28473 227.18909 400.5997 228.11717Q400.20197 228.6475 400.10254 228.92372Q399.99203 229.18887 400.03625 229.45404Q400.0915 229.70816 400.29034 229.90703Q400.58865 230.20534 401.0085 230.18324Q401.4394 230.1501 401.8703 229.71921Q402.30118 229.28831 402.44482 228.76903Q402.5995 228.23871 402.42273 227.75256Q402.29013 227.37692 401.80402 226.89078L401.5278 226.61456ZM406.1019 227.18909L406.9416 226.57037Q407.31723 226.85764 407.68182 226.8024Q408.16797 226.7361 408.64307 226.26102Q409.16232 225.74173 409.22864 225.2556Q409.30597 224.7584 409.0408 224.29437Q408.87506 223.99606 408.13483 223.27791Q408.2232 224.33856 407.49402 225.06778Q406.588 225.97375 405.43896 225.81908Q404.27887 225.65335 403.3729 224.74736Q402.74313 224.1176 402.43378 223.3663Q402.12442 222.5929 402.26804 221.87474Q402.41168 221.15659 402.99725 220.57101Q403.7817 219.78658 404.9197 219.9081L404.38937 219.37778L405.07437 218.69276L408.87506 222.49347Q409.9026 223.52098 410.12357 224.16179Q410.34454 224.80261 410.1346 225.49867Q409.93573 226.20576 409.27283 226.86868Q408.48837 227.65314 407.64868 227.78572Q406.809 227.91829 406.1019 227.18909ZM404.08002 223.92978Q404.9418 224.79156 405.68204 224.8468Q406.4223 224.90204 406.9416 224.38277Q407.46088 223.86348 407.4056 223.12323Q407.36142 222.37193 406.52173 221.53224Q405.71518 220.7257 404.9418 220.6815Q404.17944 220.62625 403.6712 221.13449Q403.17404 221.63167 403.22928 222.39403Q403.28452 223.13428 404.08002 223.92978ZM412.42166 217.31169L413.28345 216.62668Q413.78064 217.47742 413.6591 218.35025Q413.53757 219.2231 412.7752 219.98544Q411.814 220.94667 410.64285 220.92458Q409.48276 220.89142 408.41104 219.81972Q407.30618 218.71486 407.27304 217.53267Q407.22885 216.33942 408.13483 215.43344Q409.0187 214.54956 410.16776 214.59375Q411.32785 214.62689 412.42166 215.7207Q412.48795 215.787 412.62054 215.91957L409.3391 219.20099Q410.11252 219.886 410.8638 219.9081Q411.60406 219.91914 412.1565 219.36673Q412.56528 218.95793 412.64264 218.46074Q412.71997 217.94147 412.42166 217.31169ZM408.77563 218.54913L411.22842 216.09636Q410.62076 215.57707 410.11252 215.53288Q409.31702 215.46658 408.75354 216.03006Q408.23425 216.54935 408.2232 217.2454Q408.2232 217.93042 408.77563 218.54913Z" fill-rule="nonzero"/><path fill="#4285f4" d="M84.5 16.05C84.5 15.497715 84.947716 15.05 85.5 15.05L95.5 15.05C96.052284 15.05 96.5 15.497715 96.5 16.05L96.5 26.05C96.5 26.602285 96.052284 27.05 95.5 27.05L85.5 27.05C84.947716 27.05 84.5 26.602285 84.5 26.05Z" fill-rule="nonzero"/><path fill="#1a1a1a" d="M105.4375 25.05L105.4375 16.45625L109.25 16.45625Q110.40625 16.45625 111.0 16.690624Q111.59375 16.925 111.953125 17.51875Q112.3125 18.096874 112.3125 18.8Q112.3125 19.721874 111.71875 20.346874Q111.125 20.971874 109.890625 21.14375Q110.34375 21.3625 110.578125 21.565624Q111.078125 22.01875 111.515625 22.70625L113.015625 25.05L111.578125 25.05L110.453125 23.26875Q109.953125 22.4875 109.625 22.08125Q109.3125 21.675 109.046875 21.51875Q108.796875 21.346874 108.53125 21.26875Q108.34375 21.2375 107.90625 21.2375L106.578125 21.2375L106.578125 25.05L105.4375 25.05ZM106.578125 20.253124L109.03125 20.253124Q109.796875 20.253124 110.234375 20.096874Q110.6875 19.925 110.90625 19.58125Q111.140625 19.221874 111.140625 18.8Q111.140625 18.190624 110.6875 17.8Q110.25 17.409374 109.296875 17.409374L106.578125 17.409374L106.578125 20.253124ZM118.359375 24.284374Q117.765625 24.784374 117.21875 24.9875Q116.6875 25.190624 116.0625 25.190624Q115.03125 25.190624 114.484375 24.690624Q113.9375 24.190624 113.9375 23.409374Q113.9375 22.95625 114.140625 22.58125Q114.34375 22.190624 114.6875 21.971874Q115.03125 21.7375 115.453125 21.628124Q115.75 21.534374 116.390625 21.45625Q117.65625 21.315624 118.265625 21.096874Q118.265625 20.878124 118.265625 20.83125Q118.265625 20.175 117.96875 19.909374Q117.5625 19.565624 116.765625 19.565624Q116.03125 19.565624 115.671875 19.83125Q115.3125 20.08125 115.140625 20.7375L114.109375 20.596874Q114.25 19.940624 114.578125 19.534374Q114.90625 19.128124 115.515625 18.909374Q116.125 18.690624 116.921875 18.690624Q117.71875 18.690624 118.21875 18.878124Q118.71875 19.065624 118.953125 19.346874Q119.1875 19.628124 119.28125 20.065624Q119.328125 20.33125 119.328125 21.034374L119.328125 22.440624Q119.328125 23.909374 119.390625 24.3Q119.46875 24.690624 119.671875 25.05L118.5625 25.05Q118.40625 24.721874 118.359375 24.284374ZM118.265625 21.925Q117.6875 22.159374 116.546875 22.33125Q115.890625 22.425 115.625 22.55Q115.359375 22.659374 115.203125 22.878124Q115.0625 23.096874 115.0625 23.378124Q115.0625 23.8 115.375 24.08125Q115.703125 24.3625 116.3125 24.3625Q116.921875 24.3625 117.390625 24.096874Q117.875 23.83125 118.09375 23.3625Q118.265625 23.003124 118.265625 22.315624L118.265625 21.925ZM121.296875 25.05L121.296875 18.83125L122.234375 18.83125L122.234375 19.70625Q122.921875 18.690624 124.21875 18.690624Q124.78125 18.690624 125.25 18.89375Q125.734375 19.096874 125.96875 19.425Q126.203125 19.753124 126.296875 20.190624Q126.34375 20.4875 126.34375 21.221874L126.34375 25.05L125.296875 25.05L125.296875 21.26875Q125.296875 20.6125 125.171875 20.3Q125.046875 19.9875 124.734375 19.8Q124.421875 19.596874 124.0 19.596874Q123.328125 19.596874 122.828125 20.034374Q122.34375 20.45625 122.34375 21.64375L122.34375 25.05L121.296875 25.05ZM132.32812 25.05L132.32812 24.26875Q131.73438 25.190624 130.59375 25.190624Q129.84375 25.190624 129.21875 24.784374Q128.59375 24.3625 128.25 23.628124Q127.90625 22.89375 127.90625 21.940624Q127.90625 21.01875 128.21875 20.253124Q128.53125 19.4875 129.15625 19.096874Q129.78125 18.690624 130.54688 18.690624Q131.10938 18.690624 131.54688 18.925Q131.98438 19.159374 132.26562 19.534374L132.26562 16.45625L133.3125 16.45625L133.3125 25.05L132.32812 25.05ZM129.0 21.940624Q129.0 23.14375 129.5 23.7375Q130.0 24.315624 130.6875 24.315624Q131.375 24.315624 131.85938 23.753124Q132.34375 23.190624 132.34375 22.034374Q132.34375 20.753124 131.84375 20.159374Q131.35938 19.565624 130.64062 19.565624Q129.9375 19.565624 129.46875 20.14375Q129.0 20.70625 129.0 21.940624ZM134.90625 21.940624Q134.90625 20.20625 135.85938 19.378124Q136.65625 18.690624 137.8125 18.690624Q139.09375 18.690624 139.90625 19.534374Q140.73438 20.3625 140.73438 21.846874Q140.73438 23.05 140.375 23.7375Q140.01562 24.425 139.3125 24.815624Q138.625 25.190624 137.8125 25.190624Q136.51562 25.190624 135.70312 24.3625Q134.90625 23.51875 134.90625 21.940624ZM135.98438 21.940624Q135.98438 23.128124 136.5 23.721874Q137.03125 24.315624 137.8125 24.315624Q138.60938 24.315624 139.125 23.721874Q139.64062 23.128124 139.64062 21.909374Q139.64062 20.753124 139.10938 20.159374Q138.59375 19.565624 137.8125 19.565624Q137.03125 19.565624 136.5 20.159374Q135.98438 20.7375 135.98438 21.940624ZM142.29688 25.05L142.29688 18.83125L143.23438 18.83125L143.23438 19.70625Q143.53125 19.2375 144.01562 18.971874Q144.5 18.690624 145.125 18.690624Q145.8125 18.690624 146.25 18.971874Q146.70312 19.253124 146.875 19.76875Q147.625 18.690624 148.79688 18.690624Q149.73438 18.690624 150.21875 19.20625Q150.71875 19.70625 150.71875 20.784374L150.71875 25.05L149.67188 25.05L149.67188 21.128124Q149.67188 20.503124 149.5625 20.221874Q149.46875 19.940624 149.20312 19.76875Q148.9375 19.596874 148.5625 19.596874Q147.90625 19.596874 147.46875 20.034374Q147.04688 20.471874 147.04688 21.440624L147.04688 25.05L145.98438 25.05L145.98438 21.003124Q145.98438 20.3 145.71875 19.95625Q145.46875 19.596874 144.89062 19.596874Q144.4375 19.596874 144.0625 19.83125Q143.6875 20.065624 143.51562 20.51875Q143.34375 20.971874 143.34375 21.815624L143.34375 25.05L142.29688 25.05Z" fill-rule="nonzero"/><path fill="#ea4335" d="M167.5 16.05C167.5 15.497715 167.94771 15.05 168.5 15.05L178.5 15.05C179.05229 15.05 179.5 15.497715 179.5 16.05L179.5 26.05C179.5 26.602285 179.05229 27.05 178.5 27.05L168.5 27.05C167.94771 27.05 167.5 26.602285 167.5 26.05Z" fill-rule="nonzero"/><path fill="#1a1a1a" d="M188.46875 25.05L188.46875 16.45625L189.59375 16.45625L189.59375 19.9875L194.0625 19.9875L194.0625 16.45625L195.20312 16.45625L195.20312 25.05L194.0625 25.05L194.0625 21.003124L189.59375 21.003124L189.59375 25.05L188.46875 25.05ZM196.48438 25.05L199.78125 16.45625L201.0 16.45625L204.51562 25.05L203.23438 25.05L202.21875 22.440624L198.64062 22.440624L197.6875 25.05L196.48438 25.05ZM198.96875 21.51875L201.875 21.51875L200.98438 19.14375Q200.5625 18.065624 200.375 17.3625Q200.20312 18.190624 199.90625 19.003124L198.96875 21.51875ZM205.375 25.05L205.375 16.45625L206.51562 16.45625L206.51562 24.034374L210.75 24.034374L210.75 25.05L205.375 25.05ZM212.375 25.05L212.375 16.45625L213.51562 16.45625L213.51562 24.034374L217.75 24.034374L217.75 25.05L212.375 25.05ZM219.04688 22.284374L220.10938 22.190624Q220.1875 22.846874 220.46875 23.253124Q220.75 23.659374 221.32812 23.925Q221.92188 24.175 222.65625 24.175Q223.29688 24.175 223.79688 23.9875Q224.29688 23.784374 224.53125 23.45625Q224.78125 23.1125 224.78125 22.721874Q224.78125 22.315624 224.54688 22.01875Q224.3125 21.70625 223.78125 21.503124Q223.42188 21.3625 222.23438 21.08125Q221.0625 20.8 220.59375 20.55Q219.96875 20.221874 219.67188 19.753124Q219.375 19.26875 219.375 18.675Q219.375 18.034374 219.73438 17.471874Q220.10938 16.89375 220.8125 16.6125Q221.53125 16.315624 222.39062 16.315624Q223.34375 16.315624 224.07812 16.628124Q224.8125 16.925 225.20312 17.534374Q225.59375 18.128124 225.625 18.878124L224.53125 18.95625Q224.4375 18.14375 223.92188 17.7375Q223.42188 17.315624 222.4375 17.315624Q221.40625 17.315624 220.9375 17.690624Q220.46875 18.065624 220.46875 18.596874Q220.46875 19.065624 220.79688 19.3625Q221.125 19.659374 222.5 19.971874Q223.89062 20.284374 224.40625 20.51875Q225.15625 20.878124 225.51562 21.409374Q225.875 21.925 225.875 22.628124Q225.875 23.315624 225.48438 23.925Q225.09375 24.51875 224.35938 24.8625Q223.625 25.190624 222.70312 25.190624Q221.53125 25.190624 220.73438 24.8625Q219.95312 24.51875 219.5 23.83125Q219.0625 23.14375 219.04688 22.284374Z" fill-rule="nonzero"/><path fill="#fbbc04" d="M242.5 16.05C242.5 15.497715 242.94771 15.05 243.5 15.05L253.5 15.05C254.05229 15.05 254.5 15.497715 254.5 16.05L254.5 26.05C254.5 26.602285 254.05229 27.05 253.5 27.05L243.5 27.05C242.94771 27.05 242.5 26.602285 242.5 26.05Z" fill-rule="nonzero"/><path fill="#1a1a1a" d="M263.42188 25.05L263.42188 16.45625L266.67188 16.45625Q267.51562 16.45625 267.96875 16.534374Q268.60938 16.64375 269.03125 16.940624Q269.46875 17.2375 269.71875 17.76875Q269.98438 18.3 269.98438 18.940624Q269.98438 20.034374 269.28125 20.8Q268.59375 21.55 266.76562 21.55L264.5625 21.55L264.5625 25.05L263.42188 25.05ZM264.5625 20.55L266.78125 20.55Q267.89062 20.55 268.34375 20.14375Q268.8125 19.721874 268.8125 18.971874Q268.8125 18.440624 268.53125 18.065624Q268.26562 17.675 267.82812 17.55Q267.53125 17.471874 266.76562 17.471874L264.5625 17.471874L264.5625 20.55ZM271.28125 25.05L271.28125 18.83125L272.23438 18.83125L272.23438 19.76875Q272.59375 19.1125 272.89062 18.909374Q273.20312 18.690624 273.57812 18.690624Q274.10938 18.690624 274.65625 19.01875L274.29688 20.003124Q273.90625 19.76875 273.53125 19.76875Q273.17188 19.76875 272.89062 19.9875Q272.625 20.190624 272.51562 20.565624Q272.32812 21.128124 272.32812 21.784374L272.32812 25.05L271.28125 25.05ZM274.90625 21.940624Q274.90625 20.20625 275.85938 19.378124Q276.65625 18.690624 277.8125 18.690624Q279.09375 18.690624 279.90625 19.534374Q280.73438 20.3625 280.73438 21.846874Q280.73438 23.05 280.375 23.7375Q280.01562 24.425 279.3125 24.815624Q278.625 25.190624 277.8125 25.190624Q276.51562 25.190624 275.70312 24.3625Q274.90625 23.51875 274.90625 21.940624ZM275.98438 21.940624Q275.98438 23.128124 276.5 23.721874Q277.03125 24.315624 277.8125 24.315624Q278.60938 24.315624 279.125 23.721874Q279.64062 23.128124 279.64062 21.909374Q279.64062 20.753124 279.10938 20.159374Q278.59375 19.565624 277.8125 19.565624Q277.03125 19.565624 276.5 20.159374Q275.98438 20.7375 275.98438 21.940624ZM282.29688 27.440624L282.29688 18.83125L283.25 18.83125L283.25 19.628124Q283.59375 19.159374 284.01562 18.925Q284.45312 18.690624 285.0625 18.690624Q285.85938 18.690624 286.46875 19.096874Q287.07812 19.503124 287.375 20.253124Q287.6875 21.003124 287.6875 21.89375Q287.6875 22.846874 287.34375 23.6125Q287.01562 24.378124 286.35938 24.784374Q285.70312 25.190624 284.98438 25.190624Q284.45312 25.190624 284.03125 24.971874Q283.60938 24.7375 283.34375 24.409374L283.34375 27.440624L282.29688 27.440624ZM283.25 21.971874Q283.25 23.175 283.73438 23.753124Q284.21875 24.315624 284.90625 24.315624Q285.60938 24.315624 286.10938 23.721874Q286.60938 23.128124 286.60938 21.878124Q286.60938 20.690624 286.125 20.1125Q285.64062 19.51875 284.95312 19.51875Q284.28125 19.51875 283.76562 20.14375Q283.25 20.76875 283.25 21.971874ZM288.90625 21.940624Q288.90625 20.20625 289.85938 19.378124Q290.65625 18.690624 291.8125 18.690624Q293.09375 18.690624 293.90625 19.534374Q294.73438 20.3625 294.73438 21.846874Q294.73438 23.05 294.375 23.7375Q294.01562 24.425 293.3125 24.815624Q292.625 25.190624 291.8125 25.190624Q290.51562 25.190624 289.70312 24.3625Q288.90625 23.51875 288.90625 21.940624ZM289.98438 21.940624Q289.98438 23.128124 290.5 23.721874Q291.03125 24.315624 291.8125 24.315624Q292.60938 24.315624 293.125 23.721874Q293.64062 23.128124 293.64062 21.909374Q293.64062 20.753124 293.10938 20.159374Q292.59375 19.565624 291.8125 19.565624Q291.03125 19.565624 290.5 20.159374Q289.98438 20.7375 289.98438 21.940624ZM295.875 23.190624L296.90625 23.034374Q297.0 23.659374 297.39062 23.9875Q297.79688 24.315624 298.53125 24.315624Q299.25 24.315624 299.59375 24.034374Q299.95312 23.7375 299.95312 23.33125Q299.95312 22.971874 299.64062 22.76875Q299.42188 22.628124 298.5625 22.409374Q297.40625 22.1125 296.95312 21.909374Q296.51562 21.690624 296.28125 21.315624Q296.04688 20.940624 296.04688 20.471874Q296.04688 20.065624 296.23438 19.70625Q296.42188 19.346874 296.75 19.1125Q297.0 18.940624 297.42188 18.815624Q297.84375 18.690624 298.34375 18.690624Q299.0625 18.690624 299.60938 18.909374Q300.17188 19.1125 300.4375 19.471874Q300.70312 19.83125 300.79688 20.425L299.76562 20.565624Q299.70312 20.096874 299.35938 19.83125Q299.03125 19.55 298.40625 19.55Q297.6875 19.55 297.375 19.8Q297.0625 20.034374 297.0625 20.3625Q297.0625 20.565624 297.1875 20.721874Q297.32812 20.89375 297.59375 21.003124Q297.75 21.065624 298.53125 21.26875Q299.65625 21.58125 300.09375 21.76875Q300.53125 21.95625 300.78125 22.315624Q301.03125 22.675 301.03125 23.221874Q301.03125 23.753124 300.71875 24.221874Q300.42188 24.675 299.84375 24.940624Q299.26562 25.190624 298.53125 25.190624Q297.3125 25.190624 296.67188 24.690624Q296.04688 24.175 295.875 23.190624ZM306.54688 23.05L307.64062 23.175Q307.39062 24.128124 306.6875 24.659374Q305.98438 25.190624 304.90625 25.190624Q303.54688 25.190624 302.73438 24.346874Q301.9375 23.503124 301.9375 21.9875Q301.9375 20.425 302.75 19.565624Q303.5625 18.690624 304.84375 18.690624Q306.09375 18.690624 306.875 19.534374Q307.67188 20.378124 307.67188 21.925Q307.67188 22.01875 307.67188 22.20625L303.03125 22.20625Q303.09375 23.2375 303.60938 23.784374Q304.125 24.315624 304.90625 24.315624Q305.48438 24.315624 305.89062 24.01875Q306.3125 23.70625 306.54688 23.05ZM303.09375 21.346874L306.5625 21.346874Q306.5 20.55 306.17188 20.159374Q305.65625 19.55 304.85938 19.55Q304.125 19.55 303.625 20.034374Q303.14062 20.51875 303.09375 21.346874ZM313.32812 25.05L313.32812 24.26875Q312.73438 25.190624 311.59375 25.190624Q310.84375 25.190624 310.21875 24.784374Q309.59375 24.3625 309.25 23.628124Q308.90625 22.89375 308.90625 21.940624Q308.90625 21.01875 309.21875 20.253124Q309.53125 19.4875 310.15625 19.096874Q310.78125 18.690624 311.54688 18.690624Q312.10938 18.690624 312.54688 18.925Q312.98438 19.159374 313.26562 19.534374L313.26562 16.45625L314.3125 16.45625L314.3125 25.05L313.32812 25.05ZM310.0 21.940624Q310.0 23.14375 310.5 23.7375Q311.0 24.315624 311.6875 24.315624Q312.375 24.315624 312.85938 23.753124Q313.34375 23.190624 313.34375 22.034374Q313.34375 20.753124 312.84375 20.159374Q312.35938 19.565624 311.64062 19.565624Q310.9375 19.565624 310.46875 20.14375Q310.0 20.70625 310.0 21.940624ZM321.3125 27.58125Q320.4375 26.471874 319.82812 25.003124Q319.23438 23.51875 319.23438 21.940624Q319.23438 20.55 319.67188 19.26875Q320.20312 17.784374 321.3125 16.315624L322.0625 16.315624Q321.35938 17.534374 321.125 18.05Q320.76562 18.8625 320.5625 19.7375Q320.3125 20.83125 320.3125 21.940624Q320.3125 24.76875 322.0625 27.58125L321.3125 27.58125ZM323.42188 25.05L323.42188 16.45625L326.39062 16.45625Q327.39062 16.45625 327.92188 16.58125Q328.65625 16.753124 329.17188 17.190624Q329.85938 17.76875 330.1875 18.675Q330.53125 19.565624 330.53125 20.70625Q330.53125 21.690624 330.29688 22.440624Q330.07812 23.190624 329.71875 23.690624Q329.35938 24.190624 328.92188 24.471874Q328.5 24.753124 327.90625 24.909374Q327.3125 25.05 326.53125 25.05L323.42188 25.05ZM324.5625 24.034374L326.39062 24.034374Q327.25 24.034374 327.73438 23.878124Q328.21875 23.721874 328.5 23.425Q328.90625 23.034374 329.125 22.346874Q329.35938 21.659374 329.35938 20.690624Q329.35938 19.346874 328.90625 18.628124Q328.46875 17.89375 327.84375 17.64375Q327.375 17.471874 326.375 17.471874L324.5625 17.471874L324.5625 24.034374ZM331.48438 25.05L334.78125 16.45625L336.0 16.45625L339.51562 25.05L338.23438 25.05L337.21875 22.440624L333.64062 22.440624L332.6875 25.05L331.48438 25.05ZM333.96875 21.51875L336.875 21.51875L335.98438 19.14375Q335.5625 18.065624 335.375 17.3625Q335.20312 18.190624 334.90625 19.003124L333.96875 21.51875ZM340.39062 25.05L340.39062 16.45625L342.10938 16.45625L344.14062 22.534374Q344.42188 23.39375 344.54688 23.815624Q344.6875 23.346874 345.0 22.440624L347.0625 16.45625L348.59375 16.45625L348.59375 25.05L347.5 25.05L347.5 17.8625L345.0 25.05L343.96875 25.05L341.48438 17.7375L341.48438 25.05L340.39062 25.05ZM356.0625 16.45625L357.20312 16.45625L357.20312 21.425Q357.20312 22.721874 356.90625 23.4875Q356.60938 24.2375 355.84375 24.721874Q355.07812 25.190624 353.84375 25.190624Q352.64062 25.190624 351.85938 24.784374Q351.09375 24.3625 350.76562 23.58125Q350.4375 22.784374 350.4375 21.425L350.4375 16.45625L351.57812 16.45625L351.57812 21.409374Q351.57812 22.534374 351.78125 23.065624Q352.0 23.596874 352.5 23.89375Q353.01562 24.175 353.75 24.175Q355.0 24.175 355.53125 23.6125Q356.0625 23.034374 356.0625 21.409374L356.0625 16.45625ZM359.04688 22.284374L360.10938 22.190624Q360.1875 22.846874 360.46875 23.253124Q360.75 23.659374 361.32812 23.925Q361.92188 24.175 362.65625 24.175Q363.29688 24.175 363.79688 23.9875Q364.29688 23.784374 364.53125 23.45625Q364.78125 23.1125 364.78125 22.721874Q364.78125 22.315624 364.54688 22.01875Q364.3125 21.70625 363.78125 21.503124Q363.42188 21.3625 362.23438 21.08125Q361.0625 20.8 360.59375 20.55Q359.96875 20.221874 359.67188 19.753124Q359.375 19.26875 359.375 18.675Q359.375 18.034374 359.73438 17.471874Q360.10938 16.89375 360.8125 16.6125Q361.53125 16.315624 362.39062 16.315624Q363.34375 16.315624 364.07812 16.628124Q364.8125 16.925 365.20312 17.534374Q365.59375 18.128124 365.625 18.878124L364.53125 18.95625Q364.4375 18.14375 363.92188 17.7375Q363.42188 17.315624 362.4375 17.315624Q361.40625 17.315624 360.9375 17.690624Q360.46875 18.065624 360.46875 18.596874Q360.46875 19.065624 360.79688 19.3625Q361.125 19.659374 362.5 19.971874Q363.89062 20.284374 364.40625 20.51875Q365.15625 20.878124 365.51562 21.409374Q365.875 21.925 365.875 22.628124Q365.875 23.315624 365.48438 23.925Q365.09375 24.51875 364.35938 24.8625Q363.625 25.190624 362.70312 25.190624Q361.53125 25.190624 360.73438 24.8625Q359.95312 24.51875 359.5 23.83125Q359.0625 23.14375 359.04688 22.284374ZM367.98438 27.58125L367.23438 27.58125Q368.98438 24.76875 368.98438 21.940624Q368.98438 20.846874 368.73438 19.753124Q368.53125 18.878124 368.17188 18.065624Q367.9375 17.55 367.23438 16.315624L367.98438 16.315624Q369.07812 17.784374 369.60938 19.26875Q370.0625 20.55 370.0625 21.940624Q370.0625 23.51875 369.45312 25.003124Q368.84375 26.471874 367.98438 27.58125Z" fill-rule="nonzero"/></svg>