<svg version="1.1" viewBox="0.0 0.0 502.0 311.0" fill="none" stroke="none" stroke-linecap="square" stroke-miterlimit="10" width="502" height="311" xmlns:xlink="http://www.w3.org/1999/xlink" xmlns="http://www.w3.org/2000/svg"><path fill="#ffffff" d="M0 0L502.0 0L502.0 311.0L0 311.0L0 0Z" fill-rule="nonzero"/><path stroke="#333333" stroke-width="1.0" stroke-linecap="butt" d="M77.5 231.5L486.5 231.5" fill-rule="nonzero"/><path stroke="#cccccc" stroke-width="1.0" stroke-linecap="butt" d="M77.5 194.5L486.5 194.5" fill-rule="nonzero"/><path stroke="#cccccc" stroke-width="1.0" stroke-linecap="butt" d="M77.5 157.5L486.5 157.5" fill-rule="nonzero"/><path stroke="#cccccc" stroke-width="1.0" stroke-linecap="butt" d="M77.5 120.5L486.5 120.5" fill-rule="nonzero"/><path stroke="#cccccc" stroke-width="1.0" stroke-linecap="butt" d="M77.5 83.5L486.5 83.5" fill-rule="nonzero"/><path stroke="#cccccc" stroke-width="1.0" stroke-linecap="butt" d="M77.5 46.5L486.5 46.5" fill-rule="nonzero"/><clipPath id="id_0"><path d="M77.55 46.916668L486.45 46.916668L486.45 231.46724L77.55 231.46724L77.55 46.916668Z" clip-rule="nonzero"/></clipPath><path stroke="#000000" stroke-width="0.0" stroke-linecap="butt" stroke-opacity="0.0" clip-path="url(#id_0)" d="M108.0 231.0L97.0 231.0L97.0 86.0C97.0 84.89543 97.89543 84.0 99.0 84.0L106.0 84.0C107.10457 84.0 108.0 84.89543 108.0 86.0Z" fill-rule="nonzero"/><path fill="#4285f4" clip-path="url(#id_0)" d="M108.0 231.0L97.0 231.0L97.0 86.0C97.0 84.89543 97.89543 84.0 99.0 84.0L106.0 84.0C107.10457 84.0 108.0 84.89543 108.0 86.0Z" fill-rule="nonzero"/><path stroke="#000000" stroke-width="0.0" stroke-linecap="butt" stroke-opacity="0.0" clip-path="url(#id_0)" d="M164.0 231.0L153.0 231.0L153.0 86.0C153.0 84.89543 153.89543 84.0 155.0 84.0L162.0 84.0C163.10457 84.0 164.0 84.89543 164.0 86.0Z" fill-rule="nonzero"/><path fill="#4285f4" clip-path="url(#id_0)" d="M164.0 231.0L153.0 231.0L153.0 86.0C153.0 84.89543 153.89543 84.0 155.0 84.0L162.0 84.0C163.10457 84.0 164.0 84.89543 164.0 86.0Z" fill-rule="nonzero"/><path stroke="#000000" stroke-width="0.0" stroke-linecap="butt" stroke-opacity="0.0" clip-path="url(#id_0)" d="M219.0 231.0L208.0 231.0L208.0 86.0C208.0 84.89543 208.89543 84.0 210.0 84.0L217.0 84.0C218.10457 84.0 219.0 84.89543 219.0 86.0Z" fill-rule="nonzero"/><path fill="#4285f4" clip-path="url(#id_0)" d="M219.0 231.0L208.0 231.0L208.0 86.0C208.0 84.89543 208.89543 84.0 210.0 84.0L217.0 84.0C218.10457 84.0 219.0 84.89543 219.0 86.0Z" fill-rule="nonzero"/><path stroke="#000000" stroke-width="0.0" stroke-linecap="butt" stroke-opacity="0.0" clip-path="url(#id_0)" d="M275.0 231.0L264.0 231.0L264.0 86.0C264.0 84.89543 264.89542 84.0 266.0 84.0L273.0 84.0C274.10458 84.0 275.0 84.89543 275.0 86.0Z" fill-rule="nonzero"/><path fill="#4285f4" clip-path="url(#id_0)" d="M275.0 231.0L264.0 231.0L264.0 86.0C264.0 84.89543 264.89542 84.0 266.0 84.0L273.0 84.0C274.10458 84.0 275.0 84.89543 275.0 86.0Z" fill-rule="nonzero"/><path stroke="#000000" stroke-width="0.0" stroke-linecap="butt" stroke-opacity="0.0" clip-path="url(#id_0)" d="M331.0 231.0L320.0 231.0L320.0 86.0C320.0 84.89543 320.89542 84.0 322.0 84.0L329.0 84.0C330.10458 84.0 331.0 84.89543 331.0 86.0Z" fill-rule="nonzero"/><path fill="#4285f4" clip-path="url(#id_0)" d="M331.0 231.0L320.0 231.0L320.0 86.0C320.0 84.89543 320.89542 84.0 322.0 84.0L329.0 84.0C330.10458 84.0 331.0 84.89543 331.0 86.0Z" fill-rule="nonzero"/><path stroke="#000000" stroke-width="0.0" stroke-linecap="butt" stroke-opacity="0.0" clip-path="url(#id_0)" d="M386.0 231.0L375.0 231.0L375.0 86.0C375.0 84.89543 375.89542 84.0 377.0 84.0L384.0 84.0C385.10458 84.0 386.0 84.89543 386.0 86.0Z" fill-rule="nonzero"/><path fill="#4285f4" clip-path="url(#id_0)" d="M386.0 231.0L375.0 231.0L375.0 86.0C375.0 84.89543 375.89542 84.0 377.0 84.0L384.0 84.0C385.10458 84.0 386.0 84.89543 386.0 86.0Z" fill-rule="nonzero"/><path stroke="#000000" stroke-width="0.0" stroke-linecap="butt" stroke-opacity="0.0" clip-path="url(#id_0)" d="M442.0 231.0L431.0 231.0L431.0 86.0C431.0 84.89543 431.89542 84.0 433.0 84.0L440.0 84.0C441.10458 84.0 442.0 84.89543 442.0 86.0Z" fill-rule="nonzero"/><path fill="#4285f4" clip-path="url(#id_0)" d="M442.0 231.0L431.0 231.0L431.0 86.0C431.0 84.89543 431.89542 84.0 433.0 84.0L440.0 84.0C441.10458 84.0 442.0 84.89543 442.0 86.0Z" fill-rule="nonzero"/><path stroke="#000000" stroke-width="0.0" stroke-linecap="butt" stroke-opacity="0.0" clip-path="url(#id_0)" d="M120.0 231.0L109.0 231.0L109.0 86.0C109.0 84.89543 109.89543 84.0 111.0 84.0L118.0 84.0C119.10457 84.0 120.0 84.89543 120.0 86.0Z" fill-rule="nonzero"/><path fill="#ea4335" clip-path="url(#id_0)" d="M120.0 231.0L109.0 231.0L109.0 86.0C109.0 84.89543 109.89543 84.0 111.0 84.0L118.0 84.0C119.10457 84.0 120.0 84.89543 120.0 86.0Z" fill-rule="nonzero"/><path stroke="#000000" stroke-width="0.0" stroke-linecap="butt" stroke-opacity="0.0" clip-path="url(#id_0)" d="M176.0 231.0L165.0 231.0L165.0 82.0C165.0 80.89543 165.89543 80.0 167.0 80.0L174.0 80.0C175.10457 80.0 176.0 80.89543 176.0 82.0Z" fill-rule="nonzero"/><path fill="#ea4335" clip-path="url(#id_0)" d="M176.0 231.0L165.0 231.0L165.0 82.0C165.0 80.89543 165.89543 80.0 167.0 80.0L174.0 80.0C175.10457 80.0 176.0 80.89543 176.0 82.0Z" fill-rule="nonzero"/><path stroke="#000000" stroke-width="0.0" stroke-linecap="butt" stroke-opacity="0.0" clip-path="url(#id_0)" d="M231.0 231.0L220.0 231.0L220.0 85.0C220.0 83.89543 220.89543 83.0 222.0 83.0L229.0 83.0C230.10457 83.0 231.0 83.89543 231.0 85.0Z" fill-rule="nonzero"/><path fill="#ea4335" clip-path="url(#id_0)" d="M231.0 231.0L220.0 231.0L220.0 85.0C220.0 83.89543 220.89543 83.0 222.0 83.0L229.0 83.0C230.10457 83.0 231.0 83.89543 231.0 85.0Z" fill-rule="nonzero"/><path stroke="#000000" stroke-width="0.0" stroke-linecap="butt" stroke-opacity="0.0" clip-path="url(#id_0)" d="M287.0 231.0L276.0 231.0L276.0 93.0C276.0 91.89543 276.89542 91.0 278.0 91.0L285.0 91.0C286.10458 91.0 287.0 91.89543 287.0 93.0Z" fill-rule="nonzero"/><path fill="#ea4335" clip-path="url(#id_0)" d="M287.0 231.0L276.0 231.0L276.0 93.0C276.0 91.89543 276.89542 91.0 278.0 91.0L285.0 91.0C286.10458 91.0 287.0 91.89543 287.0 93.0Z" fill-rule="nonzero"/><path stroke="#000000" stroke-width="0.0" stroke-linecap="butt" stroke-opacity="0.0" clip-path="url(#id_0)" d="M343.0 231.0L332.0 231.0L332.0 88.0C332.0 86.89543 332.89542 86.0 334.0 86.0L341.0 86.0C342.10458 86.0 343.0 86.89543 343.0 88.0Z" fill-rule="nonzero"/><path fill="#ea4335" clip-path="url(#id_0)" d="M343.0 231.0L332.0 231.0L332.0 88.0C332.0 86.89543 332.89542 86.0 334.0 86.0L341.0 86.0C342.10458 86.0 343.0 86.89543 343.0 88.0Z" fill-rule="nonzero"/><path stroke="#000000" stroke-width="0.0" stroke-linecap="butt" stroke-opacity="0.0" clip-path="url(#id_0)" d="M398.0 231.0L387.0 231.0L387.0 84.0C387.0 82.89543 387.89542 82.0 389.0 82.0L396.0 82.0C397.10458 82.0 398.0 82.89543 398.0 84.0Z" fill-rule="nonzero"/><path fill="#ea4335" clip-path="url(#id_0)" d="M398.0 231.0L387.0 231.0L387.0 84.0C387.0 82.89543 387.89542 82.0 389.0 82.0L396.0 82.0C397.10458 82.0 398.0 82.89543 398.0 84.0Z" fill-rule="nonzero"/><path stroke="#000000" stroke-width="0.0" stroke-linecap="butt" stroke-opacity="0.0" clip-path="url(#id_0)" d="M454.0 231.0L443.0 231.0L443.0 86.0C443.0 84.89543 443.89542 84.0 445.0 84.0L452.0 84.0C453.10458 84.0 454.0 84.89543 454.0 86.0Z" fill-rule="nonzero"/><path fill="#ea4335" clip-path="url(#id_0)" d="M454.0 231.0L443.0 231.0L443.0 86.0C443.0 84.89543 443.89542 84.0 445.0 84.0L452.0 84.0C453.10458 84.0 454.0 84.89543 454.0 86.0Z" fill-rule="nonzero"/><path stroke="#000000" stroke-width="0.0" stroke-linecap="butt" stroke-opacity="0.0" clip-path="url(#id_0)" d="M132.0 231.0L121.0 231.0L121.0 80.0C121.0 78.89543 121.89543 78.0 123.0 78.0L130.0 78.0C131.10457 78.0 132.0 78.89543 132.0 80.0Z" fill-rule="nonzero"/><path fill="#fbbc04" clip-path="url(#id_0)" d="M132.0 231.0L121.0 231.0L121.0 80.0C121.0 78.89543 121.89543 78.0 123.0 78.0L130.0 78.0C131.10457 78.0 132.0 78.89543 132.0 80.0Z" fill-rule="nonzero"/><path stroke="#000000" stroke-width="0.0" stroke-linecap="butt" stroke-opacity="0.0" clip-path="url(#id_0)" d="M188.0 231.0L177.0 231.0L177.0 59.0C177.0 57.89543 177.89543 57.0 179.0 57.0L186.0 57.0C187.10457 57.0 188.0 57.89543 188.0 59.0Z" fill-rule="nonzero"/><path fill="#fbbc04" clip-path="url(#id_0)" d="M188.0 231.0L177.0 231.0L177.0 59.0C177.0 57.89543 177.89543 57.0 179.0 57.0L186.0 57.0C187.10457 57.0 188.0 57.89543 188.0 59.0Z" fill-rule="nonzero"/><path stroke="#000000" stroke-width="0.0" stroke-linecap="butt" stroke-opacity="0.0" clip-path="url(#id_0)" d="M243.0 231.0L232.0 231.0L232.0 101.0C232.0 99.89543 232.89543 99.0 234.0 99.0L241.0 99.0C242.10457 99.0 243.0 99.89543 243.0 101.0Z" fill-rule="nonzero"/><path fill="#fbbc04" clip-path="url(#id_0)" d="M243.0 231.0L232.0 231.0L232.0 101.0C232.0 99.89543 232.89543 99.0 234.0 99.0L241.0 99.0C242.10457 99.0 243.0 99.89543 243.0 101.0Z" fill-rule="nonzero"/><path stroke="#000000" stroke-width="0.0" stroke-linecap="butt" stroke-opacity="0.0" clip-path="url(#id_0)" d="M299.0 231.0L288.0 231.0L288.0 147.0C288.0 145.89543 288.89542 145.0 290.0 145.0L297.0 145.0C298.10458 145.0 299.0 145.89543 299.0 147.0Z" fill-rule="nonzero"/><path fill="#fbbc04" clip-path="url(#id_0)" d="M299.0 231.0L288.0 231.0L288.0 147.0C288.0 145.89543 288.89542 145.0 290.0 145.0L297.0 145.0C298.10458 145.0 299.0 145.89543 299.0 147.0Z" fill-rule="nonzero"/><path stroke="#000000" stroke-width="0.0" stroke-linecap="butt" stroke-opacity="0.0" clip-path="url(#id_0)" d="M355.0 231.0L344.0 231.0L344.0 108.0C344.0 106.89543 344.89542 106.0 346.0 106.0L353.0 106.0C354.10458 106.0 355.0 106.89543 355.0 108.0Z" fill-rule="nonzero"/><path fill="#fbbc04" clip-path="url(#id_0)" d="M355.0 231.0L344.0 231.0L344.0 108.0C344.0 106.89543 344.89542 106.0 346.0 106.0L353.0 106.0C354.10458 106.0 355.0 106.89543 355.0 108.0Z" fill-rule="nonzero"/><path stroke="#000000" stroke-width="0.0" stroke-linecap="butt" stroke-opacity="0.0" clip-path="url(#id_0)" d="M410.0 231.0L399.0 231.0L399.0 85.0C399.0 83.89543 399.89542 83.0 401.0 83.0L408.0 83.0C409.10458 83.0 410.0 83.89543 410.0 85.0Z" fill-rule="nonzero"/><path fill="#fbbc04" clip-path="url(#id_0)" d="M410.0 231.0L399.0 231.0L399.0 85.0C399.0 83.89543 399.89542 83.0 401.0 83.0L408.0 83.0C409.10458 83.0 410.0 83.89543 410.0 85.0Z" fill-rule="nonzero"/><path stroke="#000000" stroke-width="0.0" stroke-linecap="butt" stroke-opacity="0.0" clip-path="url(#id_0)" d="M466.0 231.0L455.0 231.0L455.0 97.0C455.0 95.89543 455.89542 95.0 457.0 95.0L464.0 95.0C465.10458 95.0 466.0 95.89543 466.0 97.0Z" fill-rule="nonzero"/><path fill="#fbbc04" clip-path="url(#id_0)" d="M466.0 231.0L455.0 231.0L455.0 97.0C455.0 95.89543 455.89542 95.0 457.0 95.0L464.0 95.0C465.10458 95.0 466.0 95.89543 466.0 97.0Z" fill-rule="nonzero"/><path fill="#000000" d="M26.550013 244.76146L17.956263 244.76146L17.956263 243.60521L24.706263 239.08958L17.956263 239.08958L17.956263 237.99583L26.550013 237.99583L26.550013 239.16771L19.800013 243.68333L26.550013 243.68333L26.550013 244.76146ZM23.440638 236.27708Q21.706263 236.27708 20.878138 235.32396Q20.190638 234.52708 20.190638 233.37083Q20.190638 232.08958 21.034388 231.27708Q21.862513 230.44896 23.346888 230.44896Q24.550013 230.44896 25.237513 230.80833Q25.925013 231.16771 26.315638 231.87083Q26.690638 232.55833 26.690638 233.37083Q26.690638 234.66771 25.862513 235.48021Q25.018763 236.27708 23.440638 236.27708ZM23.440638 235.19896Q24.628138 235.19896 25.221888 234.68333Q25.815638 234.15208 25.815638 233.37083Q25.815638 232.57396 25.221888 232.05833Q24.628138 231.54271 23.409388 231.54271Q22.253138 231.54271 21.659388 232.07396Q21.065638 232.58958 21.065638 233.37083Q21.065638 234.15208 21.659388 234.68333Q22.237513 235.19896 23.440638 235.19896ZM26.550013 228.90208L20.331263 228.90208L20.331263 227.94896L21.268763 227.94896Q20.612513 227.58958 20.409388 227.29271Q20.190638 226.98021 20.190638 226.60521Q20.190638 226.07396 20.518763 225.52708L21.503138 225.88646Q21.268763 226.27708 21.268763 226.65208Q21.268763 227.01146 21.487513 227.29271Q21.690638 227.55833 22.065638 227.66771Q22.628138 227.85521 23.284388 227.85521L26.550013 227.85521L26.550013 228.90208ZM26.550013 224.88646L20.331263 224.88646L20.331263 223.94896L21.206263 223.94896Q20.737513 223.65208 20.471888 223.16771Q20.190638 222.68333 20.190638 222.05833Q20.190638 221.37083 20.471888 220.93333Q20.753138 220.48021 21.268763 220.30833Q20.190638 219.55833 20.190638 218.38646Q20.190638 217.44896 20.706263 216.96458Q21.206263 216.46458 22.284388 216.46458L26.550013 216.46458L26.550013 217.51146L22.628138 217.51146Q22.003138 217.51146 21.721888 217.62083Q21.440638 217.71458 21.268763 217.98021Q21.096888 218.24583 21.096888 218.62083Q21.096888 219.27708 21.534388 219.71458Q21.971888 220.13646 22.940638 220.13646L26.550013 220.13646L26.550013 221.19896L22.503138 221.19896Q21.800013 221.19896 21.456263 221.46458Q21.096888 221.71458 21.096888 222.29271Q21.096888 222.74583 21.331263 223.12083Q21.565638 223.49583 22.018763 223.66771Q22.471888 223.83958 23.315638 223.83958L26.550013 223.83958L26.550013 224.88646ZM25.784388 210.82396Q26.284388 211.41771 26.487513 211.96458Q26.690638 212.49583 26.690638 213.12083Q26.690638 214.15208 26.190638 214.69896Q25.690638 215.24583 24.909388 215.24583Q24.456263 215.24583 24.081263 215.04271Q23.690638 214.83958 23.471888 214.49583Q23.237513 214.15208 23.128138 213.73021Q23.034388 213.43333 22.956263 212.79271Q22.815638 211.52708 22.596888 210.91771Q22.378138 210.91771 22.331263 210.91771Q21.675013 210.91771 21.409388 211.21458Q21.065638 211.62083 21.065638 212.41771Q21.065638 213.15208 21.331263 213.51146Q21.581263 213.87083 22.237513 214.04271L22.096888 215.07396Q21.440638 214.93333 21.034388 214.60521Q20.628138 214.27708 20.409388 213.66771Q20.190638 213.05833 20.190638 212.26146Q20.190638 211.46458 20.378138 210.96458Q20.565638 210.46458 20.846888 210.23021Q21.128138 209.99583 21.565638 209.90208Q21.831263 209.85521 22.534388 209.85521L23.940638 209.85521Q25.409388 209.85521 25.800013 209.79271Q26.190638 209.71458 26.550013 209.51146L26.550013 210.62083Q26.221888 210.77708 25.784388 210.82396ZM23.425013 210.91771Q23.659388 211.49583 23.831263 212.63646Q23.925013 213.29271 24.050013 213.55833Q24.159388 213.82396 24.378138 213.98021Q24.596888 214.12083 24.878138 214.12083Q25.300013 214.12083 25.581263 213.80833Q25.862513 213.48021 25.862513 212.87083Q25.862513 212.26146 25.596888 211.79271Q25.331263 211.30833 24.862513 211.08958Q24.503138 210.91771 23.815638 210.91771L23.425013 210.91771ZM26.550013 207.91771L17.956263 207.91771L17.956263 206.85521L26.550013 206.85521L26.550013 207.91771ZM19.175013 204.88646L17.956263 204.88646L17.956263 203.82396L19.175013 203.82396L19.175013 204.88646ZM26.550013 204.88646L20.331263 204.88646L20.331263 203.82396L26.550013 203.82396L26.550013 204.88646ZM24.690638 202.30833L24.534388 201.27708Q25.159388 201.18333 25.487513 200.79271Q25.815638 200.38646 25.815638 199.65208Q25.815638 198.93333 25.534388 198.58958Q25.237513 198.23021 24.831263 198.23021Q24.471888 198.23021 24.268763 198.54271Q24.128138 198.76146 23.909388 199.62083Q23.612513 200.77708 23.409388 201.23021Q23.190638 201.66771 22.815638 201.90208Q22.440638 202.13646 21.971888 202.13646Q21.565638 202.13646 21.206263 201.94896Q20.846888 201.76146 20.612513 201.43333Q20.440638 201.18333 20.315638 200.76146Q20.190638 200.33958 20.190638 199.83958Q20.190638 199.12083 20.409388 198.57396Q20.612513 198.01146 20.971888 197.74583Q21.331263 197.48021 21.925013 197.38646L22.065638 198.41771Q21.596888 198.48021 21.331263 198.82396Q21.050013 199.15208 21.050013 199.77708Q21.050013 200.49583 21.300013 200.80833Q21.534388 201.12083 21.862513 201.12083Q22.065638 201.12083 22.221888 200.99583Q22.393763 200.85521 22.503138 200.58958Q22.565638 200.43333 22.768763 199.65208Q23.081263 198.52708 23.268763 198.08958Q23.456263 197.65208 23.815638 197.40208Q24.175013 197.15208 24.721888 197.15208Q25.253138 197.15208 25.721888 197.46458Q26.175013 197.76146 26.440638 198.33958Q26.690638 198.91771 26.690638 199.65208Q26.690638 200.87083 26.190638 201.51146Q25.675013 202.13646 24.690638 202.30833ZM24.550013 191.63646L24.675013 190.54271Q25.628138 190.79271 26.159388 191.49583Q26.690638 192.19896 26.690638 193.27708Q26.690638 194.63646 25.846888 195.44896Q25.003138 196.24583 23.487513 196.24583Q21.925013 196.24583 21.065638 195.43333Q20.190638 194.62083 20.190638 193.33958Q20.190638 192.08958 21.034388 191.30833Q21.878138 190.51146 23.425013 190.51146Q23.518763 190.51146 23.706263 190.51146L23.706263 195.15208Q24.737513 195.08958 25.284388 194.57396Q25.815638 194.05833 25.815638 193.27708Q25.815638 192.69896 25.518763 192.29271Q25.206263 191.87083 24.550013 191.63646ZM22.846888 195.08958L22.846888 191.62083Q22.050013 191.68333 21.659388 192.01146Q21.050013 192.52708 21.050013 193.32396Q21.050013 194.05833 21.534388 194.55833Q22.018763 195.04271 22.846888 195.08958ZM26.550013 184.85521L25.768763 184.85521Q26.690638 185.44896 26.690638 186.58958Q26.690638 187.33958 26.284388 187.96458Q25.862513 188.58958 25.128138 188.93333Q24.393763 189.27708 23.440638 189.27708Q22.518763 189.27708 21.753138 188.96458Q20.987513 188.65208 20.596888 188.02708Q20.190638 187.40208 20.190638 186.63646Q20.190638 186.07396 20.425013 185.63646Q20.659388 185.19896 21.034388 184.91771L17.956263 184.91771L17.956263 183.87083L26.550013 183.87083L26.550013 184.85521ZM23.440638 188.18333Q24.643763 188.18333 25.237513 187.68333Q25.815638 187.18333 25.815638 186.49583Q25.815638 185.80833 25.253138 185.32396Q24.690638 184.83958 23.534388 184.83958Q22.253138 184.83958 21.659388 185.33958Q21.065638 185.82396 21.065638 186.54271Q21.065638 187.24583 21.643763 187.71458Q22.206263 188.18333 23.440638 188.18333ZM26.550013 178.76146L17.956263 178.76146L17.956263 175.79271Q17.956263 174.79271 18.081263 174.26146Q18.253138 173.52708 18.690638 173.01146Q19.268763 172.32396 20.175013 171.99583Q21.065638 171.65208 22.206263 171.65208Q23.190638 171.65208 23.940638 171.88646Q24.690638 172.10521 25.190638 172.46458Q25.690638 172.82396 25.971888 173.26146Q26.253138 173.68333 26.409388 174.27708Q26.550013 174.87083 26.550013 175.65208L26.550013 178.76146ZM25.534388 177.62083L25.534388 175.79271Q25.534388 174.93333 25.378138 174.44896Q25.221888 173.96458 24.925013 173.68333Q24.534388 173.27708 23.846888 173.05833Q23.159388 172.82396 22.190638 172.82396Q20.846888 172.82396 20.128138 173.27708Q19.393763 173.71458 19.143763 174.33958Q18.971888 174.80833 18.971888 175.80833L18.971888 177.62083L25.534388 177.62083ZM28.940638 169.93333L27.956263 170.05833Q28.050013 169.71458 28.050013 169.44896Q28.050013 169.10521 27.925013 168.90208Q27.815638 168.68333 27.612513 168.54271Q27.440638 168.44896 26.815638 168.21458Q26.737513 168.19896 26.565638 168.12083L20.331263 170.49583L20.331263 169.35521L23.925013 168.05833Q24.612513 167.80833 25.378138 167.60521Q24.643763 167.41771 23.956263 167.16771L20.331263 165.83958L20.331263 164.79271L26.659388 167.15208Q27.675013 167.54271 28.065638 167.74583Q28.596888 168.02708 28.831263 168.40208Q29.081263 168.76146 29.081263 169.26146Q29.081263 169.55833 28.940638 169.93333ZM26.550013 163.88646L20.331263 163.88646L20.331263 162.94896L21.206263 162.94896Q20.190638 162.26146 20.190638 160.96458Q20.190638 160.40208 20.393763 159.93333Q20.596888 159.44896 20.925013 159.21458Q21.253138 158.98021 21.690638 158.88646Q21.987513 158.83958 22.721888 158.83958L26.550013 158.83958L26.550013 159.88646L22.768763 159.88646Q22.112513 159.88646 21.800013 160.01146Q21.487513 160.13646 21.300013 160.44896Q21.096888 160.76146 21.096888 161.18333Q21.096888 161.85521 21.534388 162.35521Q21.956263 162.83958 23.143763 162.83958L26.550013 162.83958L26.550013 163.88646ZM25.784388 152.82396Q26.284388 153.41771 26.487513 153.96458Q26.690638 154.49583 26.690638 155.12083Q26.690638 156.15208 26.190638 156.69896Q25.690638 157.24583 24.909388 157.24583Q24.456263 157.24583 24.081263 157.04271Q23.690638 156.83958 23.471888 156.49583Q23.237513 156.15208 23.128138 155.73021Q23.034388 155.43333 22.956263 154.79271Q22.815638 153.52708 22.596888 152.91771Q22.378138 152.91771 22.331263 152.91771Q21.675013 152.91771 21.409388 153.21458Q21.065638 153.62083 21.065638 154.41771Q21.065638 155.15208 21.331263 155.51146Q21.581263 155.87083 22.237513 156.04271L22.096888 157.07396Q21.440638 156.93333 21.034388 156.60521Q20.628138 156.27708 20.409388 155.66771Q20.190638 155.05833 20.190638 154.26146Q20.190638 153.46458 20.378138 152.96458Q20.565638 152.46458 20.846888 152.23021Q21.128138 151.99583 21.565638 151.90208Q21.831263 151.85521 22.534388 151.85521L23.940638 151.85521Q25.409388 151.85521 25.800013 151.79271Q26.190638 151.71458 26.550013 151.51146L26.550013 152.62083Q26.221888 152.77708 25.784388 152.82396ZM23.425013 152.91771Q23.659388 153.49583 23.831263 154.63646Q23.925013 155.29271 24.050013 155.55833Q24.159388 155.82396 24.378138 155.98021Q24.596888 156.12083 24.878138 156.12083Q25.300013 156.12083 25.581263 155.80833Q25.862513 155.48021 25.862513 154.87083Q25.862513 154.26146 25.596888 153.79271Q25.331263 153.30833 24.862513 153.08958Q24.503138 152.91771 23.815638 152.91771L23.425013 152.91771ZM26.550013 149.88646L20.331263 149.88646L20.331263 148.94896L21.206263 148.94896Q20.737513 148.65208 20.471888 148.16771Q20.190638 147.68333 20.190638 147.05833Q20.190638 146.37083 20.471888 145.93333Q20.753138 145.48021 21.268763 145.30833Q20.190638 144.55833 20.190638 143.38646Q20.190638 142.44896 20.706263 141.96458Q21.206263 141.46458 22.284388 141.46458L26.550013 141.46458L26.550013 142.51146L22.628138 142.51146Q22.003138 142.51146 21.721888 142.62083Q21.440638 142.71458 21.268763 142.98021Q21.096888 143.24583 21.096888 143.62083Q21.096888 144.27708 21.534388 144.71458Q21.971888 145.13646 22.940638 145.13646L26.550013 145.13646L26.550013 146.19896L22.503138 146.19896Q21.800013 146.19896 21.456263 146.46458Q21.096888 146.71458 21.096888 147.29271Q21.096888 147.74583 21.331263 148.12083Q21.565638 148.49583 22.018763 148.66771Q22.471888 148.83958 23.315638 148.83958L26.550013 148.83958L26.550013 149.88646ZM19.175013 139.88646L17.956263 139.88646L17.956263 138.82396L19.175013 138.82396L19.175013 139.88646ZM26.550013 139.88646L20.331263 139.88646L20.331263 138.82396L26.550013 138.82396L26.550013 139.88646ZM24.268763 132.82396L24.409388 131.79271Q25.471888 131.96458 26.081263 132.66771Q26.690638 133.37083 26.690638 134.38646Q26.690638 135.66771 25.862513 136.44896Q25.018763 137.21458 23.456263 137.21458Q22.456263 137.21458 21.706263 136.88646Q20.940638 136.54271 20.565638 135.87083Q20.190638 135.18333 20.190638 134.37083Q20.190638 133.37083 20.706263 132.73021Q21.206263 132.07396 22.159388 131.88646L22.315638 132.91771Q21.690638 133.05833 21.378138 133.43333Q21.050013 133.80833 21.050013 134.33958Q21.050013 135.13646 21.628138 135.63646Q22.190638 136.13646 23.425013 136.13646Q24.690638 136.13646 25.253138 135.65208Q25.815638 135.16771 25.815638 134.40208Q25.815638 133.77708 25.440638 133.37083Q25.065638 132.94896 24.268763 132.82396ZM26.550013 127.73021L17.956263 127.73021L17.956263 121.527084L18.971888 121.527084L18.971888 126.589584L21.596888 126.589584L21.596888 121.839584L22.612513 121.839584L22.612513 126.589584L25.534388 126.589584L25.534388 121.32396L26.550013 121.32396L26.550013 127.73021ZM26.550013 119.88646L20.331263 119.88646L20.331263 118.94896L21.206263 118.94896Q20.190638 118.26146 20.190638 116.964584Q20.190638 116.402084 20.393763 115.933334Q20.596888 115.44896 20.925013 115.214584Q21.253138 114.98021 21.690638 114.88646Q21.987513 114.839584 22.721888 114.839584L26.550013 114.839584L26.550013 115.88646L22.768763 115.88646Q22.112513 115.88646 21.800013 116.01146Q21.487513 116.13646 21.300013 116.44896Q21.096888 116.76146 21.096888 117.183334Q21.096888 117.85521 21.534388 118.35521Q21.956263 118.839584 23.143763 118.839584L26.550013 118.839584L26.550013 119.88646ZM24.550013 108.63646L24.675013 107.54271Q25.628138 107.79271 26.159388 108.495834Q26.690638 109.19896 26.690638 110.277084Q26.690638 111.63646 25.846888 112.44896Q25.003138 113.245834 23.487513 113.245834Q21.925013 113.245834 21.065638 112.433334Q20.190638 111.620834 20.190638 110.339584Q20.190638 109.089584 21.034388 108.308334Q21.878138 107.51146 23.425013 107.51146Q23.518763 107.51146 23.706263 107.51146L23.706263 112.152084Q24.737513 112.089584 25.284388 111.57396Q25.815638 111.058334 25.815638 110.277084Q25.815638 109.69896 25.518763 109.29271Q25.206263 108.870834 24.550013 108.63646ZM22.846888 112.089584L22.846888 108.620834Q22.050013 108.683334 21.659388 109.01146Q21.050013 109.527084 21.050013 110.32396Q21.050013 111.058334 21.534388 111.558334Q22.018763 112.04271 22.846888 112.089584ZM26.550013 105.902084L20.331263 105.902084L20.331263 104.94896L21.268763 104.94896Q20.612513 104.589584 20.409388 104.29271Q20.190638 103.98021 20.190638 103.60521Q20.190638 103.07396 20.518763 102.527084L21.503138 102.88646Q21.268763 103.277084 21.268763 103.652084Q21.268763 104.01146 21.487513 104.29271Q21.690638 104.558334 22.065638 104.66771Q22.628138 104.85521 23.284388 104.85521L26.550013 104.85521L26.550013 105.902084ZM27.065638 102.089584L27.221888 101.058334Q27.690638 100.995834 27.909388 100.69896Q28.206263 100.308334 28.206263 99.63646Q28.206263 98.902084 27.909388 98.51146Q27.612513 98.10521 27.096888 97.964584Q26.768763 97.870834 25.737513 97.88646Q26.550013 98.57396 26.550013 99.60521Q26.550013 100.88646 25.628138 101.589584Q24.690638 102.29271 23.409388 102.29271Q22.518763 102.29271 21.768763 101.98021Q21.003138 101.652084 20.596888 101.04271Q20.190638 100.433334 20.190638 99.60521Q20.190638 98.495834 21.081263 97.777084L20.331263 97.777084L20.331263 96.808334L25.706263 96.808334Q27.159388 96.808334 27.768763 97.10521Q28.378138 97.402084 28.721888 98.04271Q29.081263 98.683334 29.081263 99.620834Q29.081263 100.73021 28.581263 101.41771Q28.081263 102.10521 27.065638 102.089584ZM23.331263 101.214584Q24.550013 101.214584 25.112513 100.73021Q25.675013 100.245834 25.675013 99.51146Q25.675013 98.777084 25.112513 98.29271Q24.550013 97.79271 23.362513 97.79271Q22.221888 97.79271 21.643763 98.308334Q21.065638 98.808334 21.065638 99.527084Q21.065638 100.23021 21.643763 100.73021Q22.206263 101.214584 23.331263 101.214584ZM28.940638 94.933334L27.956263 95.058334Q28.050013 94.714584 28.050013 94.44896Q28.050013 94.10521 27.925013 93.902084Q27.815638 93.683334 27.612513 93.54271Q27.440638 93.44896 26.815638 93.214584Q26.737513 93.19896 26.565638 93.120834L20.331263 95.495834L20.331263 94.35521L23.925013 93.058334Q24.612513 92.808334 25.378138 92.60521Q24.643763 92.41771 23.956263 92.16771L20.331263 90.839584L20.331263 89.79271L26.659388 92.152084Q27.675013 92.54271 28.065638 92.745834Q28.596888 93.027084 28.831263 93.402084Q29.081263 93.76146 29.081263 94.26146Q29.081263 94.558334 28.940638 94.933334Z" fill-rule="nonzero"/><path fill="#000000" d="M48.05 231.23286Q48.05 229.70161 48.3625 228.77974Q48.675 227.84224 49.284374 227.34224Q49.909374 226.84224 50.846874 226.84224Q51.534374 226.84224 52.05 227.12349Q52.58125 227.40474 52.925 227.93599Q53.26875 228.45161 53.45625 229.20161Q53.64375 229.95161 53.64375 231.23286Q53.64375 232.74849 53.33125 233.67036Q53.034374 234.59224 52.409374 235.10786Q51.8 235.60786 50.846874 235.60786Q49.6125 235.60786 48.89375 234.71724Q48.05 233.65474 48.05 231.23286ZM49.128124 231.23286Q49.128124 233.34224 49.628124 234.04536Q50.128124 234.74849 50.846874 234.74849Q51.58125 234.74849 52.065624 234.04536Q52.565624 233.34224 52.565624 231.23286Q52.565624 229.10786 52.065624 228.42036Q51.58125 227.71724 50.83125 227.71724Q50.1125 227.71724 49.675 228.32661Q49.128124 229.10786 49.128124 231.23286ZM55.64375 235.46724L55.64375 234.26411L56.846874 234.26411L56.846874 235.46724L55.64375 235.46724ZM58.05 231.23286Q58.05 229.70161 58.3625 228.77974Q58.675 227.84224 59.284374 227.34224Q59.909374 226.84224 60.846874 226.84224Q61.534374 226.84224 62.05 227.12349Q62.58125 227.40474 62.925 227.93599Q63.26875 228.45161 63.45625 229.20161Q63.64375 229.95161 63.64375 231.23286Q63.64375 232.74849 63.33125 233.67036Q63.034374 234.59224 62.409374 235.10786Q61.8 235.60786 60.846874 235.60786Q59.6125 235.60786 58.89375 234.71724Q58.05 233.65474 58.05 231.23286ZM59.128124 231.23286Q59.128124 233.34224 59.628124 234.04536Q60.128124 234.74849 60.846874 234.74849Q61.58125 234.74849 62.065624 234.04536Q62.565624 233.34224 62.565624 231.23286Q62.565624 229.10786 62.065624 228.42036Q61.58125 227.71724 60.83125 227.71724Q60.1125 227.71724 59.675 228.32661Q59.128124 229.10786 59.128124 231.23286ZM65.05 231.23286Q65.05 229.70161 65.3625 228.77974Q65.675 227.84224 66.28438 227.34224Q66.90938 226.84224 67.84688 226.84224Q68.53438 226.84224 69.05 227.12349Q69.58125 227.40474 69.925 227.93599Q70.26875 228.45161 70.45625 229.20161Q70.64375 229.95161 70.64375 231.23286Q70.64375 232.74849 70.33125 233.67036Q70.03438 234.59224 69.40938 235.10786Q68.8 235.60786 67.84688 235.60786Q66.6125 235.60786 65.89375 234.71724Q65.05 233.65474 65.05 231.23286ZM66.12813 231.23286Q66.12813 233.34224 66.62813 234.04536Q67.12813 234.74849 67.84688 234.74849Q68.58125 234.74849 69.06563 234.04536Q69.56563 233.34224 69.56563 231.23286Q69.56563 229.10786 69.06563 228.42036Q68.58125 227.71724 67.83125 227.71724Q67.1125 227.71724 66.675 228.32661Q66.12813 229.10786 66.12813 231.23286Z" fill-rule="nonzero"/><path fill="#000000" d="M48.05 194.32275Q48.05 192.7915 48.3625 191.86963Q48.675 190.93213 49.284374 190.43213Q49.909374 189.93213 50.846874 189.93213Q51.534374 189.93213 52.05 190.21338Q52.58125 190.49463 52.925 191.02588Q53.26875 191.5415 53.45625 192.2915Q53.64375 193.0415 53.64375 194.32275Q53.64375 195.83838 53.33125 196.76025Q53.034374 197.68213 52.409374 198.19775Q51.8 198.69775 50.846874 198.69775Q49.6125 198.69775 48.89375 197.80713Q48.05 196.74463 48.05 194.32275ZM49.128124 194.32275Q49.128124 196.43213 49.628124 197.13525Q50.128124 197.83838 50.846874 197.83838Q51.58125 197.83838 52.065624 197.13525Q52.565624 196.43213 52.565624 194.32275Q52.565624 192.19775 52.065624 191.51025Q51.58125 190.80713 50.83125 190.80713Q50.1125 190.80713 49.675 191.4165Q49.128124 192.19775 49.128124 194.32275ZM55.64375 198.55713L55.64375 197.354L56.846874 197.354L56.846874 198.55713L55.64375 198.55713ZM63.596874 197.5415L63.596874 198.55713L57.909374 198.55713Q57.909374 198.18213 58.034374 197.82275Q58.253124 197.24463 58.721874 196.68213Q59.20625 196.11963 60.1125 195.38525Q61.51875 194.229 62.003124 193.55713Q62.503124 192.88525 62.503124 192.2915Q62.503124 191.6665 62.05 191.24463Q61.596874 190.80713 60.878124 190.80713Q60.1125 190.80713 59.659374 191.26025Q59.20625 191.71338 59.190624 192.52588L58.1125 192.4165Q58.221874 191.19775 58.940624 190.57275Q59.675 189.93213 60.909374 189.93213Q62.14375 189.93213 62.8625 190.61963Q63.58125 191.30713 63.58125 192.32275Q63.58125 192.83838 63.3625 193.33838Q63.159374 193.82275 62.659374 194.38525Q62.175 194.93213 61.05 195.88525Q60.096874 196.68213 59.815624 196.979Q59.55 197.26025 59.378124 197.5415L63.596874 197.5415ZM65.05 196.30713L66.15938 196.21338Q66.28438 197.02588 66.72188 197.43213Q67.175 197.83838 67.81563 197.83838Q68.56563 197.83838 69.09688 197.26025Q69.62813 196.68213 69.62813 195.74463Q69.62813 194.83838 69.1125 194.32275Q68.6125 193.7915 67.78438 193.7915Q67.28438 193.7915 66.8625 194.02588Q66.45625 194.26025 66.22188 194.61963L65.2375 194.49463L66.06563 190.08838L70.34688 190.08838L70.34688 191.08838L66.90938 191.08838L66.45625 193.40088Q67.22188 192.854 68.06563 192.854Q69.19063 192.854 69.95625 193.63525Q70.7375 194.4165 70.7375 195.65088Q70.7375 196.80713 70.06563 197.6665Q69.2375 198.69775 67.81563 198.69775Q66.64375 198.69775 65.89375 198.0415Q65.15938 197.38525 65.05 196.30713Z" fill-rule="nonzero"/><path fill="#000000" d="M48.05 157.41264Q48.05 155.8814 48.3625 154.95952Q48.675 154.02202 49.284374 153.52202Q49.909374 153.02202 50.846874 153.02202Q51.534374 153.02202 52.05 153.30327Q52.58125 153.58452 52.925 154.11577Q53.26875 154.6314 53.45625 155.3814Q53.64375 156.1314 53.64375 157.41264Q53.64375 158.92827 53.33125 159.85014Q53.034374 160.77202 52.409374 161.28764Q51.8 161.78764 50.846874 161.78764Q49.6125 161.78764 48.89375 160.89702Q48.05 159.83452 48.05 157.41264ZM49.128124 157.41264Q49.128124 159.52202 49.628124 160.22514Q50.128124 160.92827 50.846874 160.92827Q51.58125 160.92827 52.065624 160.22514Q52.565624 159.52202 52.565624 157.41264Q52.565624 155.28764 52.065624 154.60014Q51.58125 153.89702 50.83125 153.89702Q50.1125 153.89702 49.675 154.5064Q49.128124 155.28764 49.128124 157.41264ZM55.64375 161.64702L55.64375 160.4439L56.846874 160.4439L56.846874 161.64702L55.64375 161.64702ZM58.05 159.39702L59.159374 159.30327Q59.284374 160.11577 59.721874 160.52202Q60.175 160.92827 60.815624 160.92827Q61.565624 160.92827 62.096874 160.35014Q62.628124 159.77202 62.628124 158.83452Q62.628124 157.92827 62.1125 157.41264Q61.6125 156.8814 60.784374 156.8814Q60.284374 156.8814 59.8625 157.11577Q59.45625 157.35014 59.221874 157.70952L58.2375 157.58452L59.065624 153.17827L63.346874 153.17827L63.346874 154.17827L59.909374 154.17827L59.45625 156.49077Q60.221874 155.9439 61.065624 155.9439Q62.190624 155.9439 62.95625 156.72514Q63.7375 157.5064 63.7375 158.74077Q63.7375 159.89702 63.065624 160.7564Q62.2375 161.78764 60.815624 161.78764Q59.64375 161.78764 58.89375 161.1314Q58.159374 160.47514 58.05 159.39702ZM65.05 157.41264Q65.05 155.8814 65.3625 154.95952Q65.675 154.02202 66.28438 153.52202Q66.90938 153.02202 67.84688 153.02202Q68.53438 153.02202 69.05 153.30327Q69.58125 153.58452 69.925 154.11577Q70.26875 154.6314 70.45625 155.3814Q70.64375 156.1314 70.64375 157.41264Q70.64375 158.92827 70.33125 159.85014Q70.03438 160.77202 69.40938 161.28764Q68.8 161.78764 67.84688 161.78764Q66.6125 161.78764 65.89375 160.89702Q65.05 159.83452 65.05 157.41264ZM66.12813 157.41264Q66.12813 159.52202 66.62813 160.22514Q67.12813 160.92827 67.84688 160.92827Q68.58125 160.92827 69.06563 160.22514Q69.56563 159.52202 69.56563 157.41264Q69.56563 155.28764 69.06563 154.60014Q68.58125 153.89702 67.83125 153.89702Q67.1125 153.89702 66.675 154.5064Q66.12813 155.28764 66.12813 157.41264Z" fill-rule="nonzero"/><path fill="#000000" d="M48.05 120.502525Q48.05 118.971275 48.3625 118.0494Q48.675 117.1119 49.284374 116.6119Q49.909374 116.1119 50.846874 116.1119Q51.534374 116.1119 52.05 116.39315Q52.58125 116.6744 52.925 117.20565Q53.26875 117.721275 53.45625 118.471275Q53.64375 119.221275 53.64375 120.502525Q53.64375 122.01815 53.33125 122.940025Q53.034374 123.8619 52.409374 124.377525Q51.8 124.877525 50.846874 124.877525Q49.6125 124.877525 48.89375 123.9869Q48.05 122.9244 48.05 120.502525ZM49.128124 120.502525Q49.128124 122.6119 49.628124 123.315025Q50.128124 124.01815 50.846874 124.01815Q51.58125 124.01815 52.065624 123.315025Q52.565624 122.6119 52.565624 120.502525Q52.565624 118.377525 52.065624 117.690025Q51.58125 116.9869 50.83125 116.9869Q50.1125 116.9869 49.675 117.596275Q49.128124 118.377525 49.128124 120.502525ZM55.64375 124.7369L55.64375 123.533775L56.846874 123.533775L56.846874 124.7369L55.64375 124.7369ZM58.1125 117.26815L58.1125 116.252525L63.675 116.252525L63.675 117.08065Q62.8625 117.95565 62.05 119.408775Q61.253124 120.846275 60.815624 122.377525Q60.4875 123.45565 60.409374 124.7369L59.315624 124.7369Q59.33125 123.721275 59.70625 122.283775Q60.096874 120.846275 60.8 119.51815Q61.51875 118.190025 62.33125 117.26815L58.1125 117.26815ZM65.05 122.4869L66.15938 122.39315Q66.28438 123.20565 66.72188 123.6119Q67.175 124.01815 67.81563 124.01815Q68.56563 124.01815 69.09688 123.440025Q69.62813 122.8619 69.62813 121.9244Q69.62813 121.01815 69.1125 120.502525Q68.6125 119.971275 67.78438 119.971275Q67.28438 119.971275 66.8625 120.20565Q66.45625 120.440025 66.22188 120.7994L65.2375 120.6744L66.06563 116.26815L70.34688 116.26815L70.34688 117.26815L66.90938 117.26815L66.45625 119.58065Q67.22188 119.033775 68.06563 119.033775Q69.19063 119.033775 69.95625 119.815025Q70.7375 120.596275 70.7375 121.83065Q70.7375 122.9869 70.06563 123.846275Q69.2375 124.877525 67.81563 124.877525Q66.64375 124.877525 65.89375 124.221275Q65.15938 123.565025 65.05 122.4869Z" fill-rule="nonzero"/><path fill="#000000" d="M52.01875 87.82678L50.971874 87.82678L50.971874 81.10803Q50.58125 81.46741 49.95625 81.84241Q49.346874 82.20178 48.8625 82.37366L48.8625 81.35803Q49.7375 80.93616 50.39375 80.35803Q51.065624 79.76428 51.346874 79.20178L52.01875 79.20178L52.01875 87.82678ZM55.64375 87.82678L55.64375 86.62366L56.846874 86.62366L56.846874 87.82678L55.64375 87.82678ZM58.05 83.59241Q58.05 82.06116 58.3625 81.13928Q58.675 80.20178 59.284374 79.70178Q59.909374 79.20178 60.846874 79.20178Q61.534374 79.20178 62.05 79.48303Q62.58125 79.76428 62.925 80.29553Q63.26875 80.81116 63.45625 81.56116Q63.64375 82.31116 63.64375 83.59241Q63.64375 85.10803 63.33125 86.02991Q63.034374 86.95178 62.409374 87.46741Q61.8 87.96741 60.846874 87.96741Q59.6125 87.96741 58.89375 87.07678Q58.05 86.01428 58.05 83.59241ZM59.128124 83.59241Q59.128124 85.70178 59.628124 86.40491Q60.128124 87.10803 60.846874 87.10803Q61.58125 87.10803 62.065624 86.40491Q62.565624 85.70178 62.565624 83.59241Q62.565624 81.46741 62.065624 80.77991Q61.58125 80.07678 60.83125 80.07678Q60.1125 80.07678 59.675 80.68616Q59.128124 81.46741 59.128124 83.59241ZM65.05 83.59241Q65.05 82.06116 65.3625 81.13928Q65.675 80.20178 66.28438 79.70178Q66.90938 79.20178 67.84688 79.20178Q68.53438 79.20178 69.05 79.48303Q69.58125 79.76428 69.925 80.29553Q70.26875 80.81116 70.45625 81.56116Q70.64375 82.31116 70.64375 83.59241Q70.64375 85.10803 70.33125 86.02991Q70.03438 86.95178 69.40938 87.46741Q68.8 87.96741 67.84688 87.96741Q66.6125 87.96741 65.89375 87.07678Q65.05 86.01428 65.05 83.59241ZM66.12813 83.59241Q66.12813 85.70178 66.62813 86.40491Q67.12813 87.10803 67.84688 87.10803Q68.58125 87.10803 69.06563 86.40491Q69.56563 85.70178 69.56563 83.59241Q69.56563 81.46741 69.06563 80.77991Q68.58125 80.07678 67.83125 80.07678Q67.1125 80.07678 66.675 80.68616Q66.12813 81.46741 66.12813 83.59241Z" fill-rule="nonzero"/><path fill="#000000" d="M52.01875 50.916668L50.971874 50.916668L50.971874 44.197918Q50.58125 44.557293 49.95625 44.932293Q49.346874 45.291668 48.8625 45.463543L48.8625 44.447918Q49.7375 44.026043 50.39375 43.447918Q51.065624 42.854168 51.346874 42.291668L52.01875 42.291668L52.01875 50.916668ZM55.64375 50.916668L55.64375 49.713543L56.846874 49.713543L56.846874 50.916668L55.64375 50.916668ZM63.596874 49.901043L63.596874 50.916668L57.909374 50.916668Q57.909374 50.541668 58.034374 50.182293Q58.253124 49.604168 58.721874 49.041668Q59.20625 48.479168 60.1125 47.744793Q61.51875 46.588543 62.003124 45.916668Q62.503124 45.244793 62.503124 44.651043Q62.503124 44.026043 62.05 43.604168Q61.596874 43.166668 60.878124 43.166668Q60.1125 43.166668 59.659374 43.619793Q59.20625 44.072918 59.190624 44.885418L58.1125 44.776043Q58.221874 43.557293 58.940624 42.932293Q59.675 42.291668 60.909374 42.291668Q62.14375 42.291668 62.8625 42.979168Q63.58125 43.666668 63.58125 44.682293Q63.58125 45.197918 63.3625 45.697918Q63.159374 46.182293 62.659374 46.744793Q62.175 47.291668 61.05 48.244793Q60.096874 49.041668 59.815624 49.338543Q59.55 49.619793 59.378124 49.901043L63.596874 49.901043ZM65.05 48.666668L66.15938 48.572918Q66.28438 49.385418 66.72188 49.791668Q67.175 50.197918 67.81563 50.197918Q68.56563 50.197918 69.09688 49.619793Q69.62813 49.041668 69.62813 48.104168Q69.62813 47.197918 69.1125 46.682293Q68.6125 46.151043 67.78438 46.151043Q67.28438 46.151043 66.8625 46.385418Q66.45625 46.619793 66.22188 46.979168L65.2375 46.854168L66.06563 42.447918L70.34688 42.447918L70.34688 43.447918L66.90938 43.447918L66.45625 45.760418Q67.22188 45.213543 68.06563 45.213543Q69.19063 45.213543 69.95625 45.994793Q70.7375 46.776043 70.7375 48.010418Q70.7375 49.166668 70.06563 50.026043Q69.2375 51.057293 67.81563 51.057293Q66.64375 51.057293 65.89375 50.401043Q65.15938 49.744793 65.05 48.666668Z" fill-rule="nonzero"/><path fill="#000000" d="M97.36912 270.7565L91.29242 264.6798L93.39165 262.58057Q94.09875 261.87347 94.56279 261.5862Q95.203606 261.18845 95.87756 261.1332Q96.7725 261.05588 97.64533 261.46466Q98.518166 261.85138 99.324715 262.65793Q100.02077 263.35397 100.38537 264.05002Q100.761024 264.73505 100.86046 265.3427Q100.95989 265.95038 100.84941 266.45862Q100.74998 266.9558 100.44061 267.4861Q100.12021 268.0054 99.56778 268.55783L97.36912 270.7565ZM97.457504 269.2318L98.75019 267.93912Q99.35786 267.33145 99.589874 266.87845Q99.8219 266.42548 99.810844 266.01666Q99.8219 265.4532 99.49044 264.81238Q99.17003 264.16052 98.48502 263.4755Q97.53485 262.52533 96.70621 262.3375Q95.87756 262.1276 95.25885 262.39276Q94.805855 262.60266 94.09875 263.30978L92.817116 264.5914L97.457504 269.2318ZM105.23568 260.0615L106.097466 259.3765Q106.59465 260.22723 106.47312 261.10007Q106.351585 261.9729 105.58923 262.73526Q104.62801 263.69647 103.45686 263.67438Q102.29677 263.64124 101.22506 262.56952Q100.12021 261.46466 100.08706 260.28247Q100.04287 259.08923 100.948845 258.18326Q101.83273 257.29938 102.98178 257.34357Q104.14188 257.3767 105.23568 258.47052Q105.30197 258.5368 105.434555 258.6694L102.15314 261.9508Q102.92654 262.6358 103.67784 262.65793Q104.41809 262.66898 104.97052 262.11655Q105.37931 261.70773 105.45665 261.21057Q105.534 260.69128 105.23568 260.0615ZM101.58966 261.29895L104.04244 258.84616Q103.43477 258.32687 102.92654 258.28268Q102.13104 258.2164 101.567566 258.77988Q101.04829 259.29916 101.03724 259.9952Q101.03724 260.68024 101.58966 261.29895ZM111.44496 256.68066L110.89254 256.12823Q111.12456 257.19992 110.31801 258.00647Q109.78768 258.5368 109.05848 258.6915Q108.31823 258.8351 107.55588 258.5589Q106.793526 258.28268 106.11957 257.60873Q105.467705 256.95688 105.14729 256.19452Q104.82689 255.43217 104.992615 254.71402Q105.14729 253.9848 105.688675 253.44344Q106.08642 253.04568 106.56151 252.90205Q107.0366 252.75842 107.50063 252.8247L105.32407 250.64815L106.06432 249.9079L112.14102 255.98459L111.44496 256.68066ZM106.89297 256.83533Q107.7437 257.68607 108.5171 257.75235Q109.27945 257.80762 109.76559 257.32147Q110.251724 256.83533 110.19648 256.0951Q110.141235 255.35483 109.32365 254.53723Q108.41766 253.63126 107.644264 253.56496Q106.88191 253.48763 106.37368 253.99586Q105.876495 254.49304 105.953835 255.23329Q106.02013 255.9625 106.89297 256.83533ZM116.42785 251.69777L115.775986 251.0459Q116.008 252.31648 115.12412 253.20036Q114.73743 253.58707 114.2513 253.78593Q113.76516 253.9627 113.378456 253.90747Q112.98071 253.84117 112.58296 253.57602Q112.32885 253.41028 111.84271 252.92415L109.12477 250.2062L109.87607 249.45491L112.317795 251.89664Q112.89233 252.47116 113.14644 252.63689Q113.49999 252.85786 113.89774 252.81366Q114.29548 252.74738 114.637985 252.40488Q114.969444 252.07341 115.09098 251.62042Q115.21251 251.14534 115.035736 250.7255Q114.87001 250.2946 114.30653 249.73112L111.95319 247.37779L112.69344 246.63753L117.09077 251.03485L116.42785 251.69777ZM120.18436 251.32211L114.09661 245.23438L114.77057 244.56041L115.334045 245.12389Q115.24566 244.54936 115.37824 244.08531Q115.52187 243.61023 115.95277 243.17934Q116.51624 242.61586 117.2344 242.47223Q117.95255 242.3286 118.6928 242.649Q119.44411 242.95837 120.07387 243.58813Q120.74783 244.2621 121.04614 245.04654Q121.3555 245.81995 121.17873 246.57124Q121.001945 247.32254 120.49371 247.83078Q120.118065 248.20642 119.66508 248.35005Q119.201035 248.48264 118.78119 248.43845L120.92461 250.58186L120.18436 251.32211ZM116.991325 246.78116Q117.842064 247.6319 118.59337 247.6982Q119.33362 247.75343 119.819756 247.2673Q120.31694 246.77011 120.25065 245.99672Q120.18436 245.22331 119.300476 244.33943Q118.460785 243.49974 117.70948 243.43346Q116.947136 243.35611 116.461 243.84225Q115.98591 244.31734 116.06325 245.12389Q116.14059 245.93042 116.991325 246.78116Z" fill-rule="nonzero"/><path fill="#000000" d="M136.63889 283.20822L137.32388 282.39062Q137.84317 282.7994 138.3293 282.8878Q138.81544 282.9762 139.41206 282.75522Q140.00868 282.51215 140.52797 281.99286Q140.98096 281.5399 141.20193 281.05374Q141.41185 280.55655 141.34557 280.1588Q141.27927 279.73895 141.00305 279.46274Q140.71579 279.17548 140.34013 279.1313Q139.95345 279.07605 139.43416 279.30807Q139.08061 279.46274 138.04204 280.10358Q137.01453 280.73334 136.5063 280.888Q135.83234 281.09793 135.29095 280.9764Q134.73853 280.8438 134.31868 280.42398Q133.86569 279.97098 133.72206 279.31912Q133.57843 278.64517 133.87674 277.9491Q134.17505 277.23096 134.78273 276.62326Q135.45668 275.9493 136.19693 275.651Q136.92615 275.34164 137.63326 275.49634Q138.3293 275.63995 138.88173 276.1482L138.16357 276.97684Q137.52277 276.4686 136.8709 276.54593Q136.21904 276.60117 135.52298 277.29724Q134.79378 278.02643 134.72748 278.62305Q134.6612 279.2197 135.03683 279.59534Q135.3683 279.9268 135.81024 279.9047Q136.25218 279.8826 137.44542 279.1313Q138.64972 278.36896 139.18004 278.17007Q139.9645 277.89386 140.59425 278.01538Q141.21298 278.1259 141.71016 278.62305Q142.19629 279.1092 142.35098 279.8163Q142.49461 280.51236 142.2184 281.27472Q141.93114 282.026 141.27927 282.6779Q140.45062 283.50653 139.65514 283.83798Q138.85963 284.14734 138.05309 283.9816Q137.2576 283.80484 136.63889 283.20822ZM145.23465 278.52362L139.48941 275.4742L140.2628 274.70084L143.50003 276.54593L144.70432 277.2199Q144.66013 277.1315 144.03035 276.0819L142.1521 272.81152L142.91446 272.04916L146.12958 273.93848L147.19023 274.5572L146.59361 273.45233L144.80376 270.15988L145.53296 269.43066L148.54921 275.20908L147.77582 275.98245L144.43915 274.0379L143.52213 273.47443L146.01909 277.73917L145.23465 278.52362ZM153.1233 269.55222Q153.05702 270.3256 152.81395 270.85593Q152.58192 271.3752 152.13998 271.81717Q151.41078 272.54636 150.67053 272.5795Q149.93028 272.61264 149.37785 272.06024Q149.05745 271.7398 148.93591 271.33102Q148.80333 270.91116 148.89171 270.51343Q148.96906 270.10464 149.19002 269.72897Q149.33365 269.45276 149.7314 268.94455Q150.5269 267.95016 150.80312 267.3646Q150.64844 267.20993 150.61528 267.17676Q150.15125 266.71274 149.7535 266.73483Q149.22318 266.77902 148.6597 267.3425Q148.14041 267.8618 148.07413 268.3037Q147.99678 268.73462 148.33928 269.3202L147.51065 269.94995Q147.14604 269.38647 147.0908 268.8672Q147.03555 268.34793 147.31177 267.76233Q147.58798 267.17676 148.15146 266.61328Q148.71494 266.0498 149.20108 265.82886Q149.68721 265.60788 150.0518 265.64102Q150.41641 265.67416 150.79207 265.91724Q151.01303 266.07193 151.51022 266.5691L152.5046 267.56348Q153.54315 268.60202 153.86356 268.83405Q154.195 269.05502 154.59276 269.1655L153.80832 269.94995Q153.4658 269.82843 153.1233 269.55222ZM151.38869 267.95016Q151.14561 268.5247 150.4606 269.45276Q150.06287 269.9831 149.96342 270.2593Q149.85294 270.52448 149.89713 270.78964Q149.95238 271.04376 150.15125 271.24265Q150.44955 271.54095 150.8694 271.51886Q151.3003 271.4857 151.73119 271.0548Q152.16208 270.6239 152.30571 270.10464Q152.46039 269.5743 152.28362 269.08817Q152.15103 268.71252 151.6649 268.22638L151.38869 267.95016ZM157.43224 269.70688L151.3445 263.61914L152.01845 262.9452L152.58192 263.50867Q152.49355 262.93414 152.62611 262.4701Q152.76974 261.995 153.20065 261.56412Q153.76411 261.00064 154.48227 260.857Q155.20044 260.71338 155.94069 261.03378Q156.69199 261.34314 157.32175 261.9729Q157.99571 262.64688 158.29402 263.4313Q158.60338 264.2047 158.4266 264.95602Q158.24983 265.7073 157.7416 266.21555Q157.36595 266.5912 156.91295 266.73483Q156.44891 266.8674 156.02907 266.8232L158.17249 268.96664L157.43224 269.70688ZM154.23921 265.16592Q155.08995 266.01666 155.84125 266.08298Q156.5815 266.1382 157.06764 265.65207Q157.56482 265.15488 157.49854 264.3815Q157.43224 263.6081 156.54836 262.7242Q155.70866 261.88452 154.95737 261.81824Q154.195 261.74088 153.70888 262.22702Q153.2338 262.70212 153.31113 263.50867Q153.38847 264.3152 154.23921 265.16592ZM161.65279 260.77966L162.41513 261.32104Q162.16101 261.70773 161.91795 261.9508Q161.50916 262.35962 161.16664 262.45905Q160.8131 262.54742 160.50374 262.43695Q160.20543 262.3154 159.53146 261.64145L157.00134 259.11133L156.45996 259.6527L155.88544 259.0782L156.42682 258.5368L155.33301 257.443L155.63133 256.2608L157.16707 257.79657L157.91838 257.04526L158.4929 257.61978L157.7416 258.3711L160.3159 260.9454Q160.63632 261.2658 160.75784 261.32104Q160.89043 261.36523 161.03406 261.3321Q161.17769 261.29895 161.34343 261.1332Q161.476 261.00064 161.65279 260.77966ZM157.59796 255.73048L156.73618 254.8687L157.48749 254.11739L158.34927 254.97917L157.59796 255.73048ZM162.81288 260.9454L158.41556 256.54807L159.16685 255.79677L163.56418 260.1941L162.81288 260.9454ZM162.45932 256.9016Q161.23294 255.67523 161.32132 254.4157Q161.39867 253.36609 162.21626 252.5485Q163.12224 251.64252 164.29338 251.66461Q165.46452 251.66461 166.51414 252.71423Q167.36488 253.56497 167.5969 254.30522Q167.82892 255.04547 167.60794 255.81886Q167.38698 256.57016 166.81245 257.14468Q165.89542 258.06174 164.73532 258.05066Q163.57523 258.01752 162.45932 256.9016ZM163.22168 256.13928Q164.06137 256.97897 164.84581 257.0342Q165.64131 257.0784 166.19373 256.52597Q166.7572 255.9625 166.70197 255.17805Q166.64673 254.3936 165.78494 253.53181Q164.96735 252.71423 164.17184 252.67003Q163.3874 252.61479 162.83498 253.16722Q162.28255 253.71965 162.32674 254.51514Q162.37094 255.28854 163.22168 256.13928ZM169.88394 253.87433L165.48663 249.477L166.14954 248.81409L166.76825 249.43282Q166.53624 248.22852 167.45326 247.3115Q167.85101 246.91374 168.3261 246.72592Q168.81224 246.52704 169.20999 246.59334Q169.60773 246.65962 169.98338 246.9027Q170.22646 247.07947 170.74573 247.59875L173.45262 250.30565L172.71237 251.0459L170.03862 248.37215Q169.57458 247.90811 169.26523 247.77553Q168.95587 247.64294 168.60231 247.73134Q168.23772 247.80867 167.9394 248.10698Q167.46431 248.58208 167.42012 249.24498Q167.37593 249.8858 168.21562 250.7255L170.62419 253.13408L169.88394 253.87433ZM173.22061 247.90811L173.83932 247.06842Q174.34756 247.44408 174.85579 247.39987Q175.37508 247.34464 175.89435 246.82535Q176.40259 246.31712 176.44678 245.87518Q176.49098 245.41113 176.20372 245.12387Q175.9496 244.86977 175.58499 244.9471Q175.33087 245.00235 174.56853 245.45534Q173.54102 246.063 173.07698 246.23978Q172.61293 246.39445 172.18204 246.29503Q171.75114 246.19559 171.4197 245.86414Q171.13243 245.57687 171.0109 245.19017Q170.88936 244.80347 170.95566 244.40572Q171.0109 244.1074 171.22083 243.72072Q171.43074 243.33401 171.7843 242.98045Q172.29253 242.47223 172.83391 242.2402Q173.37529 241.98608 173.81723 242.05238Q174.25917 242.11867 174.7453 242.47223L174.11554 243.30087Q173.73988 243.01361 173.30899 243.06885Q172.8781 243.10199 172.43616 243.54393Q171.92793 244.05217 171.88373 244.44992Q171.82849 244.83661 172.06052 245.06863Q172.20415 245.21227 172.40302 245.23436Q172.62398 245.25645 172.88914 245.14598Q173.04382 245.07968 173.73988 244.67088Q174.75635 244.09636 175.1983 243.91959Q175.64024 243.74281 176.07114 243.82014Q176.50203 243.89749 176.88872 244.2842Q177.26437 244.65984 177.37486 245.21227Q177.48535 245.7426 177.26437 246.33922Q177.03235 246.92479 176.51308 247.44408Q175.65129 248.30586 174.84474 248.40529Q174.0382 248.48264 173.22061 247.90811Z" fill-rule="nonzero"/><path fill="#000000" d="M198.07202 281.3189L191.99533 275.2422L196.09433 271.1432L196.81248 271.86136L193.52002 275.1538L195.39827 277.03207L198.2488 274.18155L198.96695 274.8997L196.11642 277.7502L198.87857 280.51236L198.07202 281.3189ZM202.87814 276.5128L198.48082 272.11548L199.15479 271.4415L199.81769 272.1044Q199.60777 271.38626 199.67406 271.0327Q199.74036 270.65704 200.00552 270.3919Q200.38116 270.01624 200.9999 269.86157L201.44183 270.81174Q200.9999 270.9222 200.73473 271.18738Q200.4806 271.4415 200.43642 271.79504Q200.39221 272.12653 200.58005 272.46902Q200.8452 272.99936 201.30925 273.46338L203.6184 275.77252L202.87814 276.5128ZM207.30861 269.2539L208.1704 268.56888Q208.66757 269.41962 208.54604 270.29245Q208.42451 271.16528 207.66216 271.92764Q206.70093 272.88885 205.52979 272.86676Q204.36969 272.83362 203.29799 271.7619Q202.19313 270.65704 202.15999 269.47485Q202.11578 268.28162 203.02177 267.37564Q203.90565 266.49176 205.0547 266.53595Q206.2148 266.5691 207.30861 267.6629Q207.3749 267.7292 207.50748 267.8618L204.22606 271.1432Q204.99947 271.82822 205.75076 271.8503Q206.49101 271.86136 207.04344 271.30893Q207.45224 270.90012 207.52957 270.40295Q207.60692 269.88367 207.30861 269.2539ZM203.66258 270.49133L206.11536 268.03854Q205.50769 267.51926 204.99947 267.47507Q204.20396 267.40878 203.64049 267.97226Q203.1212 268.49155 203.11015 269.1876Q203.11015 269.87262 203.66258 270.49133ZM215.16412 267.60767L213.00966 265.4532Q213.07594 265.87305 212.92126 266.35916Q212.76659 266.8232 212.41302 267.17676Q211.62859 267.9612 210.4464 267.90598Q209.25314 267.8397 208.15935 266.74588Q207.49643 266.08295 207.20917 265.33167Q206.91086 264.5693 207.07658 263.87326Q207.24231 263.1551 207.7616 262.6358Q208.5792 261.8182 209.72824 262.03918L209.14267 261.4536L209.81662 260.77966L215.90437 266.8674L215.16412 267.60767ZM208.95483 266.01666Q209.80557 266.8674 210.57898 266.9337Q211.36342 266.98895 211.86061 266.49176Q212.3357 266.01666 212.28046 265.27643Q212.21416 264.52512 211.39656 263.70752Q210.51268 262.82364 209.70613 262.7463Q208.91064 262.6579 208.41345 263.1551Q207.93837 263.6302 208.01572 264.39255Q208.082 265.14383 208.95483 266.01666ZM215.61711 263.7738L211.21979 259.3765L211.8827 258.7136L212.50142 259.3323Q212.37988 258.79092 212.53456 258.2606Q212.67819 257.7192 213.12013 257.27728Q213.60628 256.79114 214.1145 256.68066Q214.63379 256.5591 215.11992 256.8022Q214.88791 255.5095 215.71655 254.68086Q216.37946 254.01794 217.08656 254.04005Q217.79367 254.04005 218.55602 254.8024L221.57228 257.81863L220.83202 258.5589L218.05884 255.78572Q217.6169 255.34378 217.34068 255.22224Q217.07552 255.08966 216.76616 255.15594Q216.4568 255.22224 216.19164 255.48741Q215.7276 255.95145 215.7276 256.57016Q215.73865 257.17783 216.42366 257.86285L218.97586 260.41507L218.22456 261.16635L215.36299 258.30478Q214.86581 257.8076 214.43492 257.75235Q214.00403 257.67502 213.59523 258.0838Q213.27481 258.40424 213.17538 258.8351Q213.07594 259.26602 213.27481 259.70795Q213.4737 260.1499 214.07031 260.74652L216.35736 263.03357L215.61711 263.7738ZM217.47327 251.48784L216.61148 250.62605L217.36278 249.87474L218.22456 250.73653L217.47327 251.48784ZM222.68817 256.70276L218.29086 252.30542L219.04216 251.55412L223.43948 255.95145L222.68817 256.70276ZM224.8095 254.58142L220.41217 250.18411L221.07509 249.5212L221.6938 250.13991Q221.46179 248.93562 222.37881 248.01859Q222.77657 247.62085 223.25165 247.43301Q223.7378 247.23415 224.13553 247.30043Q224.53328 247.36673 224.90894 247.6098Q225.15201 247.78658 225.67128 248.30585L228.37817 251.01274L227.63792 251.753L224.96417 249.07925Q224.50014 248.61522 224.19078 248.48264Q223.88142 248.35005 223.52786 248.43843Q223.16327 248.51578 222.86496 248.81409Q222.38986 249.28917 222.34567 249.95209Q222.30148 250.5929 223.14117 251.43259L225.54974 253.84117L224.8095 254.58142ZM231.35023 245.21227L232.21202 244.52725Q232.70921 245.37799 232.58768 246.25082Q232.46614 247.12366 231.70378 247.886Q230.74257 248.84723 229.57143 248.82513Q228.41132 248.79199 227.33961 247.72028Q226.23476 246.61543 226.20161 245.43323Q226.15742 244.23999 227.0634 243.33401Q227.94728 242.45012 229.09633 242.49432Q230.25642 242.52747 231.35023 243.62128Q231.41652 243.68756 231.5491 243.82014L228.26768 247.10156Q229.04109 247.78658 229.79239 247.80867Q230.53264 247.81972 231.08507 247.26729Q231.49387 246.85849 231.57121 246.36131Q231.64854 245.84203 231.35023 245.21227ZM227.70421 246.44969L230.157 243.99692Q229.54932 243.47765 229.04109 243.43344Q228.24559 243.36716 227.68211 243.93063Q227.16284 244.4499 227.1518 245.14597Q227.1518 245.83098 227.70421 246.44969Z" fill-rule="nonzero"/><path fill="#000000" d="M235.17627 295.93613L235.86127 295.11853Q236.38055 295.52734 236.86668 295.61572Q237.35283 295.7041 237.94945 295.48315Q238.54607 295.24008 239.06535 294.7208Q239.51834 294.2678 239.7393 293.78168Q239.94923 293.2845 239.88293 292.88672Q239.81665 292.4669 239.54044 292.19067Q239.25317 291.9034 238.87752 291.85922Q238.49083 291.804 237.97154 292.03598Q237.618 292.19067 236.57942 292.83148Q235.55191 293.46124 235.04369 293.61594Q234.36972 293.82587 233.82834 293.7043Q233.27591 293.57175 232.85606 293.1519Q232.40308 292.6989 232.25945 292.04703Q232.11581 291.37308 232.41412 290.67703Q232.71243 289.95886 233.32011 289.3512Q233.99406 288.67725 234.73431 288.37894Q235.46353 288.06958 236.17062 288.22424Q236.86668 288.3679 237.41911 288.8761L236.70096 289.70474Q236.06015 289.19653 235.40828 289.27386Q234.75642 289.3291 234.06036 290.02515Q233.33116 290.75436 233.26486 291.35098Q233.19858 291.9476 233.57422 292.32324Q233.90569 292.65472 234.34763 292.63263Q234.78957 292.6105 235.9828 291.85922Q237.1871 291.09686 237.71742 290.89798Q238.50188 290.6218 239.13164 290.74332Q239.75037 290.8538 240.24754 291.35098Q240.73367 291.83713 240.88835 292.54422Q241.03198 293.2403 240.75578 294.00262Q240.46852 294.75394 239.81665 295.4058Q238.988 296.23444 238.19252 296.5659Q237.39702 296.87524 236.59047 296.70953Q235.79498 296.53275 235.17627 295.93613ZM243.92671 289.77106L244.68906 290.3124Q244.43494 290.69913 244.19188 290.9422Q243.78308 291.35098 243.44057 291.4504Q243.08702 291.53882 242.77766 291.4283Q242.47935 291.3068 241.80539 290.63284L239.27527 288.10272L238.73389 288.6441L238.15936 288.06958L238.70074 287.5282L237.60695 286.4344L237.90526 285.2522L239.441 286.78793L240.1923 286.03662L240.76683 286.61115L240.01552 287.36246L242.58983 289.93677Q242.91025 290.25717 243.03177 290.3124Q243.16435 290.35663 243.30798 290.32346Q243.45161 290.2903 243.61736 290.1246Q243.74994 289.992 243.92671 289.77106ZM245.07576 289.9478L240.67844 285.5505L241.3524 284.87653L242.0153 285.53946Q241.80539 284.8213 241.87167 284.46774Q241.93797 284.0921 242.20314 283.82693Q242.57878 283.45126 243.19751 283.2966L243.63945 284.24677Q243.19751 284.35727 242.93234 284.62244Q242.67822 284.87653 242.63403 285.2301Q242.58983 285.56155 242.77766 285.90405Q243.04283 286.4344 243.50687 286.8984L245.81601 289.20758L245.07576 289.9478ZM249.50623 282.68893L250.36801 282.0039Q250.86519 282.85464 250.74365 283.72748Q250.62213 284.6003 249.85977 285.36267Q248.89856 286.32388 247.7274 286.3018Q246.5673 286.26865 245.4956 285.19696Q244.39075 284.0921 244.3576 282.9099Q244.3134 281.71664 245.21939 280.81067Q246.10327 279.9268 247.25232 279.97098Q248.41241 280.00412 249.50623 281.09793Q249.57251 281.1642 249.7051 281.2968L246.42368 284.57822Q247.19708 285.26324 247.94838 285.28534Q248.68863 285.2964 249.24106 284.74396Q249.64986 284.33517 249.72719 283.83798Q249.80453 283.3187 249.50623 282.68893ZM245.8602 283.92636L248.31297 281.47357Q247.7053 280.9543 247.19708 280.91013Q246.40158 280.8438 245.8381 281.4073Q245.31883 281.92657 245.30777 282.62265Q245.30777 283.30765 245.8602 283.92636ZM255.19621 278.7446Q255.12991 279.518 254.88686 280.04834Q254.65483 280.56763 254.2129 281.00955Q253.4837 281.73874 252.74344 281.7719Q252.00319 281.80505 251.45076 281.25262Q251.13036 280.93222 251.00882 280.5234Q250.87624 280.10358 250.96463 279.7058Q251.04198 279.29703 251.26294 278.9214Q251.40657 278.64517 251.8043 278.13693Q252.59981 277.14258 252.87602 276.557Q252.72134 276.4023 252.68819 276.36917Q252.22415 275.90512 251.8264 275.92722Q251.29608 275.97144 250.7326 276.5349Q250.21333 277.05417 250.14703 277.49612Q250.0697 277.927 250.4122 278.51257L249.58356 279.14233Q249.21896 278.57886 249.16371 278.0596Q249.10847 277.5403 249.38469 276.95474Q249.66089 276.36917 250.22437 275.8057Q250.78784 275.24222 251.27397 275.02124Q251.76012 274.80026 252.12471 274.83344Q252.48932 274.86658 252.86497 275.10965Q253.08594 275.2643 253.58313 275.7615L254.5775 276.75586Q255.61606 277.79443 255.93646 278.02646Q256.2679 278.24744 256.66568 278.3579L255.88123 279.14236Q255.53871 279.0208 255.19621 278.7446ZM253.4616 277.14258Q253.21852 277.7171 252.53351 278.64517Q252.13577 279.17548 252.03635 279.4517Q251.92586 279.71686 251.97005 279.98203Q252.02528 280.23615 252.22417 280.43503Q252.52248 280.73334 252.94232 280.71124Q253.37321 280.6781 253.8041 280.24722Q254.23499 279.8163 254.37862 279.29703Q254.5333 278.7667 254.35652 278.28058Q254.22394 277.9049 253.73781 277.4188L253.4616 277.14258ZM257.81473 277.20886L253.41739 272.81155L254.0803 272.14862L254.69902 272.76733Q254.5775 272.22595 254.73218 271.69565Q254.87581 271.15427 255.31775 270.7123Q255.80388 270.22617 256.3121 270.1157Q256.8314 269.99417 257.31754 270.23724Q257.0855 268.94455 257.91415 268.1159Q258.57706 267.453 259.28418 267.4751Q259.99127 267.4751 260.75363 268.23746L263.76987 271.2537L263.02963 271.99396L260.25644 269.22076Q259.8145 268.7788 259.5383 268.6573Q259.27313 268.52472 258.96378 268.591Q258.65442 268.6573 258.38925 268.92245Q257.9252 269.3865 257.9252 270.00522Q257.93625 270.61288 258.62125 271.29788L261.17346 273.8501L260.42218 274.6014L257.5606 271.73984Q257.06342 271.24265 256.6325 271.1874Q256.20163 271.11008 255.79283 271.51886Q255.47243 271.83926 255.37299 272.27017Q255.27354 272.70105 255.47243 273.143Q255.6713 273.58493 256.2679 274.18155L258.55496 276.4686L257.81473 277.20886ZM266.14532 265.65207L266.97397 265.0223Q267.60373 265.89514 267.53745 266.82324Q267.47113 267.7513 266.753 268.46945Q265.84702 269.37543 264.709 269.3423Q263.571 269.28705 262.46616 268.1822Q261.75903 267.4751 261.46072 266.71274Q261.1624 265.92828 261.37234 265.18805Q261.59332 264.43674 262.16785 263.8622Q262.87494 263.15512 263.69254 263.0667Q264.51013 262.95624 265.31668 263.49762L264.69797 264.3373Q264.1566 263.9948 263.67044 264.039Q263.17325 264.07214 262.7976 264.44778Q262.23413 265.01126 262.28937 265.77362Q262.33356 266.52493 263.20642 267.39777Q264.10135 268.2927 264.84158 268.34793Q265.58185 268.40317 266.12323 267.8618Q266.56516 267.41986 266.58725 266.86743Q266.6204 266.30396 266.14532 265.65207ZM269.10632 265.91724L263.02963 259.84055L263.78094 259.08923L269.85764 265.16595L269.10632 265.91724ZM274.13342 260.89017L273.48154 260.2383Q273.71356 261.50888 272.82968 262.39276Q272.443 262.77945 271.95685 262.97833Q271.4707 263.15512 271.084 263.09988Q270.68628 263.03357 270.2885 262.7684Q270.0344 262.6027 269.54828 262.11655L266.83032 259.39862L267.58163 258.6473L270.02335 261.08902Q270.59787 261.66354 270.852 261.82928Q271.20557 262.05026 271.6033 262.00607Q272.00104 261.93976 272.34354 261.59726Q272.67502 261.2658 272.79654 260.81284Q272.9181 260.33774 272.7413 259.91788Q272.57556 259.487 272.0121 258.92352L269.65875 256.5702L270.39902 255.82993L274.79633 260.22723L274.13342 260.89017ZM274.5864 257.80762L275.20514 256.96793Q275.71335 257.34357 276.2216 257.29938Q276.74088 257.24414 277.26016 256.72485Q277.76837 256.2166 277.8126 255.77469Q277.85678 255.31065 277.56952 255.02339Q277.3154 254.76927 276.9508 254.8466Q276.6967 254.90186 275.93433 255.35484Q274.9068 255.96251 274.44278 256.13928Q273.97873 256.29398 273.54785 256.19452Q273.11694 256.0951 272.7855 255.76364Q272.49823 255.47638 272.3767 255.08968Q272.25516 254.70297 272.32144 254.30522Q272.3767 254.00691 272.5866 253.62022Q272.79654 253.23352 273.1501 252.87997Q273.65833 252.37173 274.1997 252.13971Q274.7411 251.8856 275.183 251.95189Q275.62497 252.01817 276.1111 252.37173L275.48132 253.20038Q275.10568 252.91312 274.6748 252.96835Q274.2439 253.0015 273.80197 253.44344Q273.29373 253.95168 273.24954 254.34943Q273.19427 254.73613 273.4263 254.96814Q273.56995 255.11177 273.7688 255.13387Q273.98978 255.15596 274.25494 255.04549Q274.40964 254.97919 275.10568 254.57039Q276.12216 253.99586 276.5641 253.81909Q277.00604 253.64232 277.43692 253.71965Q277.86783 253.797 278.25452 254.1837Q278.63016 254.55934 278.74066 255.11177Q278.85114 255.6421 278.63016 256.23874Q278.39816 256.8243 277.87888 257.34357Q277.0171 258.20535 276.21054 258.3048Q275.404 258.38214 274.5864 257.80762ZM281.40335 252.29439L282.1657 252.83577Q281.9116 253.22247 281.66852 253.46555Q281.25974 253.87433 280.9172 253.97377Q280.56366 254.06216 280.2543 253.95168Q279.956 253.83014 279.28204 253.15617L276.75192 250.62607L276.21054 251.16745L275.63602 250.59293L276.1774 250.05154L275.0836 248.95773L275.3819 247.77554L276.91763 249.3113L277.66895 248.55998L278.24347 249.1345L277.4922 249.88582L280.0665 252.46013Q280.3869 252.78053 280.50842 252.83577Q280.64102 252.87997 280.78464 252.84682Q280.92828 252.81367 281.094 252.64795Q281.2266 252.51537 281.40335 252.29439ZM284.15445 248.04071L285.01624 247.3557Q285.51343 248.20644 285.39188 249.07927Q285.27036 249.9521 284.508 250.71445Q283.54678 251.67567 282.37564 251.65358Q281.21555 251.62044 280.14383 250.54872Q279.03897 249.44386 279.00583 248.26167Q278.96164 247.06844 279.8676 246.16245Q280.7515 245.27856 281.90054 245.32277Q283.06064 245.35591 284.15445 246.4497Q284.22073 246.516 284.35333 246.64859L281.0719 249.93001Q281.8453 250.61502 282.5966 250.63712Q283.33685 250.64816 283.88928 250.09573Q284.29807 249.68694 284.37543 249.18976Q284.45276 248.67047 284.15445 248.04071ZM280.50842 249.27814L282.9612 246.82536Q282.35355 246.30608 281.8453 246.26189Q281.0498 246.1956 280.48633 246.75908Q279.96704 247.27835 279.956 247.97441Q279.956 248.65942 280.50842 249.27814ZM287.50217 247.52142L283.10483 243.1241L283.7788 242.45013L284.4417 243.11305Q284.23178 242.3949 284.29807 242.04135Q284.36438 241.6657 284.62952 241.40053Q285.0052 241.02489 285.6239 240.8702L286.06586 241.82037Q285.6239 241.93086 285.35873 242.19603Q285.1046 242.45013 285.06042 242.8037Q285.01624 243.13515 285.20407 243.47766Q285.4692 244.00798 285.93326 244.47203L288.2424 246.78117L287.50217 247.52142Z" fill-rule="nonzero"/><path fill="#000000" d="M326.38522 264.271L325.7002 260.38193L322.10944 259.75217L323.0375 258.82407L324.73898 259.17764Q325.22513 259.28812 325.54553 259.36545Q325.4461 258.91248 325.39084 258.54785L325.09253 256.76904L325.98746 255.87411L326.52884 259.4649L330.49527 260.16095L329.5893 261.06693L327.3133 260.6029L326.70563 260.48135L327.28015 263.37607L326.38522 264.271ZM334.1192 255.10072L334.83734 255.81888L330.81567 259.84055Q330.5505 259.57538 330.3848 259.23288Q330.13068 258.6694 330.0644 257.9402Q330.00916 257.19995 330.13068 256.03986Q330.30746 254.22789 330.17487 253.4103Q330.05334 252.58165 329.63348 252.1618Q329.19156 251.71986 328.57285 251.74196Q327.94305 251.753 327.43484 252.26125Q326.89346 252.80263 326.89346 253.44344Q326.89346 254.08426 327.45694 254.66983L326.61725 255.35484Q325.8328 254.41571 325.89908 253.46553Q325.96536 252.49326 326.8382 251.62042Q327.71103 250.74759 328.7054 250.7255Q329.69977 250.7034 330.41794 251.42155Q330.78253 251.78616 330.9814 252.29439Q331.1803 252.78052 331.2245 253.53183Q331.26868 254.26103 331.14716 255.73048Q331.03665 256.96793 331.0477 257.3767Q331.05875 257.76343 331.13608 258.08383L334.1192 255.10072ZM335.14673 246.33922L334.4617 247.13472Q333.92032 246.79222 333.54468 246.77011Q332.91492 246.75906 332.47296 247.201Q332.11942 247.55457 332.04208 248.02965Q331.96472 248.63731 332.25198 249.34442Q332.53925 250.02943 333.4342 250.94647Q333.29056 250.2725 333.4784 249.68694Q333.67725 249.09032 334.10815 248.65942Q334.8484 247.91916 335.9201 247.95232Q337.00287 247.97441 337.86465 248.8362Q338.43918 249.41072 338.68225 250.16202Q338.92532 250.89122 338.75958 251.58728Q338.58282 252.2723 338.04144 252.81367Q337.1023 253.75279 335.83173 253.65337Q334.56113 253.55392 332.99225 251.98503Q331.2245 250.21727 331.08084 248.7699Q330.94827 247.51038 331.9095 246.54915Q332.62766 245.831 333.48944 245.7868Q334.35123 245.7205 335.14673 246.33922ZM334.72687 251.99608Q335.11356 252.38278 335.6218 252.58165Q336.13004 252.75842 336.60513 252.659Q337.09125 252.54851 337.4227 252.21706Q337.88675 251.753 337.8536 251.03485Q337.80942 250.30565 337.15756 249.6538Q336.52777 249.02402 335.82068 249.00192Q335.1246 248.96878 334.6164 249.477Q334.10815 249.98524 334.1192 250.7034Q334.1413 251.4105 334.72687 251.99608ZM343.2011 247.45512L341.7427 245.99672L339.11313 248.62627L338.42813 247.94127L337.26804 241.2348L337.8757 240.62712L341.809 244.56041L342.6266 243.74281L343.31158 244.42783L342.494 245.24542L343.9524 246.70383L343.2011 247.45512ZM341.05768 245.3117L338.3287 242.58272L339.15735 247.21207L341.05768 245.3117Z" fill-rule="nonzero"/><path fill="#000000" d="M351.53494 294.75394L345.45825 288.67725L349.55725 284.57822L350.27542 285.2964L346.98294 288.58884L348.8612 290.4671L351.71173 287.61658L352.42987 288.33475L349.57935 291.18527L352.3415 293.9474L351.53494 294.75394ZM356.33002 289.95886L350.25333 283.88217L351.0046 283.13086L357.08133 289.20758L356.33002 289.95886ZM361.3571 284.9318L360.70523 284.2799Q360.93726 285.5505 360.05338 286.4344Q359.6667 286.82108 359.18054 287.01996Q358.6944 287.19675 358.3077 287.14148Q357.90994 287.0752 357.5122 286.81003Q357.2581 286.64432 356.77194 286.15817L354.05402 283.44022L354.80533 282.68893L357.24704 285.13065Q357.82156 285.70517 358.07568 285.8709Q358.42923 286.0919 358.827 286.0477Q359.22473 285.98138 359.56723 285.6389Q359.89868 285.30743 360.02023 284.85443Q360.14175 284.37936 359.965 283.9595Q359.79926 283.52863 359.23578 282.96515L356.88245 280.61182L357.62268 279.87155L362.02002 284.26886L361.3571 284.9318ZM358.20825 277.6508L357.34647 276.789L358.09778 276.0377L358.95956 276.8995L358.20825 277.6508ZM363.4232 282.8657L359.02585 278.46838L359.77716 277.71707L364.17447 282.1144L363.4232 282.8657ZM368.39502 277.89386L367.8426 277.34143Q368.07462 278.41315 367.26807 279.2197Q366.73773 279.75 366.00854 279.9047Q365.26828 280.04834 364.50592 279.77213Q363.7436 279.4959 363.0696 278.82193Q362.41776 278.17007 362.09735 277.4077Q361.77695 276.6454 361.9427 275.92722Q362.09735 275.19803 362.63873 274.65665Q363.03647 274.25888 363.51157 274.11526Q363.98666 273.97162 364.45068 274.0379L362.27414 271.86136L363.01437 271.1211L369.0911 277.1978L368.39502 277.89386ZM363.84302 278.04855Q364.69376 278.8993 365.46716 278.96558Q366.22952 279.0208 366.71564 278.53467Q367.20178 278.04855 367.14655 277.3083Q367.0913 276.56802 366.2737 275.75043Q365.36774 274.84445 364.59433 274.77817Q363.83197 274.70084 363.32373 275.20908Q362.82657 275.70624 362.9039 276.4465Q362.97018 277.1757 363.84302 278.04855ZM372.8255 272.38065Q372.7592 273.15402 372.51614 273.68436Q372.28412 274.20364 371.84216 274.6456Q371.11298 275.3748 370.3727 275.40793Q369.63245 275.44107 369.08005 274.88864Q368.7596 274.56824 368.6381 274.15945Q368.5055 273.7396 368.5939 273.34186Q368.67123 272.93307 368.8922 272.5574Q369.03583 272.2812 369.4336 271.77298Q370.2291 270.7786 370.50528 270.19302Q370.35062 270.03833 370.31747 270.0052Q369.85342 269.54117 369.4557 269.56326Q368.92535 269.60745 368.36188 270.17093Q367.8426 270.69022 367.7763 271.13214Q367.69897 271.56305 368.04147 272.14862L367.21283 272.77838Q366.84824 272.2149 366.79297 271.69562Q366.73773 271.17633 367.01395 270.59076Q367.29016 270.0052 367.85364 269.4417Q368.4171 268.87823 368.90326 268.6573Q369.3894 268.4363 369.754 268.46945Q370.1186 268.5026 370.49423 268.74567Q370.7152 268.90036 371.2124 269.39752L372.20676 270.3919Q373.24533 271.43045 373.56573 271.66248Q373.8972 271.88345 374.29495 271.99393L373.5105 272.77838Q373.168 272.65686 372.8255 272.38065ZM371.09088 270.7786Q370.8478 271.35312 370.16278 272.2812Q369.76505 272.81152 369.66562 273.08774Q369.5551 273.3529 369.5993 273.61807Q369.65457 273.8722 369.85342 274.07108Q370.15173 274.3694 370.5716 274.3473Q371.00247 274.31412 371.43338 273.88324Q371.86426 273.45233 372.0079 272.93307Q372.16257 272.40274 371.9858 271.9166Q371.8532 271.54095 371.3671 271.0548L371.09088 270.7786ZM375.444 270.84488L371.04666 266.44757L371.7096 265.78467L372.3283 266.40338Q372.09628 265.1991 373.0133 264.28204Q373.41107 263.8843 373.88614 263.69647Q374.37228 263.49762 374.77002 263.5639Q375.1678 263.6302 375.54343 263.87326Q375.7865 264.05005 376.3058 264.5693L379.01266 267.2762L378.27243 268.01645L375.59866 265.3427Q375.13464 264.87866 374.8253 264.7461Q374.51593 264.61353 374.16235 264.7019Q373.79776 264.77924 373.49945 265.07755Q373.02435 265.55264 372.98016 266.21555Q372.93597 266.85635 373.77567 267.69604L376.18423 270.10464L375.444 270.84488ZM375.17883 260.68024L374.31705 259.81845L375.06833 259.06714L375.9301 259.92892L375.17883 260.68024ZM380.39374 265.89514L375.99643 261.49783L376.7477 260.74652L381.14505 265.14383L380.39374 265.89514ZM382.51508 263.77383L378.11774 259.3765L378.78064 258.7136L379.39938 259.3323Q379.27783 258.79092 379.43253 258.2606Q379.57614 257.7192 380.0181 257.27728Q380.5042 256.79114 381.01245 256.68066Q381.53174 256.5591 382.01788 256.8022Q381.78586 255.5095 382.6145 254.68086Q383.2774 254.01796 383.98453 254.04005Q384.69162 254.04005 385.45398 254.8024L388.4702 257.81866L387.72998 258.5589L384.9568 255.78572Q384.51486 255.34378 384.23865 255.22224Q383.97348 255.08966 383.66412 255.15596Q383.35474 255.22224 383.0896 255.48741Q382.62555 255.95145 382.62555 256.57016Q382.6366 257.17783 383.3216 257.86285L385.8738 260.41507L385.12253 261.16635L382.26096 258.30478Q381.76376 257.80762 381.33286 257.75235Q380.90198 257.67502 380.49316 258.08383Q380.17276 258.40424 380.07333 258.8351Q379.9739 259.26602 380.17276 259.70795Q380.37164 260.1499 380.96826 260.74652L383.2553 263.03357L382.51508 263.77383ZM391.91736 253.28876Q391.85107 254.06215 391.608 254.59248Q391.376 255.11176 390.93405 255.55371Q390.20483 256.2829 389.4646 256.31604Q388.72433 256.3492 388.1719 255.79677Q387.8515 255.47636 387.72998 255.06757Q387.59738 254.64772 387.6858 254.24997Q387.76312 253.84119 387.9841 253.46553Q388.12772 253.18932 388.52548 252.68108Q389.32095 251.68672 389.59717 251.10114Q389.4425 250.94646 389.40936 250.91331Q388.9453 250.44928 388.54758 250.47137Q388.01724 250.51556 387.45377 251.07904Q386.93448 251.59833 386.8682 252.04027Q386.79083 252.47116 387.13336 253.05673L386.30472 253.68651Q385.94012 253.12303 385.88486 252.60374Q385.82962 252.08446 386.10583 251.49889Q386.38205 250.91331 386.94553 250.34984Q387.509 249.78636 387.99515 249.5654Q388.48126 249.34442 388.8459 249.37756Q389.21048 249.41072 389.58612 249.65378Q389.8071 249.80846 390.3043 250.30565L391.29865 251.30002Q392.33722 252.33858 392.65762 252.5706Q392.98907 252.79156 393.38684 252.90205L392.6024 253.68651Q392.2599 253.56497 391.91736 253.28876ZM390.18274 251.68672Q389.9397 252.26125 389.25467 253.18932Q388.85693 253.71965 388.75748 253.99586Q388.647 254.26103 388.6912 254.52618Q388.74643 254.7803 388.9453 254.97919Q389.24362 255.2775 389.66348 255.2554Q390.09436 255.22224 390.52527 254.79135Q390.95615 254.36046 391.0998 253.84119Q391.25446 253.31085 391.0777 252.8247Q390.9451 252.44907 390.45895 251.96292L390.18274 251.68672ZM395.4971 249.46596L396.25946 250.00734Q396.00534 250.39403 395.76227 250.6371Q395.35345 251.0459 395.01096 251.14534Q394.6574 251.23372 394.34805 251.12325Q394.04974 251.00171 393.3758 250.32774L390.84567 247.79762L390.3043 248.339L389.72977 247.76448L390.27115 247.2231L389.17734 246.1293L389.47565 244.9471L391.01138 246.48285L391.7627 245.73155L392.33722 246.30608L391.5859 247.05737L394.16022 249.63168Q394.48062 249.95209 394.60217 250.00734Q394.73474 250.05153 394.8784 250.01839Q395.022 249.98524 395.18774 249.8195Q395.3203 249.68694 395.4971 249.46596ZM398.2482 245.21227L399.11 244.52725Q399.60715 245.37799 399.48563 246.25082Q399.3641 247.12367 398.60175 247.88602Q397.6405 248.84724 396.46936 248.82513Q395.30927 248.79199 394.23758 247.72029Q393.13272 246.61543 393.09958 245.43324Q393.05536 244.23999 393.96136 243.33401Q394.84525 242.45013 395.9943 242.49432Q397.1544 242.52747 398.2482 243.62128Q398.31448 243.68758 398.44705 243.82014L395.16565 247.10156Q395.93906 247.78658 396.69034 247.80867Q397.4306 247.81972 397.98303 247.2673Q398.3918 246.8585 398.46915 246.36131Q398.5465 245.84204 398.2482 245.21227ZM394.60217 246.4497L397.05493 243.99693Q396.44727 243.47765 395.93906 243.43346Q395.14355 243.36716 394.58008 243.93063Q394.0608 244.44992 394.04974 245.14598Q394.04974 245.831 394.60217 246.4497Z" fill-rule="nonzero"/><path fill="#000000" d="M424.13815 277.78336L420.3927 269.37543L421.2545 268.51364L429.8171 272.10443L428.91113 273.0104L426.34787 271.88345L423.81775 274.41357L424.9889 276.93262L424.13815 277.78336ZM423.39792 273.5297L425.45294 271.47464L423.1438 270.42505Q422.08313 269.961 421.45337 269.5964Q421.91742 270.3035 422.282 271.08795L423.39792 273.5297ZM431.58487 270.33664L425.51923 267.60767L426.30368 266.8232L429.88342 268.5026Q430.45795 268.78986 431.04352 269.11026Q430.80045 268.66833 430.4911 268.0054L428.7896 264.33728L429.55194 263.57495L432.28094 269.6406L431.58487 270.33664ZM436.2032 262.88992L437.06497 262.20493Q437.56213 263.05566 437.4406 263.9285Q437.3191 264.80133 436.55673 265.5637Q435.59552 266.5249 434.42435 266.5028Q433.26425 266.46967 432.19257 265.39795Q431.0877 264.2931 431.05457 263.1109Q431.01035 261.91766 431.91635 261.0117Q432.80023 260.1278 433.94928 260.172Q435.10938 260.20514 436.2032 261.29895Q436.26947 261.36523 436.40204 261.4978L433.12064 264.77924Q433.89404 265.46423 434.64532 265.48633Q435.3856 265.49738 435.93802 264.94498Q436.3468 264.53616 436.42413 264.03897Q436.5015 263.5197 436.2032 262.88992ZM432.55716 264.12738L435.00992 261.6746Q434.40225 261.1553 433.89404 261.1111Q433.09854 261.04483 432.53506 261.6083Q432.01578 262.1276 432.00473 262.82364Q432.00473 263.50864 432.55716 264.12738ZM439.55087 262.37064L435.15356 257.97333L435.8275 257.29938L436.49045 257.96228Q436.28052 257.24414 436.3468 256.89056Q436.4131 256.51492 436.67825 256.24976Q437.05392 255.87411 437.67264 255.71942L438.11456 256.66962Q437.67264 256.7801 437.40747 257.04526Q437.15335 257.29938 437.10916 257.65292Q437.06497 257.98438 437.25278 258.32687Q437.51794 258.8572 437.982 259.32126L440.29114 261.6304L439.55087 262.37064ZM444.7216 256.1172Q444.6553 256.89056 444.41223 257.4209Q444.18024 257.9402 443.73828 258.38214Q443.00906 259.11133 442.26883 259.14447Q441.52856 259.1776 440.97614 258.62518Q440.65573 258.30478 440.5342 257.896Q440.4016 257.47614 440.49002 257.0784Q440.56735 256.66962 440.78833 256.29395Q440.93195 256.01773 441.3297 255.5095Q442.12518 254.51514 442.4014 253.92957Q442.24673 253.77489 442.2136 253.74174Q441.74954 253.2777 441.3518 253.29979Q440.82147 253.344 440.258 253.90747Q439.7387 254.42674 439.67242 254.86868Q439.5951 255.29958 439.9376 255.88516L439.10895 256.51492Q438.74435 255.95145 438.6891 255.43216Q438.63385 254.91289 438.91006 254.32732Q439.18628 253.74174 439.74976 253.17827Q440.31323 252.61479 440.79938 252.39381Q441.2855 252.17285 441.65012 252.206Q442.0147 252.23914 442.39035 252.48221Q442.61133 252.63689 443.10852 253.13406L444.10287 254.12843Q445.14145 255.167 445.46185 255.39902Q445.7933 255.62 446.19107 255.73048L445.40662 256.51492Q445.06412 256.3934 444.7216 256.1172ZM442.98697 254.51514Q442.74393 255.08966 442.0589 256.01773Q441.66116 256.54807 441.5617 256.82428Q441.45123 257.08945 441.49542 257.3546Q441.55066 257.60873 441.74954 257.80762Q442.04785 258.10593 442.4677 258.0838Q442.8986 258.05066 443.3295 257.61978Q443.76038 257.18887 443.90402 256.66962Q444.0587 256.13928 443.88193 255.65314Q443.74933 255.27748 443.26318 254.79135L442.98697 254.51514ZM447.56107 255.08966L448.40076 254.47095Q448.77643 254.75821 449.14102 254.70296Q449.62717 254.63667 450.10223 254.16159Q450.62152 253.6423 450.6878 253.15616Q450.76517 252.65898 450.5 252.19495Q450.33426 251.89664 449.59402 251.17848Q449.6824 252.23914 448.9532 252.96834Q448.0472 253.87433 446.89816 253.71964Q445.73807 253.55391 444.8321 252.64793Q444.20233 252.01817 443.89297 251.26686Q443.5836 250.49347 443.72723 249.77531Q443.87085 249.05716 444.45645 248.47159Q445.24088 247.68713 446.37888 247.80867L445.84854 247.27834L446.53357 246.59334L450.33426 250.39403Q451.3618 251.42154 451.58273 252.06236Q451.8037 252.70317 451.5938 253.39923Q451.39493 254.10634 450.73203 254.76926Q449.94757 255.5537 449.10788 255.68628Q448.2682 255.81886 447.56107 255.08966ZM445.53918 251.83034Q446.40097 252.69212 447.14124 252.74738Q447.8815 252.80261 448.40076 252.28333Q448.92004 251.76405 448.8648 251.0238Q448.82062 250.27249 447.98093 249.4328Q447.17438 248.62627 446.40097 248.58206Q445.63864 248.52682 445.1304 249.03506Q444.6332 249.53224 444.68845 250.29459Q444.7437 251.03485 445.53918 251.83034ZM453.88086 245.21227L454.74265 244.52725Q455.2398 245.37799 455.1183 246.25082Q454.99673 247.12366 454.2344 247.88602Q453.27316 248.84723 452.10202 248.82513Q450.94193 248.79199 449.8702 247.72028Q448.76538 246.61543 448.73224 245.43323Q448.68802 244.23999 449.59402 243.33401Q450.4779 242.45013 451.62695 242.49432Q452.78705 242.52747 453.88086 243.62128Q453.94714 243.68756 454.0797 243.82014L450.7983 247.10156Q451.5717 247.78658 452.323 247.80867Q453.06326 247.81972 453.6157 247.26729Q454.02448 246.85849 454.1018 246.36131Q454.17917 245.84203 453.88086 245.21227ZM450.23483 246.4497L452.6876 243.99692Q452.07993 243.47765 451.5717 243.43344Q450.7762 243.36716 450.21274 243.93063Q449.69345 244.44992 449.6824 245.14597Q449.6824 245.83098 450.23483 246.4497Z" fill-rule="nonzero"/><path fill="#4285f4" d="M108.0 17.55C108.0 16.997715 108.447716 16.55 109.0 16.55L119.0 16.55C119.552284 16.55 120.0 16.997715 120.0 17.55L120.0 27.55C120.0 28.102285 119.552284 28.55 119.0 28.55L109.0 28.55C108.447716 28.55 108.0 28.102285 108.0 27.55Z" fill-rule="nonzero"/><path fill="#1a1a1a" d="M128.9375 26.55L128.9375 17.95625L132.75 17.95625Q133.90625 17.95625 134.5 18.190624Q135.09375 18.425 135.45312 19.01875Q135.8125 19.596874 135.8125 20.3Q135.8125 21.221874 135.21875 21.846874Q134.625 22.471874 133.39062 22.64375Q133.84375 22.8625 134.07812 23.065624Q134.57812 23.51875 135.01562 24.20625L136.51562 26.55L135.07812 26.55L133.95312 24.76875Q133.45312 23.9875 133.125 23.58125Q132.8125 23.175 132.54688 23.01875Q132.29688 22.846874 132.03125 22.76875Q131.84375 22.7375 131.40625 22.7375L130.07812 22.7375L130.07812 26.55L128.9375 26.55ZM130.07812 21.753124L132.53125 21.753124Q133.29688 21.753124 133.73438 21.596874Q134.1875 21.425 134.40625 21.08125Q134.64062 20.721874 134.64062 20.3Q134.64062 19.690624 134.1875 19.3Q133.75 18.909374 132.79688 18.909374L130.07812 18.909374L130.07812 21.753124ZM141.85938 25.784374Q141.26562 26.284374 140.71875 26.4875Q140.1875 26.690624 139.5625 26.690624Q138.53125 26.690624 137.98438 26.190624Q137.4375 25.690624 137.4375 24.909374Q137.4375 24.45625 137.64062 24.08125Q137.84375 23.690624 138.1875 23.471874Q138.53125 23.2375 138.95312 23.128124Q139.25 23.034374 139.89062 22.95625Q141.15625 22.815624 141.76562 22.596874Q141.76562 22.378124 141.76562 22.33125Q141.76562 21.675 141.46875 21.409374Q141.0625 21.065624 140.26562 21.065624Q139.53125 21.065624 139.17188 21.33125Q138.8125 21.58125 138.64062 22.2375L137.60938 22.096874Q137.75 21.440624 138.07812 21.034374Q138.40625 20.628124 139.01562 20.409374Q139.625 20.190624 140.42188 20.190624Q141.21875 20.190624 141.71875 20.378124Q142.21875 20.565624 142.45312 20.846874Q142.6875 21.128124 142.78125 21.565624Q142.82812 21.83125 142.82812 22.534374L142.82812 23.940624Q142.82812 25.409374 142.89062 25.8Q142.96875 26.190624 143.17188 26.55L142.0625 26.55Q141.90625 26.221874 141.85938 25.784374ZM141.76562 23.425Q141.1875 23.659374 140.04688 23.83125Q139.39062 23.925 139.125 24.05Q138.85938 24.159374 138.70312 24.378124Q138.5625 24.596874 138.5625 24.878124Q138.5625 25.3 138.875 25.58125Q139.20312 25.8625 139.8125 25.8625Q140.42188 25.8625 140.89062 25.596874Q141.375 25.33125 141.59375 24.8625Q141.76562 24.503124 141.76562 23.815624L141.76562 23.425ZM144.79688 26.55L144.79688 20.33125L145.73438 20.33125L145.73438 21.20625Q146.42188 20.190624 147.71875 20.190624Q148.28125 20.190624 148.75 20.39375Q149.23438 20.596874 149.46875 20.925Q149.70312 21.253124 149.79688 21.690624Q149.84375 21.9875 149.84375 22.721874L149.84375 26.55L148.79688 26.55L148.79688 22.76875Q148.79688 22.1125 148.67188 21.8Q148.54688 21.4875 148.23438 21.3Q147.92188 21.096874 147.5 21.096874Q146.82812 21.096874 146.32812 21.534374Q145.84375 21.95625 145.84375 23.14375L145.84375 26.55L144.79688 26.55ZM155.82812 26.55L155.82812 25.76875Q155.23438 26.690624 154.09375 26.690624Q153.34375 26.690624 152.71875 26.284374Q152.09375 25.8625 151.75 25.128124Q151.40625 24.39375 151.40625 23.440624Q151.40625 22.51875 151.71875 21.753124Q152.03125 20.9875 152.65625 20.596874Q153.28125 20.190624 154.04688 20.190624Q154.60938 20.190624 155.04688 20.425Q155.48438 20.659374 155.76562 21.034374L155.76562 17.95625L156.8125 17.95625L156.8125 26.55L155.82812 26.55ZM152.5 23.440624Q152.5 24.64375 153.0 25.2375Q153.5 25.815624 154.1875 25.815624Q154.875 25.815624 155.35938 25.253124Q155.84375 24.690624 155.84375 23.534374Q155.84375 22.253124 155.34375 21.659374Q154.85938 21.065624 154.14062 21.065624Q153.4375 21.065624 152.96875 21.64375Q152.5 22.20625 152.5 23.440624ZM158.40625 23.440624Q158.40625 21.70625 159.35938 20.878124Q160.15625 20.190624 161.3125 20.190624Q162.59375 20.190624 163.40625 21.034374Q164.23438 21.8625 164.23438 23.346874Q164.23438 24.55 163.875 25.2375Q163.51562 25.925 162.8125 26.315624Q162.125 26.690624 161.3125 26.690624Q160.01562 26.690624 159.20312 25.8625Q158.40625 25.01875 158.40625 23.440624ZM159.48438 23.440624Q159.48438 24.628124 160.0 25.221874Q160.53125 25.815624 161.3125 25.815624Q162.10938 25.815624 162.625 25.221874Q163.14062 24.628124 163.14062 23.409374Q163.14062 22.253124 162.60938 21.659374Q162.09375 21.065624 161.3125 21.065624Q160.53125 21.065624 160.0 21.659374Q159.48438 22.2375 159.48438 23.440624ZM165.79688 26.55L165.79688 20.33125L166.73438 20.33125L166.73438 21.20625Q167.03125 20.7375 167.51562 20.471874Q168.0 20.190624 168.625 20.190624Q169.3125 20.190624 169.75 20.471874Q170.20312 20.753124 170.375 21.26875Q171.125 20.190624 172.29688 20.190624Q173.23438 20.190624 173.71875 20.70625Q174.21875 21.20625 174.21875 22.284374L174.21875 26.55L173.17188 26.55L173.17188 22.628124Q173.17188 22.003124 173.0625 21.721874Q172.96875 21.440624 172.70312 21.26875Q172.4375 21.096874 172.0625 21.096874Q171.40625 21.096874 170.96875 21.534374Q170.54688 21.971874 170.54688 22.940624L170.54688 26.55L169.48438 26.55L169.48438 22.503124Q169.48438 21.8 169.21875 21.45625Q168.96875 21.096874 168.39062 21.096874Q167.9375 21.096874 167.5625 21.33125Q167.1875 21.565624 167.01562 22.01875Q166.84375 22.471874 166.84375 23.315624L166.84375 26.55L165.79688 26.55Z" fill-rule="nonzero"/><path fill="#ea4335" d="M191.0 17.55C191.0 16.997715 191.44771 16.55 192.0 16.55L202.0 16.55C202.55229 16.55 203.0 16.997715 203.0 17.55L203.0 27.55C203.0 28.102285 202.55229 28.55 202.0 28.55L192.0 28.55C191.44771 28.55 191.0 28.102285 191.0 27.55Z" fill-rule="nonzero"/><path fill="#1a1a1a" d="M211.96875 26.55L211.96875 17.95625L213.09375 17.95625L213.09375 21.4875L217.5625 21.4875L217.5625 17.95625L218.70312 17.95625L218.70312 26.55L217.5625 26.55L217.5625 22.503124L213.09375 22.503124L213.09375 26.55L211.96875 26.55ZM219.98438 26.55L223.28125 17.95625L224.5 17.95625L228.01562 26.55L226.73438 26.55L225.71875 23.940624L222.14062 23.940624L221.1875 26.55L219.98438 26.55ZM222.46875 23.01875L225.375 23.01875L224.48438 20.64375Q224.0625 19.565624 223.875 18.8625Q223.70312 19.690624 223.40625 20.503124L222.46875 23.01875ZM228.875 26.55L228.875 17.95625L230.01562 17.95625L230.01562 25.534374L234.25 25.534374L234.25 26.55L228.875 26.55ZM235.875 26.55L235.875 17.95625L237.01562 17.95625L237.01562 25.534374L241.25 25.534374L241.25 26.55L235.875 26.55ZM242.54688 23.784374L243.60938 23.690624Q243.6875 24.346874 243.96875 24.753124Q244.25 25.159374 244.82812 25.425Q245.42188 25.675 246.15625 25.675Q246.79688 25.675 247.29688 25.4875Q247.79688 25.284374 248.03125 24.95625Q248.28125 24.6125 248.28125 24.221874Q248.28125 23.815624 248.04688 23.51875Q247.8125 23.20625 247.28125 23.003124Q246.92188 22.8625 245.73438 22.58125Q244.5625 22.3 244.09375 22.05Q243.46875 21.721874 243.17188 21.253124Q242.875 20.76875 242.875 20.175Q242.875 19.534374 243.23438 18.971874Q243.60938 18.39375 244.3125 18.1125Q245.03125 17.815624 245.89062 17.815624Q246.84375 17.815624 247.57812 18.128124Q248.3125 18.425 248.70312 19.034374Q249.09375 19.628124 249.125 20.378124L248.03125 20.45625Q247.9375 19.64375 247.42188 19.2375Q246.92188 18.815624 245.9375 18.815624Q244.90625 18.815624 244.4375 19.190624Q243.96875 19.565624 243.96875 20.096874Q243.96875 20.565624 244.29688 20.8625Q244.625 21.159374 246.0 21.471874Q247.39062 21.784374 247.90625 22.01875Q248.65625 22.378124 249.01562 22.909374Q249.375 23.425 249.375 24.128124Q249.375 24.815624 248.98438 25.425Q248.59375 26.01875 247.85938 26.3625Q247.125 26.690624 246.20312 26.690624Q245.03125 26.690624 244.23438 26.3625Q243.45312 26.01875 243.0 25.33125Q242.5625 24.64375 242.54688 23.784374Z" fill-rule="nonzero"/><path fill="#fbbc04" d="M266.0 17.55C266.0 16.997715 266.44772 16.55 267.0 16.55L277.0 16.55C277.55228 16.55 278.0 16.997715 278.0 17.55L278.0 27.55C278.0 28.102285 277.55228 28.55 277.0 28.55L267.0 28.55C266.44772 28.55 266.0 28.102285 266.0 27.55Z" fill-rule="nonzero"/><path fill="#1a1a1a" d="M286.92188 26.55L286.92188 17.95625L290.17188 17.95625Q291.01562 17.95625 291.46875 18.034374Q292.10938 18.14375 292.53125 18.440624Q292.96875 18.7375 293.21875 19.26875Q293.48438 19.8 293.48438 20.440624Q293.48438 21.534374 292.78125 22.3Q292.09375 23.05 290.26562 23.05L288.0625 23.05L288.0625 26.55L286.92188 26.55ZM288.0625 22.05L290.28125 22.05Q291.39062 22.05 291.84375 21.64375Q292.3125 21.221874 292.3125 20.471874Q292.3125 19.940624 292.03125 19.565624Q291.76562 19.175 291.32812 19.05Q291.03125 18.971874 290.26562 18.971874L288.0625 18.971874L288.0625 22.05ZM294.78125 26.55L294.78125 20.33125L295.73438 20.33125L295.73438 21.26875Q296.09375 20.6125 296.39062 20.409374Q296.70312 20.190624 297.07812 20.190624Q297.60938 20.190624 298.15625 20.51875L297.79688 21.503124Q297.40625 21.26875 297.03125 21.26875Q296.67188 21.26875 296.39062 21.4875Q296.125 21.690624 296.01562 22.065624Q295.82812 22.628124 295.82812 23.284374L295.82812 26.55L294.78125 26.55ZM298.40625 23.440624Q298.40625 21.70625 299.35938 20.878124Q300.15625 20.190624 301.3125 20.190624Q302.59375 20.190624 303.40625 21.034374Q304.23438 21.8625 304.23438 23.346874Q304.23438 24.55 303.875 25.2375Q303.51562 25.925 302.8125 26.315624Q302.125 26.690624 301.3125 26.690624Q300.01562 26.690624 299.20312 25.8625Q298.40625 25.01875 298.40625 23.440624ZM299.48438 23.440624Q299.48438 24.628124 300.0 25.221874Q300.53125 25.815624 301.3125 25.815624Q302.10938 25.815624 302.625 25.221874Q303.14062 24.628124 303.14062 23.409374Q303.14062 22.253124 302.60938 21.659374Q302.09375 21.065624 301.3125 21.065624Q300.53125 21.065624 300.0 21.659374Q299.48438 22.2375 299.48438 23.440624ZM305.79688 28.940624L305.79688 20.33125L306.75 20.33125L306.75 21.128124Q307.09375 20.659374 307.51562 20.425Q307.95312 20.190624 308.5625 20.190624Q309.35938 20.190624 309.96875 20.596874Q310.57812 21.003124 310.875 21.753124Q311.1875 22.503124 311.1875 23.39375Q311.1875 24.346874 310.84375 25.1125Q310.51562 25.878124 309.85938 26.284374Q309.20312 26.690624 308.48438 26.690624Q307.95312 26.690624 307.53125 26.471874Q307.10938 26.2375 306.84375 25.909374L306.84375 28.940624L305.79688 28.940624ZM306.75 23.471874Q306.75 24.675 307.23438 25.253124Q307.71875 25.815624 308.40625 25.815624Q309.10938 25.815624 309.60938 25.221874Q310.10938 24.628124 310.10938 23.378124Q310.10938 22.190624 309.625 21.6125Q309.14062 21.01875 308.45312 21.01875Q307.78125 21.01875 307.26562 21.64375Q306.75 22.26875 306.75 23.471874ZM312.40625 23.440624Q312.40625 21.70625 313.35938 20.878124Q314.15625 20.190624 315.3125 20.190624Q316.59375 20.190624 317.40625 21.034374Q318.23438 21.8625 318.23438 23.346874Q318.23438 24.55 317.875 25.2375Q317.51562 25.925 316.8125 26.315624Q316.125 26.690624 315.3125 26.690624Q314.01562 26.690624 313.20312 25.8625Q312.40625 25.01875 312.40625 23.440624ZM313.48438 23.440624Q313.48438 24.628124 314.0 25.221874Q314.53125 25.815624 315.3125 25.815624Q316.10938 25.815624 316.625 25.221874Q317.14062 24.628124 317.14062 23.409374Q317.14062 22.253124 316.60938 21.659374Q316.09375 21.065624 315.3125 21.065624Q314.53125 21.065624 314.0 21.659374Q313.48438 22.2375 313.48438 23.440624ZM319.375 24.690624L320.40625 24.534374Q320.5 25.159374 320.89062 25.4875Q321.29688 25.815624 322.03125 25.815624Q322.75 25.815624 323.09375 25.534374Q323.45312 25.2375 323.45312 24.83125Q323.45312 24.471874 323.14062 24.26875Q322.92188 24.128124 322.0625 23.909374Q320.90625 23.6125 320.45312 23.409374Q320.01562 23.190624 319.78125 22.815624Q319.54688 22.440624 319.54688 21.971874Q319.54688 21.565624 319.73438 21.20625Q319.92188 20.846874 320.25 20.6125Q320.5 20.440624 320.92188 20.315624Q321.34375 20.190624 321.84375 20.190624Q322.5625 20.190624 323.10938 20.409374Q323.67188 20.6125 323.9375 20.971874Q324.20312 21.33125 324.29688 21.925L323.26562 22.065624Q323.20312 21.596874 322.85938 21.33125Q322.53125 21.05 321.90625 21.05Q321.1875 21.05 320.875 21.3Q320.5625 21.534374 320.5625 21.8625Q320.5625 22.065624 320.6875 22.221874Q320.82812 22.39375 321.09375 22.503124Q321.25 22.565624 322.03125 22.76875Q323.15625 23.08125 323.59375 23.26875Q324.03125 23.45625 324.28125 23.815624Q324.53125 24.175 324.53125 24.721874Q324.53125 25.253124 324.21875 25.721874Q323.92188 26.175 323.34375 26.440624Q322.76562 26.690624 322.03125 26.690624Q320.8125 26.690624 320.17188 26.190624Q319.54688 25.675 319.375 24.690624ZM330.04688 24.55L331.14062 24.675Q330.89062 25.628124 330.1875 26.159374Q329.48438 26.690624 328.40625 26.690624Q327.04688 26.690624 326.23438 25.846874Q325.4375 25.003124 325.4375 23.4875Q325.4375 21.925 326.25 21.065624Q327.0625 20.190624 328.34375 20.190624Q329.59375 20.190624 330.375 21.034374Q331.17188 21.878124 331.17188 23.425Q331.17188 23.51875 331.17188 23.70625L326.53125 23.70625Q326.59375 24.7375 327.10938 25.284374Q327.625 25.815624 328.40625 25.815624Q328.98438 25.815624 329.39062 25.51875Q329.8125 25.20625 330.04688 24.55ZM326.59375 22.846874L330.0625 22.846874Q330.0 22.05 329.67188 21.659374Q329.15625 21.05 328.35938 21.05Q327.625 21.05 327.125 21.534374Q326.64062 22.01875 326.59375 22.846874ZM336.82812 26.55L336.82812 25.76875Q336.23438 26.690624 335.09375 26.690624Q334.34375 26.690624 333.71875 26.284374Q333.09375 25.8625 332.75 25.128124Q332.40625 24.39375 332.40625 23.440624Q332.40625 22.51875 332.71875 21.753124Q333.03125 20.9875 333.65625 20.596874Q334.28125 20.190624 335.04688 20.190624Q335.60938 20.190624 336.04688 20.425Q336.48438 20.659374 336.76562 21.034374L336.76562 17.95625L337.8125 17.95625L337.8125 26.55L336.82812 26.55ZM333.5 23.440624Q333.5 24.64375 334.0 25.2375Q334.5 25.815624 335.1875 25.815624Q335.875 25.815624 336.35938 25.253124Q336.84375 24.690624 336.84375 23.534374Q336.84375 22.253124 336.34375 21.659374Q335.85938 21.065624 335.14062 21.065624Q334.4375 21.065624 333.96875 21.64375Q333.5 22.20625 333.5 23.440624ZM344.8125 29.08125Q343.9375 27.971874 343.32812 26.503124Q342.73438 25.01875 342.73438 23.440624Q342.73438 22.05 343.17188 20.76875Q343.70312 19.284374 344.8125 17.815624L345.5625 17.815624Q344.85938 19.034374 344.625 19.55Q344.26562 20.3625 344.0625 21.2375Q343.8125 22.33125 343.8125 23.440624Q343.8125 26.26875 345.5625 29.08125L344.8125 29.08125ZM346.92188 26.55L346.92188 17.95625L349.89062 17.95625Q350.89062 17.95625 351.42188 18.08125Q352.15625 18.253124 352.67188 18.690624Q353.35938 19.26875 353.6875 20.175Q354.03125 21.065624 354.03125 22.20625Q354.03125 23.190624 353.79688 23.940624Q353.57812 24.690624 353.21875 25.190624Q352.85938 25.690624 352.42188 25.971874Q352.0 26.253124 351.40625 26.409374Q350.8125 26.55 350.03125 26.55L346.92188 26.55ZM348.0625 25.534374L349.89062 25.534374Q350.75 25.534374 351.23438 25.378124Q351.71875 25.221874 352.0 24.925Q352.40625 24.534374 352.625 23.846874Q352.85938 23.159374 352.85938 22.190624Q352.85938 20.846874 352.40625 20.128124Q351.96875 19.39375 351.34375 19.14375Q350.875 18.971874 349.875 18.971874L348.0625 18.971874L348.0625 25.534374ZM354.98438 26.55L358.28125 17.95625L359.5 17.95625L363.01562 26.55L361.73438 26.55L360.71875 23.940624L357.14062 23.940624L356.1875 26.55L354.98438 26.55ZM357.46875 23.01875L360.375 23.01875L359.48438 20.64375Q359.0625 19.565624 358.875 18.8625Q358.70312 19.690624 358.40625 20.503124L357.46875 23.01875ZM363.89062 26.55L363.89062 17.95625L365.60938 17.95625L367.64062 24.034374Q367.92188 24.89375 368.04688 25.315624Q368.1875 24.846874 368.5 23.940624L370.5625 17.95625L372.09375 17.95625L372.09375 26.55L371.0 26.55L371.0 19.3625L368.5 26.55L367.46875 26.55L364.98438 19.2375L364.98438 26.55L363.89062 26.55ZM379.5625 17.95625L380.70312 17.95625L380.70312 22.925Q380.70312 24.221874 380.40625 24.9875Q380.10938 25.7375 379.34375 26.221874Q378.57812 26.690624 377.34375 26.690624Q376.14062 26.690624 375.35938 26.284374Q374.59375 25.8625 374.26562 25.08125Q373.9375 24.284374 373.9375 22.925L373.9375 17.95625L375.07812 17.95625L375.07812 22.909374Q375.07812 24.034374 375.28125 24.565624Q375.5 25.096874 376.0 25.39375Q376.51562 25.675 377.25 25.675Q378.5 25.675 379.03125 25.1125Q379.5625 24.534374 379.5625 22.909374L379.5625 17.95625ZM382.54688 23.784374L383.60938 23.690624Q383.6875 24.346874 383.96875 24.753124Q384.25 25.159374 384.82812 25.425Q385.42188 25.675 386.15625 25.675Q386.79688 25.675 387.29688 25.4875Q387.79688 25.284374 388.03125 24.95625Q388.28125 24.6125 388.28125 24.221874Q388.28125 23.815624 388.04688 23.51875Q387.8125 23.20625 387.28125 23.003124Q386.92188 22.8625 385.73438 22.58125Q384.5625 22.3 384.09375 22.05Q383.46875 21.721874 383.17188 21.253124Q382.875 20.76875 382.875 20.175Q382.875 19.534374 383.23438 18.971874Q383.60938 18.39375 384.3125 18.1125Q385.03125 17.815624 385.89062 17.815624Q386.84375 17.815624 387.57812 18.128124Q388.3125 18.425 388.70312 19.034374Q389.09375 19.628124 389.125 20.378124L388.03125 20.45625Q387.9375 19.64375 387.42188 19.2375Q386.92188 18.815624 385.9375 18.815624Q384.90625 18.815624 384.4375 19.190624Q383.96875 19.565624 383.96875 20.096874Q383.96875 20.565624 384.29688 20.8625Q384.625 21.159374 386.0 21.471874Q387.39062 21.784374 387.90625 22.01875Q388.65625 22.378124 389.01562 22.909374Q389.375 23.425 389.375 24.128124Q389.375 24.815624 388.98438 25.425Q388.59375 26.01875 387.85938 26.3625Q387.125 26.690624 386.20312 26.690624Q385.03125 26.690624 384.23438 26.3625Q383.45312 26.01875 383.0 25.33125Q382.5625 24.64375 382.54688 23.784374ZM391.48438 29.08125L390.73438 29.08125Q392.48438 26.26875 392.48438 23.440624Q392.48438 22.346874 392.23438 21.253124Q392.03125 20.378124 391.67188 19.565624Q391.4375 19.05 390.73438 17.815624L391.48438 17.815624Q392.57812 19.284374 393.10938 20.76875Q393.5625 22.05 393.5625 23.440624Q393.5625 25.01875 392.95312 26.503124Q392.34375 27.971874 391.48438 29.08125Z" fill-rule="nonzero"/></svg>