<svg version="1.1" viewBox="0.0 0.0 504.0 311.0" fill="none" stroke="none" stroke-linecap="square" stroke-miterlimit="10" width="504" height="311" xmlns:xlink="http://www.w3.org/1999/xlink" xmlns="http://www.w3.org/2000/svg"><path fill="#ffffff" d="M0 0L504.0 0L504.0 311.0L0 311.0L0 0Z" fill-rule="nonzero"/><path stroke="#333333" stroke-width="1.0" stroke-linecap="butt" d="M77.5 231.5L488.5 231.5" fill-rule="nonzero"/><path stroke="#cccccc" stroke-width="1.0" stroke-linecap="butt" d="M77.5 194.5L488.5 194.5" fill-rule="nonzero"/><path stroke="#cccccc" stroke-width="1.0" stroke-linecap="butt" d="M77.5 157.5L488.5 157.5" fill-rule="nonzero"/><path stroke="#cccccc" stroke-width="1.0" stroke-linecap="butt" d="M77.5 120.5L488.5 120.5" fill-rule="nonzero"/><path stroke="#cccccc" stroke-width="1.0" stroke-linecap="butt" d="M77.5 83.5L488.5 83.5" fill-rule="nonzero"/><path stroke="#cccccc" stroke-width="1.0" stroke-linecap="butt" d="M77.5 46.5L488.5 46.5" fill-rule="nonzero"/><clipPath id="id_0"><path d="M77.55 46.916668L488.45 46.916668L488.45 231.46724L77.55 231.46724L77.55 46.916668Z" clip-rule="nonzero"/></clipPath><path stroke="#000000" stroke-width="0.0" stroke-linecap="butt" stroke-opacity="0.0" clip-path="url(#id_0)" d="M108.0 231.0L97.0 231.0L97.0 86.0C97.0 84.89543 97.89543 84.0 99.0 84.0L106.0 84.0C107.10457 84.0 108.0 84.89543 108.0 86.0Z" fill-rule="nonzero"/><path fill="#4285f4" clip-path="url(#id_0)" d="M108.0 231.0L97.0 231.0L97.0 86.0C97.0 84.89543 97.89543 84.0 99.0 84.0L106.0 84.0C107.10457 84.0 108.0 84.89543 108.0 86.0Z" fill-rule="nonzero"/><path stroke="#000000" stroke-width="0.0" stroke-linecap="butt" stroke-opacity="0.0" clip-path="url(#id_0)" d="M164.0 231.0L153.0 231.0L153.0 86.0C153.0 84.89543 153.89543 84.0 155.0 84.0L162.0 84.0C163.10457 84.0 164.0 84.89543 164.0 86.0Z" fill-rule="nonzero"/><path fill="#4285f4" clip-path="url(#id_0)" d="M164.0 231.0L153.0 231.0L153.0 86.0C153.0 84.89543 153.89543 84.0 155.0 84.0L162.0 84.0C163.10457 84.0 164.0 84.89543 164.0 86.0Z" fill-rule="nonzero"/><path stroke="#000000" stroke-width="0.0" stroke-linecap="butt" stroke-opacity="0.0" clip-path="url(#id_0)" d="M220.0 231.0L209.0 231.0L209.0 86.0C209.0 84.89543 209.89543 84.0 211.0 84.0L218.0 84.0C219.10457 84.0 220.0 84.89543 220.0 86.0Z" fill-rule="nonzero"/><path fill="#4285f4" clip-path="url(#id_0)" d="M220.0 231.0L209.0 231.0L209.0 86.0C209.0 84.89543 209.89543 84.0 211.0 84.0L218.0 84.0C219.10457 84.0 220.0 84.89543 220.0 86.0Z" fill-rule="nonzero"/><path stroke="#000000" stroke-width="0.0" stroke-linecap="butt" stroke-opacity="0.0" clip-path="url(#id_0)" d="M276.0 231.0L265.0 231.0L265.0 86.0C265.0 84.89543 265.89542 84.0 267.0 84.0L274.0 84.0C275.10458 84.0 276.0 84.89543 276.0 86.0Z" fill-rule="nonzero"/><path fill="#4285f4" clip-path="url(#id_0)" d="M276.0 231.0L265.0 231.0L265.0 86.0C265.0 84.89543 265.89542 84.0 267.0 84.0L274.0 84.0C275.10458 84.0 276.0 84.89543 276.0 86.0Z" fill-rule="nonzero"/><path stroke="#000000" stroke-width="0.0" stroke-linecap="butt" stroke-opacity="0.0" clip-path="url(#id_0)" d="M332.0 231.0L321.0 231.0L321.0 86.0C321.0 84.89543 321.89542 84.0 323.0 84.0L330.0 84.0C331.10458 84.0 332.0 84.89543 332.0 86.0Z" fill-rule="nonzero"/><path fill="#4285f4" clip-path="url(#id_0)" d="M332.0 231.0L321.0 231.0L321.0 86.0C321.0 84.89543 321.89542 84.0 323.0 84.0L330.0 84.0C331.10458 84.0 332.0 84.89543 332.0 86.0Z" fill-rule="nonzero"/><path stroke="#000000" stroke-width="0.0" stroke-linecap="butt" stroke-opacity="0.0" clip-path="url(#id_0)" d="M388.0 231.0L377.0 231.0L377.0 86.0C377.0 84.89543 377.89542 84.0 379.0 84.0L386.0 84.0C387.10458 84.0 388.0 84.89543 388.0 86.0Z" fill-rule="nonzero"/><path fill="#4285f4" clip-path="url(#id_0)" d="M388.0 231.0L377.0 231.0L377.0 86.0C377.0 84.89543 377.89542 84.0 379.0 84.0L386.0 84.0C387.10458 84.0 388.0 84.89543 388.0 86.0Z" fill-rule="nonzero"/><path stroke="#000000" stroke-width="0.0" stroke-linecap="butt" stroke-opacity="0.0" clip-path="url(#id_0)" d="M444.0 231.0L433.0 231.0L433.0 86.0C433.0 84.89543 433.89542 84.0 435.0 84.0L442.0 84.0C443.10458 84.0 444.0 84.89543 444.0 86.0Z" fill-rule="nonzero"/><path fill="#4285f4" clip-path="url(#id_0)" d="M444.0 231.0L433.0 231.0L433.0 86.0C433.0 84.89543 433.89542 84.0 435.0 84.0L442.0 84.0C443.10458 84.0 444.0 84.89543 444.0 86.0Z" fill-rule="nonzero"/><path stroke="#000000" stroke-width="0.0" stroke-linecap="butt" stroke-opacity="0.0" clip-path="url(#id_0)" d="M120.0 231.0L109.0 231.0L109.0 87.0C109.0 85.89543 109.89543 85.0 111.0 85.0L118.0 85.0C119.10457 85.0 120.0 85.89543 120.0 87.0Z" fill-rule="nonzero"/><path fill="#ea4335" clip-path="url(#id_0)" d="M120.0 231.0L109.0 231.0L109.0 87.0C109.0 85.89543 109.89543 85.0 111.0 85.0L118.0 85.0C119.10457 85.0 120.0 85.89543 120.0 87.0Z" fill-rule="nonzero"/><path stroke="#000000" stroke-width="0.0" stroke-linecap="butt" stroke-opacity="0.0" clip-path="url(#id_0)" d="M176.0 231.0L165.0 231.0L165.0 96.0C165.0 94.89543 165.89543 94.0 167.0 94.0L174.0 94.0C175.10457 94.0 176.0 94.89543 176.0 96.0Z" fill-rule="nonzero"/><path fill="#ea4335" clip-path="url(#id_0)" d="M176.0 231.0L165.0 231.0L165.0 96.0C165.0 94.89543 165.89543 94.0 167.0 94.0L174.0 94.0C175.10457 94.0 176.0 94.89543 176.0 96.0Z" fill-rule="nonzero"/><path stroke="#000000" stroke-width="0.0" stroke-linecap="butt" stroke-opacity="0.0" clip-path="url(#id_0)" d="M232.0 231.0L221.0 231.0L221.0 86.0C221.0 84.89543 221.89543 84.0 223.0 84.0L230.0 84.0C231.10457 84.0 232.0 84.89543 232.0 86.0Z" fill-rule="nonzero"/><path fill="#ea4335" clip-path="url(#id_0)" d="M232.0 231.0L221.0 231.0L221.0 86.0C221.0 84.89543 221.89543 84.0 223.0 84.0L230.0 84.0C231.10457 84.0 232.0 84.89543 232.0 86.0Z" fill-rule="nonzero"/><path stroke="#000000" stroke-width="0.0" stroke-linecap="butt" stroke-opacity="0.0" clip-path="url(#id_0)" d="M288.0 231.0L277.0 231.0L277.0 91.0C277.0 89.89543 277.89542 89.0 279.0 89.0L286.0 89.0C287.10458 89.0 288.0 89.89543 288.0 91.0Z" fill-rule="nonzero"/><path fill="#ea4335" clip-path="url(#id_0)" d="M288.0 231.0L277.0 231.0L277.0 91.0C277.0 89.89543 277.89542 89.0 279.0 89.0L286.0 89.0C287.10458 89.0 288.0 89.89543 288.0 91.0Z" fill-rule="nonzero"/><path stroke="#000000" stroke-width="0.0" stroke-linecap="butt" stroke-opacity="0.0" clip-path="url(#id_0)" d="M344.0 231.0L333.0 231.0L333.0 86.0C333.0 84.89543 333.89542 84.0 335.0 84.0L342.0 84.0C343.10458 84.0 344.0 84.89543 344.0 86.0Z" fill-rule="nonzero"/><path fill="#ea4335" clip-path="url(#id_0)" d="M344.0 231.0L333.0 231.0L333.0 86.0C333.0 84.89543 333.89542 84.0 335.0 84.0L342.0 84.0C343.10458 84.0 344.0 84.89543 344.0 86.0Z" fill-rule="nonzero"/><path stroke="#000000" stroke-width="0.0" stroke-linecap="butt" stroke-opacity="0.0" clip-path="url(#id_0)" d="M400.0 231.0L389.0 231.0L389.0 88.0C389.0 86.89543 389.89542 86.0 391.0 86.0L398.0 86.0C399.10458 86.0 400.0 86.89543 400.0 88.0Z" fill-rule="nonzero"/><path fill="#ea4335" clip-path="url(#id_0)" d="M400.0 231.0L389.0 231.0L389.0 88.0C389.0 86.89543 389.89542 86.0 391.0 86.0L398.0 86.0C399.10458 86.0 400.0 86.89543 400.0 88.0Z" fill-rule="nonzero"/><path stroke="#000000" stroke-width="0.0" stroke-linecap="butt" stroke-opacity="0.0" clip-path="url(#id_0)" d="M456.0 231.0L445.0 231.0L445.0 89.0C445.0 87.89543 445.89542 87.0 447.0 87.0L454.0 87.0C455.10458 87.0 456.0 87.89543 456.0 89.0Z" fill-rule="nonzero"/><path fill="#ea4335" clip-path="url(#id_0)" d="M456.0 231.0L445.0 231.0L445.0 89.0C445.0 87.89543 445.89542 87.0 447.0 87.0L454.0 87.0C455.10458 87.0 456.0 87.89543 456.0 89.0Z" fill-rule="nonzero"/><path stroke="#000000" stroke-width="0.0" stroke-linecap="butt" stroke-opacity="0.0" clip-path="url(#id_0)" d="M132.0 231.0L121.0 231.0L121.0 136.0C121.0 134.89543 121.89543 134.0 123.0 134.0L130.0 134.0C131.10457 134.0 132.0 134.89543 132.0 136.0Z" fill-rule="nonzero"/><path fill="#fbbc04" clip-path="url(#id_0)" d="M132.0 231.0L121.0 231.0L121.0 136.0C121.0 134.89543 121.89543 134.0 123.0 134.0L130.0 134.0C131.10457 134.0 132.0 134.89543 132.0 136.0Z" fill-rule="nonzero"/><path stroke="#000000" stroke-width="0.0" stroke-linecap="butt" stroke-opacity="0.0" clip-path="url(#id_0)" d="M188.0 231.0L177.0 231.0L177.0 122.0C177.0 120.89543 177.89543 120.0 179.0 120.0L186.0 120.0C187.10457 120.0 188.0 120.89543 188.0 122.0Z" fill-rule="nonzero"/><path fill="#fbbc04" clip-path="url(#id_0)" d="M188.0 231.0L177.0 231.0L177.0 122.0C177.0 120.89543 177.89543 120.0 179.0 120.0L186.0 120.0C187.10457 120.0 188.0 120.89543 188.0 122.0Z" fill-rule="nonzero"/><path stroke="#000000" stroke-width="0.0" stroke-linecap="butt" stroke-opacity="0.0" clip-path="url(#id_0)" d="M244.0 231.0L233.0 231.0L233.0 111.0C233.0 109.89543 233.89543 109.0 235.0 109.0L242.0 109.0C243.10457 109.0 244.0 109.89543 244.0 111.0Z" fill-rule="nonzero"/><path fill="#fbbc04" clip-path="url(#id_0)" d="M244.0 231.0L233.0 231.0L233.0 111.0C233.0 109.89543 233.89543 109.0 235.0 109.0L242.0 109.0C243.10457 109.0 244.0 109.89543 244.0 111.0Z" fill-rule="nonzero"/><path stroke="#000000" stroke-width="0.0" stroke-linecap="butt" stroke-opacity="0.0" clip-path="url(#id_0)" d="M300.0 231.0L289.0 231.0L289.0 79.0C289.0 77.89543 289.89542 77.0 291.0 77.0L298.0 77.0C299.10458 77.0 300.0 77.89543 300.0 79.0Z" fill-rule="nonzero"/><path fill="#fbbc04" clip-path="url(#id_0)" d="M300.0 231.0L289.0 231.0L289.0 79.0C289.0 77.89543 289.89542 77.0 291.0 77.0L298.0 77.0C299.10458 77.0 300.0 77.89543 300.0 79.0Z" fill-rule="nonzero"/><path stroke="#000000" stroke-width="0.0" stroke-linecap="butt" stroke-opacity="0.0" clip-path="url(#id_0)" d="M356.0 231.0L345.0 231.0L345.0 100.0C345.0 98.89543 345.89542 98.0 347.0 98.0L354.0 98.0C355.10458 98.0 356.0 98.89543 356.0 100.0Z" fill-rule="nonzero"/><path fill="#fbbc04" clip-path="url(#id_0)" d="M356.0 231.0L345.0 231.0L345.0 100.0C345.0 98.89543 345.89542 98.0 347.0 98.0L354.0 98.0C355.10458 98.0 356.0 98.89543 356.0 100.0Z" fill-rule="nonzero"/><path stroke="#000000" stroke-width="0.0" stroke-linecap="butt" stroke-opacity="0.0" clip-path="url(#id_0)" d="M412.0 231.0L401.0 231.0L401.0 92.0C401.0 90.89543 401.89542 90.0 403.0 90.0L410.0 90.0C411.10458 90.0 412.0 90.89543 412.0 92.0Z" fill-rule="nonzero"/><path fill="#fbbc04" clip-path="url(#id_0)" d="M412.0 231.0L401.0 231.0L401.0 92.0C401.0 90.89543 401.89542 90.0 403.0 90.0L410.0 90.0C411.10458 90.0 412.0 90.89543 412.0 92.0Z" fill-rule="nonzero"/><path stroke="#000000" stroke-width="0.0" stroke-linecap="butt" stroke-opacity="0.0" clip-path="url(#id_0)" d="M468.0 231.0L457.0 231.0L457.0 107.0C457.0 105.89543 457.89542 105.0 459.0 105.0L466.0 105.0C467.10458 105.0 468.0 105.89543 468.0 107.0Z" fill-rule="nonzero"/><path fill="#fbbc04" clip-path="url(#id_0)" d="M468.0 231.0L457.0 231.0L457.0 107.0C457.0 105.89543 457.89542 105.0 459.0 105.0L466.0 105.0C467.10458 105.0 468.0 105.89543 468.0 107.0Z" fill-rule="nonzero"/><path fill="#000000" d="M26.550013 215.76146L17.956263 215.76146L17.956263 214.60521L24.706263 210.08958L17.956263 210.08958L17.956263 208.99583L26.550013 208.99583L26.550013 210.16771L19.800013 214.68333L26.550013 214.68333L26.550013 215.76146ZM23.440638 207.27708Q21.706263 207.27708 20.878138 206.32396Q20.190638 205.52708 20.190638 204.37083Q20.190638 203.08958 21.034388 202.27708Q21.862513 201.44896 23.346888 201.44896Q24.550013 201.44896 25.237513 201.80833Q25.925013 202.16771 26.315638 202.87083Q26.690638 203.55833 26.690638 204.37083Q26.690638 205.66771 25.862513 206.48021Q25.018763 207.27708 23.440638 207.27708ZM23.440638 206.19896Q24.628138 206.19896 25.221888 205.68333Q25.815638 205.15208 25.815638 204.37083Q25.815638 203.57396 25.221888 203.05833Q24.628138 202.54271 23.409388 202.54271Q22.253138 202.54271 21.659388 203.07396Q21.065638 203.58958 21.065638 204.37083Q21.065638 205.15208 21.659388 205.68333Q22.237513 206.19896 23.440638 206.19896ZM26.550013 199.90208L20.331263 199.90208L20.331263 198.94896L21.268763 198.94896Q20.612513 198.58958 20.409388 198.29271Q20.190638 197.98021 20.190638 197.60521Q20.190638 197.07396 20.518763 196.52708L21.503138 196.88646Q21.268763 197.27708 21.268763 197.65208Q21.268763 198.01146 21.487513 198.29271Q21.690638 198.55833 22.065638 198.66771Q22.628138 198.85521 23.284388 198.85521L26.550013 198.85521L26.550013 199.90208ZM26.550013 195.88646L20.331263 195.88646L20.331263 194.94896L21.206263 194.94896Q20.737513 194.65208 20.471888 194.16771Q20.190638 193.68333 20.190638 193.05833Q20.190638 192.37083 20.471888 191.93333Q20.753138 191.48021 21.268763 191.30833Q20.190638 190.55833 20.190638 189.38646Q20.190638 188.44896 20.706263 187.96458Q21.206263 187.46458 22.284388 187.46458L26.550013 187.46458L26.550013 188.51146L22.628138 188.51146Q22.003138 188.51146 21.721888 188.62083Q21.440638 188.71458 21.268763 188.98021Q21.096888 189.24583 21.096888 189.62083Q21.096888 190.27708 21.534388 190.71458Q21.971888 191.13646 22.940638 191.13646L26.550013 191.13646L26.550013 192.19896L22.503138 192.19896Q21.800013 192.19896 21.456263 192.46458Q21.096888 192.71458 21.096888 193.29271Q21.096888 193.74583 21.331263 194.12083Q21.565638 194.49583 22.018763 194.66771Q22.471888 194.83958 23.315638 194.83958L26.550013 194.83958L26.550013 195.88646ZM25.784388 181.82396Q26.284388 182.41771 26.487513 182.96458Q26.690638 183.49583 26.690638 184.12083Q26.690638 185.15208 26.190638 185.69896Q25.690638 186.24583 24.909388 186.24583Q24.456263 186.24583 24.081263 186.04271Q23.690638 185.83958 23.471888 185.49583Q23.237513 185.15208 23.128138 184.73021Q23.034388 184.43333 22.956263 183.79271Q22.815638 182.52708 22.596888 181.91771Q22.378138 181.91771 22.331263 181.91771Q21.675013 181.91771 21.409388 182.21458Q21.065638 182.62083 21.065638 183.41771Q21.065638 184.15208 21.331263 184.51146Q21.581263 184.87083 22.237513 185.04271L22.096888 186.07396Q21.440638 185.93333 21.034388 185.60521Q20.628138 185.27708 20.409388 184.66771Q20.190638 184.05833 20.190638 183.26146Q20.190638 182.46458 20.378138 181.96458Q20.565638 181.46458 20.846888 181.23021Q21.128138 180.99583 21.565638 180.90208Q21.831263 180.85521 22.534388 180.85521L23.940638 180.85521Q25.409388 180.85521 25.800013 180.79271Q26.190638 180.71458 26.550013 180.51146L26.550013 181.62083Q26.221888 181.77708 25.784388 181.82396ZM23.425013 181.91771Q23.659388 182.49583 23.831263 183.63646Q23.925013 184.29271 24.050013 184.55833Q24.159388 184.82396 24.378138 184.98021Q24.596888 185.12083 24.878138 185.12083Q25.300013 185.12083 25.581263 184.80833Q25.862513 184.48021 25.862513 183.87083Q25.862513 183.26146 25.596888 182.79271Q25.331263 182.30833 24.862513 182.08958Q24.503138 181.91771 23.815638 181.91771L23.425013 181.91771ZM26.550013 178.91771L17.956263 178.91771L17.956263 177.85521L26.550013 177.85521L26.550013 178.91771ZM19.175013 175.88646L17.956263 175.88646L17.956263 174.82396L19.175013 174.82396L19.175013 175.88646ZM26.550013 175.88646L20.331263 175.88646L20.331263 174.82396L26.550013 174.82396L26.550013 175.88646ZM24.690638 173.30833L24.534388 172.27708Q25.159388 172.18333 25.487513 171.79271Q25.815638 171.38646 25.815638 170.65208Q25.815638 169.93333 25.534388 169.58958Q25.237513 169.23021 24.831263 169.23021Q24.471888 169.23021 24.268763 169.54271Q24.128138 169.76146 23.909388 170.62083Q23.612513 171.77708 23.409388 172.23021Q23.190638 172.66771 22.815638 172.90208Q22.440638 173.13646 21.971888 173.13646Q21.565638 173.13646 21.206263 172.94896Q20.846888 172.76146 20.612513 172.43333Q20.440638 172.18333 20.315638 171.76146Q20.190638 171.33958 20.190638 170.83958Q20.190638 170.12083 20.409388 169.57396Q20.612513 169.01146 20.971888 168.74583Q21.331263 168.48021 21.925013 168.38646L22.065638 169.41771Q21.596888 169.48021 21.331263 169.82396Q21.050013 170.15208 21.050013 170.77708Q21.050013 171.49583 21.300013 171.80833Q21.534388 172.12083 21.862513 172.12083Q22.065638 172.12083 22.221888 171.99583Q22.393763 171.85521 22.503138 171.58958Q22.565638 171.43333 22.768763 170.65208Q23.081263 169.52708 23.268763 169.08958Q23.456263 168.65208 23.815638 168.40208Q24.175013 168.15208 24.721888 168.15208Q25.253138 168.15208 25.721888 168.46458Q26.175013 168.76146 26.440638 169.33958Q26.690638 169.91771 26.690638 170.65208Q26.690638 171.87083 26.190638 172.51146Q25.675013 173.13646 24.690638 173.30833ZM24.550013 162.63646L24.675013 161.54271Q25.628138 161.79271 26.159388 162.49583Q26.690638 163.19896 26.690638 164.27708Q26.690638 165.63646 25.846888 166.44896Q25.003138 167.24583 23.487513 167.24583Q21.925013 167.24583 21.065638 166.43333Q20.190638 165.62083 20.190638 164.33958Q20.190638 163.08958 21.034388 162.30833Q21.878138 161.51146 23.425013 161.51146Q23.518763 161.51146 23.706263 161.51146L23.706263 166.15208Q24.737513 166.08958 25.284388 165.57396Q25.815638 165.05833 25.815638 164.27708Q25.815638 163.69896 25.518763 163.29271Q25.206263 162.87083 24.550013 162.63646ZM22.846888 166.08958L22.846888 162.62083Q22.050013 162.68333 21.659388 163.01146Q21.050013 163.52708 21.050013 164.32396Q21.050013 165.05833 21.534388 165.55833Q22.018763 166.04271 22.846888 166.08958ZM26.550013 155.85521L25.768763 155.85521Q26.690638 156.44896 26.690638 157.58958Q26.690638 158.33958 26.284388 158.96458Q25.862513 159.58958 25.128138 159.93333Q24.393763 160.27708 23.440638 160.27708Q22.518763 160.27708 21.753138 159.96458Q20.987513 159.65208 20.596888 159.02708Q20.190638 158.40208 20.190638 157.63646Q20.190638 157.07396 20.425013 156.63646Q20.659388 156.19896 21.034388 155.91771L17.956263 155.91771L17.956263 154.87083L26.550013 154.87083L26.550013 155.85521ZM23.440638 159.18333Q24.643763 159.18333 25.237513 158.68333Q25.815638 158.18333 25.815638 157.49583Q25.815638 156.80833 25.253138 156.32396Q24.690638 155.83958 23.534388 155.83958Q22.253138 155.83958 21.659388 156.33958Q21.065638 156.82396 21.065638 157.54271Q21.065638 158.24583 21.643763 158.71458Q22.206263 159.18333 23.440638 159.18333ZM26.550013 149.55833L17.956263 149.55833L17.956263 148.43333L26.550013 148.43333L26.550013 149.55833ZM26.550013 146.88646L20.331263 146.88646L20.331263 145.94896L21.206263 145.94896Q20.190638 145.26146 20.190638 143.96458Q20.190638 143.40208 20.393763 142.93333Q20.596888 142.44896 20.925013 142.21458Q21.253138 141.98021 21.690638 141.88646Q21.987513 141.83958 22.721888 141.83958L26.550013 141.83958L26.550013 142.88646L22.768763 142.88646Q22.112513 142.88646 21.800013 143.01146Q21.487513 143.13646 21.300013 143.44896Q21.096888 143.76146 21.096888 144.18333Q21.096888 144.85521 21.534388 145.35521Q21.956263 145.83958 23.143763 145.83958L26.550013 145.83958L26.550013 146.88646ZM25.612513 137.58958L26.534388 137.43333Q26.628138 137.88646 26.628138 138.23021Q26.628138 138.80833 26.456263 139.12083Q26.268763 139.43333 25.971888 139.57396Q25.675013 139.69896 24.721888 139.69896L21.143763 139.69896L21.143763 140.46458L20.331263 140.46458L20.331263 139.69896L18.784388 139.69896L18.159388 138.65208L20.331263 138.65208L20.331263 137.58958L21.143763 137.58958L21.143763 138.65208L24.784388 138.65208Q25.237513 138.65208 25.362513 138.60521Q25.487513 138.54271 25.565638 138.41771Q25.643763 138.29271 25.643763 138.05833Q25.643763 137.87083 25.612513 137.58958ZM26.550013 136.90208L20.331263 136.90208L20.331263 135.94896L21.268763 135.94896Q20.612513 135.58958 20.409388 135.29271Q20.190638 134.98021 20.190638 134.60521Q20.190638 134.07396 20.518763 133.52708L21.503138 133.88646Q21.268763 134.27708 21.268763 134.65208Q21.268763 135.01146 21.487513 135.29271Q21.690638 135.55833 22.065638 135.66771Q22.628138 135.85521 23.284388 135.85521L26.550013 135.85521L26.550013 136.90208ZM25.784388 128.82396Q26.284388 129.41771 26.487513 129.96458Q26.690638 130.49583 26.690638 131.12083Q26.690638 132.15208 26.190638 132.69896Q25.690638 133.24583 24.909388 133.24583Q24.456263 133.24583 24.081263 133.04271Q23.690638 132.83958 23.471888 132.49583Q23.237513 132.15208 23.128138 131.73021Q23.034388 131.43333 22.956263 130.79271Q22.815638 129.52708 22.596888 128.91771Q22.378138 128.91771 22.331263 128.91771Q21.675013 128.91771 21.409388 129.21458Q21.065638 129.62083 21.065638 130.41771Q21.065638 131.15208 21.331263 131.51146Q21.581263 131.87083 22.237513 132.04271L22.096888 133.07396Q21.440638 132.93333 21.034388 132.60521Q20.628138 132.27708 20.409388 131.66771Q20.190638 131.05833 20.190638 130.26146Q20.190638 129.46458 20.378138 128.96458Q20.565638 128.46458 20.846888 128.23021Q21.128138 127.995834 21.565638 127.902084Q21.831263 127.85521 22.534388 127.85521L23.940638 127.85521Q25.409388 127.85521 25.800013 127.79271Q26.190638 127.714584 26.550013 127.51146L26.550013 128.62083Q26.221888 128.77708 25.784388 128.82396ZM23.425013 128.91771Q23.659388 129.49583 23.831263 130.63646Q23.925013 131.29271 24.050013 131.55833Q24.159388 131.82396 24.378138 131.98021Q24.596888 132.12083 24.878138 132.12083Q25.300013 132.12083 25.581263 131.80833Q25.862513 131.48021 25.862513 130.87083Q25.862513 130.26146 25.596888 129.79271Q25.331263 129.30833 24.862513 129.08958Q24.503138 128.91771 23.815638 128.91771L23.425013 128.91771ZM26.550013 123.308334L17.956263 126.63646L17.956263 125.402084L24.206263 123.16771Q24.956263 122.902084 25.612513 122.714584Q24.909388 122.51146 24.206263 122.245834L17.956263 119.933334L17.956263 118.777084L26.550013 122.13646L26.550013 123.308334Z" fill-rule="nonzero"/><path fill="#000000" d="M48.05 231.23286Q48.05 229.70161 48.3625 228.77974Q48.675 227.84224 49.284374 227.34224Q49.909374 226.84224 50.846874 226.84224Q51.534374 226.84224 52.05 227.12349Q52.58125 227.40474 52.925 227.93599Q53.26875 228.45161 53.45625 229.20161Q53.64375 229.95161 53.64375 231.23286Q53.64375 232.74849 53.33125 233.67036Q53.034374 234.59224 52.409374 235.10786Q51.8 235.60786 50.846874 235.60786Q49.6125 235.60786 48.89375 234.71724Q48.05 233.65474 48.05 231.23286ZM49.128124 231.23286Q49.128124 233.34224 49.628124 234.04536Q50.128124 234.74849 50.846874 234.74849Q51.58125 234.74849 52.065624 234.04536Q52.565624 233.34224 52.565624 231.23286Q52.565624 229.10786 52.065624 228.42036Q51.58125 227.71724 50.83125 227.71724Q50.1125 227.71724 49.675 228.32661Q49.128124 229.10786 49.128124 231.23286ZM55.64375 235.46724L55.64375 234.26411L56.846874 234.26411L56.846874 235.46724L55.64375 235.46724ZM58.05 231.23286Q58.05 229.70161 58.3625 228.77974Q58.675 227.84224 59.284374 227.34224Q59.909374 226.84224 60.846874 226.84224Q61.534374 226.84224 62.05 227.12349Q62.58125 227.40474 62.925 227.93599Q63.26875 228.45161 63.45625 229.20161Q63.64375 229.95161 63.64375 231.23286Q63.64375 232.74849 63.33125 233.67036Q63.034374 234.59224 62.409374 235.10786Q61.8 235.60786 60.846874 235.60786Q59.6125 235.60786 58.89375 234.71724Q58.05 233.65474 58.05 231.23286ZM59.128124 231.23286Q59.128124 233.34224 59.628124 234.04536Q60.128124 234.74849 60.846874 234.74849Q61.58125 234.74849 62.065624 234.04536Q62.565624 233.34224 62.565624 231.23286Q62.565624 229.10786 62.065624 228.42036Q61.58125 227.71724 60.83125 227.71724Q60.1125 227.71724 59.675 228.32661Q59.128124 229.10786 59.128124 231.23286ZM65.05 231.23286Q65.05 229.70161 65.3625 228.77974Q65.675 227.84224 66.28438 227.34224Q66.90938 226.84224 67.84688 226.84224Q68.53438 226.84224 69.05 227.12349Q69.58125 227.40474 69.925 227.93599Q70.26875 228.45161 70.45625 229.20161Q70.64375 229.95161 70.64375 231.23286Q70.64375 232.74849 70.33125 233.67036Q70.03438 234.59224 69.40938 235.10786Q68.8 235.60786 67.84688 235.60786Q66.6125 235.60786 65.89375 234.71724Q65.05 233.65474 65.05 231.23286ZM66.12813 231.23286Q66.12813 233.34224 66.62813 234.04536Q67.12813 234.74849 67.84688 234.74849Q68.58125 234.74849 69.06563 234.04536Q69.56563 233.34224 69.56563 231.23286Q69.56563 229.10786 69.06563 228.42036Q68.58125 227.71724 67.83125 227.71724Q67.1125 227.71724 66.675 228.32661Q66.12813 229.10786 66.12813 231.23286Z" fill-rule="nonzero"/><path fill="#000000" d="M48.05 194.32275Q48.05 192.7915 48.3625 191.86963Q48.675 190.93213 49.284374 190.43213Q49.909374 189.93213 50.846874 189.93213Q51.534374 189.93213 52.05 190.21338Q52.58125 190.49463 52.925 191.02588Q53.26875 191.5415 53.45625 192.2915Q53.64375 193.0415 53.64375 194.32275Q53.64375 195.83838 53.33125 196.76025Q53.034374 197.68213 52.409374 198.19775Q51.8 198.69775 50.846874 198.69775Q49.6125 198.69775 48.89375 197.80713Q48.05 196.74463 48.05 194.32275ZM49.128124 194.32275Q49.128124 196.43213 49.628124 197.13525Q50.128124 197.83838 50.846874 197.83838Q51.58125 197.83838 52.065624 197.13525Q52.565624 196.43213 52.565624 194.32275Q52.565624 192.19775 52.065624 191.51025Q51.58125 190.80713 50.83125 190.80713Q50.1125 190.80713 49.675 191.4165Q49.128124 192.19775 49.128124 194.32275ZM55.64375 198.55713L55.64375 197.354L56.846874 197.354L56.846874 198.55713L55.64375 198.55713ZM63.596874 197.5415L63.596874 198.55713L57.909374 198.55713Q57.909374 198.18213 58.034374 197.82275Q58.253124 197.24463 58.721874 196.68213Q59.20625 196.11963 60.1125 195.38525Q61.51875 194.229 62.003124 193.55713Q62.503124 192.88525 62.503124 192.2915Q62.503124 191.6665 62.05 191.24463Q61.596874 190.80713 60.878124 190.80713Q60.1125 190.80713 59.659374 191.26025Q59.20625 191.71338 59.190624 192.52588L58.1125 192.4165Q58.221874 191.19775 58.940624 190.57275Q59.675 189.93213 60.909374 189.93213Q62.14375 189.93213 62.8625 190.61963Q63.58125 191.30713 63.58125 192.32275Q63.58125 192.83838 63.3625 193.33838Q63.159374 193.82275 62.659374 194.38525Q62.175 194.93213 61.05 195.88525Q60.096874 196.68213 59.815624 196.979Q59.55 197.26025 59.378124 197.5415L63.596874 197.5415ZM65.05 196.30713L66.15938 196.21338Q66.28438 197.02588 66.72188 197.43213Q67.175 197.83838 67.81563 197.83838Q68.56563 197.83838 69.09688 197.26025Q69.62813 196.68213 69.62813 195.74463Q69.62813 194.83838 69.1125 194.32275Q68.6125 193.7915 67.78438 193.7915Q67.28438 193.7915 66.8625 194.02588Q66.45625 194.26025 66.22188 194.61963L65.2375 194.49463L66.06563 190.08838L70.34688 190.08838L70.34688 191.08838L66.90938 191.08838L66.45625 193.40088Q67.22188 192.854 68.06563 192.854Q69.19063 192.854 69.95625 193.63525Q70.7375 194.4165 70.7375 195.65088Q70.7375 196.80713 70.06563 197.6665Q69.2375 198.69775 67.81563 198.69775Q66.64375 198.69775 65.89375 198.0415Q65.15938 197.38525 65.05 196.30713Z" fill-rule="nonzero"/><path fill="#000000" d="M48.05 157.41264Q48.05 155.8814 48.3625 154.95952Q48.675 154.02202 49.284374 153.52202Q49.909374 153.02202 50.846874 153.02202Q51.534374 153.02202 52.05 153.30327Q52.58125 153.58452 52.925 154.11577Q53.26875 154.6314 53.45625 155.3814Q53.64375 156.1314 53.64375 157.41264Q53.64375 158.92827 53.33125 159.85014Q53.034374 160.77202 52.409374 161.28764Q51.8 161.78764 50.846874 161.78764Q49.6125 161.78764 48.89375 160.89702Q48.05 159.83452 48.05 157.41264ZM49.128124 157.41264Q49.128124 159.52202 49.628124 160.22514Q50.128124 160.92827 50.846874 160.92827Q51.58125 160.92827 52.065624 160.22514Q52.565624 159.52202 52.565624 157.41264Q52.565624 155.28764 52.065624 154.60014Q51.58125 153.89702 50.83125 153.89702Q50.1125 153.89702 49.675 154.5064Q49.128124 155.28764 49.128124 157.41264ZM55.64375 161.64702L55.64375 160.4439L56.846874 160.4439L56.846874 161.64702L55.64375 161.64702ZM58.05 159.39702L59.159374 159.30327Q59.284374 160.11577 59.721874 160.52202Q60.175 160.92827 60.815624 160.92827Q61.565624 160.92827 62.096874 160.35014Q62.628124 159.77202 62.628124 158.83452Q62.628124 157.92827 62.1125 157.41264Q61.6125 156.8814 60.784374 156.8814Q60.284374 156.8814 59.8625 157.11577Q59.45625 157.35014 59.221874 157.70952L58.2375 157.58452L59.065624 153.17827L63.346874 153.17827L63.346874 154.17827L59.909374 154.17827L59.45625 156.49077Q60.221874 155.9439 61.065624 155.9439Q62.190624 155.9439 62.95625 156.72514Q63.7375 157.5064 63.7375 158.74077Q63.7375 159.89702 63.065624 160.7564Q62.2375 161.78764 60.815624 161.78764Q59.64375 161.78764 58.89375 161.1314Q58.159374 160.47514 58.05 159.39702ZM65.05 157.41264Q65.05 155.8814 65.3625 154.95952Q65.675 154.02202 66.28438 153.52202Q66.90938 153.02202 67.84688 153.02202Q68.53438 153.02202 69.05 153.30327Q69.58125 153.58452 69.925 154.11577Q70.26875 154.6314 70.45625 155.3814Q70.64375 156.1314 70.64375 157.41264Q70.64375 158.92827 70.33125 159.85014Q70.03438 160.77202 69.40938 161.28764Q68.8 161.78764 67.84688 161.78764Q66.6125 161.78764 65.89375 160.89702Q65.05 159.83452 65.05 157.41264ZM66.12813 157.41264Q66.12813 159.52202 66.62813 160.22514Q67.12813 160.92827 67.84688 160.92827Q68.58125 160.92827 69.06563 160.22514Q69.56563 159.52202 69.56563 157.41264Q69.56563 155.28764 69.06563 154.60014Q68.58125 153.89702 67.83125 153.89702Q67.1125 153.89702 66.675 154.5064Q66.12813 155.28764 66.12813 157.41264Z" fill-rule="nonzero"/><path fill="#000000" d="M48.05 120.502525Q48.05 118.971275 48.3625 118.0494Q48.675 117.1119 49.284374 116.6119Q49.909374 116.1119 50.846874 116.1119Q51.534374 116.1119 52.05 116.39315Q52.58125 116.6744 52.925 117.20565Q53.26875 117.721275 53.45625 118.471275Q53.64375 119.221275 53.64375 120.502525Q53.64375 122.01815 53.33125 122.940025Q53.034374 123.8619 52.409374 124.377525Q51.8 124.877525 50.846874 124.877525Q49.6125 124.877525 48.89375 123.9869Q48.05 122.9244 48.05 120.502525ZM49.128124 120.502525Q49.128124 122.6119 49.628124 123.315025Q50.128124 124.01815 50.846874 124.01815Q51.58125 124.01815 52.065624 123.315025Q52.565624 122.6119 52.565624 120.502525Q52.565624 118.377525 52.065624 117.690025Q51.58125 116.9869 50.83125 116.9869Q50.1125 116.9869 49.675 117.596275Q49.128124 118.377525 49.128124 120.502525ZM55.64375 124.7369L55.64375 123.533775L56.846874 123.533775L56.846874 124.7369L55.64375 124.7369ZM58.1125 117.26815L58.1125 116.252525L63.675 116.252525L63.675 117.08065Q62.8625 117.95565 62.05 119.408775Q61.253124 120.846275 60.815624 122.377525Q60.4875 123.45565 60.409374 124.7369L59.315624 124.7369Q59.33125 123.721275 59.70625 122.283775Q60.096874 120.846275 60.8 119.51815Q61.51875 118.190025 62.33125 117.26815L58.1125 117.26815ZM65.05 122.4869L66.15938 122.39315Q66.28438 123.20565 66.72188 123.6119Q67.175 124.01815 67.81563 124.01815Q68.56563 124.01815 69.09688 123.440025Q69.62813 122.8619 69.62813 121.9244Q69.62813 121.01815 69.1125 120.502525Q68.6125 119.971275 67.78438 119.971275Q67.28438 119.971275 66.8625 120.20565Q66.45625 120.440025 66.22188 120.7994L65.2375 120.6744L66.06563 116.26815L70.34688 116.26815L70.34688 117.26815L66.90938 117.26815L66.45625 119.58065Q67.22188 119.033775 68.06563 119.033775Q69.19063 119.033775 69.95625 119.815025Q70.7375 120.596275 70.7375 121.83065Q70.7375 122.9869 70.06563 123.846275Q69.2375 124.877525 67.81563 124.877525Q66.64375 124.877525 65.89375 124.221275Q65.15938 123.565025 65.05 122.4869Z" fill-rule="nonzero"/><path fill="#000000" d="M52.01875 87.82678L50.971874 87.82678L50.971874 81.10803Q50.58125 81.46741 49.95625 81.84241Q49.346874 82.20178 48.8625 82.37366L48.8625 81.35803Q49.7375 80.93616 50.39375 80.35803Q51.065624 79.76428 51.346874 79.20178L52.01875 79.20178L52.01875 87.82678ZM55.64375 87.82678L55.64375 86.62366L56.846874 86.62366L56.846874 87.82678L55.64375 87.82678ZM58.05 83.59241Q58.05 82.06116 58.3625 81.13928Q58.675 80.20178 59.284374 79.70178Q59.909374 79.20178 60.846874 79.20178Q61.534374 79.20178 62.05 79.48303Q62.58125 79.76428 62.925 80.29553Q63.26875 80.81116 63.45625 81.56116Q63.64375 82.31116 63.64375 83.59241Q63.64375 85.10803 63.33125 86.02991Q63.034374 86.95178 62.409374 87.46741Q61.8 87.96741 60.846874 87.96741Q59.6125 87.96741 58.89375 87.07678Q58.05 86.01428 58.05 83.59241ZM59.128124 83.59241Q59.128124 85.70178 59.628124 86.40491Q60.128124 87.10803 60.846874 87.10803Q61.58125 87.10803 62.065624 86.40491Q62.565624 85.70178 62.565624 83.59241Q62.565624 81.46741 62.065624 80.77991Q61.58125 80.07678 60.83125 80.07678Q60.1125 80.07678 59.675 80.68616Q59.128124 81.46741 59.128124 83.59241ZM65.05 83.59241Q65.05 82.06116 65.3625 81.13928Q65.675 80.20178 66.28438 79.70178Q66.90938 79.20178 67.84688 79.20178Q68.53438 79.20178 69.05 79.48303Q69.58125 79.76428 69.925 80.29553Q70.26875 80.81116 70.45625 81.56116Q70.64375 82.31116 70.64375 83.59241Q70.64375 85.10803 70.33125 86.02991Q70.03438 86.95178 69.40938 87.46741Q68.8 87.96741 67.84688 87.96741Q66.6125 87.96741 65.89375 87.07678Q65.05 86.01428 65.05 83.59241ZM66.12813 83.59241Q66.12813 85.70178 66.62813 86.40491Q67.12813 87.10803 67.84688 87.10803Q68.58125 87.10803 69.06563 86.40491Q69.56563 85.70178 69.56563 83.59241Q69.56563 81.46741 69.06563 80.77991Q68.58125 80.07678 67.83125 80.07678Q67.1125 80.07678 66.675 80.68616Q66.12813 81.46741 66.12813 83.59241Z" fill-rule="nonzero"/><path fill="#000000" d="M52.01875 50.916668L50.971874 50.916668L50.971874 44.197918Q50.58125 44.557293 49.95625 44.932293Q49.346874 45.291668 48.8625 45.463543L48.8625 44.447918Q49.7375 44.026043 50.39375 43.447918Q51.065624 42.854168 51.346874 42.291668L52.01875 42.291668L52.01875 50.916668ZM55.64375 50.916668L55.64375 49.713543L56.846874 49.713543L56.846874 50.916668L55.64375 50.916668ZM63.596874 49.901043L63.596874 50.916668L57.909374 50.916668Q57.909374 50.541668 58.034374 50.182293Q58.253124 49.604168 58.721874 49.041668Q59.20625 48.479168 60.1125 47.744793Q61.51875 46.588543 62.003124 45.916668Q62.503124 45.244793 62.503124 44.651043Q62.503124 44.026043 62.05 43.604168Q61.596874 43.166668 60.878124 43.166668Q60.1125 43.166668 59.659374 43.619793Q59.20625 44.072918 59.190624 44.885418L58.1125 44.776043Q58.221874 43.557293 58.940624 42.932293Q59.675 42.291668 60.909374 42.291668Q62.14375 42.291668 62.8625 42.979168Q63.58125 43.666668 63.58125 44.682293Q63.58125 45.197918 63.3625 45.697918Q63.159374 46.182293 62.659374 46.744793Q62.175 47.291668 61.05 48.244793Q60.096874 49.041668 59.815624 49.338543Q59.55 49.619793 59.378124 49.901043L63.596874 49.901043ZM65.05 48.666668L66.15938 48.572918Q66.28438 49.385418 66.72188 49.791668Q67.175 50.197918 67.81563 50.197918Q68.56563 50.197918 69.09688 49.619793Q69.62813 49.041668 69.62813 48.104168Q69.62813 47.197918 69.1125 46.682293Q68.6125 46.151043 67.78438 46.151043Q67.28438 46.151043 66.8625 46.385418Q66.45625 46.619793 66.22188 46.979168L65.2375 46.854168L66.06563 42.447918L70.34688 42.447918L70.34688 43.447918L66.90938 43.447918L66.45625 45.760418Q67.22188 45.213543 68.06563 45.213543Q69.19063 45.213543 69.95625 45.994793Q70.7375 46.776043 70.7375 48.010418Q70.7375 49.166668 70.06563 50.026043Q69.2375 51.057293 67.81563 51.057293Q66.64375 51.057293 65.89375 50.401043Q65.15938 49.744793 65.05 48.666668Z" fill-rule="nonzero"/><path fill="#000000" d="M97.552795 270.7565L91.4761 264.6798L93.57532 262.58057Q94.282425 261.87347 94.74647 261.5862Q95.38728 261.18845 96.06124 261.1332Q96.95618 261.05588 97.82901 261.46466Q98.70184 261.85138 99.508385 262.6579Q100.204445 263.35397 100.569046 264.05002Q100.9447 264.73505 101.044136 265.3427Q101.14357 265.95038 101.03309 266.45862Q100.93365 266.9558 100.62429 267.4861Q100.30389 268.0054 99.75146 268.55783L97.552795 270.7565ZM97.64118 269.23178L98.93386 267.93912Q99.541534 267.33145 99.77355 266.87845Q100.00557 266.42548 99.99452 266.01666Q100.00557 265.4532 99.67412 264.81238Q99.35371 264.16052 98.6687 263.4755Q97.71852 262.52533 96.889885 262.3375Q96.06124 262.1276 95.44252 262.39276Q94.98953 262.60266 94.282425 263.30978L93.00079 264.5914L97.64118 269.23178ZM105.41936 260.0615L106.28114 259.3765Q106.77833 260.22723 106.6568 261.10007Q106.53526 261.9729 105.77291 262.73526Q104.81169 263.69647 103.64054 263.67438Q102.480446 263.64124 101.40874 262.56952Q100.30389 261.46466 100.27074 260.28247Q100.22654 259.08923 101.13252 258.18326Q102.01641 257.29938 103.16546 257.34357Q104.325554 257.3767 105.41936 258.47052Q105.48565 258.5368 105.61823 258.6694L102.336815 261.9508Q103.110214 262.6358 103.86151 262.6579Q104.60177 262.66898 105.15419 262.11655Q105.56299 261.70773 105.64033 261.21054Q105.71767 260.69128 105.41936 260.0615ZM101.77334 261.29895L104.22611 258.84616Q103.61845 258.32687 103.110214 258.28268Q102.31472 258.2164 101.75124 258.77988Q101.231964 259.29916 101.22091 259.9952Q101.22091 260.68024 101.77334 261.29895ZM111.62864 256.68066L111.07621 256.12823Q111.308235 257.19992 110.501686 258.00647Q109.97136 258.5368 109.24216 258.6915Q108.5019 258.8351 107.739555 258.5589Q106.9772 258.28268 106.303246 257.60873Q105.651375 256.95688 105.33097 256.19452Q105.01056 255.43216 105.17629 254.714Q105.33097 253.9848 105.87235 253.44342Q106.270096 253.04568 106.745186 252.90205Q107.22027 252.75842 107.68431 252.8247L105.507744 250.64815L106.248 249.9079L112.3247 255.98459L111.62864 256.68066ZM107.07664 256.83533Q107.927376 257.68607 108.700775 257.75235Q109.46313 257.8076 109.949265 257.32147Q110.435394 256.83533 110.38016 256.0951Q110.32491 255.35483 109.50732 254.53723Q108.60134 253.63126 107.82794 253.56496Q107.06559 253.48763 106.55736 253.99585Q106.06017 254.49304 106.13751 255.23329Q106.203804 255.9625 107.07664 256.83533ZM116.611534 251.69775L115.95967 251.0459Q116.19169 252.31648 115.30781 253.20036Q114.921104 253.58705 114.43497 253.78593Q113.94884 253.9627 113.56213 253.90747Q113.16439 253.84117 112.76664 253.576Q112.51252 253.41028 112.02639 252.92415L109.30845 250.2062L110.059746 249.45491L112.50147 251.89664Q113.076 252.47116 113.33012 252.63689Q113.68367 252.85785 114.08141 252.81366Q114.479164 252.74738 114.82167 252.40486Q115.15312 252.07341 115.27466 251.62042Q115.396194 251.14532 115.21941 250.72548Q115.05369 250.29459 114.49021 249.73111L112.13687 247.37778L112.87713 246.63753L117.274445 251.03485L116.611534 251.69775ZM120.368034 251.32211L114.28029 245.23436L114.954254 244.5604L115.51773 245.12387Q115.42934 244.54935 115.56192 244.08531Q115.70555 243.61023 116.136444 243.17934Q116.69992 242.61586 117.418076 242.47223Q118.13623 242.3286 118.87649 242.649Q119.627785 242.95836 120.25755 243.58812Q120.93151 244.26208 121.22983 245.04654Q121.539185 245.81993 121.362404 246.57123Q121.18563 247.32254 120.6774 247.83076Q120.30175 248.20642 119.848755 248.35005Q119.38472 248.48264 118.964874 248.43843L121.10829 250.58185L120.368034 251.32211ZM117.17501 246.78116Q118.02575 247.6319 118.77705 247.69818Q119.5173 247.75343 120.00343 247.26729Q120.50062 246.77011 120.434326 245.9967Q120.368034 245.22331 119.48415 244.33943Q118.64446 243.49974 117.893166 243.43344Q117.13081 243.35611 116.64468 243.84224Q116.16959 244.31734 116.24693 245.12387Q116.32427 245.93042 117.17501 246.78116Z" fill-rule="nonzero"/><path fill="#000000" d="M137.09467 283.20822L137.77966 282.39062Q138.29895 282.7994 138.78508 282.8878Q139.27122 282.9762 139.86784 282.75522Q140.46446 282.51215 140.98375 281.99286Q141.43674 281.5399 141.65771 281.05374Q141.86763 280.55655 141.80135 280.1588Q141.73505 279.73895 141.45883 279.46274Q141.17157 279.17548 140.79593 279.1313Q140.40923 279.07605 139.88994 279.30807Q139.53639 279.46274 138.49782 280.10358Q137.4703 280.73334 136.96208 280.888Q136.28812 281.09793 135.74673 280.9764Q135.1943 280.8438 134.77446 280.42398Q134.32147 279.97098 134.17784 279.31912Q134.03421 278.64517 134.33252 277.9491Q134.63083 277.23096 135.23851 276.6233Q135.91246 275.9493 136.65273 275.651Q137.38193 275.34164 138.08904 275.49634Q138.78508 275.63995 139.33751 276.1482L138.61935 276.97684Q137.97855 276.4686 137.32668 276.54593Q136.67482 276.60117 135.97876 277.29724Q135.24956 278.02643 135.18326 278.62308Q135.11697 279.2197 135.49261 279.59534Q135.82408 279.9268 136.26602 279.9047Q136.70796 279.8826 137.9012 279.1313Q139.1055 278.36896 139.63582 278.17007Q140.42027 277.89386 141.05003 278.01538Q141.66876 278.1259 142.16594 278.62308Q142.65208 279.1092 142.80676 279.8163Q142.9504 280.51236 142.67418 281.27472Q142.38692 282.026 141.73505 282.6779Q140.9064 283.50653 140.11092 283.83798Q139.31541 284.14734 138.50888 283.9816Q137.71338 283.80484 137.09467 283.20822ZM145.69043 278.52362L139.94519 275.47424L140.71858 274.70084L143.95581 276.54593L145.1601 277.2199Q145.1159 277.1315 144.48613 276.0819L142.60788 272.81152L143.37024 272.0492L146.58536 273.93848L147.64601 274.5572L147.0494 273.45233L145.25954 270.15988L145.98874 269.43066L149.00499 275.20908L148.2316 275.98245L144.89493 274.0379L143.9779 273.47446L146.47487 277.73917L145.69043 278.52362ZM153.57909 269.55222Q153.5128 270.3256 153.26973 270.85593Q153.0377 271.3752 152.59576 271.81717Q151.86656 272.54636 151.12631 272.5795Q150.38606 272.61264 149.83363 272.06024Q149.51323 271.7398 149.3917 271.33102Q149.25911 270.9112 149.34749 270.51343Q149.42484 270.10464 149.6458 269.72897Q149.78943 269.45276 150.18718 268.94455Q150.98268 267.95016 151.2589 267.3646Q151.10422 267.20993 151.07106 267.17676Q150.60703 266.71274 150.20927 266.73483Q149.67896 266.77902 149.11548 267.3425Q148.59619 267.8618 148.5299 268.3037Q148.45256 268.73462 148.79507 269.3202L147.96643 269.94995Q147.60182 269.38647 147.54659 268.8672Q147.49133 268.34793 147.76755 267.76236Q148.04376 267.17676 148.60724 266.61328Q149.17072 266.04984 149.65686 265.82886Q150.14299 265.60788 150.5076 265.64102Q150.8722 265.67416 151.24785 265.91724Q151.46881 266.07193 151.966 266.5691L152.96037 267.56348Q153.99893 268.60202 154.31934 268.83405Q154.6508 269.05502 155.04854 269.1655L154.2641 269.94995Q153.92159 269.82843 153.57909 269.55222ZM151.84447 267.95016Q151.6014 268.5247 150.91638 269.45276Q150.51865 269.9831 150.4192 270.2593Q150.30872 270.52448 150.3529 270.78964Q150.40816 271.04376 150.60703 271.24265Q150.90533 271.54095 151.32518 271.51886Q151.75607 271.48572 152.18697 271.0548Q152.61786 270.62393 152.76149 270.10464Q152.91617 269.5743 152.7394 269.08817Q152.60681 268.71252 152.12068 268.22638L151.84447 267.95016ZM157.88802 269.70688L151.80028 263.61914L152.47423 262.9452L153.0377 263.50867Q152.94933 262.93414 153.08191 262.4701Q153.22554 261.995 153.65643 261.56412Q154.2199 261.00064 154.93806 260.857Q155.65622 260.71338 156.39647 261.03378Q157.14777 261.34314 157.77753 261.9729Q158.45149 262.64688 158.7498 263.4313Q159.05916 264.2047 158.88239 264.95602Q158.70561 265.7073 158.19737 266.21555Q157.82173 266.5912 157.36874 266.73483Q156.9047 266.8674 156.48485 266.8232L158.62827 268.96664L157.88802 269.70688ZM154.69499 265.16592Q155.54573 266.01666 156.29703 266.08298Q157.03728 266.1382 157.52342 265.65207Q158.0206 265.15488 157.95432 264.3815Q157.88802 263.6081 157.00414 262.7242Q156.16444 261.88452 155.41315 261.81824Q154.6508 261.74088 154.16466 262.22702Q153.68958 262.70212 153.7669 263.50867Q153.84425 264.3152 154.69499 265.16592ZM162.10857 260.77966L162.87091 261.32104Q162.61679 261.70773 162.37373 261.9508Q161.96494 262.35962 161.62242 262.45905Q161.26888 262.54742 160.95952 262.43695Q160.66121 262.3154 159.98724 261.64145L157.45712 259.11133L156.91574 259.6527L156.34122 259.0782L156.8826 258.5368L155.78879 257.443L156.08711 256.2608L157.62285 257.79657L158.37416 257.04526L158.94868 257.61978L158.19737 258.3711L160.77168 260.9454Q161.0921 261.2658 161.21362 261.32104Q161.3462 261.36523 161.48984 261.3321Q161.63347 261.29895 161.79921 261.1332Q161.93178 261.00064 162.10857 260.77966ZM158.05374 255.73048L157.19196 254.8687L157.94327 254.11739L158.80505 254.97919L158.05374 255.73048ZM163.26866 260.9454L158.87134 256.54807L159.62263 255.79677L164.01996 260.1941L163.26866 260.9454ZM162.9151 256.9016Q161.68872 255.67523 161.7771 254.41571Q161.85445 253.36609 162.67204 252.54851Q163.57802 251.64252 164.74916 251.66461Q165.9203 251.66461 166.96992 252.71423Q167.82066 253.56497 168.05267 254.30522Q168.2847 255.04547 168.06372 255.81886Q167.84276 256.57016 167.26823 257.14468Q166.3512 258.06174 165.1911 258.0507Q164.031 258.01752 162.9151 256.9016ZM163.67746 256.13928Q164.51715 256.97897 165.30159 257.0342Q166.09709 257.0784 166.64952 256.52597Q167.21298 255.9625 167.15775 255.17805Q167.10251 254.3936 166.24072 253.53181Q165.42313 252.71423 164.62762 252.67003Q163.84319 252.61479 163.29076 253.16722Q162.73833 253.71965 162.78252 254.51514Q162.82672 255.28854 163.67746 256.13928ZM170.33972 253.87433L165.94241 249.477L166.60532 248.81409L167.22404 249.43282Q166.99202 248.22852 167.90904 247.3115Q168.3068 246.91374 168.78188 246.72592Q169.26802 246.52704 169.66577 246.59334Q170.0635 246.65962 170.43916 246.9027Q170.68224 247.07947 171.2015 247.59875L173.9084 250.30565L173.16815 251.0459L170.4944 248.37215Q170.03036 247.90811 169.72101 247.77553Q169.41165 247.64294 169.05809 247.73134Q168.6935 247.80867 168.39519 248.10698Q167.92009 248.58208 167.8759 249.24498Q167.83171 249.8858 168.6714 250.7255L171.07999 253.13408L170.33972 253.87433ZM173.67639 247.90811L174.2951 247.06842Q174.80334 247.44408 175.31157 247.39987Q175.83086 247.34464 176.35013 246.82535Q176.85837 246.31712 176.90256 245.87518Q176.94676 245.41115 176.6595 245.12389Q176.40538 244.86977 176.04077 244.9471Q175.78665 245.00235 175.0243 245.45534Q173.9968 246.063 173.53276 246.23978Q173.06871 246.39445 172.63782 246.29503Q172.20692 246.19559 171.87547 245.86414Q171.58821 245.57687 171.46667 245.19017Q171.34514 244.80347 171.41144 244.40573Q171.46667 244.1074 171.6766 243.72072Q171.88652 243.33401 172.24008 242.98047Q172.7483 242.47223 173.28969 242.2402Q173.83107 241.9861 174.27301 242.05238Q174.71495 242.11868 175.20108 242.47223L174.57132 243.30087Q174.19566 243.01361 173.76477 243.06885Q173.33388 243.10199 172.89194 243.54393Q172.38371 244.05217 172.33951 244.44992Q172.28427 244.83662 172.5163 245.06863Q172.65993 245.21227 172.8588 245.23436Q173.07977 245.25645 173.34492 245.14598Q173.4996 245.07968 174.19566 244.67088Q175.21213 244.09636 175.65408 243.91959Q176.09602 243.74281 176.52692 243.82014Q176.95781 243.89749 177.3445 244.2842Q177.72015 244.65984 177.83064 245.21227Q177.94113 245.7426 177.72015 246.33922Q177.48813 246.92479 176.96886 247.44408Q176.10707 248.30586 175.30052 248.4053Q174.49397 248.48264 173.67639 247.90811Z" fill-rule="nonzero"/><path fill="#000000" d="M198.79991 281.3189L192.72322 275.24222L196.82222 271.1432L197.54037 271.86136L194.24791 275.1538L196.12616 277.03207L198.97668 274.18155L199.69484 274.8997L196.84431 277.7502L199.60646 280.51236L198.79991 281.3189ZM203.60603 276.5128L199.20871 272.11548L199.88268 271.4415L200.54558 272.10443Q200.33566 271.38626 200.40195 271.0327Q200.46825 270.65704 200.73341 270.3919Q201.10905 270.01624 201.72778 269.86157L202.16972 270.81174Q201.72778 270.9222 201.46262 271.18738Q201.2085 271.4415 201.1643 271.79504Q201.1201 272.12653 201.30794 272.46902Q201.57309 272.99936 202.03714 273.46338L204.34628 275.77252L203.60603 276.5128ZM208.0365 269.2539L208.89828 268.56888Q209.39546 269.41962 209.27393 270.29245Q209.1524 271.16528 208.39005 271.92764Q207.42882 272.88885 206.25768 272.86676Q205.09758 272.83362 204.02588 271.7619Q202.92102 270.65704 202.88788 269.47485Q202.84367 268.28162 203.74966 267.37564Q204.63354 266.49176 205.7826 266.53595Q206.94269 266.5691 208.0365 267.6629Q208.10278 267.7292 208.23537 267.8618L204.95395 271.1432Q205.72736 271.82822 206.47865 271.8503Q207.2189 271.86136 207.77133 271.30893Q208.18013 270.90012 208.25746 270.40295Q208.33481 269.88367 208.0365 269.2539ZM204.39047 270.49133L206.84325 268.03854Q206.23558 267.51926 205.72736 267.47507Q204.93185 267.40878 204.36838 267.97226Q203.84909 268.49155 203.83804 269.1876Q203.83804 269.87262 204.39047 270.49133ZM215.89201 267.60767L213.73755 265.4532Q213.80383 265.87305 213.64915 266.35916Q213.49448 266.8232 213.14091 267.17676Q212.35648 267.9612 211.17429 267.90598Q209.98103 267.8397 208.88724 266.74588Q208.22432 266.08295 207.93706 265.33167Q207.63875 264.5693 207.80447 263.87326Q207.9702 263.1551 208.48949 262.6358Q209.30708 261.81824 210.45613 262.03918L209.87056 261.4536L210.54451 260.77966L216.63226 266.8674L215.89201 267.60767ZM209.68272 266.01666Q210.53346 266.8674 211.30687 266.9337Q212.09131 266.98895 212.5885 266.49176Q213.06358 266.01666 213.00835 265.27643Q212.94205 264.52512 212.12445 263.70752Q211.24057 262.82364 210.43404 262.7463Q209.63853 262.6579 209.14134 263.1551Q208.66626 263.6302 208.7436 264.39255Q208.80989 265.14383 209.68272 266.01666ZM216.345 263.7738L211.94768 259.3765L212.6106 258.7136L213.22931 259.3323Q213.10777 258.79092 213.26245 258.2606Q213.40608 257.7192 213.84802 257.27728Q214.33417 256.79114 214.84239 256.68066Q215.36168 256.5591 215.84781 256.8022Q215.6158 255.5095 216.44444 254.68086Q217.10735 254.01794 217.81445 254.04005Q218.52156 254.04005 219.2839 254.8024L222.30017 257.81866L221.5599 258.5589L218.78673 255.78572Q218.34479 255.34378 218.06857 255.22224Q217.8034 255.08966 217.49405 255.15594Q217.1847 255.22224 216.91953 255.48741Q216.45549 255.95145 216.45549 256.57016Q216.46654 257.17783 217.15155 257.86285L219.70375 260.41507L218.95245 261.16635L216.09088 258.30478Q215.5937 257.8076 215.16281 257.75235Q214.73192 257.67502 214.32312 258.0838Q214.0027 258.40424 213.90327 258.8351Q213.80383 259.26602 214.0027 259.70795Q214.20158 260.1499 214.7982 260.74652L217.08525 263.03357L216.345 263.7738ZM218.20116 251.48784L217.33937 250.62605L218.09067 249.87474L218.95245 250.73653L218.20116 251.48784ZM223.41606 256.70276L219.01875 252.30542L219.77005 251.55412L224.16737 255.95145L223.41606 256.70276ZM225.53738 254.58142L221.14006 250.18411L221.80298 249.5212L222.42169 250.13991Q222.18968 248.93562 223.1067 248.01859Q223.50446 247.62085 223.97954 247.43301Q224.46568 247.23415 224.86343 247.30043Q225.26117 247.36673 225.63683 247.6098Q225.8799 247.78658 226.39917 248.30585L229.10606 251.01274L228.36581 251.753L225.69206 249.07925Q225.22803 248.61522 224.91867 248.48264Q224.60931 248.35005 224.25575 248.43843Q223.89116 248.51578 223.59285 248.81409Q223.11775 249.28917 223.07356 249.95209Q223.02937 250.5929 223.86906 251.43259L226.27763 253.84117L225.53738 254.58142ZM232.07812 245.21227L232.93991 244.52725Q233.4371 245.37799 233.31557 246.25082Q233.19403 247.12366 232.43169 247.88602Q231.47046 248.84723 230.29932 248.82513Q229.1392 248.79199 228.0675 247.72028Q226.96265 246.61543 226.9295 245.43323Q226.88531 244.23999 227.79129 243.33401Q228.67517 242.45012 229.82422 242.49432Q230.98431 242.52747 232.07812 243.62128Q232.14441 243.68756 232.277 243.82014L228.99557 247.10156Q229.76898 247.78658 230.52028 247.80867Q231.26053 247.81972 231.81296 247.26729Q232.22176 246.85849 232.2991 246.36131Q232.37643 245.84203 232.07812 245.21227ZM228.43211 246.44969L230.88489 243.99692Q230.2772 243.47765 229.76898 243.43344Q228.97348 243.36716 228.41 243.93063Q227.89073 244.4499 227.87968 245.14597Q227.87968 245.83098 228.43211 246.44969Z" fill-rule="nonzero"/><path fill="#000000" d="M236.17627 295.93613L236.86127 295.11853Q237.38055 295.52734 237.86668 295.61572Q238.35283 295.7041 238.94945 295.48315Q239.54607 295.24008 240.06535 294.7208Q240.51834 294.2678 240.7393 293.78168Q240.94923 293.2845 240.88293 292.88672Q240.81665 292.4669 240.54044 292.19067Q240.25317 291.9034 239.87752 291.85922Q239.49083 291.804 238.97154 292.03598Q238.618 292.19067 237.57942 292.83148Q236.55191 293.46124 236.04369 293.61594Q235.36972 293.82587 234.82834 293.7043Q234.27591 293.57175 233.85606 293.1519Q233.40308 292.6989 233.25945 292.04703Q233.11581 291.37308 233.41412 290.67703Q233.71243 289.95886 234.32011 289.3512Q234.99406 288.67725 235.73431 288.37894Q236.46353 288.06958 237.17062 288.22424Q237.86668 288.3679 238.41911 288.8761L237.70096 289.70474Q237.06015 289.19653 236.40828 289.27386Q235.75642 289.3291 235.06036 290.02515Q234.33116 290.75436 234.26486 291.35098Q234.19858 291.9476 234.57422 292.32324Q234.90569 292.65472 235.34763 292.63263Q235.78957 292.6105 236.9828 291.85922Q238.1871 291.09686 238.71742 290.89798Q239.50188 290.6218 240.13164 290.74332Q240.75037 290.8538 241.24754 291.35098Q241.73367 291.83713 241.88835 292.54422Q242.03198 293.2403 241.75578 294.00262Q241.46852 294.75394 240.81665 295.4058Q239.988 296.23444 239.19252 296.5659Q238.39702 296.87524 237.59047 296.70953Q236.79498 296.53275 236.17627 295.93613ZM244.92671 289.77106L245.68906 290.3124Q245.43494 290.69913 245.19188 290.9422Q244.78308 291.35098 244.44057 291.4504Q244.08702 291.53882 243.77766 291.4283Q243.47935 291.3068 242.80539 290.63284L240.27527 288.10272L239.73389 288.6441L239.15936 288.06958L239.70074 287.5282L238.60695 286.4344L238.90526 285.2522L240.441 286.78793L241.1923 286.03662L241.76683 286.61115L241.01552 287.36246L243.58983 289.93677Q243.91025 290.25717 244.03177 290.3124Q244.16435 290.35663 244.30798 290.32346Q244.45161 290.2903 244.61736 290.1246Q244.74994 289.992 244.92671 289.77106ZM246.07576 289.9478L241.67844 285.5505L242.3524 284.87653L243.0153 285.53946Q242.80539 284.8213 242.87167 284.46774Q242.93797 284.0921 243.20314 283.82693Q243.57878 283.45126 244.19751 283.2966L244.63945 284.24677Q244.19751 284.35727 243.93234 284.62244Q243.67822 284.87653 243.63403 285.2301Q243.58983 285.56155 243.77766 285.90405Q244.04283 286.4344 244.50687 286.8984L246.81601 289.20758L246.07576 289.9478ZM250.50623 282.68893L251.36801 282.0039Q251.86519 282.85464 251.74365 283.72748Q251.62213 284.6003 250.85977 285.36267Q249.89856 286.32388 248.7274 286.3018Q247.5673 286.26865 246.4956 285.19696Q245.39075 284.0921 245.3576 282.9099Q245.3134 281.71664 246.21939 280.81067Q247.10327 279.9268 248.25232 279.97098Q249.41241 280.00412 250.50623 281.09793Q250.57251 281.1642 250.7051 281.2968L247.42368 284.57822Q248.19708 285.26324 248.94838 285.28534Q249.68863 285.2964 250.24106 284.74396Q250.64986 284.33517 250.72719 283.83798Q250.80453 283.3187 250.50623 282.68893ZM246.8602 283.92636L249.31297 281.47357Q248.7053 280.9543 248.19708 280.91013Q247.40158 280.8438 246.8381 281.4073Q246.31883 281.92657 246.30777 282.62265Q246.30777 283.30765 246.8602 283.92636ZM256.1962 278.7446Q256.1299 279.518 255.88686 280.04834Q255.65483 280.56763 255.21289 281.00955Q254.4837 281.73874 253.74344 281.7719Q253.00319 281.80505 252.45076 281.25262Q252.13036 280.93222 252.00882 280.5234Q251.87624 280.10358 251.96463 279.7058Q252.04198 279.29703 252.26292 278.9214Q252.40656 278.64517 252.8043 278.13693Q253.59981 277.14258 253.87602 276.557Q253.72134 276.4023 253.68819 276.36917Q253.22415 275.90512 252.8264 275.92722Q252.29608 275.97144 251.7326 276.5349Q251.21332 277.05417 251.14703 277.49612Q251.06969 277.927 251.41219 278.51257L250.58356 279.14233Q250.21896 278.57886 250.16371 278.0596Q250.10847 277.5403 250.38467 276.95474Q250.66089 276.36917 251.22437 275.8057Q251.78784 275.24222 252.27397 275.02124Q252.76012 274.80026 253.12471 274.83344Q253.48932 274.86658 253.86497 275.10965Q254.08594 275.2643 254.58313 275.7615L255.5775 276.75586Q256.61606 277.79443 256.93646 278.02646Q257.2679 278.24744 257.66568 278.3579L256.88123 279.14236Q256.53873 279.0208 256.1962 278.7446ZM254.4616 277.14258Q254.21852 277.7171 253.53351 278.64517Q253.13577 279.1755 253.03633 279.45172Q252.92584 279.7169 252.97003 279.98206Q253.02528 280.23615 253.22417 280.43503Q253.52248 280.73334 253.9423 280.71124Q254.3732 280.6781 254.8041 280.24722Q255.23499 279.8163 255.37862 279.29703Q255.5333 278.7667 255.35652 278.28058Q255.22394 277.9049 254.73781 277.4188L254.4616 277.14258ZM258.81473 277.20886L254.41739 272.81155L255.0803 272.14862L255.69902 272.76733Q255.5775 272.22595 255.73218 271.69565Q255.87581 271.15427 256.31775 270.7123Q256.8039 270.22617 257.3121 270.1157Q257.8314 269.99417 258.31754 270.23724Q258.0855 268.94455 258.91415 268.1159Q259.57706 267.453 260.28418 267.4751Q260.99127 267.4751 261.75363 268.23746L264.76987 271.2537L264.02963 271.99396L261.25644 269.22076Q260.8145 268.7788 260.5383 268.6573Q260.27313 268.52472 259.96378 268.591Q259.65442 268.6573 259.38925 268.92245Q258.9252 269.3865 258.9252 270.00522Q258.93625 270.61288 259.62125 271.29788L262.17346 273.8501L261.42218 274.6014L258.5606 271.73984Q258.06342 271.24265 257.6325 271.1874Q257.20163 271.11008 256.79285 271.51886Q256.4724 271.83926 256.373 272.27017Q256.27356 272.70105 256.4724 273.143Q256.6713 273.58493 257.2679 274.18155L259.55496 276.4686L258.81473 277.20886ZM267.14532 265.65207L267.97397 265.0223Q268.60373 265.89514 268.53745 266.82324Q268.47113 267.7513 267.753 268.46945Q266.84702 269.37543 265.709 269.3423Q264.571 269.28705 263.46616 268.1822Q262.75903 267.4751 262.46072 266.71274Q262.1624 265.92828 262.37234 265.18805Q262.59332 264.43674 263.16785 263.8622Q263.87494 263.15512 264.69254 263.0667Q265.51013 262.95624 266.31668 263.49762L265.69797 264.3373Q265.1566 263.9948 264.67044 264.039Q264.17325 264.07214 263.7976 264.44778Q263.23413 265.01126 263.28937 265.77362Q263.33356 266.52493 264.20642 267.39777Q265.10135 268.2927 265.84158 268.34793Q266.58185 268.40317 267.12323 267.8618Q267.56516 267.41986 267.58725 266.86743Q267.6204 266.30396 267.14532 265.65207ZM270.10632 265.91724L264.02963 259.84055L264.78094 259.08923L270.85764 265.16595L270.10632 265.91724ZM275.13342 260.89017L274.48154 260.2383Q274.71356 261.50888 273.82968 262.39276Q273.443 262.77945 272.95685 262.97833Q272.4707 263.15512 272.084 263.09988Q271.68628 263.03357 271.2885 262.7684Q271.0344 262.6027 270.54828 262.11655L267.83032 259.39862L268.58163 258.6473L271.02335 261.08902Q271.59787 261.66354 271.852 261.82928Q272.20557 262.05026 272.6033 262.00607Q273.00104 261.93976 273.34354 261.59726Q273.67502 261.2658 273.79654 260.81284Q273.9181 260.33774 273.7413 259.91788Q273.57556 259.487 273.0121 258.92352L270.65875 256.5702L271.39902 255.82993L275.79633 260.22723L275.13342 260.89017ZM275.5864 257.80762L276.20514 256.96793Q276.71335 257.34357 277.2216 257.29938Q277.74088 257.24414 278.26016 256.72485Q278.76837 256.2166 278.8126 255.77469Q278.85678 255.31065 278.56952 255.02339Q278.3154 254.76927 277.9508 254.8466Q277.6967 254.90186 276.93433 255.35484Q275.9068 255.96251 275.44278 256.13928Q274.97873 256.29398 274.54785 256.19452Q274.11694 256.0951 273.7855 255.76364Q273.49823 255.47638 273.3767 255.08968Q273.25516 254.70297 273.32144 254.30522Q273.3767 254.00691 273.5866 253.62022Q273.79654 253.23352 274.1501 252.87997Q274.65833 252.37173 275.1997 252.13971Q275.7411 251.8856 276.183 251.95189Q276.62497 252.01817 277.1111 252.37173L276.48132 253.20038Q276.10568 252.91312 275.6748 252.96835Q275.2439 253.0015 274.80197 253.44344Q274.29373 253.95168 274.24954 254.34943Q274.19427 254.73613 274.4263 254.96814Q274.56995 255.11177 274.7688 255.13387Q274.98978 255.15596 275.25494 255.04549Q275.40964 254.97919 276.10568 254.57039Q277.12216 253.99586 277.5641 253.81909Q278.00604 253.64232 278.43692 253.71965Q278.86783 253.797 279.25452 254.1837Q279.63016 254.55934 279.74066 255.11177Q279.85114 255.6421 279.63016 256.23874Q279.39816 256.8243 278.87888 257.34357Q278.0171 258.20535 277.21054 258.3048Q276.404 258.38214 275.5864 257.80762ZM282.40335 252.29439L283.1657 252.83577Q282.9116 253.22247 282.66852 253.46555Q282.25974 253.87433 281.9172 253.97377Q281.56366 254.06216 281.2543 253.95168Q280.956 253.83014 280.28204 253.15617L277.75192 250.62607L277.21054 251.16745L276.63602 250.59293L277.1774 250.05154L276.0836 248.95773L276.3819 247.77554L277.91763 249.3113L278.66895 248.55998L279.24347 249.1345L278.4922 249.88582L281.0665 252.46013Q281.3869 252.78053 281.50842 252.83577Q281.64102 252.87997 281.78464 252.84682Q281.92828 252.81367 282.094 252.64795Q282.2266 252.51537 282.40335 252.29439ZM285.15445 248.04071L286.01624 247.3557Q286.51343 248.20644 286.39188 249.07927Q286.27036 249.9521 285.508 250.71445Q284.54678 251.67567 283.37564 251.65358Q282.21555 251.62044 281.14383 250.54872Q280.03897 249.44386 280.00583 248.26167Q279.96164 247.06844 280.8676 246.16245Q281.7515 245.27856 282.90054 245.32277Q284.06064 245.35591 285.15445 246.4497Q285.22073 246.516 285.35333 246.64859L282.0719 249.93001Q282.8453 250.61502 283.5966 250.63712Q284.33685 250.64816 284.88928 250.09573Q285.29807 249.68694 285.37543 249.18976Q285.45276 248.67047 285.15445 248.04071ZM281.50842 249.27814L283.9612 246.82536Q283.35355 246.30608 282.8453 246.26189Q282.0498 246.1956 281.48633 246.75908Q280.96704 247.27835 280.956 247.97441Q280.956 248.65942 281.50842 249.27814ZM288.50217 247.52142L284.10483 243.1241L284.7788 242.45013L285.4417 243.11305Q285.23178 242.3949 285.29807 242.04135Q285.36438 241.6657 285.62952 241.40053Q286.0052 241.02489 286.6239 240.8702L287.06586 241.82037Q286.6239 241.93086 286.35873 242.19603Q286.1046 242.45013 286.06042 242.8037Q286.01624 243.13515 286.20407 243.47766Q286.4692 244.00798 286.93326 244.47203L289.2424 246.78117L288.50217 247.52142Z" fill-rule="nonzero"/><path fill="#000000" d="M327.65735 264.271L326.97232 260.3819L323.38156 259.75214L324.30963 258.82407L326.0111 259.1776Q326.49725 259.28812 326.81766 259.36545Q326.7182 258.91245 326.66296 258.54785L326.36465 256.76904L327.25958 255.8741L327.80096 259.46487L331.7674 260.16095L330.86142 261.06693L328.58542 260.60287L327.97775 260.48135L328.55228 263.37607L327.65735 264.271ZM335.39133 255.10071L336.10947 255.81886L332.0878 259.84055Q331.82263 259.57538 331.65692 259.23285Q331.4028 258.66937 331.33652 257.9402Q331.28125 257.19992 331.4028 256.03983Q331.57956 254.22787 331.447 253.41028Q331.32547 252.58163 330.9056 252.16179Q330.46368 251.71985 329.84494 251.74194Q329.21518 251.753 328.70694 252.26123Q328.16556 252.80261 328.16556 253.44342Q328.16556 254.08424 328.72903 254.66982L327.88937 255.35483Q327.10492 254.4157 327.1712 253.46553Q327.2375 252.49326 328.11032 251.62042Q328.98315 250.74759 329.97754 250.72548Q330.9719 250.70338 331.69006 251.42154Q332.05466 251.78615 332.25354 252.29437Q332.4524 252.78052 332.4966 253.53181Q332.5408 254.26102 332.41925 255.73047Q332.30878 256.96793 332.31982 257.3767Q332.33087 257.7634 332.4082 258.0838L335.39133 255.10071ZM336.41882 246.33922L335.73383 247.1347Q335.19244 246.7922 334.8168 246.77011Q334.18704 246.75906 333.7451 247.201Q333.39154 247.55455 333.31418 248.02963Q333.23685 248.63731 333.5241 249.34442Q333.81137 250.02942 334.7063 250.94646Q334.56268 250.27249 334.75052 249.68692Q334.94937 249.0903 335.38028 248.65941Q336.1205 247.91916 337.19223 247.9523Q338.275 247.9744 339.13678 248.83618Q339.7113 249.4107 339.95438 250.162Q340.19745 250.89122 340.0317 251.58727Q339.85492 252.27228 339.31354 252.81366Q338.37442 253.75279 337.10385 253.65335Q335.83325 253.55391 334.26437 251.98502Q332.4966 250.21725 332.35297 248.7699Q332.2204 247.51036 333.1816 246.54913Q333.89978 245.83098 334.76157 245.78679Q335.62335 245.72049 336.41882 246.33922ZM335.999 251.99606Q336.38568 252.38277 336.89392 252.58163Q337.40216 252.75842 337.87723 252.65898Q338.36337 252.5485 338.69482 252.21704Q339.15887 251.753 339.12573 251.03485Q339.08154 250.30563 338.42966 249.65378Q337.7999 249.024 337.0928 249.0019Q336.39673 248.96877 335.88852 249.477Q335.38028 249.98523 335.39133 250.70338Q335.41342 251.41049 335.999 251.99606ZM344.47324 247.45511L343.0148 245.9967L340.38525 248.62627L339.70026 247.94125L338.54016 241.23479L339.14783 240.62712L343.08112 244.5604L343.8987 243.7428L344.5837 244.42781L343.7661 245.2454L345.22452 246.70381L344.47324 247.45511ZM342.3298 245.31169L339.60083 242.5827L340.42944 247.21205L342.3298 245.31169Z" fill-rule="nonzero"/><path fill="#000000" d="M353.07916 294.75394L347.00247 288.67725L351.10147 284.57822L351.81964 285.2964L348.52716 288.58884L350.40543 290.4671L353.25595 287.61658L353.9741 288.33472L351.12357 291.18524L353.8857 293.9474L353.07916 294.75394ZM357.87424 289.95886L351.79755 283.88217L352.54883 283.13086L358.62552 289.20758L357.87424 289.95886ZM362.9013 284.9318L362.24945 284.2799Q362.48148 285.5505 361.5976 286.4344Q361.2109 286.82108 360.72476 287.01996Q360.23862 287.19672 359.85193 287.14148Q359.45416 287.0752 359.05643 286.81003Q358.8023 286.64432 358.31616 286.15817L355.59824 283.44022L356.34955 282.68893L358.79126 285.13065Q359.36578 285.70517 359.6199 285.8709Q359.97345 286.0919 360.37122 286.04767Q360.76895 285.98138 361.11145 285.6389Q361.4429 285.30743 361.56445 284.85443Q361.68597 284.37936 361.50922 283.9595Q361.34348 283.52863 360.78 282.96515L358.42667 280.6118L359.1669 279.87155L363.56424 284.26886L362.9013 284.9318ZM359.75247 277.6508L358.8907 276.789L359.642 276.0377L360.50378 276.89948L359.75247 277.6508ZM364.9674 282.8657L360.57007 278.46838L361.32138 277.71707L365.7187 282.1144L364.9674 282.8657ZM369.93924 277.89386L369.3868 277.34143Q369.61884 278.41315 368.8123 279.2197Q368.28195 279.75 367.55276 279.9047Q366.8125 280.0483 366.05014 279.77213Q365.2878 279.4959 364.61383 278.82193Q363.96198 278.17007 363.64157 277.4077Q363.32117 276.6454 363.4869 275.92722Q363.64157 275.19803 364.18295 274.65665Q364.5807 274.25888 365.0558 274.11526Q365.53088 273.97162 365.9949 274.0379L363.81836 271.86136L364.5586 271.1211L370.6353 277.1978L369.93924 277.89386ZM365.38724 278.04852Q366.23798 278.89926 367.01138 278.96558Q367.77374 279.0208 368.25986 278.53467Q368.746 278.04852 368.69077 277.3083Q368.63553 276.56802 367.81793 275.75043Q366.91193 274.84445 366.13855 274.77817Q365.3762 274.70084 364.86795 275.20908Q364.3708 275.70624 364.44812 276.4465Q364.5144 277.1757 365.38724 278.04852ZM374.36972 272.38065Q374.3034 273.15402 374.06036 273.68436Q373.82834 274.20364 373.38638 274.6456Q372.6572 275.3748 371.91693 275.40793Q371.17667 275.44107 370.62424 274.88864Q370.30383 274.56824 370.1823 274.15945Q370.0497 273.7396 370.13812 273.34186Q370.21545 272.93307 370.43643 272.5574Q370.58005 272.2812 370.9778 271.77298Q371.77332 270.7786 372.0495 270.19302Q371.89484 270.03833 371.8617 270.0052Q371.39764 269.54117 370.9999 269.56326Q370.46957 269.60745 369.9061 270.17093Q369.3868 270.69022 369.32053 271.13214Q369.2432 271.56305 369.5857 272.14862L368.75705 272.77838Q368.39246 272.2149 368.3372 271.69562Q368.28195 271.17633 368.55817 270.59076Q368.83438 270.0052 369.39786 269.4417Q369.96133 268.87823 370.44748 268.6573Q370.93362 268.4363 371.29822 268.46945Q371.6628 268.5026 372.03845 268.74567Q372.25943 268.90033 372.75662 269.39752L373.75098 270.3919Q374.78955 271.43045 375.10995 271.66248Q375.4414 271.88345 375.83917 271.99393L375.05472 272.77838Q374.71222 272.65686 374.36972 272.38065ZM372.6351 270.7786Q372.39203 271.35312 371.707 272.2812Q371.30927 272.81152 371.20984 273.08774Q371.09933 273.3529 371.14352 273.61807Q371.19876 273.8722 371.39764 274.07108Q371.69595 274.3694 372.1158 274.3473Q372.5467 274.31412 372.9776 273.88324Q373.40848 273.45233 373.55212 272.93307Q373.7068 272.40274 373.53003 271.9166Q373.39743 271.54095 372.9113 271.0548L372.6351 270.7786ZM376.98822 270.84488L372.59088 266.44757L373.2538 265.78467L373.87253 266.40338Q373.6405 265.1991 374.55753 264.28204Q374.9553 263.8843 375.43036 263.69647Q375.9165 263.49762 376.31424 263.5639Q376.712 263.6302 377.08765 263.87326Q377.33072 264.05002 377.85 264.5693L380.5569 267.2762L379.81665 268.01645L377.14288 265.3427Q376.67886 264.87866 376.3695 264.7461Q376.06015 264.6135 375.70657 264.7019Q375.34198 264.77924 375.04367 265.07755Q374.56857 265.55264 374.52438 266.21555Q374.4802 266.85635 375.3199 267.69604L377.72845 270.10464L376.98822 270.84488ZM376.72305 260.68024L375.86127 259.81845L376.61255 259.06714L377.47433 259.92892L376.72305 260.68024ZM381.93796 265.89514L377.54065 261.49783L378.29193 260.74652L382.68927 265.14383L381.93796 265.89514ZM384.0593 263.77383L379.66196 259.3765L380.32486 258.7136L380.9436 259.3323Q380.82205 258.79092 380.97675 258.2606Q381.12036 257.7192 381.56232 257.27728Q382.04843 256.79114 382.55667 256.68066Q383.07596 256.5591 383.5621 256.8022Q383.33008 255.5095 384.15872 254.68086Q384.82162 254.01796 385.52875 254.04005Q386.23584 254.04005 386.9982 254.8024L390.01443 257.81866L389.2742 258.5589L386.501 255.78572Q386.05908 255.34378 385.78287 255.22224Q385.5177 255.08966 385.20834 255.15596Q384.89896 255.22224 384.63382 255.48741Q384.16977 255.95145 384.16977 256.57016Q384.18082 257.17783 384.8658 257.86285L387.41803 260.41507L386.66675 261.16635L383.80518 258.30478Q383.30798 257.80762 382.87708 257.75235Q382.4462 257.67502 382.03738 258.08383Q381.71698 258.40424 381.61755 258.8351Q381.51813 259.26602 381.71698 259.70795Q381.91586 260.1499 382.51248 260.74652L384.79953 263.03357L384.0593 263.77383ZM393.46158 253.28876Q393.3953 254.06215 393.15222 254.59248Q392.92023 255.11176 392.47827 255.5537Q391.74905 256.2829 391.00882 256.31604Q390.26855 256.3492 389.71613 255.79677Q389.39572 255.47636 389.2742 255.06757Q389.1416 254.64772 389.23 254.24997Q389.30734 253.84117 389.52832 253.46553Q389.67194 253.18932 390.0697 252.68108Q390.86517 251.6867 391.1414 251.10114Q390.98672 250.94646 390.95358 250.91331Q390.48953 250.44928 390.0918 250.47137Q389.56146 250.51556 388.998 251.07904Q388.4787 251.59833 388.4124 252.04027Q388.33505 252.47116 388.67758 253.05673L387.84894 253.6865Q387.4843 253.12302 387.42908 252.60374Q387.37384 252.08446 387.65005 251.49889Q387.92627 250.91331 388.48975 250.34984Q389.05322 249.78636 389.53937 249.5654Q390.02548 249.34442 390.3901 249.37756Q390.7547 249.4107 391.13034 249.65378Q391.35132 249.80846 391.8485 250.30565L392.84286 251.30002Q393.88144 252.33858 394.20184 252.5706Q394.5333 252.79156 394.93106 252.90205L394.1466 253.6865Q393.8041 253.56497 393.46158 253.28876ZM391.72696 251.6867Q391.4839 252.26123 390.7989 253.18932Q390.40115 253.71965 390.3017 253.99586Q390.19122 254.26102 390.2354 254.52618Q390.29065 254.7803 390.48953 254.97917Q390.78784 255.2775 391.2077 255.25539Q391.63858 255.22224 392.0695 254.79135Q392.50037 254.36046 392.644 253.84117Q392.79868 253.31085 392.6219 252.8247Q392.48932 252.44907 392.00317 251.96292L391.72696 251.6867ZM397.04132 249.46596L397.80368 250.00734Q397.54956 250.39403 397.3065 250.6371Q396.89767 251.0459 396.55518 251.14534Q396.20163 251.23372 395.89227 251.12323Q395.59396 251.00171 394.92 250.32774L392.3899 247.79762L391.8485 248.339L391.274 247.76448L391.81537 247.2231L390.72156 246.1293L391.01987 244.9471L392.5556 246.48285L393.30692 245.73155L393.88144 246.30608L393.13013 247.05737L395.70444 249.63168Q396.02484 249.95209 396.1464 250.00734Q396.27896 250.05153 396.4226 250.01839Q396.56622 249.98524 396.73196 249.8195Q396.86453 249.68692 397.04132 249.46596ZM399.79242 245.21227L400.6542 244.52725Q401.15137 245.37799 401.02985 246.25082Q400.9083 247.12366 400.14597 247.88602Q399.18472 248.84724 398.01358 248.82513Q396.8535 248.79199 395.7818 247.72029Q394.67694 246.61543 394.6438 245.43324Q394.59958 244.23999 395.50558 243.33401Q396.38947 242.45013 397.5385 242.49432Q398.6986 242.52747 399.79242 243.62128Q399.8587 243.68756 399.99127 243.82014L396.70987 247.10156Q397.48325 247.78658 398.23456 247.80867Q398.97482 247.81972 399.52725 247.26729Q399.93604 246.8585 400.01337 246.36131Q400.09073 245.84204 399.79242 245.21227ZM396.1464 246.4497L398.59915 243.99693Q397.9915 243.47765 397.48325 243.43346Q396.68777 243.36716 396.1243 243.93063Q395.605 244.44992 395.59396 245.14598Q395.59396 245.83098 396.1464 246.4497Z" fill-rule="nonzero"/><path fill="#000000" d="M425.9545 277.7834L422.209 269.37543L423.0708 268.51364L431.63342 272.10443L430.72745 273.0104L428.16418 271.88345L425.63406 274.41357L426.80524 276.93265L425.9545 277.7834ZM425.21423 273.5297L427.26926 271.47467L424.9601 270.42505Q423.89944 269.961 423.26968 269.5964Q423.73373 270.30353 424.09833 271.08795L425.21423 273.5297ZM433.4012 270.33667L427.33554 267.60767L428.12 266.8232L431.69974 268.5026Q432.27426 268.78986 432.85983 269.11026Q432.61676 268.66833 432.3074 268.0054L430.60593 264.3373L431.36826 263.57495L434.09726 269.6406L433.4012 270.33667ZM438.0195 262.88995L438.8813 262.20493Q439.37848 263.05566 439.25693 263.9285Q439.1354 264.80133 438.37305 265.5637Q437.41183 266.5249 436.2407 266.5028Q435.08057 266.46967 434.00888 265.39795Q432.90402 264.29312 432.87088 263.1109Q432.8267 261.91766 433.73267 261.0117Q434.61655 260.1278 435.7656 260.172Q436.9257 260.20514 438.0195 261.29895Q438.0858 261.36523 438.21835 261.49783L434.93695 264.77924Q435.71036 265.46426 436.46164 265.48636Q437.2019 265.4974 437.75433 264.94498Q438.16312 264.53616 438.24048 264.039Q438.3178 263.5197 438.0195 262.88995ZM434.37347 264.12738L436.82626 261.6746Q436.21857 261.15533 435.71036 261.1111Q434.91486 261.04483 434.35138 261.6083Q433.8321 262.1276 433.82104 262.82364Q433.82104 263.50867 434.37347 264.12738ZM441.3672 262.37067L436.96988 257.97333L437.64383 257.29938L438.30676 257.96228Q438.09683 257.24414 438.16312 256.8906Q438.22943 256.51492 438.49457 256.24976Q438.87024 255.87411 439.48895 255.71944L439.93088 256.66962Q439.48895 256.7801 439.2238 257.04526Q438.96967 257.29938 438.92548 257.65292Q438.8813 257.98438 439.0691 258.3269Q439.33426 258.8572 439.7983 259.32126L442.10745 261.6304L441.3672 262.37067ZM446.53793 256.1172Q446.47162 256.8906 446.22858 257.4209Q445.99655 257.9402 445.5546 258.38214Q444.8254 259.11133 444.08514 259.14447Q443.34488 259.17764 442.79245 258.6252Q442.47205 258.3048 442.35052 257.896Q442.21793 257.47617 442.30634 257.0784Q442.38367 256.66962 442.60464 256.29398Q442.74826 256.01776 443.14603 255.50952Q443.9415 254.51515 444.2177 253.92957Q444.06305 253.77489 444.0299 253.74174Q443.56586 253.27771 443.16812 253.2998Q442.6378 253.344 442.0743 253.90747Q441.55502 254.42676 441.48874 254.8687Q441.4114 255.29959 441.7539 255.88516L440.92526 256.51492Q440.56067 255.95146 440.5054 255.43217Q440.45016 254.91289 440.72638 254.32732Q441.0026 253.74174 441.56607 253.17827Q442.12955 252.61479 442.6157 252.39383Q443.10184 252.17285 443.46643 252.206Q443.83102 252.23915 444.20667 252.48221Q444.42764 252.63689 444.92484 253.13408L445.9192 254.12845Q446.95776 255.167 447.27817 255.39903Q447.60962 255.62 448.0074 255.73048L447.22293 256.51492Q446.88043 256.3934 446.53793 256.1172ZM444.8033 254.51515Q444.56024 255.08968 443.8752 256.01776Q443.47748 256.54807 443.37805 256.82428Q443.26755 257.08945 443.31174 257.3546Q443.36697 257.60873 443.56586 257.80762Q443.86417 258.10593 444.28403 258.08383Q444.7149 258.0507 445.1458 257.61978Q445.5767 257.1889 445.72034 256.66962Q445.875 256.13928 445.69824 255.65315Q445.56564 255.2775 445.0795 254.79135L444.8033 254.51515ZM449.3774 255.08968L450.21707 254.47095Q450.59274 254.75821 450.95734 254.70297Q451.44348 254.63667 451.91855 254.16159Q452.43784 253.6423 452.50412 253.15617Q452.58148 252.659 452.3163 252.19495Q452.15057 251.89664 451.41034 251.17848Q451.49872 252.23915 450.7695 252.96835Q449.86353 253.87433 448.71448 253.71965Q447.55438 253.55392 446.6484 252.64793Q446.01865 252.01817 445.7093 251.26688Q445.39993 250.49347 445.54355 249.77531Q445.6872 249.05716 446.27277 248.47159Q447.0572 247.68715 448.1952 247.80869L447.6649 247.27835L448.34988 246.59334L452.15057 250.39404Q453.1781 251.42155 453.39908 252.06236Q453.62003 252.70319 453.41013 253.39925Q453.21124 254.10635 452.54834 254.76926Q451.7639 255.55371 450.9242 255.6863Q450.0845 255.81888 449.3774 255.08968ZM447.3555 251.83035Q448.2173 252.69214 448.95755 252.74738Q449.6978 252.80263 450.21707 252.28334Q450.73636 251.76405 450.68112 251.0238Q450.63693 250.2725 449.79724 249.43282Q448.9907 248.62627 448.2173 248.58208Q447.45496 248.52684 446.94672 249.03506Q446.44952 249.53226 446.50476 250.2946Q446.56003 251.03485 447.3555 251.83035ZM455.69717 245.21227L456.55896 244.52727Q457.05612 245.378 456.9346 246.25084Q456.81308 247.12367 456.05072 247.88602Q455.0895 248.84724 453.91833 248.82515Q452.75824 248.79199 451.68655 247.72029Q450.5817 246.61543 450.54855 245.43324Q450.50433 244.24 451.41034 243.33401Q452.29422 242.45013 453.44327 242.49432Q454.60336 242.52748 455.69717 243.62128Q455.76346 243.68758 455.89603 243.82016L452.61462 247.10158Q453.38803 247.78658 454.1393 247.80869Q454.87958 247.81973 455.432 247.2673Q455.8408 246.8585 455.91812 246.36131Q455.99548 245.84204 455.69717 245.21227ZM452.05115 246.4497L454.5039 243.99693Q453.89624 243.47765 453.38803 243.43346Q452.59253 243.36717 452.02905 243.93063Q451.50977 244.44992 451.49872 245.14598Q451.49872 245.831 452.05115 246.4497Z" fill-rule="nonzero"/><path fill="#4285f4" d="M109.0 17.55C109.0 16.997715 109.447716 16.55 110.0 16.55L120.0 16.55C120.552284 16.55 121.0 16.997715 121.0 17.55L121.0 27.55C121.0 28.102285 120.552284 28.55 120.0 28.55L110.0 28.55C109.447716 28.55 109.0 28.102285 109.0 27.55Z" fill-rule="nonzero"/><path fill="#1a1a1a" d="M129.9375 26.55L129.9375 17.95625L133.75 17.95625Q134.90625 17.95625 135.5 18.190624Q136.09375 18.425 136.45312 19.01875Q136.8125 19.596874 136.8125 20.3Q136.8125 21.221874 136.21875 21.846874Q135.625 22.471874 134.39062 22.64375Q134.84375 22.8625 135.07812 23.065624Q135.57812 23.51875 136.01562 24.20625L137.51562 26.55L136.07812 26.55L134.95312 24.76875Q134.45312 23.9875 134.125 23.58125Q133.8125 23.175 133.54688 23.01875Q133.29688 22.846874 133.03125 22.76875Q132.84375 22.7375 132.40625 22.7375L131.07812 22.7375L131.07812 26.55L129.9375 26.55ZM131.07812 21.753124L133.53125 21.753124Q134.29688 21.753124 134.73438 21.596874Q135.1875 21.425 135.40625 21.08125Q135.64062 20.721874 135.64062 20.3Q135.64062 19.690624 135.1875 19.3Q134.75 18.909374 133.79688 18.909374L131.07812 18.909374L131.07812 21.753124ZM142.85938 25.784374Q142.26562 26.284374 141.71875 26.4875Q141.1875 26.690624 140.5625 26.690624Q139.53125 26.690624 138.98438 26.190624Q138.4375 25.690624 138.4375 24.909374Q138.4375 24.45625 138.64062 24.08125Q138.84375 23.690624 139.1875 23.471874Q139.53125 23.2375 139.95312 23.128124Q140.25 23.034374 140.89062 22.95625Q142.15625 22.815624 142.76562 22.596874Q142.76562 22.378124 142.76562 22.33125Q142.76562 21.675 142.46875 21.409374Q142.0625 21.065624 141.26562 21.065624Q140.53125 21.065624 140.17188 21.33125Q139.8125 21.58125 139.64062 22.2375L138.60938 22.096874Q138.75 21.440624 139.07812 21.034374Q139.40625 20.628124 140.01562 20.409374Q140.625 20.190624 141.42188 20.190624Q142.21875 20.190624 142.71875 20.378124Q143.21875 20.565624 143.45312 20.846874Q143.6875 21.128124 143.78125 21.565624Q143.82812 21.83125 143.82812 22.534374L143.82812 23.940624Q143.82812 25.409374 143.89062 25.8Q143.96875 26.190624 144.17188 26.55L143.0625 26.55Q142.90625 26.221874 142.85938 25.784374ZM142.76562 23.425Q142.1875 23.659374 141.04688 23.83125Q140.39062 23.925 140.125 24.05Q139.85938 24.159374 139.70312 24.378124Q139.5625 24.596874 139.5625 24.878124Q139.5625 25.3 139.875 25.58125Q140.20312 25.8625 140.8125 25.8625Q141.42188 25.8625 141.89062 25.596874Q142.375 25.33125 142.59375 24.8625Q142.76562 24.503124 142.76562 23.815624L142.76562 23.425ZM145.79688 26.55L145.79688 20.33125L146.73438 20.33125L146.73438 21.20625Q147.42188 20.190624 148.71875 20.190624Q149.28125 20.190624 149.75 20.39375Q150.23438 20.596874 150.46875 20.925Q150.70312 21.253124 150.79688 21.690624Q150.84375 21.9875 150.84375 22.721874L150.84375 26.55L149.79688 26.55L149.79688 22.76875Q149.79688 22.1125 149.67188 21.8Q149.54688 21.4875 149.23438 21.3Q148.92188 21.096874 148.5 21.096874Q147.82812 21.096874 147.32812 21.534374Q146.84375 21.95625 146.84375 23.14375L146.84375 26.55L145.79688 26.55ZM156.82812 26.55L156.82812 25.76875Q156.23438 26.690624 155.09375 26.690624Q154.34375 26.690624 153.71875 26.284374Q153.09375 25.8625 152.75 25.128124Q152.40625 24.39375 152.40625 23.440624Q152.40625 22.51875 152.71875 21.753124Q153.03125 20.9875 153.65625 20.596874Q154.28125 20.190624 155.04688 20.190624Q155.60938 20.190624 156.04688 20.425Q156.48438 20.659374 156.76562 21.034374L156.76562 17.95625L157.8125 17.95625L157.8125 26.55L156.82812 26.55ZM153.5 23.440624Q153.5 24.64375 154.0 25.2375Q154.5 25.815624 155.1875 25.815624Q155.875 25.815624 156.35938 25.253124Q156.84375 24.690624 156.84375 23.534374Q156.84375 22.253124 156.34375 21.659374Q155.85938 21.065624 155.14062 21.065624Q154.4375 21.065624 153.96875 21.64375Q153.5 22.20625 153.5 23.440624ZM159.40625 23.440624Q159.40625 21.70625 160.35938 20.878124Q161.15625 20.190624 162.3125 20.190624Q163.59375 20.190624 164.40625 21.034374Q165.23438 21.8625 165.23438 23.346874Q165.23438 24.55 164.875 25.2375Q164.51562 25.925 163.8125 26.315624Q163.125 26.690624 162.3125 26.690624Q161.01562 26.690624 160.20312 25.8625Q159.40625 25.01875 159.40625 23.440624ZM160.48438 23.440624Q160.48438 24.628124 161.0 25.221874Q161.53125 25.815624 162.3125 25.815624Q163.10938 25.815624 163.625 25.221874Q164.14062 24.628124 164.14062 23.409374Q164.14062 22.253124 163.60938 21.659374Q163.09375 21.065624 162.3125 21.065624Q161.53125 21.065624 161.0 21.659374Q160.48438 22.2375 160.48438 23.440624ZM166.79688 26.55L166.79688 20.33125L167.73438 20.33125L167.73438 21.20625Q168.03125 20.7375 168.51562 20.471874Q169.0 20.190624 169.625 20.190624Q170.3125 20.190624 170.75 20.471874Q171.20312 20.753124 171.375 21.26875Q172.125 20.190624 173.29688 20.190624Q174.23438 20.190624 174.71875 20.70625Q175.21875 21.20625 175.21875 22.284374L175.21875 26.55L174.17188 26.55L174.17188 22.628124Q174.17188 22.003124 174.0625 21.721874Q173.96875 21.440624 173.70312 21.26875Q173.4375 21.096874 173.0625 21.096874Q172.40625 21.096874 171.96875 21.534374Q171.54688 21.971874 171.54688 22.940624L171.54688 26.55L170.48438 26.55L170.48438 22.503124Q170.48438 21.8 170.21875 21.45625Q169.96875 21.096874 169.39062 21.096874Q168.9375 21.096874 168.5625 21.33125Q168.1875 21.565624 168.01562 22.01875Q167.84375 22.471874 167.84375 23.315624L167.84375 26.55L166.79688 26.55Z" fill-rule="nonzero"/><path fill="#ea4335" d="M192.0 17.55C192.0 16.997715 192.44771 16.55 193.0 16.55L203.0 16.55C203.55229 16.55 204.0 16.997715 204.0 17.55L204.0 27.55C204.0 28.102285 203.55229 28.55 203.0 28.55L193.0 28.55C192.44771 28.55 192.0 28.102285 192.0 27.55Z" fill-rule="nonzero"/><path fill="#1a1a1a" d="M212.96875 26.55L212.96875 17.95625L214.09375 17.95625L214.09375 21.4875L218.5625 21.4875L218.5625 17.95625L219.70312 17.95625L219.70312 26.55L218.5625 26.55L218.5625 22.503124L214.09375 22.503124L214.09375 26.55L212.96875 26.55ZM220.98438 26.55L224.28125 17.95625L225.5 17.95625L229.01562 26.55L227.73438 26.55L226.71875 23.940624L223.14062 23.940624L222.1875 26.55L220.98438 26.55ZM223.46875 23.01875L226.375 23.01875L225.48438 20.64375Q225.0625 19.565624 224.875 18.8625Q224.70312 19.690624 224.40625 20.503124L223.46875 23.01875ZM229.875 26.55L229.875 17.95625L231.01562 17.95625L231.01562 25.534374L235.25 25.534374L235.25 26.55L229.875 26.55ZM236.875 26.55L236.875 17.95625L238.01562 17.95625L238.01562 25.534374L242.25 25.534374L242.25 26.55L236.875 26.55ZM243.54688 23.784374L244.60938 23.690624Q244.6875 24.346874 244.96875 24.753124Q245.25 25.159374 245.82812 25.425Q246.42188 25.675 247.15625 25.675Q247.79688 25.675 248.29688 25.4875Q248.79688 25.284374 249.03125 24.95625Q249.28125 24.6125 249.28125 24.221874Q249.28125 23.815624 249.04688 23.51875Q248.8125 23.20625 248.28125 23.003124Q247.92188 22.8625 246.73438 22.58125Q245.5625 22.3 245.09375 22.05Q244.46875 21.721874 244.17188 21.253124Q243.875 20.76875 243.875 20.175Q243.875 19.534374 244.23438 18.971874Q244.60938 18.39375 245.3125 18.1125Q246.03125 17.815624 246.89062 17.815624Q247.84375 17.815624 248.57812 18.128124Q249.3125 18.425 249.70312 19.034374Q250.09375 19.628124 250.125 20.378124L249.03125 20.45625Q248.9375 19.64375 248.42188 19.2375Q247.92188 18.815624 246.9375 18.815624Q245.90625 18.815624 245.4375 19.190624Q244.96875 19.565624 244.96875 20.096874Q244.96875 20.565624 245.29688 20.8625Q245.625 21.159374 247.0 21.471874Q248.39062 21.784374 248.90625 22.01875Q249.65625 22.378124 250.01562 22.909374Q250.375 23.425 250.375 24.128124Q250.375 24.815624 249.98438 25.425Q249.59375 26.01875 248.85938 26.3625Q248.125 26.690624 247.20312 26.690624Q246.03125 26.690624 245.23438 26.3625Q244.45312 26.01875 244.0 25.33125Q243.5625 24.64375 243.54688 23.784374Z" fill-rule="nonzero"/><path fill="#fbbc04" d="M267.0 17.55C267.0 16.997715 267.44772 16.55 268.0 16.55L278.0 16.55C278.55228 16.55 279.0 16.997715 279.0 17.55L279.0 27.55C279.0 28.102285 278.55228 28.55 278.0 28.55L268.0 28.55C267.44772 28.55 267.0 28.102285 267.0 27.55Z" fill-rule="nonzero"/><path fill="#1a1a1a" d="M287.92188 26.55L287.92188 17.95625L291.17188 17.95625Q292.01562 17.95625 292.46875 18.034374Q293.10938 18.14375 293.53125 18.440624Q293.96875 18.7375 294.21875 19.26875Q294.48438 19.8 294.48438 20.440624Q294.48438 21.534374 293.78125 22.3Q293.09375 23.05 291.26562 23.05L289.0625 23.05L289.0625 26.55L287.92188 26.55ZM289.0625 22.05L291.28125 22.05Q292.39062 22.05 292.84375 21.64375Q293.3125 21.221874 293.3125 20.471874Q293.3125 19.940624 293.03125 19.565624Q292.76562 19.175 292.32812 19.05Q292.03125 18.971874 291.26562 18.971874L289.0625 18.971874L289.0625 22.05ZM295.78125 26.55L295.78125 20.33125L296.73438 20.33125L296.73438 21.26875Q297.09375 20.6125 297.39062 20.409374Q297.70312 20.190624 298.07812 20.190624Q298.60938 20.190624 299.15625 20.51875L298.79688 21.503124Q298.40625 21.26875 298.03125 21.26875Q297.67188 21.26875 297.39062 21.4875Q297.125 21.690624 297.01562 22.065624Q296.82812 22.628124 296.82812 23.284374L296.82812 26.55L295.78125 26.55ZM299.40625 23.440624Q299.40625 21.70625 300.35938 20.878124Q301.15625 20.190624 302.3125 20.190624Q303.59375 20.190624 304.40625 21.034374Q305.23438 21.8625 305.23438 23.346874Q305.23438 24.55 304.875 25.2375Q304.51562 25.925 303.8125 26.315624Q303.125 26.690624 302.3125 26.690624Q301.01562 26.690624 300.20312 25.8625Q299.40625 25.01875 299.40625 23.440624ZM300.48438 23.440624Q300.48438 24.628124 301.0 25.221874Q301.53125 25.815624 302.3125 25.815624Q303.10938 25.815624 303.625 25.221874Q304.14062 24.628124 304.14062 23.409374Q304.14062 22.253124 303.60938 21.659374Q303.09375 21.065624 302.3125 21.065624Q301.53125 21.065624 301.0 21.659374Q300.48438 22.2375 300.48438 23.440624ZM306.79688 28.940624L306.79688 20.33125L307.75 20.33125L307.75 21.128124Q308.09375 20.659374 308.51562 20.425Q308.95312 20.190624 309.5625 20.190624Q310.35938 20.190624 310.96875 20.596874Q311.57812 21.003124 311.875 21.753124Q312.1875 22.503124 312.1875 23.39375Q312.1875 24.346874 311.84375 25.1125Q311.51562 25.878124 310.85938 26.284374Q310.20312 26.690624 309.48438 26.690624Q308.95312 26.690624 308.53125 26.471874Q308.10938 26.2375 307.84375 25.909374L307.84375 28.940624L306.79688 28.940624ZM307.75 23.471874Q307.75 24.675 308.23438 25.253124Q308.71875 25.815624 309.40625 25.815624Q310.10938 25.815624 310.60938 25.221874Q311.10938 24.628124 311.10938 23.378124Q311.10938 22.190624 310.625 21.6125Q310.14062 21.01875 309.45312 21.01875Q308.78125 21.01875 308.26562 21.64375Q307.75 22.26875 307.75 23.471874ZM313.40625 23.440624Q313.40625 21.70625 314.35938 20.878124Q315.15625 20.190624 316.3125 20.190624Q317.59375 20.190624 318.40625 21.034374Q319.23438 21.8625 319.23438 23.346874Q319.23438 24.55 318.875 25.2375Q318.51562 25.925 317.8125 26.315624Q317.125 26.690624 316.3125 26.690624Q315.01562 26.690624 314.20312 25.8625Q313.40625 25.01875 313.40625 23.440624ZM314.48438 23.440624Q314.48438 24.628124 315.0 25.221874Q315.53125 25.815624 316.3125 25.815624Q317.10938 25.815624 317.625 25.221874Q318.14062 24.628124 318.14062 23.409374Q318.14062 22.253124 317.60938 21.659374Q317.09375 21.065624 316.3125 21.065624Q315.53125 21.065624 315.0 21.659374Q314.48438 22.2375 314.48438 23.440624ZM320.375 24.690624L321.40625 24.534374Q321.5 25.159374 321.89062 25.4875Q322.29688 25.815624 323.03125 25.815624Q323.75 25.815624 324.09375 25.534374Q324.45312 25.2375 324.45312 24.83125Q324.45312 24.471874 324.14062 24.26875Q323.92188 24.128124 323.0625 23.909374Q321.90625 23.6125 321.45312 23.409374Q321.01562 23.190624 320.78125 22.815624Q320.54688 22.440624 320.54688 21.971874Q320.54688 21.565624 320.73438 21.20625Q320.92188 20.846874 321.25 20.6125Q321.5 20.440624 321.92188 20.315624Q322.34375 20.190624 322.84375 20.190624Q323.5625 20.190624 324.10938 20.409374Q324.67188 20.6125 324.9375 20.971874Q325.20312 21.33125 325.29688 21.925L324.26562 22.065624Q324.20312 21.596874 323.85938 21.33125Q323.53125 21.05 322.90625 21.05Q322.1875 21.05 321.875 21.3Q321.5625 21.534374 321.5625 21.8625Q321.5625 22.065624 321.6875 22.221874Q321.82812 22.39375 322.09375 22.503124Q322.25 22.565624 323.03125 22.76875Q324.15625 23.08125 324.59375 23.26875Q325.03125 23.45625 325.28125 23.815624Q325.53125 24.175 325.53125 24.721874Q325.53125 25.253124 325.21875 25.721874Q324.92188 26.175 324.34375 26.440624Q323.76562 26.690624 323.03125 26.690624Q321.8125 26.690624 321.17188 26.190624Q320.54688 25.675 320.375 24.690624ZM331.04688 24.55L332.14062 24.675Q331.89062 25.628124 331.1875 26.159374Q330.48438 26.690624 329.40625 26.690624Q328.04688 26.690624 327.23438 25.846874Q326.4375 25.003124 326.4375 23.4875Q326.4375 21.925 327.25 21.065624Q328.0625 20.190624 329.34375 20.190624Q330.59375 20.190624 331.375 21.034374Q332.17188 21.878124 332.17188 23.425Q332.17188 23.51875 332.17188 23.70625L327.53125 23.70625Q327.59375 24.7375 328.10938 25.284374Q328.625 25.815624 329.40625 25.815624Q329.98438 25.815624 330.39062 25.51875Q330.8125 25.20625 331.04688 24.55ZM327.59375 22.846874L331.0625 22.846874Q331.0 22.05 330.67188 21.659374Q330.15625 21.05 329.35938 21.05Q328.625 21.05 328.125 21.534374Q327.64062 22.01875 327.59375 22.846874ZM337.82812 26.55L337.82812 25.76875Q337.23438 26.690624 336.09375 26.690624Q335.34375 26.690624 334.71875 26.284374Q334.09375 25.8625 333.75 25.128124Q333.40625 24.39375 333.40625 23.440624Q333.40625 22.51875 333.71875 21.753124Q334.03125 20.9875 334.65625 20.596874Q335.28125 20.190624 336.04688 20.190624Q336.60938 20.190624 337.04688 20.425Q337.48438 20.659374 337.76562 21.034374L337.76562 17.95625L338.8125 17.95625L338.8125 26.55L337.82812 26.55ZM334.5 23.440624Q334.5 24.64375 335.0 25.2375Q335.5 25.815624 336.1875 25.815624Q336.875 25.815624 337.35938 25.253124Q337.84375 24.690624 337.84375 23.534374Q337.84375 22.253124 337.34375 21.659374Q336.85938 21.065624 336.14062 21.065624Q335.4375 21.065624 334.96875 21.64375Q334.5 22.20625 334.5 23.440624ZM345.8125 29.08125Q344.9375 27.971874 344.32812 26.503124Q343.73438 25.01875 343.73438 23.440624Q343.73438 22.05 344.17188 20.76875Q344.70312 19.284374 345.8125 17.815624L346.5625 17.815624Q345.85938 19.034374 345.625 19.55Q345.26562 20.3625 345.0625 21.2375Q344.8125 22.33125 344.8125 23.440624Q344.8125 26.26875 346.5625 29.08125L345.8125 29.08125ZM347.92188 26.55L347.92188 17.95625L350.89062 17.95625Q351.89062 17.95625 352.42188 18.08125Q353.15625 18.253124 353.67188 18.690624Q354.35938 19.26875 354.6875 20.175Q355.03125 21.065624 355.03125 22.20625Q355.03125 23.190624 354.79688 23.940624Q354.57812 24.690624 354.21875 25.190624Q353.85938 25.690624 353.42188 25.971874Q353.0 26.253124 352.40625 26.409374Q351.8125 26.55 351.03125 26.55L347.92188 26.55ZM349.0625 25.534374L350.89062 25.534374Q351.75 25.534374 352.23438 25.378124Q352.71875 25.221874 353.0 24.925Q353.40625 24.534374 353.625 23.846874Q353.85938 23.159374 353.85938 22.190624Q353.85938 20.846874 353.40625 20.128124Q352.96875 19.39375 352.34375 19.14375Q351.875 18.971874 350.875 18.971874L349.0625 18.971874L349.0625 25.534374ZM355.98438 26.55L359.28125 17.95625L360.5 17.95625L364.01562 26.55L362.73438 26.55L361.71875 23.940624L358.14062 23.940624L357.1875 26.55L355.98438 26.55ZM358.46875 23.01875L361.375 23.01875L360.48438 20.64375Q360.0625 19.565624 359.875 18.8625Q359.70312 19.690624 359.40625 20.503124L358.46875 23.01875ZM364.89062 26.55L364.89062 17.95625L366.60938 17.95625L368.64062 24.034374Q368.92188 24.89375 369.04688 25.315624Q369.1875 24.846874 369.5 23.940624L371.5625 17.95625L373.09375 17.95625L373.09375 26.55L372.0 26.55L372.0 19.3625L369.5 26.55L368.46875 26.55L365.98438 19.2375L365.98438 26.55L364.89062 26.55ZM380.5625 17.95625L381.70312 17.95625L381.70312 22.925Q381.70312 24.221874 381.40625 24.9875Q381.10938 25.7375 380.34375 26.221874Q379.57812 26.690624 378.34375 26.690624Q377.14062 26.690624 376.35938 26.284374Q375.59375 25.8625 375.26562 25.08125Q374.9375 24.284374 374.9375 22.925L374.9375 17.95625L376.07812 17.95625L376.07812 22.909374Q376.07812 24.034374 376.28125 24.565624Q376.5 25.096874 377.0 25.39375Q377.51562 25.675 378.25 25.675Q379.5 25.675 380.03125 25.1125Q380.5625 24.534374 380.5625 22.909374L380.5625 17.95625ZM383.54688 23.784374L384.60938 23.690624Q384.6875 24.346874 384.96875 24.753124Q385.25 25.159374 385.82812 25.425Q386.42188 25.675 387.15625 25.675Q387.79688 25.675 388.29688 25.4875Q388.79688 25.284374 389.03125 24.95625Q389.28125 24.6125 389.28125 24.221874Q389.28125 23.815624 389.04688 23.51875Q388.8125 23.20625 388.28125 23.003124Q387.92188 22.8625 386.73438 22.58125Q385.5625 22.3 385.09375 22.05Q384.46875 21.721874 384.17188 21.253124Q383.875 20.76875 383.875 20.175Q383.875 19.534374 384.23438 18.971874Q384.60938 18.39375 385.3125 18.1125Q386.03125 17.815624 386.89062 17.815624Q387.84375 17.815624 388.57812 18.128124Q389.3125 18.425 389.70312 19.034374Q390.09375 19.628124 390.125 20.378124L389.03125 20.45625Q388.9375 19.64375 388.42188 19.2375Q387.92188 18.815624 386.9375 18.815624Q385.90625 18.815624 385.4375 19.190624Q384.96875 19.565624 384.96875 20.096874Q384.96875 20.565624 385.29688 20.8625Q385.625 21.159374 387.0 21.471874Q388.39062 21.784374 388.90625 22.01875Q389.65625 22.378124 390.01562 22.909374Q390.375 23.425 390.375 24.128124Q390.375 24.815624 389.98438 25.425Q389.59375 26.01875 388.85938 26.3625Q388.125 26.690624 387.20312 26.690624Q386.03125 26.690624 385.23438 26.3625Q384.45312 26.01875 384.0 25.33125Q383.5625 24.64375 383.54688 23.784374ZM392.48438 29.08125L391.73438 29.08125Q393.48438 26.26875 393.48438 23.440624Q393.48438 22.346874 393.23438 21.253124Q393.03125 20.378124 392.67188 19.565624Q392.4375 19.05 391.73438 17.815624L392.48438 17.815624Q393.57812 19.284374 394.10938 20.76875Q394.5625 22.05 394.5625 23.440624Q394.5625 25.01875 393.95312 26.503124Q393.34375 27.971874 392.48438 29.08125Z" fill-rule="nonzero"/></svg>