<svg version="1.1" viewBox="0.0 0.0 512.0 317.0" fill="none" stroke="none" stroke-linecap="square" stroke-miterlimit="10" width="512" height="317" xmlns:xlink="http://www.w3.org/1999/xlink" xmlns="http://www.w3.org/2000/svg"><path fill="#ffffff" d="M0 0L512.0 0L512.0 317.0L0 317.0L0 0Z" fill-rule="nonzero"/><path stroke="#333333" stroke-width="1.0" stroke-linecap="butt" d="M74.5 237.5L496.5 237.5" fill-rule="nonzero"/><path stroke="#cccccc" stroke-width="1.0" stroke-linecap="butt" d="M74.5 199.5L496.5 199.5" fill-rule="nonzero"/><path stroke="#cccccc" stroke-width="1.0" stroke-linecap="butt" d="M74.5 161.5L496.5 161.5" fill-rule="nonzero"/><path stroke="#cccccc" stroke-width="1.0" stroke-linecap="butt" d="M74.5 123.5L496.5 123.5" fill-rule="nonzero"/><path stroke="#cccccc" stroke-width="1.0" stroke-linecap="butt" d="M74.5 85.5L496.5 85.5" fill-rule="nonzero"/><path stroke="#cccccc" stroke-width="1.0" stroke-linecap="butt" d="M74.5 47.5L496.5 47.5" fill-rule="nonzero"/><clipPath id="id_0"><path d="M74.85 47.416668L496.15 47.416668L496.15 237.16724L74.85 237.16724L74.85 47.416668Z" clip-rule="nonzero"/></clipPath><path stroke="#000000" stroke-width="0.0" stroke-linecap="butt" stroke-opacity="0.0" clip-path="url(#id_0)" d="M107.0 237.0L96.0 237.0L96.0 163.0C96.0 161.89543 96.89543 161.0 98.0 161.0L105.0 161.0C106.10457 161.0 107.0 161.89543 107.0 163.0Z" fill-rule="nonzero"/><path fill="#4285f4" clip-path="url(#id_0)" d="M107.0 237.0L96.0 237.0L96.0 163.0C96.0 161.89543 96.89543 161.0 98.0 161.0L105.0 161.0C106.10457 161.0 107.0 161.89543 107.0 163.0Z" fill-rule="nonzero"/><path stroke="#000000" stroke-width="0.0" stroke-linecap="butt" stroke-opacity="0.0" clip-path="url(#id_0)" d="M164.0 237.0L153.0 237.0L153.0 163.0C153.0 161.89543 153.89543 161.0 155.0 161.0L162.0 161.0C163.10457 161.0 164.0 161.89543 164.0 163.0Z" fill-rule="nonzero"/><path fill="#4285f4" clip-path="url(#id_0)" d="M164.0 237.0L153.0 237.0L153.0 163.0C153.0 161.89543 153.89543 161.0 155.0 161.0L162.0 161.0C163.10457 161.0 164.0 161.89543 164.0 163.0Z" fill-rule="nonzero"/><path stroke="#000000" stroke-width="0.0" stroke-linecap="butt" stroke-opacity="0.0" clip-path="url(#id_0)" d="M221.0 237.0L210.0 237.0L210.0 163.0C210.0 161.89543 210.89543 161.0 212.0 161.0L219.0 161.0C220.10457 161.0 221.0 161.89543 221.0 163.0Z" fill-rule="nonzero"/><path fill="#4285f4" clip-path="url(#id_0)" d="M221.0 237.0L210.0 237.0L210.0 163.0C210.0 161.89543 210.89543 161.0 212.0 161.0L219.0 161.0C220.10457 161.0 221.0 161.89543 221.0 163.0Z" fill-rule="nonzero"/><path stroke="#000000" stroke-width="0.0" stroke-linecap="butt" stroke-opacity="0.0" clip-path="url(#id_0)" d="M279.0 237.0L268.0 237.0L268.0 163.0C268.0 161.89543 268.89542 161.0 270.0 161.0L277.0 161.0C278.10458 161.0 279.0 161.89543 279.0 163.0Z" fill-rule="nonzero"/><path fill="#4285f4" clip-path="url(#id_0)" d="M279.0 237.0L268.0 237.0L268.0 163.0C268.0 161.89543 268.89542 161.0 270.0 161.0L277.0 161.0C278.10458 161.0 279.0 161.89543 279.0 163.0Z" fill-rule="nonzero"/><path stroke="#000000" stroke-width="0.0" stroke-linecap="butt" stroke-opacity="0.0" clip-path="url(#id_0)" d="M336.0 237.0L325.0 237.0L325.0 163.0C325.0 161.89543 325.89542 161.0 327.0 161.0L334.0 161.0C335.10458 161.0 336.0 161.89543 336.0 163.0Z" fill-rule="nonzero"/><path fill="#4285f4" clip-path="url(#id_0)" d="M336.0 237.0L325.0 237.0L325.0 163.0C325.0 161.89543 325.89542 161.0 327.0 161.0L334.0 161.0C335.10458 161.0 336.0 161.89543 336.0 163.0Z" fill-rule="nonzero"/><path stroke="#000000" stroke-width="0.0" stroke-linecap="butt" stroke-opacity="0.0" clip-path="url(#id_0)" d="M393.0 237.0L382.0 237.0L382.0 163.0C382.0 161.89543 382.89542 161.0 384.0 161.0L391.0 161.0C392.10458 161.0 393.0 161.89543 393.0 163.0Z" fill-rule="nonzero"/><path fill="#4285f4" clip-path="url(#id_0)" d="M393.0 237.0L382.0 237.0L382.0 163.0C382.0 161.89543 382.89542 161.0 384.0 161.0L391.0 161.0C392.10458 161.0 393.0 161.89543 393.0 163.0Z" fill-rule="nonzero"/><path stroke="#000000" stroke-width="0.0" stroke-linecap="butt" stroke-opacity="0.0" clip-path="url(#id_0)" d="M450.0 237.0L439.0 237.0L439.0 163.0C439.0 161.89543 439.89542 161.0 441.0 161.0L448.0 161.0C449.10458 161.0 450.0 161.89543 450.0 163.0Z" fill-rule="nonzero"/><path fill="#4285f4" clip-path="url(#id_0)" d="M450.0 237.0L439.0 237.0L439.0 163.0C439.0 161.89543 439.89542 161.0 441.0 161.0L448.0 161.0C449.10458 161.0 450.0 161.89543 450.0 163.0Z" fill-rule="nonzero"/><path stroke="#000000" stroke-width="0.0" stroke-linecap="butt" stroke-opacity="0.0" clip-path="url(#id_0)" d="M119.0 237.0L108.0 237.0L108.0 160.0C108.0 158.89543 108.89543 158.0 110.0 158.0L117.0 158.0C118.10457 158.0 119.0 158.89543 119.0 160.0Z" fill-rule="nonzero"/><path fill="#ea4335" clip-path="url(#id_0)" d="M119.0 237.0L108.0 237.0L108.0 160.0C108.0 158.89543 108.89543 158.0 110.0 158.0L117.0 158.0C118.10457 158.0 119.0 158.89543 119.0 160.0Z" fill-rule="nonzero"/><path stroke="#000000" stroke-width="0.0" stroke-linecap="butt" stroke-opacity="0.0" clip-path="url(#id_0)" d="M176.0 237.0L165.0 237.0L165.0 174.0C165.0 172.89543 165.89543 172.0 167.0 172.0L174.0 172.0C175.10457 172.0 176.0 172.89543 176.0 174.0Z" fill-rule="nonzero"/><path fill="#ea4335" clip-path="url(#id_0)" d="M176.0 237.0L165.0 237.0L165.0 174.0C165.0 172.89543 165.89543 172.0 167.0 172.0L174.0 172.0C175.10457 172.0 176.0 172.89543 176.0 174.0Z" fill-rule="nonzero"/><path stroke="#000000" stroke-width="0.0" stroke-linecap="butt" stroke-opacity="0.0" clip-path="url(#id_0)" d="M233.0 237.0L222.0 237.0L222.0 166.0C222.0 164.89543 222.89543 164.0 224.0 164.0L231.0 164.0C232.10457 164.0 233.0 164.89543 233.0 166.0Z" fill-rule="nonzero"/><path fill="#ea4335" clip-path="url(#id_0)" d="M233.0 237.0L222.0 237.0L222.0 166.0C222.0 164.89543 222.89543 164.0 224.0 164.0L231.0 164.0C232.10457 164.0 233.0 164.89543 233.0 166.0Z" fill-rule="nonzero"/><path stroke="#000000" stroke-width="0.0" stroke-linecap="butt" stroke-opacity="0.0" clip-path="url(#id_0)" d="M291.0 237.0L280.0 237.0L280.0 107.0C280.0 105.89543 280.89542 105.0 282.0 105.0L289.0 105.0C290.10458 105.0 291.0 105.89543 291.0 107.0Z" fill-rule="nonzero"/><path fill="#ea4335" clip-path="url(#id_0)" d="M291.0 237.0L280.0 237.0L280.0 107.0C280.0 105.89543 280.89542 105.0 282.0 105.0L289.0 105.0C290.10458 105.0 291.0 105.89543 291.0 107.0Z" fill-rule="nonzero"/><path stroke="#000000" stroke-width="0.0" stroke-linecap="butt" stroke-opacity="0.0" clip-path="url(#id_0)" d="M348.0 237.0L337.0 237.0L337.0 158.0C337.0 156.89543 337.89542 156.0 339.0 156.0L346.0 156.0C347.10458 156.0 348.0 156.89543 348.0 158.0Z" fill-rule="nonzero"/><path fill="#ea4335" clip-path="url(#id_0)" d="M348.0 237.0L337.0 237.0L337.0 158.0C337.0 156.89543 337.89542 156.0 339.0 156.0L346.0 156.0C347.10458 156.0 348.0 156.89543 348.0 158.0Z" fill-rule="nonzero"/><path stroke="#000000" stroke-width="0.0" stroke-linecap="butt" stroke-opacity="0.0" clip-path="url(#id_0)" d="M405.0 237.0L394.0 237.0L394.0 141.0C394.0 139.89543 394.89542 139.0 396.0 139.0L403.0 139.0C404.10458 139.0 405.0 139.89543 405.0 141.0Z" fill-rule="nonzero"/><path fill="#ea4335" clip-path="url(#id_0)" d="M405.0 237.0L394.0 237.0L394.0 141.0C394.0 139.89543 394.89542 139.0 396.0 139.0L403.0 139.0C404.10458 139.0 405.0 139.89543 405.0 141.0Z" fill-rule="nonzero"/><path stroke="#000000" stroke-width="0.0" stroke-linecap="butt" stroke-opacity="0.0" clip-path="url(#id_0)" d="M462.0 237.0L451.0 237.0L451.0 151.0C451.0 149.89543 451.89542 149.0 453.0 149.0L460.0 149.0C461.10458 149.0 462.0 149.89543 462.0 151.0Z" fill-rule="nonzero"/><path fill="#ea4335" clip-path="url(#id_0)" d="M462.0 237.0L451.0 237.0L451.0 151.0C451.0 149.89543 451.89542 149.0 453.0 149.0L460.0 149.0C461.10458 149.0 462.0 149.89543 462.0 151.0Z" fill-rule="nonzero"/><path stroke="#000000" stroke-width="0.0" stroke-linecap="butt" stroke-opacity="0.0" clip-path="url(#id_0)" d="M131.0 237.0L120.0 237.0L120.0 100.0C120.0 98.89543 120.89543 98.0 122.0 98.0L129.0 98.0C130.10457 98.0 131.0 98.89543 131.0 100.0Z" fill-rule="nonzero"/><path fill="#fbbc04" clip-path="url(#id_0)" d="M131.0 237.0L120.0 237.0L120.0 100.0C120.0 98.89543 120.89543 98.0 122.0 98.0L129.0 98.0C130.10457 98.0 131.0 98.89543 131.0 100.0Z" fill-rule="nonzero"/><path stroke="#000000" stroke-width="0.0" stroke-linecap="butt" stroke-opacity="0.0" clip-path="url(#id_0)" d="M188.0 237.0L177.0 237.0L177.0 161.0C177.0 159.89543 177.89543 159.0 179.0 159.0L186.0 159.0C187.10457 159.0 188.0 159.89543 188.0 161.0Z" fill-rule="nonzero"/><path fill="#fbbc04" clip-path="url(#id_0)" d="M188.0 237.0L177.0 237.0L177.0 161.0C177.0 159.89543 177.89543 159.0 179.0 159.0L186.0 159.0C187.10457 159.0 188.0 159.89543 188.0 161.0Z" fill-rule="nonzero"/><path stroke="#000000" stroke-width="0.0" stroke-linecap="butt" stroke-opacity="0.0" clip-path="url(#id_0)" d="M245.0 237.0L234.0 237.0L234.0 58.0C234.0 56.89543 234.89543 56.0 236.0 56.0L243.0 56.0C244.10457 56.0 245.0 56.89543 245.0 58.0Z" fill-rule="nonzero"/><path fill="#fbbc04" clip-path="url(#id_0)" d="M245.0 237.0L234.0 237.0L234.0 58.0C234.0 56.89543 234.89543 56.0 236.0 56.0L243.0 56.0C244.10457 56.0 245.0 56.89543 245.0 58.0Z" fill-rule="nonzero"/><path stroke="#000000" stroke-width="0.0" stroke-linecap="butt" stroke-opacity="0.0" clip-path="url(#id_0)" d="M303.0 237.0L292.0 237.0L292.0 83.0C292.0 81.89543 292.89542 81.0 294.0 81.0L301.0 81.0C302.10458 81.0 303.0 81.89543 303.0 83.0Z" fill-rule="nonzero"/><path fill="#fbbc04" clip-path="url(#id_0)" d="M303.0 237.0L292.0 237.0L292.0 83.0C292.0 81.89543 292.89542 81.0 294.0 81.0L301.0 81.0C302.10458 81.0 303.0 81.89543 303.0 83.0Z" fill-rule="nonzero"/><path stroke="#000000" stroke-width="0.0" stroke-linecap="butt" stroke-opacity="0.0" clip-path="url(#id_0)" d="M360.0 237.0L349.0 237.0L349.0 92.0C349.0 90.89543 349.89542 90.0 351.0 90.0L358.0 90.0C359.10458 90.0 360.0 90.89543 360.0 92.0Z" fill-rule="nonzero"/><path fill="#fbbc04" clip-path="url(#id_0)" d="M360.0 237.0L349.0 237.0L349.0 92.0C349.0 90.89543 349.89542 90.0 351.0 90.0L358.0 90.0C359.10458 90.0 360.0 90.89543 360.0 92.0Z" fill-rule="nonzero"/><path stroke="#000000" stroke-width="0.0" stroke-linecap="butt" stroke-opacity="0.0" clip-path="url(#id_0)" d="M417.0 237.0L406.0 237.0L406.0 155.0C406.0 153.89543 406.89542 153.0 408.0 153.0L415.0 153.0C416.10458 153.0 417.0 153.89543 417.0 155.0Z" fill-rule="nonzero"/><path fill="#fbbc04" clip-path="url(#id_0)" d="M417.0 237.0L406.0 237.0L406.0 155.0C406.0 153.89543 406.89542 153.0 408.0 153.0L415.0 153.0C416.10458 153.0 417.0 153.89543 417.0 155.0Z" fill-rule="nonzero"/><path stroke="#000000" stroke-width="0.0" stroke-linecap="butt" stroke-opacity="0.0" clip-path="url(#id_0)" d="M474.0 237.0L463.0 237.0L463.0 108.0C463.0 106.89543 463.89542 106.0 465.0 106.0L472.0 106.0C473.10458 106.0 474.0 106.89543 474.0 108.0Z" fill-rule="nonzero"/><path fill="#fbbc04" clip-path="url(#id_0)" d="M474.0 237.0L463.0 237.0L463.0 108.0C463.0 106.89543 463.89542 106.0 465.0 106.0L472.0 106.0C473.10458 106.0 474.0 106.89543 474.0 108.0Z" fill-rule="nonzero"/><path fill="#000000" d="M26.849995 224.36145L18.256245 224.36145L18.256245 223.2052L25.006245 218.68958L18.256245 218.68958L18.256245 217.59583L26.849995 217.59583L26.849995 218.7677L20.099995 223.28333L26.849995 223.28333L26.849995 224.36145ZM23.74062 215.87708Q22.006245 215.87708 21.17812 214.92395Q20.49062 214.12708 20.49062 212.97083Q20.49062 211.68958 21.33437 210.87708Q22.162495 210.04895 23.64687 210.04895Q24.849995 210.04895 25.537495 210.40833Q26.224995 210.7677 26.61562 211.47083Q26.99062 212.15833 26.99062 212.97083Q26.99062 214.2677 26.162495 215.0802Q25.318745 215.87708 23.74062 215.87708ZM23.74062 214.79895Q24.92812 214.79895 25.52187 214.28333Q26.11562 213.75208 26.11562 212.97083Q26.11562 212.17395 25.52187 211.65833Q24.92812 211.1427 23.70937 211.1427Q22.55312 211.1427 21.95937 211.67395Q21.36562 212.18958 21.36562 212.97083Q21.36562 213.75208 21.95937 214.28333Q22.537495 214.79895 23.74062 214.79895ZM26.849995 208.50208L20.631245 208.50208L20.631245 207.54895L21.568745 207.54895Q20.912495 207.18958 20.70937 206.8927Q20.49062 206.5802 20.49062 206.2052Q20.49062 205.67395 20.818745 205.12708L21.80312 205.48645Q21.568745 205.87708 21.568745 206.25208Q21.568745 206.61145 21.787495 206.8927Q21.99062 207.15833 22.36562 207.2677Q22.92812 207.4552 23.58437 207.4552L26.849995 207.4552L26.849995 208.50208ZM26.849995 204.48645L20.631245 204.48645L20.631245 203.54895L21.506245 203.54895Q21.037495 203.25208 20.77187 202.7677Q20.49062 202.28333 20.49062 201.65833Q20.49062 200.97083 20.77187 200.53333Q21.05312 200.0802 21.568745 199.90833Q20.49062 199.15833 20.49062 197.98645Q20.49062 197.04895 21.006245 196.56458Q21.506245 196.06458 22.58437 196.06458L26.849995 196.06458L26.849995 197.11145L22.92812 197.11145Q22.30312 197.11145 22.02187 197.22083Q21.74062 197.31458 21.568745 197.5802Q21.39687 197.84583 21.39687 198.22083Q21.39687 198.87708 21.83437 199.31458Q22.27187 199.73645 23.24062 199.73645L26.849995 199.73645L26.849995 200.79895L22.80312 200.79895Q22.099995 200.79895 21.756245 201.06458Q21.39687 201.31458 21.39687 201.8927Q21.39687 202.34583 21.631245 202.72083Q21.86562 203.09583 22.318745 203.2677Q22.77187 203.43958 23.61562 203.43958L26.849995 203.43958L26.849995 204.48645ZM26.08437 190.42395Q26.58437 191.0177 26.787495 191.56458Q26.99062 192.09583 26.99062 192.72083Q26.99062 193.75208 26.49062 194.29895Q25.99062 194.84583 25.20937 194.84583Q24.756245 194.84583 24.381245 194.6427Q23.99062 194.43958 23.77187 194.09583Q23.537495 193.75208 23.42812 193.3302Q23.33437 193.03333 23.256245 192.3927Q23.11562 191.12708 22.89687 190.5177Q22.67812 190.5177 22.631245 190.5177Q21.974995 190.5177 21.70937 190.81458Q21.36562 191.22083 21.36562 192.0177Q21.36562 192.75208 21.631245 193.11145Q21.881245 193.47083 22.537495 193.6427L22.39687 194.67395Q21.74062 194.53333 21.33437 194.2052Q20.92812 193.87708 20.70937 193.2677Q20.49062 192.65833 20.49062 191.86145Q20.49062 191.06458 20.67812 190.56458Q20.86562 190.06458 21.14687 189.8302Q21.42812 189.59583 21.86562 189.50208Q22.131245 189.4552 22.83437 189.4552L24.24062 189.4552Q25.70937 189.4552 26.099995 189.3927Q26.49062 189.31458 26.849995 189.11145L26.849995 190.22083Q26.52187 190.37708 26.08437 190.42395ZM23.724995 190.5177Q23.95937 191.09583 24.131245 192.23645Q24.224995 192.8927 24.349995 193.15833Q24.45937 193.42395 24.67812 193.5802Q24.89687 193.72083 25.17812 193.72083Q25.599995 193.72083 25.881245 193.40833Q26.162495 193.0802 26.162495 192.47083Q26.162495 191.86145 25.89687 191.3927Q25.631245 190.90833 25.162495 190.68958Q24.80312 190.5177 24.11562 190.5177L23.724995 190.5177ZM26.849995 187.5177L18.256245 187.5177L18.256245 186.4552L26.849995 186.4552L26.849995 187.5177ZM19.474995 184.48645L18.256245 184.48645L18.256245 183.42395L19.474995 183.42395L19.474995 184.48645ZM26.849995 184.48645L20.631245 184.48645L20.631245 183.42395L26.849995 183.42395L26.849995 184.48645ZM24.99062 181.90833L24.83437 180.87708Q25.45937 180.78333 25.787495 180.3927Q26.11562 179.98645 26.11562 179.25208Q26.11562 178.53333 25.83437 178.18958Q25.537495 177.8302 25.131245 177.8302Q24.77187 177.8302 24.568745 178.1427Q24.42812 178.36145 24.20937 179.22083Q23.912495 180.37708 23.70937 180.8302Q23.49062 181.2677 23.11562 181.50208Q22.74062 181.73645 22.27187 181.73645Q21.86562 181.73645 21.506245 181.54895Q21.14687 181.36145 20.912495 181.03333Q20.74062 180.78333 20.61562 180.36145Q20.49062 179.93958 20.49062 179.43958Q20.49062 178.72083 20.70937 178.17395Q20.912495 177.61145 21.27187 177.34583Q21.631245 177.0802 22.224995 176.98645L22.36562 178.0177Q21.89687 178.0802 21.631245 178.42395Q21.349995 178.75208 21.349995 179.37708Q21.349995 180.09583 21.599995 180.40833Q21.83437 180.72083 22.162495 180.72083Q22.36562 180.72083 22.52187 180.59583Q22.693745 180.4552 22.80312 180.18958Q22.86562 180.03333 23.068745 179.25208Q23.381245 178.12708 23.568745 177.68958Q23.756245 177.25208 24.11562 177.00208Q24.474995 176.75208 25.02187 176.75208Q25.55312 176.75208 26.02187 177.06458Q26.474995 177.36145 26.74062 177.93958Q26.99062 178.5177 26.99062 179.25208Q26.99062 180.47083 26.49062 181.11145Q25.974995 181.73645 24.99062 181.90833ZM24.849995 171.23645L24.974995 170.1427Q25.92812 170.3927 26.45937 171.09583Q26.99062 171.79895 26.99062 172.87708Q26.99062 174.23645 26.14687 175.04895Q25.30312 175.84583 23.787495 175.84583Q22.224995 175.84583 21.36562 175.03333Q20.49062 174.22083 20.49062 172.93958Q20.49062 171.68958 21.33437 170.90833Q22.17812 170.11145 23.724995 170.11145Q23.818745 170.11145 24.006245 170.11145L24.006245 174.75208Q25.037495 174.68958 25.58437 174.17395Q26.11562 173.65833 26.11562 172.87708Q26.11562 172.29895 25.818745 171.8927Q25.506245 171.47083 24.849995 171.23645ZM23.14687 174.68958L23.14687 171.22083Q22.349995 171.28333 21.95937 171.61145Q21.349995 172.12708 21.349995 172.92395Q21.349995 173.65833 21.83437 174.15833Q22.318745 174.6427 23.14687 174.68958ZM26.849995 164.4552L26.068745 164.4552Q26.99062 165.04895 26.99062 166.18958Q26.99062 166.93958 26.58437 167.56458Q26.162495 168.18958 25.42812 168.53333Q24.693745 168.87708 23.74062 168.87708Q22.818745 168.87708 22.05312 168.56458Q21.287495 168.25208 20.89687 167.62708Q20.49062 167.00208 20.49062 166.23645Q20.49062 165.67395 20.724995 165.23645Q20.95937 164.79895 21.33437 164.5177L18.256245 164.5177L18.256245 163.47083L26.849995 163.47083L26.849995 164.4552ZM23.74062 167.78333Q24.943745 167.78333 25.537495 167.28333Q26.11562 166.78333 26.11562 166.09583Q26.11562 165.40833 25.55312 164.92395Q24.99062 164.43958 23.83437 164.43958Q22.55312 164.43958 21.95937 164.93958Q21.36562 165.42395 21.36562 166.1427Q21.36562 166.84583 21.943745 167.31458Q22.506245 167.78333 23.74062 167.78333ZM26.849995 158.40833L18.256245 158.40833L18.256245 157.2677L25.83437 157.2677L25.83437 153.03333L26.849995 153.03333L26.849995 158.40833ZM19.474995 151.48645L18.256245 151.48645L18.256245 150.42395L19.474995 150.42395L19.474995 151.48645ZM26.849995 151.48645L20.631245 151.48645L20.631245 150.42395L26.849995 150.42395L26.849995 151.48645ZM26.849995 148.23645L21.443745 148.23645L21.443745 149.17395L20.631245 149.17395L20.631245 148.23645L19.95937 148.23645Q19.33437 148.23645 19.037495 148.12708Q18.61562 147.97083 18.36562 147.59583Q18.11562 147.2052 18.11562 146.5177Q18.11562 146.06458 18.224995 145.53333L19.131245 145.68958Q19.08437 146.0177 19.08437 146.31458Q19.08437 146.79895 19.287495 147.00208Q19.49062 147.18958 20.05312 147.18958L20.631245 147.18958L20.631245 145.97083L21.443745 145.97083L21.443745 147.18958L26.849995 147.18958L26.849995 148.23645ZM24.849995 141.23645L24.974995 140.1427Q25.92812 140.3927 26.45937 141.09583Q26.99062 141.79895 26.99062 142.87708Q26.99062 144.23645 26.14687 145.04895Q25.30312 145.84583 23.787495 145.84583Q22.224995 145.84583 21.36562 145.03333Q20.49062 144.22083 20.49062 142.93958Q20.49062 141.68958 21.33437 140.90833Q22.17812 140.11145 23.724995 140.11145Q23.818745 140.11145 24.006245 140.11145L24.006245 144.75208Q25.037495 144.68958 25.58437 144.17395Q26.11562 143.65833 26.11562 142.87708Q26.11562 142.29895 25.818745 141.8927Q25.506245 141.47083 24.849995 141.23645ZM23.14687 144.68958L23.14687 141.22083Q22.349995 141.28333 21.95937 141.61145Q21.349995 142.12708 21.349995 142.92395Q21.349995 143.65833 21.83437 144.15833Q22.318745 144.6427 23.14687 144.68958ZM25.912495 136.18958L26.83437 136.03333Q26.92812 136.48645 26.92812 136.8302Q26.92812 137.40833 26.756245 137.72083Q26.568745 138.03333 26.27187 138.17395Q25.974995 138.29895 25.02187 138.29895L21.443745 138.29895L21.443745 139.06458L20.631245 139.06458L20.631245 138.29895L19.08437 138.29895L18.45937 137.25208L20.631245 137.25208L20.631245 136.18958L21.443745 136.18958L21.443745 137.25208L25.08437 137.25208Q25.537495 137.25208 25.662495 137.2052Q25.787495 137.1427 25.86562 137.0177Q25.943745 136.8927 25.943745 136.65833Q25.943745 136.47083 25.912495 136.18958ZM19.474995 135.48645L18.256245 135.48645L18.256245 134.42395L19.474995 134.42395L19.474995 135.48645ZM26.849995 135.48645L20.631245 135.48645L20.631245 134.42395L26.849995 134.42395L26.849995 135.48645ZM26.849995 132.48645L20.631245 132.48645L20.631245 131.54895L21.506245 131.54895Q21.037495 131.25208 20.77187 130.7677Q20.49062 130.28333 20.49062 129.65833Q20.49062 128.97083 20.77187 128.53333Q21.05312 128.0802 21.568745 127.908325Q20.49062 127.158325 20.49062 125.98645Q20.49062 125.04895 21.006245 124.564575Q21.506245 124.064575 22.58437 124.064575L26.849995 124.064575L26.849995 125.11145L22.92812 125.11145Q22.30312 125.11145 22.02187 125.220825Q21.74062 125.314575 21.568745 125.5802Q21.39687 125.845825 21.39687 126.220825Q21.39687 126.877075 21.83437 127.314575Q22.27187 127.73645 23.24062 127.73645L26.849995 127.73645L26.849995 128.79895L22.80312 128.79895Q22.099995 128.79895 21.756245 129.06458Q21.39687 129.31458 21.39687 129.8927Q21.39687 130.34583 21.631245 130.72083Q21.86562 131.09583 22.318745 131.2677Q22.77187 131.43958 23.61562 131.43958L26.849995 131.43958L26.849995 132.48645ZM24.849995 118.23645L24.974995 117.1427Q25.92812 117.3927 26.45937 118.095825Q26.99062 118.79895 26.99062 119.877075Q26.99062 121.23645 26.14687 122.04895Q25.30312 122.845825 23.787495 122.845825Q22.224995 122.845825 21.36562 122.033325Q20.49062 121.220825 20.49062 119.939575Q20.49062 118.689575 21.33437 117.908325Q22.17812 117.11145 23.724995 117.11145Q23.818745 117.11145 24.006245 117.11145L24.006245 121.752075Q25.037495 121.689575 25.58437 121.17395Q26.11562 120.658325 26.11562 119.877075Q26.11562 119.29895 25.818745 118.8927Q25.506245 118.470825 24.849995 118.23645ZM23.14687 121.689575L23.14687 118.220825Q22.349995 118.283325 21.95937 118.61145Q21.349995 119.127075 21.349995 119.92395Q21.349995 120.658325 21.83437 121.158325Q22.318745 121.6427 23.14687 121.689575Z" fill-rule="nonzero"/><path fill="#000000" d="M52.35 236.93286Q52.35 235.40161 52.6625 234.47974Q52.975 233.54224 53.584373 233.04224Q54.209373 232.54224 55.146873 232.54224Q55.834373 232.54224 56.35 232.82349Q56.88125 233.10474 57.225 233.63599Q57.56875 234.15161 57.75625 234.90161Q57.94375 235.65161 57.94375 236.93286Q57.94375 238.44849 57.63125 239.37036Q57.334373 240.29224 56.709373 240.80786Q56.1 241.30786 55.146873 241.30786Q53.9125 241.30786 53.19375 240.41724Q52.35 239.35474 52.35 236.93286ZM53.428123 236.93286Q53.428123 239.04224 53.928123 239.74536Q54.428123 240.44849 55.146873 240.44849Q55.88125 240.44849 56.365623 239.74536Q56.865623 239.04224 56.865623 236.93286Q56.865623 234.80786 56.365623 234.12036Q55.88125 233.41724 55.13125 233.41724Q54.4125 233.41724 53.975 234.02661Q53.428123 234.80786 53.428123 236.93286ZM59.94375 241.16724L59.94375 239.96411L61.146873 239.96411L61.146873 241.16724L59.94375 241.16724ZM62.35 236.93286Q62.35 235.40161 62.6625 234.47974Q62.975 233.54224 63.584373 233.04224Q64.20937 232.54224 65.14687 232.54224Q65.83437 232.54224 66.35 232.82349Q66.88125 233.10474 67.225 233.63599Q67.56875 234.15161 67.75625 234.90161Q67.94375 235.65161 67.94375 236.93286Q67.94375 238.44849 67.63125 239.37036Q67.33437 240.29224 66.70937 240.80786Q66.1 241.30786 65.14687 241.30786Q63.9125 241.30786 63.19375 240.41724Q62.35 239.35474 62.35 236.93286ZM63.428123 236.93286Q63.428123 239.04224 63.928123 239.74536Q64.42812 240.44849 65.14687 240.44849Q65.88125 240.44849 66.36562 239.74536Q66.86562 239.04224 66.86562 236.93286Q66.86562 234.80786 66.36562 234.12036Q65.88125 233.41724 65.13125 233.41724Q64.4125 233.41724 63.975 234.02661Q63.428123 234.80786 63.428123 236.93286Z" fill-rule="nonzero"/><path fill="#000000" d="M52.35 198.98276Q52.35 197.4515 52.6625 196.52963Q52.975 195.59213 53.584373 195.09213Q54.209373 194.59213 55.146873 194.59213Q55.834373 194.59213 56.35 194.87338Q56.88125 195.15463 57.225 195.68588Q57.56875 196.2015 57.75625 196.9515Q57.94375 197.7015 57.94375 198.98276Q57.94375 200.49838 57.63125 201.42026Q57.334373 202.34213 56.709373 202.85776Q56.1 203.35776 55.146873 203.35776Q53.9125 203.35776 53.19375 202.46713Q52.35 201.40463 52.35 198.98276ZM53.428123 198.98276Q53.428123 201.09213 53.928123 201.79526Q54.428123 202.49838 55.146873 202.49838Q55.88125 202.49838 56.365623 201.79526Q56.865623 201.09213 56.865623 198.98276Q56.865623 196.85776 56.365623 196.17026Q55.88125 195.46713 55.13125 195.46713Q54.4125 195.46713 53.975 196.0765Q53.428123 196.85776 53.428123 198.98276ZM59.94375 203.21713L59.94375 202.014L61.146873 202.014L61.146873 203.21713L59.94375 203.21713ZM62.35 200.96713L63.459373 200.87338Q63.584373 201.68588 64.02187 202.09213Q64.475 202.49838 65.11562 202.49838Q65.86562 202.49838 66.39687 201.92026Q66.92812 201.34213 66.92812 200.40463Q66.92812 199.49838 66.4125 198.98276Q65.9125 198.4515 65.08437 198.4515Q64.58437 198.4515 64.1625 198.68588Q63.75625 198.92026 63.521873 199.27963L62.5375 199.15463L63.365623 194.74838L67.64687 194.74838L67.64687 195.74838L64.20937 195.74838L63.75625 198.06088Q64.52187 197.514 65.36562 197.514Q66.49062 197.514 67.25625 198.29526Q68.0375 199.0765 68.0375 200.31088Q68.0375 201.46713 67.36562 202.3265Q66.5375 203.35776 65.11562 203.35776Q63.94375 203.35776 63.19375 202.7015Q62.459373 202.04526 62.35 200.96713Z" fill-rule="nonzero"/><path fill="#000000" d="M56.31875 165.26701L55.271873 165.26701L55.271873 158.54826Q54.88125 158.90764 54.25625 159.28264Q53.646873 159.64201 53.1625 159.81389L53.1625 158.79826Q54.0375 158.37639 54.69375 157.79826Q55.365623 157.20451 55.646873 156.64201L56.31875 156.64201L56.31875 165.26701ZM59.94375 165.26701L59.94375 164.06389L61.146873 164.06389L61.146873 165.26701L59.94375 165.26701ZM62.35 161.03264Q62.35 159.50139 62.6625 158.57951Q62.975 157.64201 63.584373 157.14201Q64.20937 156.64201 65.14687 156.64201Q65.83437 156.64201 66.35 156.92326Q66.88125 157.20451 67.225 157.73576Q67.56875 158.25139 67.75625 159.00139Q67.94375 159.75139 67.94375 161.03264Q67.94375 162.54826 67.63125 163.47014Q67.33437 164.39201 66.70937 164.90764Q66.1 165.40764 65.14687 165.40764Q63.9125 165.40764 63.19375 164.51701Q62.35 163.45451 62.35 161.03264ZM63.428123 161.03264Q63.428123 163.14201 63.928123 163.84514Q64.42812 164.54826 65.14687 164.54826Q65.88125 164.54826 66.36562 163.84514Q66.86562 163.14201 66.86562 161.03264Q66.86562 158.90764 66.36562 158.22014Q65.88125 157.51701 65.13125 157.51701Q64.4125 157.51701 63.975 158.12639Q63.428123 158.90764 63.428123 161.03264Z" fill-rule="nonzero"/><path fill="#000000" d="M56.31875 127.316895L55.271873 127.316895L55.271873 120.598145Q54.88125 120.95752 54.25625 121.33252Q53.646873 121.691895 53.1625 121.86377L53.1625 120.848145Q54.0375 120.42627 54.69375 119.848145Q55.365623 119.254395 55.646873 118.691895L56.31875 118.691895L56.31875 127.316895ZM59.94375 127.316895L59.94375 126.11377L61.146873 126.11377L61.146873 127.316895L59.94375 127.316895ZM62.35 125.066895L63.459373 124.973145Q63.584373 125.785645 64.02187 126.191895Q64.475 126.598145 65.11562 126.598145Q65.86562 126.598145 66.39687 126.02002Q66.92812 125.441895 66.92812 124.504395Q66.92812 123.598145 66.4125 123.08252Q65.9125 122.55127 65.08437 122.55127Q64.58437 122.55127 64.1625 122.785645Q63.75625 123.02002 63.521873 123.379395L62.5375 123.254395L63.365623 118.848145L67.64687 118.848145L67.64687 119.848145L64.20937 119.848145L63.75625 122.160645Q64.52187 121.61377 65.36562 121.61377Q66.49062 121.61377 67.25625 122.39502Q68.0375 123.17627 68.0375 124.410645Q68.0375 125.566895 67.36562 126.42627Q66.5375 127.45752 65.11562 127.45752Q63.94375 127.45752 63.19375 126.80127Q62.459373 126.14502 62.35 125.066895Z" fill-rule="nonzero"/><path fill="#000000" d="M57.896873 88.35116L57.896873 89.36678L52.209373 89.36678Q52.209373 88.99178 52.334373 88.63241Q52.553123 88.05428 53.021873 87.49178Q53.50625 86.92928 54.4125 86.19491Q55.81875 85.03866 56.303123 84.36678Q56.803123 83.69491 56.803123 83.10116Q56.803123 82.47616 56.35 82.05428Q55.896873 81.61678 55.178123 81.61678Q54.4125 81.61678 53.959373 82.06991Q53.50625 82.52303 53.490623 83.33553L52.4125 83.22616Q52.521873 82.00741 53.240623 81.38241Q53.975 80.74178 55.209373 80.74178Q56.44375 80.74178 57.1625 81.42928Q57.88125 82.11678 57.88125 83.13241Q57.88125 83.64803 57.6625 84.14803Q57.459373 84.63241 56.959373 85.19491Q56.475 85.74178 55.35 86.69491Q54.396873 87.49178 54.115623 87.78866Q53.85 88.06991 53.678123 88.35116L57.896873 88.35116ZM59.94375 89.36678L59.94375 88.16366L61.146873 88.16366L61.146873 89.36678L59.94375 89.36678ZM62.35 85.13241Q62.35 83.60116 62.6625 82.67928Q62.975 81.74178 63.584373 81.24178Q64.20937 80.74178 65.14687 80.74178Q65.83437 80.74178 66.35 81.02303Q66.88125 81.30428 67.225 81.83553Q67.56875 82.35116 67.75625 83.10116Q67.94375 83.85116 67.94375 85.13241Q67.94375 86.64803 67.63125 87.56991Q67.33437 88.49178 66.70937 89.00741Q66.1 89.50741 65.14687 89.50741Q63.9125 89.50741 63.19375 88.61678Q62.35 87.55428 62.35 85.13241ZM63.428123 85.13241Q63.428123 87.24178 63.928123 87.94491Q64.42812 88.64803 65.14687 88.64803Q65.88125 88.64803 66.36562 87.94491Q66.86562 87.24178 66.86562 85.13241Q66.86562 83.00741 66.36562 82.31991Q65.88125 81.61678 65.13125 81.61678Q64.4125 81.61678 63.975 82.22616Q63.428123 83.00741 63.428123 85.13241Z" fill-rule="nonzero"/><path fill="#000000" d="M57.896873 50.401043L57.896873 51.416668L52.209373 51.416668Q52.209373 51.041668 52.334373 50.682293Q52.553123 50.104168 53.021873 49.541668Q53.50625 48.979168 54.4125 48.244793Q55.81875 47.088543 56.303123 46.416668Q56.803123 45.744793 56.803123 45.151043Q56.803123 44.526043 56.35 44.104168Q55.896873 43.666668 55.178123 43.666668Q54.4125 43.666668 53.959373 44.119793Q53.50625 44.572918 53.490623 45.385418L52.4125 45.276043Q52.521873 44.057293 53.240623 43.432293Q53.975 42.791668 55.209373 42.791668Q56.44375 42.791668 57.1625 43.479168Q57.88125 44.166668 57.88125 45.182293Q57.88125 45.697918 57.6625 46.197918Q57.459373 46.682293 56.959373 47.244793Q56.475 47.791668 55.35 48.744793Q54.396873 49.541668 54.115623 49.838543Q53.85 50.119793 53.678123 50.401043L57.896873 50.401043ZM59.94375 51.416668L59.94375 50.213543L61.146873 50.213543L61.146873 51.416668L59.94375 51.416668ZM62.35 49.166668L63.459373 49.072918Q63.584373 49.885418 64.02187 50.291668Q64.475 50.697918 65.11562 50.697918Q65.86562 50.697918 66.39687 50.119793Q66.92812 49.541668 66.92812 48.604168Q66.92812 47.697918 66.4125 47.182293Q65.9125 46.651043 65.08437 46.651043Q64.58437 46.651043 64.1625 46.885418Q63.75625 47.119793 63.521873 47.479168L62.5375 47.354168L63.365623 42.947918L67.64687 42.947918L67.64687 43.947918L64.20937 43.947918L63.75625 46.260418Q64.52187 45.713543 65.36562 45.713543Q66.49062 45.713543 67.25625 46.494793Q68.0375 47.276043 68.0375 48.510418Q68.0375 49.666668 67.36562 50.526043Q66.5375 51.557293 65.11562 51.557293Q63.94375 51.557293 63.19375 50.901043Q62.459373 50.244793 62.35 49.166668Z" fill-rule="nonzero"/><path fill="#000000" d="M95.8079 276.45648L89.7312 270.3798L91.83042 268.28058Q92.53753 267.57346 93.001564 267.2862Q93.64238 266.88846 94.316345 266.83322Q95.21127 266.75586 96.084114 267.16467Q96.95695 267.55136 97.76349 268.3579Q98.45955 269.054 98.82415 269.75003Q99.1998 270.43503 99.29924 271.0427Q99.398674 271.6504 99.288185 272.1586Q99.18875 272.6558 98.879395 273.18613Q98.55898 273.7054 98.00656 274.25784L95.8079 276.45648ZM95.896286 274.9318L97.188965 273.63913Q97.79664 273.03143 98.028656 272.57846Q98.26067 272.12546 98.249626 271.71667Q98.26067 271.1532 97.929214 270.5124Q97.60881 269.8605 96.9238 269.1755Q95.973625 268.22534 95.14498 268.0375Q94.316345 267.82758 93.697624 268.09274Q93.24464 268.30267 92.53753 269.00977L91.2559 270.2914L95.896286 274.9318ZM103.67446 265.7615L104.53625 265.0765Q105.03343 265.92725 104.911896 266.80008Q104.79036 267.6729 104.028015 268.43524Q103.06679 269.39648 101.895645 269.3744Q100.73555 269.34125 99.66384 268.26953Q98.55898 267.16467 98.52584 265.98248Q98.48164 264.78925 99.38763 263.88324Q100.27151 262.99936 101.420555 263.04355Q102.58066 263.07672 103.67446 264.1705Q103.74075 264.23682 103.87334 264.3694L100.59192 267.65082Q101.36532 268.33582 102.116615 268.3579Q102.856865 268.36896 103.409294 267.81653Q103.81809 267.40775 103.89543 266.91055Q103.97277 266.39127 103.67446 265.7615ZM100.02844 266.99893L102.48122 264.54617Q101.87355 264.0269 101.36532 263.9827Q100.56982 263.9164 100.00635 264.4799Q99.48706 264.99915 99.47601 265.69522Q99.47601 266.38022 100.02844 266.99893ZM109.88374 262.38065L109.331314 261.82822Q109.56333 262.89993 108.75679 263.70648Q108.22646 264.23682 107.49725 264.39148Q106.757 264.53513 105.99465 264.2589Q105.23231 263.9827 104.55834 263.30872Q103.90648 262.65686 103.586075 261.8945Q103.26566 261.13217 103.43139 260.414Q103.586075 259.6848 104.12745 259.14343Q104.5252 258.74567 105.00028 258.60205Q105.47537 258.4584 105.939415 258.52472L103.76285 256.34814L104.5031 255.6079L110.5798 261.6846L109.88374 262.38065ZM105.33174 262.53534Q106.18248 263.38608 106.95588 263.45236Q107.71822 263.5076 108.20436 263.02145Q108.6905 262.53534 108.635254 261.79507Q108.58002 261.05484 107.76242 260.23724Q106.85644 259.33124 106.083046 259.26495Q105.320694 259.18762 104.81246 259.69586Q104.31528 260.19305 104.39262 260.9333Q104.45891 261.6625 105.33174 262.53534ZM114.86664 257.39777L114.21477 256.74588Q114.44679 258.01648 113.562904 258.90036Q113.17621 259.28705 112.69007 259.48593Q112.20393 259.66272 111.81724 259.60745Q111.41949 259.54117 111.02174 259.276Q110.767624 259.1103 110.28149 258.62415L107.563545 255.9062L108.31485 255.1549L110.75658 257.59662Q111.3311 258.17114 111.58522 258.33688Q111.938774 258.55786 112.33652 258.51367Q112.73427 258.44736 113.076775 258.10486Q113.408226 257.7734 113.52976 257.3204Q113.6513 256.84534 113.47452 256.42548Q113.30879 255.9946 112.745316 255.43112L110.391975 253.07777L111.132225 252.33752L115.52955 256.73483L114.86664 257.39777ZM118.62314 257.0221L112.53539 250.93436L113.20935 250.26039L113.77283 250.82387Q113.68444 250.24934 113.817024 249.78531Q113.960655 249.31023 114.39155 248.87933Q114.955025 248.31586 115.67318 248.17223Q116.391335 248.0286 117.131584 248.349Q117.88289 248.65836 118.51266 249.28813Q119.186615 249.96208 119.484924 250.74654Q119.79429 251.51993 119.61751 252.27124Q119.440735 253.02254 118.932495 253.53076Q118.55685 253.90642 118.10386 254.05005Q117.63982 254.18263 117.21998 254.13844L119.363396 256.28186L118.62314 257.0221ZM115.43011 252.48116Q116.280846 253.3319 117.03215 253.39818Q117.7724 253.45343 118.25854 252.96729Q118.75572 252.47011 118.68943 251.69672Q118.62314 250.92331 117.73926 250.03943Q116.89957 249.19974 116.14827 249.13345Q115.38592 249.0561 114.89978 249.54224Q114.42469 250.01733 114.50203 250.82387Q114.57938 251.63042 115.43011 252.48116Z" fill-rule="nonzero"/><path fill="#000000" d="M136.76474 288.9082L137.44975 288.0906Q137.96902 288.4994 138.45517 288.5878Q138.9413 288.67618 139.53792 288.4552Q140.13454 288.21213 140.65382 287.69287Q141.10681 287.23987 141.32779 286.75372Q141.5377 286.25656 141.47142 285.8588Q141.40512 285.43896 141.1289 285.16275Q140.84164 284.8755 140.466 284.8313Q140.0793 284.77603 139.56001 285.00806Q139.20647 285.16275 138.16791 285.80356Q137.14038 286.43332 136.63216 286.588Q135.95819 286.79794 135.41681 286.6764Q134.86438 286.54382 134.44453 286.12396Q133.99155 285.671 133.84792 285.0191Q133.70428 284.34515 134.0026 283.64908Q134.3009 282.93094 134.90858 282.32327Q135.58253 281.6493 136.3228 281.35098Q137.052 281.04163 137.75911 281.19632Q138.45517 281.33994 139.00758 281.84818L138.28943 282.67682Q137.64862 282.16858 136.99675 282.24594Q136.3449 282.30118 135.64883 282.99722Q134.91963 283.72644 134.85333 284.32306Q134.78705 284.91968 135.1627 285.29532Q135.49416 285.62677 135.9361 285.60468Q136.37804 285.58258 137.57127 284.8313Q138.77557 284.06894 139.30591 283.87006Q140.09035 283.59384 140.72011 283.7154Q141.33884 283.82587 141.83601 284.32306Q142.32216 284.8092 142.47684 285.5163Q142.62047 286.21234 142.34425 286.9747Q142.05699 287.726 141.40512 288.37787Q140.57648 289.2065 139.78099 289.53796Q138.98549 289.84732 138.17896 289.6816Q137.38345 289.50482 136.76474 288.9082ZM145.3605 284.22363L139.61526 281.17422L140.38866 280.40082L143.62589 282.24594L144.83017 282.9199Q144.78598 282.8315 144.1562 281.7819L142.27795 278.51154L143.04031 277.74918L146.25543 279.63846L147.3161 280.2572L146.71947 279.15234L144.92961 275.85986L145.65881 275.13068L148.67506 280.90906L147.90167 281.68246L144.565 279.7379L143.64798 279.17444L146.14494 283.43918L145.3605 284.22363ZM153.24916 275.2522Q153.18288 276.0256 152.9398 276.55594Q152.70778 277.0752 152.26584 277.51715Q151.53664 278.24637 150.79639 278.2795Q150.05614 278.31265 149.50371 277.76022Q149.1833 277.43982 149.06177 277.031Q148.92918 276.61118 149.01756 276.2134Q149.09491 275.80463 149.31589 275.429Q149.45952 275.15277 149.85725 274.64453Q150.65276 273.65018 150.92897 273.06458Q150.77429 272.9099 150.74115 272.87677Q150.2771 272.41272 149.87936 272.4348Q149.34903 272.479 148.78555 273.04248Q148.26627 273.56177 148.19998 274.00372Q148.12263 274.4346 148.46515 275.02017L147.6365 275.64996Q147.2719 275.0865 147.21666 274.5672Q147.16142 274.0479 147.43762 273.46234Q147.71384 272.87677 148.27731 272.3133Q148.84079 271.74982 149.32693 271.52884Q149.81306 271.30786 150.17767 271.341Q150.54227 271.37418 150.91792 271.61722Q151.13889 271.7719 151.63608 272.2691L152.63045 273.26346Q153.669 274.30203 153.98941 274.53406Q154.32088 274.755 154.71861 274.8655L153.93417 275.64996Q153.59167 275.5284 153.24916 275.2522ZM151.51454 273.65018Q151.27147 274.2247 150.58646 275.15277Q150.18872 275.6831 150.08928 275.95932Q149.97879 276.2245 150.023 276.48962Q150.07823 276.74374 150.2771 276.94263Q150.57541 277.24094 150.99525 277.21884Q151.42615 277.1857 151.85704 276.7548Q152.28793 276.3239 152.43156 275.80463Q152.58624 275.2743 152.40947 274.78815Q152.27689 274.4125 151.79076 273.92636L151.51454 273.65018ZM157.55809 275.4069L151.47035 269.31912L152.1443 268.64517L152.70778 269.20865Q152.6194 268.63412 152.75198 268.17007Q152.89561 267.695 153.3265 267.2641Q153.88998 266.70062 154.60814 266.557Q155.3263 266.41336 156.06654 266.73376Q156.81784 267.04312 157.44762 267.6729Q158.12157 268.34686 158.41988 269.13132Q158.72923 269.9047 158.55246 270.656Q158.37569 271.40732 157.86745 271.91553Q157.4918 272.2912 157.03882 272.4348Q156.57477 272.5674 156.15492 272.52322L158.29834 274.66663L157.55809 275.4069ZM154.36507 270.86594Q155.2158 271.71667 155.9671 271.78296Q156.70735 271.8382 157.1935 271.35205Q157.69067 270.8549 157.62439 270.08148Q157.55809 269.30807 156.67421 268.4242Q155.83452 267.5845 155.08322 267.51822Q154.32088 267.4409 153.83473 267.927Q153.35965 268.4021 153.43698 269.20865Q153.51433 270.0152 154.36507 270.86594ZM161.77864 266.47964L162.54099 267.02103Q162.28687 267.40775 162.04381 267.65082Q161.63501 268.0596 161.2925 268.15903Q160.93895 268.24744 160.6296 268.13693Q160.33128 268.0154 159.65732 267.34143L157.1272 264.81134L156.58582 265.3527L156.01129 264.77817L156.55267 264.23682L155.45888 263.143L155.75719 261.96082L157.29292 263.49655L158.04424 262.74524L158.61876 263.31976L157.86745 264.07108L160.44176 266.6454Q160.76218 266.9658 160.88371 267.02103Q161.01628 267.06522 161.15993 267.03207Q161.30356 266.99893 161.46928 266.83322Q161.60187 266.70062 161.77864 266.47964ZM157.72382 261.43048L156.86203 260.5687L157.61334 259.81738L158.47513 260.67917L157.72382 261.43048ZM162.93874 266.6454L158.54141 262.24808L159.29271 261.49677L163.69003 265.89407L162.93874 266.6454ZM162.58517 262.60162Q161.3588 261.37524 161.44719 260.1157Q161.52452 259.06607 162.34212 258.2485Q163.2481 257.3425 164.41924 257.3646Q165.5904 257.3646 166.64 258.4142Q167.49074 259.26495 167.72275 260.00522Q167.95477 260.74545 167.73381 261.51886Q167.51283 262.27017 166.93831 262.8447Q166.02129 263.76172 164.86118 263.75067Q163.70108 263.71753 162.58517 262.60162ZM163.34753 261.83926Q164.18723 262.67896 164.97166 262.7342Q165.76717 262.77838 166.3196 262.22598Q166.88307 261.6625 166.82782 260.87805Q166.77258 260.0936 165.9108 259.2318Q165.0932 258.4142 164.2977 258.37003Q163.51326 258.3148 162.96083 258.86722Q162.4084 259.41965 162.4526 260.21512Q162.4968 260.98853 163.34753 261.83926ZM170.0098 259.5743L165.61249 255.177L166.27539 254.51408L166.89412 255.1328Q166.6621 253.92851 167.57912 253.01149Q167.97687 252.61374 168.45197 252.4259Q168.9381 252.22704 169.33585 252.29332Q169.7336 252.35962 170.10924 252.60269Q170.35231 252.77946 170.87158 253.29875L173.57848 256.00565L172.83823 256.74588L170.16449 254.07214Q169.70044 253.60811 169.39108 253.47552Q169.08173 253.34294 168.72816 253.43132Q168.36357 253.50867 168.06526 253.80698Q167.59018 254.28206 167.54597 254.94498Q167.50179 255.5858 168.34148 256.42548L170.75006 258.83408L170.0098 259.5743ZM173.34647 253.60811L173.96518 252.76842Q174.47342 253.14406 174.98164 253.09987Q175.50093 253.04463 176.02022 252.52534Q176.52844 252.01712 176.57263 251.57516Q176.61684 251.11113 176.32957 250.82387Q176.07545 250.56975 175.71085 250.6471Q175.45674 250.70233 174.69438 251.15533Q173.66687 251.763 173.20284 251.93977Q172.7388 252.09445 172.3079 251.99501Q171.87701 251.89558 171.54555 251.56412Q171.25829 251.27686 171.13675 250.89017Q171.01521 250.50346 171.08151 250.10571Q171.13675 249.8074 171.34668 249.4207Q171.5566 249.03401 171.91016 248.68045Q172.41838 248.17223 172.95976 247.9402Q173.50114 247.68608 173.94308 247.75238Q174.38503 247.81866 174.87115 248.17223L174.2414 249.00085Q173.86574 248.7136 173.43484 248.76884Q173.00395 248.80199 172.56201 249.24393Q172.05379 249.75217 172.00958 250.1499Q171.95435 250.5366 172.18637 250.76863Q172.33 250.91226 172.52887 250.93436Q172.74985 250.95645 173.015 250.84596Q173.1697 250.77968 173.86574 250.37088Q174.88222 249.79636 175.32416 249.61958Q175.7661 249.44281 176.19699 249.52014Q176.62788 249.59749 177.01457 249.98418Q177.39023 250.35983 177.50072 250.91226Q177.6112 251.4426 177.39023 252.03922Q177.1582 252.62479 176.63893 253.14406Q175.77715 254.00584 174.9706 254.10529Q174.16406 254.18263 173.34647 253.60811Z" fill-rule="nonzero"/><path fill="#000000" d="M199.88495 287.01892L193.80824 280.9422L197.90726 276.8432L198.62541 277.56134L195.33295 280.85382L197.2112 282.7321L200.06172 279.88156L200.77988 280.5997L197.92935 283.45023L200.69148 286.21237L199.88495 287.01892ZM204.69106 282.2128L200.29373 277.81546L200.9677 277.1415L201.63062 277.8044Q201.42068 277.08627 201.48698 276.73273Q201.55327 276.35706 201.81844 276.0919Q202.19409 275.71625 202.8128 275.56155L203.25475 276.51175Q202.8128 276.62222 202.54764 276.8874Q202.29352 277.1415 202.24933 277.49506Q202.20514 277.8265 202.39296 278.16904Q202.65813 278.69934 203.12216 279.1634L205.4313 281.47253L204.69106 282.2128ZM209.12152 274.9539L209.9833 274.2689Q210.4805 275.11963 210.35896 275.99246Q210.23743 276.8653 209.47508 277.62766Q208.51385 278.58887 207.34271 278.56677Q206.18262 278.53363 205.1109 277.4619Q204.00604 276.35706 203.9729 275.17487Q203.92871 273.98163 204.83469 273.07565Q205.71857 272.19177 206.86761 272.23596Q208.02773 272.2691 209.12152 273.3629Q209.18782 273.4292 209.3204 273.56177L206.03899 276.8432Q206.81238 277.5282 207.56367 277.5503Q208.30392 277.56134 208.85635 277.00894Q209.26515 276.60013 209.3425 276.10294Q209.41983 275.58368 209.12152 274.9539ZM205.47551 276.19135L207.92828 273.73856Q207.32062 273.21927 206.81238 273.17508Q206.01688 273.1088 205.45341 273.67227Q204.93413 274.19156 204.92308 274.8876Q204.92308 275.5726 205.47551 276.19135ZM216.97704 273.30768L214.82257 271.1532Q214.88887 271.57303 214.73418 272.05917Q214.5795 272.52322 214.22595 272.87677Q213.4415 273.66122 212.25931 273.606Q211.06607 273.53967 209.97226 272.4459Q209.30936 271.78296 209.02208 271.03168Q208.72377 270.26932 208.88951 269.57324Q209.05524 268.8551 209.57451 268.33582Q210.3921 267.51822 211.54115 267.7392L210.95558 267.15363L211.62955 266.47968L217.71729 272.5674L216.97704 273.30768ZM210.76776 271.71667Q211.6185 272.5674 212.39189 272.6337Q213.17635 272.68893 213.67352 272.19177Q214.1486 271.71667 214.09337 270.9764Q214.02708 270.22513 213.20949 269.40753Q212.3256 268.52365 211.51906 268.44632Q210.72356 268.3579 210.22638 268.8551Q209.7513 269.3302 209.82863 270.09253Q209.89493 270.84384 210.76776 271.71667ZM217.43002 269.47382L213.03271 265.0765L213.69562 264.41357L214.31435 265.03232Q214.19281 264.49094 214.34749 263.9606Q214.49112 263.41922 214.93306 262.97726Q215.41919 262.49115 215.92743 262.38065Q216.4467 262.25912 216.93285 262.5022Q216.70082 261.2095 217.52946 260.38086Q218.19238 259.71796 218.89949 259.74005Q219.6066 259.74005 220.36894 260.5024L223.3852 263.51865L222.64494 264.2589L219.87175 261.48572Q219.42981 261.0438 219.1536 260.92224Q218.88844 260.78967 218.57907 260.85596Q218.26971 260.92224 218.00455 261.1874Q217.54051 261.65146 217.54051 262.27017Q217.55156 262.87784 218.23657 263.56284L220.78879 266.11505L220.03749 266.86636L217.17592 264.0048Q216.67873 263.5076 216.24783 263.45236Q215.81694 263.37503 215.40814 263.7838Q215.08774 264.10422 214.9883 264.53513Q214.88887 264.966 215.08774 265.40796Q215.2866 265.84988 215.88324 266.44653L218.17029 268.73358L217.43002 269.47382ZM219.28618 257.18784L218.4244 256.32605L219.1757 255.57475L220.03749 256.43652L219.28618 257.18784ZM224.5011 262.40274L220.10378 258.00543L220.85507 257.25412L225.2524 261.65146L224.5011 262.40274ZM226.62242 260.28143L222.2251 255.88411L222.88802 255.22119L223.50673 255.83992Q223.2747 254.63562 224.19174 253.7186Q224.58948 253.32085 225.06458 253.13303Q225.5507 252.93414 225.94846 253.00044Q226.3462 253.06673 226.72185 253.3098Q226.96492 253.48657 227.4842 254.00586L230.1911 256.71274L229.45085 257.453L226.7771 254.77925Q226.31306 254.31522 226.0037 254.18263Q225.69434 254.05005 225.34079 254.13844Q224.97618 254.21577 224.67787 254.5141Q224.20279 254.98918 224.15858 255.65208Q224.1144 256.2929 224.95409 257.1326L227.36267 259.54117L226.62242 260.28143ZM233.16315 250.91226L234.02495 250.22726Q234.52213 251.07799 234.40059 251.95084Q234.27905 252.82367 233.51671 253.58601Q232.55548 254.54724 231.38434 254.52515Q230.22424 254.49199 229.15253 253.42029Q228.04768 252.31543 228.01453 251.13324Q227.97034 249.94 228.87631 249.03401Q229.76021 248.15013 230.90926 248.19432Q232.06935 248.22748 233.16315 249.32127Q233.22945 249.38757 233.36203 249.52016L230.08061 252.80157Q230.854 253.48657 231.60532 253.50867Q232.34557 253.51973 232.898 252.9673Q233.30678 252.5585 233.38412 252.06131Q233.46147 251.54204 233.16315 250.91226ZM229.51714 252.1497L231.96991 249.69693Q231.36224 249.17764 230.854 249.13345Q230.05852 249.06715 229.49504 249.63063Q228.97575 250.14992 228.9647 250.84598Q228.9647 251.53099 229.51714 252.1497Z" fill-rule="nonzero"/><path fill="#000000" d="M238.67627 301.63614L239.36128 300.81854Q239.88055 301.22733 240.3667 301.3157Q240.85283 301.4041 241.44945 301.18314Q242.04607 300.94006 242.56535 300.42078Q243.01834 299.9678 243.23932 299.48166Q243.44923 298.98447 243.38295 298.58673Q243.31665 298.16687 243.04044 297.89066Q242.75317 297.6034 242.37753 297.5592Q241.99083 297.50397 241.47154 297.736Q241.118 297.89066 240.07944 298.5315Q239.05191 299.16125 238.54369 299.31592Q237.86972 299.52585 237.32834 299.40433Q236.77591 299.27173 236.35606 298.8519Q235.90308 298.3989 235.75945 297.74704Q235.61581 297.0731 235.91412 296.377Q236.21243 295.65887 236.82011 295.0512Q237.49406 294.37723 238.23433 294.07892Q238.96353 293.76956 239.67064 293.92426Q240.3667 294.06787 240.91911 294.5761L240.20096 295.40475Q239.56015 294.8965 238.90828 294.97385Q238.25642 295.02908 237.56036 295.72516Q236.83116 296.45435 236.76486 297.051Q236.69858 297.6476 237.07423 298.02325Q237.40569 298.3547 237.84763 298.3326Q238.28957 298.31052 239.4828 297.5592Q240.6871 296.79688 241.21744 296.598Q242.00188 296.32178 242.63164 296.4433Q243.25037 296.5538 243.74754 297.051Q244.23369 297.5371 244.38837 298.24423Q244.532 298.94028 244.25578 299.70264Q243.96852 300.45392 243.31665 301.1058Q242.488 301.93445 241.69252 302.2659Q240.89702 302.57526 240.09048 302.40952Q239.29498 302.23276 238.67627 301.63614ZM247.42671 295.47104L248.18906 296.01242Q247.93495 296.3991 247.69188 296.64218Q247.28308 297.051 246.94058 297.15042Q246.58702 297.2388 246.27766 297.12833Q245.97935 297.00677 245.30539 296.33282L242.77527 293.8027L242.2339 294.3441L241.65938 293.76956L242.20074 293.22818L241.10695 292.13437L241.40526 290.95218L242.94101 292.48795L243.6923 291.73663L244.26683 292.31116L243.51553 293.06247L246.08984 295.63678Q246.41025 295.95718 246.53178 296.01242Q246.66437 296.0566 246.808 296.02347Q246.95163 295.99033 247.11736 295.8246Q247.24994 295.69202 247.42671 295.47104ZM248.57576 295.64783L244.17844 291.2505L244.8524 290.57654L245.51532 291.23944Q245.30539 290.5213 245.37169 290.16772Q245.43797 289.79208 245.70314 289.52692Q246.0788 289.15128 246.69751 288.99658L247.13945 289.94678Q246.69751 290.05725 246.43234 290.32242Q246.17822 290.57654 246.13403 290.93008Q246.08984 291.26154 246.27766 291.60403Q246.54283 292.13437 247.00687 292.59842L249.31601 294.90756L248.57576 295.64783ZM253.00623 288.38892L253.86803 287.7039Q254.3652 288.55463 254.24367 289.4275Q254.12213 290.30032 253.35979 291.06268Q252.39856 292.0239 251.22742 292.0018Q250.0673 291.96866 248.9956 290.89694Q247.89075 289.79208 247.8576 288.6099Q247.81342 287.41666 248.71939 286.51068Q249.60327 285.6268 250.75232 285.671Q251.91243 285.7041 253.00624 286.7979Q253.07253 286.86423 253.20511 286.9968L249.92368 290.27823Q250.69708 290.96323 251.44838 290.98532Q252.18863 290.99637 252.74106 290.44394Q253.14986 290.03516 253.2272 289.53796Q253.30453 289.01868 253.00623 288.38892ZM249.36021 289.62637L251.81299 287.17358Q251.2053 286.6543 250.69708 286.6101Q249.90158 286.54382 249.3381 287.1073Q248.81883 287.6266 248.80779 288.32263Q248.80779 289.00763 249.36021 289.62637ZM258.69623 284.44458Q258.62994 285.218 258.38687 285.74832Q258.15485 286.26758 257.71292 286.70953Q256.9837 287.43875 256.24347 287.4719Q255.5032 287.50504 254.95078 286.9526Q254.63037 286.6322 254.50883 286.2234Q254.37625 285.80356 254.46465 285.4058Q254.54199 284.997 254.76295 284.62137Q254.90659 284.34515 255.30434 283.8369Q256.09982 282.84253 256.37604 282.25696Q256.22137 282.1023 256.18823 282.06915Q255.72418 281.6051 255.32643 281.6272Q254.7961 281.6714 254.23262 282.23486Q253.71335 282.75415 253.64705 283.1961Q253.56972 283.62698 253.91222 284.21255L253.08357 284.84232Q252.71898 284.27884 252.66373 283.75958Q252.60849 283.2403 252.8847 282.65472Q253.16092 282.06915 253.7244 281.50568Q254.28787 280.9422 254.774 280.72122Q255.26015 280.50024 255.62474 280.5334Q255.98935 280.56653 256.365 280.8096Q256.58597 280.9643 257.08316 281.4615L258.0775 282.45584Q259.1161 283.49442 259.4365 283.72644Q259.76794 283.9474 260.16568 284.0579L259.38126 284.84232Q259.03873 284.7208 258.69623 284.44458ZM256.9616 282.84253Q256.71854 283.41705 256.03354 284.34515Q255.63579 284.8755 255.53635 285.1517Q255.42587 285.41684 255.47006 285.682Q255.5253 285.93613 255.72418 286.135Q256.0225 286.43332 256.44232 286.41122Q256.87323 286.37808 257.3041 285.94717Q257.73502 285.5163 257.87863 284.997Q258.03333 284.46667 257.85654 283.98053Q257.72397 283.6049 257.23782 283.11874L256.9616 282.84253ZM261.31473 282.90884L256.91742 278.5115L257.58032 277.8486L258.19907 278.46732Q258.0775 277.92593 258.2322 277.3956Q258.37582 276.85422 258.81778 276.4123Q259.3039 275.92615 259.81213 275.81567Q260.33142 275.69412 260.81757 275.9372Q260.58554 274.64453 261.41418 273.8159Q262.0771 273.15298 262.7842 273.17508Q263.4913 273.17508 264.25366 273.9374L267.2699 276.95367L266.52966 277.6939L263.75647 274.92075Q263.3145 274.4788 263.0383 274.35727Q262.77316 274.22467 262.46378 274.291Q262.15442 274.35727 261.88925 274.62244Q261.42523 275.08646 261.42523 275.70517Q261.43628 276.31287 262.12128 276.99786L264.6735 279.55008L263.9222 280.3014L261.06064 277.43982Q260.56345 276.94263 260.13254 276.8874Q259.70166 276.81003 259.29285 277.21884Q258.97244 277.53925 258.87302 277.97012Q258.7736 278.40103 258.97244 278.84296Q259.17133 279.2849 259.76794 279.88153L262.055 282.16858L261.31473 282.90884ZM269.64536 271.35205L270.474 270.7223Q271.10376 271.59512 271.03745 272.5232Q270.97116 273.4513 270.25302 274.16943Q269.34705 275.0754 268.20905 275.04227Q267.07104 274.98703 265.9662 273.88217Q265.25906 273.17508 264.96075 272.41272Q264.66245 271.62827 264.87238 270.88803Q265.09335 270.13672 265.66788 269.5622Q266.37497 268.85507 267.19257 268.7667Q268.01016 268.65622 268.8167 269.1976L268.198 270.0373Q267.65662 269.69476 267.17047 269.73898Q266.67328 269.77213 266.29764 270.14777Q265.73416 270.71124 265.7894 271.4736Q265.8336 272.22488 266.70642 273.09772Q267.60135 273.99265 268.3416 274.0479Q269.08188 274.10315 269.62326 273.56177Q270.0652 273.1198 270.08728 272.56738Q270.12042 272.00394 269.64536 271.35205ZM272.60635 271.61722L266.52966 265.54053L267.28094 264.7892L273.35767 270.86594L272.60635 271.61722ZM277.63345 266.59015L276.98157 265.93826Q277.2136 267.20886 276.3297 268.09274Q275.94302 268.47943 275.45688 268.6783Q274.97073 268.85507 274.58405 268.79984Q274.1863 268.73355 273.78854 268.46838Q273.53442 268.30267 273.0483 267.81653L270.33035 265.09857L271.08167 264.3473L273.52338 266.789Q274.0979 267.36353 274.35202 267.52927Q274.70557 267.75024 275.10333 267.70602Q275.50107 267.63974 275.84357 267.29724Q276.17502 266.9658 276.29657 266.5128Q276.4181 266.03772 276.24133 265.61786Q276.0756 265.18698 275.51212 264.6235L273.15878 262.27014L273.89905 261.5299L278.29636 265.92722L277.63345 266.59015ZM278.08643 263.5076L278.70514 262.6679Q279.21338 263.04355 279.72162 262.99936Q280.2409 262.94412 280.7602 262.42484Q281.2684 261.9166 281.3126 261.47467Q281.3568 261.01062 281.06955 260.72336Q280.81543 260.46924 280.4508 260.54657Q280.19672 260.60184 279.43436 261.0548Q278.40683 261.66248 277.9428 261.83926Q277.47876 261.99393 277.04788 261.8945Q276.61697 261.79507 276.28552 261.46362Q275.99826 261.17636 275.8767 260.78964Q275.7552 260.40295 275.82147 260.00522Q275.8767 259.70688 276.08664 259.3202Q276.29657 258.9335 276.65012 258.57996Q277.15836 258.07172 277.69974 257.8397Q278.24112 257.58557 278.68304 257.65186Q279.125 257.71817 279.61115 258.07172L278.98135 258.90036Q278.6057 258.6131 278.1748 258.66833Q277.74393 258.70148 277.30197 259.14343Q276.79376 259.65164 276.74954 260.0494Q276.6943 260.4361 276.92633 260.66812Q277.06998 260.81174 277.26883 260.83383Q277.4898 260.85593 277.75497 260.74545Q277.90967 260.67917 278.6057 260.27036Q279.6222 259.69583 280.06412 259.51907Q280.50607 259.3423 280.93695 259.41962Q281.36786 259.49698 281.75455 259.88367Q282.1302 260.2593 282.2407 260.81174Q282.35117 261.34207 282.1302 261.9387Q281.8982 262.52426 281.3789 263.04355Q280.51712 263.90533 279.71057 264.0048Q278.90402 264.08212 278.08643 263.5076ZM284.90338 257.99435L285.66574 258.53574Q285.41162 258.92245 285.16855 259.16553Q284.75977 259.5743 284.41724 259.67374Q284.0637 259.76215 283.75433 259.65164Q283.45602 259.53012 282.78207 258.85614L280.25195 256.32605L279.71057 256.86743L279.13605 256.2929L279.67743 255.75151L278.58362 254.65771L278.88193 253.47551L280.41766 255.01126L281.16898 254.25996L281.7435 254.83449L280.9922 255.58578L283.5665 258.1601Q283.8869 258.4805 284.00845 258.53574Q284.14102 258.57996 284.28467 258.54678Q284.42828 258.51364 284.59402 258.34793Q284.7266 258.21533 284.90338 257.99435ZM287.65448 253.74068L288.51627 253.05566Q289.01343 253.9064 288.8919 254.77924Q288.7704 255.65208 288.00803 256.41443Q287.0468 257.37564 285.87564 257.35355Q284.71555 257.3204 283.64386 256.2487Q282.539 255.14384 282.50586 253.96165Q282.46164 252.7684 283.36765 251.86243Q284.25153 250.97855 285.40057 251.02274Q286.56067 251.05588 287.65448 252.14969Q287.72076 252.21599 287.85333 252.34856L284.57193 255.62997Q285.34534 256.315 286.09662 256.3371Q286.83688 256.34814 287.3893 255.79572Q287.7981 255.38692 287.87543 254.88972Q287.9528 254.37045 287.65448 253.74068ZM284.00845 254.97812L286.4612 252.52534Q285.85355 252.00606 285.34534 251.96187Q284.54984 251.89557 283.98636 252.45905Q283.46707 252.97833 283.45602 253.6744Q283.45602 254.3594 284.00845 254.97812ZM291.00217 253.2214L286.60486 248.82408L287.2788 248.15012L287.94174 248.81303Q287.7318 248.09488 287.7981 247.74132Q287.86438 247.36568 288.12955 247.10051Q288.50522 246.72485 289.12393 246.57018L289.56586 247.52036Q289.12393 247.63083 288.85876 247.896Q288.60464 248.15012 288.56046 248.50368Q288.51627 248.83513 288.70407 249.17763Q288.96924 249.70796 289.4333 250.172L291.74243 252.48114L291.00217 253.2214Z" fill-rule="nonzero"/><path fill="#000000" d="M331.5723 269.971L330.8873 266.0819L327.2965 265.45215L328.22458 264.52408L329.92606 264.87762Q330.4122 264.98813 330.7326 265.06546Q330.63318 264.61246 330.57794 264.24786L330.2796 262.46906L331.17456 261.57413L331.7159 265.1649L335.68234 265.86096L334.77637 266.76694L332.50037 266.3029L331.8927 266.18137L332.46722 269.07608L331.5723 269.971ZM339.30627 260.80072L340.02444 261.51886L336.00275 265.54053Q335.7376 265.2754 335.57187 264.93286Q335.31775 264.3694 335.25146 263.6402Q335.19623 262.89993 335.31775 261.73984Q335.49454 259.9279 335.36194 259.1103Q335.24042 258.28165 334.82056 257.86182Q334.37863 257.41986 333.75992 257.44196Q333.13013 257.453 332.62192 257.96124Q332.08054 258.50262 332.08054 259.14343Q332.08054 259.78424 332.644 260.3698L331.80432 261.05484Q331.01987 260.11572 331.08615 259.16553Q331.15247 258.19327 332.0253 257.32043Q332.89813 256.4476 333.8925 256.4255Q334.88687 256.4034 335.605 257.12155Q335.9696 257.48615 336.1685 257.9944Q336.36737 258.48053 336.41156 259.2318Q336.45575 259.96103 336.33423 261.43048Q336.22372 262.6679 336.23477 263.07672Q336.24582 263.4634 336.32318 263.7838L339.30627 260.80072ZM340.3338 252.03922L339.64877 252.83472Q339.1074 252.49222 338.73175 252.47011Q338.102 252.45906 337.66003 252.90102Q337.3065 253.25456 337.22916 253.72964Q337.15182 254.33733 337.4391 255.04443Q337.72635 255.72943 338.62128 256.64645Q338.47763 255.9725 338.66547 255.38693Q338.86435 254.79031 339.29523 254.35942Q340.0355 253.61917 341.10718 253.65231Q342.18994 253.67441 343.05173 254.5362Q343.62625 255.11072 343.86932 255.86201Q344.1124 256.59122 343.94666 257.2873Q343.7699 257.9723 343.22852 258.51367Q342.2894 259.4528 341.0188 259.35336Q339.74823 259.2539 338.17932 257.68503Q336.41156 255.91727 336.2679 254.4699Q336.13535 253.21037 337.09656 252.24915Q337.81473 251.53099 338.6765 251.4868Q339.5383 251.4205 340.3338 252.03922ZM339.91394 257.69608Q340.30066 258.08276 340.80887 258.28165Q341.3171 258.45844 341.7922 258.35898Q342.27832 258.2485 342.6098 257.91705Q343.07382 257.453 343.04068 256.73486Q342.9965 256.00565 342.34464 255.35379Q341.71484 254.72401 341.00775 254.70192Q340.3117 254.66878 339.80347 255.177Q339.29523 255.68524 339.30627 256.4034Q339.32837 257.1105 339.91394 257.69608ZM348.38818 253.15512L346.92978 251.69672L344.30023 254.32626L343.6152 253.64127L342.4551 246.9348L343.06277 246.32712L346.99606 250.2604L347.81366 249.44281L348.49866 250.12782L347.68106 250.94542L349.13947 252.40382L348.38818 253.15512ZM346.24475 251.0117L343.51578 248.28271L344.34442 252.91206L346.24475 251.0117Z" fill-rule="nonzero"/><path fill="#000000" d="M358.4091 300.45395L352.3324 294.37723L356.4314 290.27823L357.14957 290.99637L353.8571 294.28885L355.73535 296.1671L358.58588 293.3166L359.30402 294.03473L356.4535 296.88525L359.21564 299.6474L358.4091 300.45395ZM363.20416 295.65887L357.12747 289.58218L357.87875 288.83087L363.95547 294.90756L363.20416 295.65887ZM368.23126 290.63177L367.57938 289.97992Q367.8114 291.2505 366.92752 292.13437Q366.54083 292.5211 366.0547 292.71997Q365.56854 292.89673 365.18185 292.8415Q364.78412 292.7752 364.38635 292.51004Q364.13223 292.3443 363.64612 291.85815L360.92816 289.14023L361.67947 288.38892L364.1212 290.83066Q364.6957 291.40518 364.94983 291.5709Q365.30338 291.79187 365.70114 291.74768Q366.09888 291.6814 366.44138 291.3389Q366.77286 291.00745 366.89438 290.55444Q367.0159 290.07935 366.83914 289.65952Q366.6734 289.2286 366.10992 288.66513L363.7566 286.3118L364.49686 285.57153L368.89417 289.96887L368.23126 290.63177ZM365.08243 283.3508L364.22064 282.489L364.97192 281.7377L365.8337 282.5995L365.08243 283.3508ZM370.29733 288.5657L365.9 284.1684L366.6513 283.41708L371.0486 287.8144L370.29733 288.5657ZM375.26917 283.59387L374.71674 283.04144Q374.94876 284.11313 374.1422 284.91968Q373.61188 285.45 372.8827 285.6047Q372.14243 285.74832 371.3801 285.4721Q370.61774 285.1959 369.9438 284.52194Q369.2919 283.8701 368.9715 283.10773Q368.6511 282.34537 368.81683 281.62723Q368.9715 280.898 369.51288 280.35663Q369.91064 279.9589 370.3857 279.81525Q370.8608 279.67163 371.32483 279.7379L369.1483 277.56134L369.88852 276.8211L375.96524 282.8978L375.26917 283.59387ZM370.71716 283.74854Q371.5679 284.59927 372.3413 284.66556Q373.10367 284.72083 373.58978 284.23468Q374.07593 283.74854 374.0207 283.0083Q373.96545 282.26804 373.14786 281.45044Q372.24188 280.54446 371.46848 280.47818Q370.70612 280.40082 370.1979 280.90906Q369.7007 281.40625 369.77805 282.1465Q369.84433 282.8757 370.71716 283.74854ZM379.69965 278.08063Q379.63336 278.85403 379.3903 279.38437Q379.15826 279.90366 378.7163 280.34558Q377.98712 281.0748 377.24686 281.10794Q376.50662 281.14108 375.9542 280.58865Q375.6338 280.26825 375.51224 279.85944Q375.37967 279.4396 375.46805 279.04187Q375.54538 278.63306 375.76636 278.25742Q375.91 277.9812 376.30774 277.47296Q377.10324 276.4786 377.37946 275.89304Q377.22476 275.73834 377.19162 275.7052Q376.72757 275.24115 376.32983 275.26324Q375.7995 275.30746 375.23602 275.87094Q374.71674 276.3902 374.65045 276.83215Q374.57312 277.26303 374.91562 277.8486L374.08698 278.4784Q373.72238 277.91492 373.66714 277.39563Q373.61188 276.87634 373.8881 276.29077Q374.1643 275.7052 374.72778 275.14172Q375.29126 274.57825 375.7774 274.35727Q376.26355 274.1363 376.62814 274.16946Q376.99274 274.2026 377.3684 274.44568Q377.58936 274.60034 378.08655 275.09753L379.08093 276.0919Q380.11948 277.13046 380.43988 277.3625Q380.77136 277.58347 381.1691 277.69394L380.38464 278.4784Q380.04214 278.35684 379.69965 278.08063ZM377.96503 276.4786Q377.72195 277.05313 377.03693 277.9812Q376.6392 278.51154 376.53976 278.78775Q376.42926 279.05292 376.47345 279.31808Q376.52872 279.57217 376.72757 279.77106Q377.02588 280.06937 377.44574 280.04727Q377.87662 280.01413 378.30753 279.58325Q378.7384 279.15234 378.88205 278.63306Q379.0367 278.10272 378.85995 277.6166Q378.72736 277.24094 378.24124 276.75482L377.96503 276.4786ZM382.31815 276.5449L377.92084 272.14758L378.58374 271.48465L379.20245 272.10336Q378.97043 270.89908 379.88745 269.98206Q380.28522 269.58432 380.76028 269.39648Q381.24643 269.1976 381.6442 269.2639Q382.04193 269.3302 382.41757 269.57324Q382.66064 269.75003 383.17993 270.26932L385.8868 272.9762L385.14658 273.71646L382.4728 271.04272Q382.0088 270.57867 381.69943 270.4461Q381.39008 270.3135 381.0365 270.4019Q380.6719 270.47925 380.3736 270.77756Q379.8985 271.25262 379.8543 271.91556Q379.81012 272.55637 380.6498 273.39606L383.0584 275.80463L382.31815 276.5449ZM382.05298 266.38022L381.1912 265.51843L381.9425 264.76715L382.8043 265.62894L382.05298 266.38022ZM387.26788 271.59515L382.87057 267.1978L383.62186 266.44653L388.0192 270.84384L387.26788 271.59515ZM389.38922 269.47382L384.99188 265.0765L385.65482 264.41357L386.27353 265.03232Q386.15198 264.49094 386.30667 263.9606Q386.4503 263.41922 386.89224 262.97726Q387.3784 262.49115 387.8866 262.38065Q388.40588 262.25912 388.89203 262.5022Q388.66 261.2095 389.48865 260.38086Q390.15155 259.71796 390.85867 259.74005Q391.56577 259.74005 392.32812 260.5024L395.3444 263.51865L394.60413 264.2589L391.83093 261.48572Q391.389 261.0438 391.1128 260.92224Q390.84763 260.78967 390.53827 260.85596Q390.2289 260.92224 389.96375 261.1874Q389.4997 261.65146 389.4997 262.27017Q389.51074 262.87784 390.19577 263.56284L392.74796 266.11505L391.99667 266.86636L389.1351 264.0048Q388.6379 263.5076 388.20703 263.45236Q387.77612 263.37503 387.36734 263.7838Q387.0469 264.10422 386.94748 264.53513Q386.84805 264.966 387.0469 265.40796Q387.2458 265.84988 387.8424 266.44653L390.12946 268.73358L389.38922 269.47382ZM398.79153 258.98874Q398.72522 259.76215 398.48218 260.29248Q398.25015 260.81177 397.8082 261.2537Q397.079 261.9829 396.33875 262.01605Q395.59848 262.0492 395.04605 261.49677Q394.72565 261.17636 394.60413 260.76758Q394.47153 260.34772 394.55994 259.94998Q394.63727 259.54117 394.85825 259.16553Q395.00186 258.8893 395.39963 258.38107Q396.19513 257.38672 396.4713 256.80115Q396.31665 256.64645 396.2835 256.6133Q395.81946 256.1493 395.42172 256.1714Q394.8914 256.21558 394.3279 256.77905Q393.80862 257.29834 393.74234 257.74026Q393.665 258.17117 394.0075 258.75674L393.17886 259.3865Q392.81427 258.82303 392.759 258.30374Q392.70377 257.78445 392.97998 257.19888Q393.2562 256.6133 393.81967 256.04984Q394.38315 255.48636 394.8693 255.2654Q395.35544 255.04442 395.72003 255.07758Q396.08463 255.11072 396.46027 255.35378Q396.68124 255.50847 397.17844 256.00565L398.1728 257.0Q399.21136 258.03857 399.53177 258.2706Q399.86322 258.49158 400.261 258.60205L399.47653 259.3865Q399.13403 259.26495 398.79153 258.98874ZM397.05692 257.38672Q396.81384 257.96124 396.1288 258.8893Q395.73108 259.41965 395.63165 259.69586Q395.52115 259.96103 395.56534 260.2262Q395.62057 260.48032 395.81946 260.67917Q396.11777 260.97748 396.53763 260.95538Q396.9685 260.92224 397.3994 260.49136Q397.8303 260.06046 397.97394 259.54117Q398.1286 259.01086 397.95184 258.52472Q397.81924 258.14908 397.3331 257.66293L397.05692 257.38672ZM402.37125 255.16595L403.1336 255.70734Q402.8795 256.09402 402.6364 256.3371Q402.22763 256.7459 401.8851 256.84534Q401.53156 256.93372 401.2222 256.82324Q400.9239 256.7017 400.24994 256.02774L397.71982 253.49762L397.17844 254.039L396.6039 253.46448L397.1453 252.9231L396.05148 251.8293L396.3498 250.64711L397.88553 252.18285L398.63684 251.43155L399.21136 252.00607L398.46005 252.75737L401.03436 255.33168Q401.3548 255.6521 401.47632 255.70734Q401.6089 255.75153 401.75253 255.71838Q401.89615 255.68524 402.0619 255.51952Q402.1945 255.38693 402.37125 255.16595ZM405.12234 250.91226L405.98413 250.22726Q406.48132 251.078 406.35977 251.95084Q406.23825 252.82367 405.4759 253.58601Q404.51468 254.54724 403.34354 254.52515Q402.1834 254.49199 401.11172 253.42029Q400.00687 252.31543 399.97372 251.13324Q399.92953 249.94 400.8355 249.03401Q401.7194 248.15013 402.86844 248.19432Q404.02853 248.22748 405.12234 249.32127Q405.18863 249.38757 405.3212 249.52016L402.0398 252.80157Q402.8132 253.48657 403.56448 253.50868Q404.30475 253.51973 404.85718 252.9673Q405.26596 252.5585 405.34332 252.06131Q405.42065 251.54204 405.12234 250.91226ZM401.47632 252.1497L403.9291 249.69693Q403.3214 249.17764 402.8132 249.13345Q402.0177 249.06715 401.45422 249.63063Q400.93494 250.14992 400.9239 250.84598Q400.9239 251.53099 401.47632 252.1497Z" fill-rule="nonzero"/><path fill="#000000" d="M432.6994 283.48337L428.95392 275.07544L429.81573 274.21365L438.37833 277.8044L437.47235 278.7104L434.9091 277.58344L432.37897 280.11356L433.55014 282.63263L432.6994 283.48337ZM431.95914 279.22968L434.01416 277.17465L431.70502 276.12503Q430.64435 275.661 430.0146 275.2964Q430.47864 276.0035 430.84323 276.78796L431.95914 279.22968ZM440.14612 276.03665L434.08044 273.30765L434.8649 272.52322L438.44464 274.2026Q439.01917 274.48987 439.60474 274.81027Q439.36166 274.36832 439.0523 273.7054L437.35083 270.0373L438.1132 269.27493L440.84216 275.3406L440.14612 276.03665ZM444.7644 268.58994L445.6262 267.90494Q446.12338 268.75568 446.00183 269.6285Q445.8803 270.50134 445.11795 271.26367Q444.15674 272.2249 442.9856 272.20282Q441.8255 272.16965 440.75378 271.09796Q439.64893 269.9931 439.61578 268.8109Q439.5716 267.61768 440.47757 266.71167Q441.36145 265.8278 442.5105 265.87198Q443.6706 265.90515 444.7644 266.99893Q444.8307 267.06525 444.9633 267.1978L441.68185 270.47925Q442.45526 271.16425 443.20654 271.18634Q443.9468 271.1974 444.49924 270.64496Q444.90802 270.23618 444.98538 269.73898Q445.0627 269.2197 444.7644 268.58994ZM441.11838 269.82736L443.57117 267.3746Q442.9635 266.85532 442.45526 266.81113Q441.65976 266.7448 441.09628 267.3083Q440.577 267.82758 440.56595 268.52365Q440.56595 269.20865 441.11838 269.82736ZM448.11212 268.07065L443.71478 263.67334L444.38876 262.99936L445.05167 263.6623Q444.84174 262.94412 444.90802 262.59058Q444.97433 262.21494 445.23947 261.94977Q445.61514 261.5741 446.23386 261.41943L446.6758 262.3696Q446.23386 262.4801 445.9687 262.74524Q445.71457 262.99936 445.67038 263.35294Q445.6262 263.6844 445.81403 264.0269Q446.07916 264.55722 446.5432 265.02124L448.85236 267.3304L448.11212 268.07065ZM453.28284 261.81717Q453.21652 262.59058 452.97348 263.1209Q452.74146 263.6402 452.2995 264.08212Q451.5703 264.81134 450.83005 264.84448Q450.08978 264.87762 449.53738 264.3252Q449.21695 264.0048 449.09543 263.59598Q448.96286 263.17615 449.05124 262.7784Q449.12857 262.3696 449.34955 261.99396Q449.49316 261.71774 449.89093 261.2095Q450.68643 260.21515 450.96265 259.62958Q450.80795 259.47488 450.7748 259.44174Q450.31076 258.9777 449.91302 258.9998Q449.3827 259.044 448.8192 259.60748Q448.29993 260.12674 448.23364 260.5687Q448.1563 260.99957 448.4988 261.58514L447.67017 262.21494Q447.30557 261.65146 447.25034 261.13217Q447.19507 260.61288 447.47128 260.0273Q447.7475 259.44174 448.31097 258.87827Q448.87445 258.3148 449.3606 258.0938Q449.84674 257.87283 450.21133 257.906Q450.57593 257.93915 450.95157 258.18222Q451.17255 258.33688 451.66974 258.83408L452.6641 259.82843Q453.70267 260.867 454.02307 261.09903Q454.35452 261.31998 454.7523 261.43048L453.96783 262.21494Q453.62534 262.09338 453.28284 261.81717ZM451.54822 260.21515Q451.30515 260.78967 450.62012 261.71774Q450.22238 262.24808 450.12296 262.5243Q450.01245 262.78946 450.05664 263.05463Q450.1119 263.30872 450.31076 263.5076Q450.60907 263.8059 451.02893 263.7838Q451.4598 263.75067 451.89072 263.31976Q452.3216 262.8889 452.46524 262.3696Q452.6199 261.83926 452.44315 261.35315Q452.31055 260.97748 451.82443 260.49136L451.54822 260.21515ZM456.1223 260.78967L456.962 260.17093Q457.33765 260.4582 457.70224 260.40295Q458.1884 260.33667 458.66345 259.86157Q459.18274 259.34232 459.24905 258.85617Q459.3264 258.35898 459.06122 257.89496Q458.89548 257.59662 458.15524 256.87848Q458.24362 257.93915 457.5144 258.66833Q456.60843 259.5743 455.45938 259.41965Q454.2993 259.2539 453.3933 258.34793Q452.76355 257.71817 452.4542 256.96686Q452.14484 256.19348 452.28845 255.47531Q452.4321 254.75716 453.01767 254.17159Q453.8021 253.38713 454.9401 253.50867L454.4098 252.97835L455.0948 252.29333L458.89548 256.09402Q459.923 257.12155 460.14398 257.76236Q460.36493 258.40317 460.15503 259.09924Q459.95615 259.80634 459.29324 260.46927Q458.5088 261.2537 457.6691 261.3863Q456.8294 261.51886 456.1223 260.78967ZM454.10043 257.53033Q454.96222 258.39212 455.70245 258.44736Q456.44272 258.50262 456.962 257.98334Q457.48126 257.46405 457.42603 256.7238Q457.38184 255.9725 456.54214 255.13281Q455.7356 254.32626 454.96222 254.28207Q454.19986 254.22682 453.69162 254.73506Q453.19443 255.23224 453.2497 255.9946Q453.30493 256.73483 454.10043 257.53033ZM462.44208 250.91226L463.30386 250.22725Q463.80103 251.07799 463.6795 251.95082Q463.55798 252.82367 462.79562 253.58601Q461.8344 254.54724 460.66324 254.52513Q459.50314 254.49199 458.43146 253.42029Q457.3266 252.31543 457.29346 251.13324Q457.24927 249.93999 458.15524 249.03401Q459.03912 248.15013 460.18817 248.19432Q461.34827 248.22746 462.44208 249.32127Q462.50836 249.38756 462.64093 249.52014L459.35953 252.80156Q460.13293 253.48657 460.88422 253.50867Q461.62448 253.51971 462.1769 252.9673Q462.5857 252.5585 462.66302 252.06131Q462.7404 251.54204 462.44208 250.91226ZM458.79605 252.1497L461.24884 249.69693Q460.64114 249.17764 460.13293 249.13345Q459.33743 249.06715 458.77396 249.63063Q458.25467 250.14992 458.24362 250.84598Q458.24362 251.53098 458.79605 252.1497Z" fill-rule="nonzero"/><path fill="#4285f4" d="M113.0 17.85C113.0 17.297716 113.447716 16.85 114.0 16.85L124.0 16.85C124.552284 16.85 125.0 17.297716 125.0 17.85L125.0 27.85C125.0 28.402285 124.552284 28.85 124.0 28.85L114.0 28.85C113.447716 28.85 113.0 28.402285 113.0 27.85Z" fill-rule="nonzero"/><path fill="#1a1a1a" d="M133.9375 26.85L133.9375 18.25625L137.75 18.25625Q138.90625 18.25625 139.5 18.490625Q140.09375 18.725 140.45312 19.31875Q140.8125 19.896875 140.8125 20.6Q140.8125 21.521875 140.21875 22.146875Q139.625 22.771875 138.39062 22.94375Q138.84375 23.1625 139.07812 23.365625Q139.57812 23.81875 140.01562 24.50625L141.51562 26.85L140.07812 26.85L138.95312 25.06875Q138.45312 24.2875 138.125 23.88125Q137.8125 23.475 137.54688 23.31875Q137.29688 23.146875 137.03125 23.06875Q136.84375 23.0375 136.40625 23.0375L135.07812 23.0375L135.07812 26.85L133.9375 26.85ZM135.07812 22.053125L137.53125 22.053125Q138.29688 22.053125 138.73438 21.896875Q139.1875 21.725 139.40625 21.38125Q139.64062 21.021875 139.64062 20.6Q139.64062 19.990625 139.1875 19.6Q138.75 19.209375 137.79688 19.209375L135.07812 19.209375L135.07812 22.053125ZM146.85938 26.084375Q146.26562 26.584375 145.71875 26.7875Q145.1875 26.990625 144.5625 26.990625Q143.53125 26.990625 142.98438 26.490625Q142.4375 25.990625 142.4375 25.209375Q142.4375 24.75625 142.64062 24.38125Q142.84375 23.990625 143.1875 23.771875Q143.53125 23.5375 143.95312 23.428125Q144.25 23.334375 144.89062 23.25625Q146.15625 23.115625 146.76562 22.896875Q146.76562 22.678125 146.76562 22.63125Q146.76562 21.975 146.46875 21.709375Q146.0625 21.365625 145.26562 21.365625Q144.53125 21.365625 144.17188 21.63125Q143.8125 21.88125 143.64062 22.5375L142.60938 22.396875Q142.75 21.740625 143.07812 21.334375Q143.40625 20.928125 144.01562 20.709375Q144.625 20.490625 145.42188 20.490625Q146.21875 20.490625 146.71875 20.678125Q147.21875 20.865625 147.45312 21.146875Q147.6875 21.428125 147.78125 21.865625Q147.82812 22.13125 147.82812 22.834375L147.82812 24.240625Q147.82812 25.709375 147.89062 26.1Q147.96875 26.490625 148.17188 26.85L147.0625 26.85Q146.90625 26.521875 146.85938 26.084375ZM146.76562 23.725Q146.1875 23.959375 145.04688 24.13125Q144.39062 24.225 144.125 24.35Q143.85938 24.459375 143.70312 24.678125Q143.5625 24.896875 143.5625 25.178125Q143.5625 25.6 143.875 25.88125Q144.20312 26.1625 144.8125 26.1625Q145.42188 26.1625 145.89062 25.896875Q146.375 25.63125 146.59375 25.1625Q146.76562 24.803125 146.76562 24.115625L146.76562 23.725ZM149.79688 26.85L149.79688 20.63125L150.73438 20.63125L150.73438 21.50625Q151.42188 20.490625 152.71875 20.490625Q153.28125 20.490625 153.75 20.69375Q154.23438 20.896875 154.46875 21.225Q154.70312 21.553125 154.79688 21.990625Q154.84375 22.2875 154.84375 23.021875L154.84375 26.85L153.79688 26.85L153.79688 23.06875Q153.79688 22.4125 153.67188 22.1Q153.54688 21.7875 153.23438 21.6Q152.92188 21.396875 152.5 21.396875Q151.82812 21.396875 151.32812 21.834375Q150.84375 22.25625 150.84375 23.44375L150.84375 26.85L149.79688 26.85ZM160.82812 26.85L160.82812 26.06875Q160.23438 26.990625 159.09375 26.990625Q158.34375 26.990625 157.71875 26.584375Q157.09375 26.1625 156.75 25.428125Q156.40625 24.69375 156.40625 23.740625Q156.40625 22.81875 156.71875 22.053125Q157.03125 21.2875 157.65625 20.896875Q158.28125 20.490625 159.04688 20.490625Q159.60938 20.490625 160.04688 20.725Q160.48438 20.959375 160.76562 21.334375L160.76562 18.25625L161.8125 18.25625L161.8125 26.85L160.82812 26.85ZM157.5 23.740625Q157.5 24.94375 158.0 25.5375Q158.5 26.115625 159.1875 26.115625Q159.875 26.115625 160.35938 25.553125Q160.84375 24.990625 160.84375 23.834375Q160.84375 22.553125 160.34375 21.959375Q159.85938 21.365625 159.14062 21.365625Q158.4375 21.365625 157.96875 21.94375Q157.5 22.50625 157.5 23.740625ZM163.40625 23.740625Q163.40625 22.00625 164.35938 21.178125Q165.15625 20.490625 166.3125 20.490625Q167.59375 20.490625 168.40625 21.334375Q169.23438 22.1625 169.23438 23.646875Q169.23438 24.85 168.875 25.5375Q168.51562 26.225 167.8125 26.615625Q167.125 26.990625 166.3125 26.990625Q165.01562 26.990625 164.20312 26.1625Q163.40625 25.31875 163.40625 23.740625ZM164.48438 23.740625Q164.48438 24.928125 165.0 25.521875Q165.53125 26.115625 166.3125 26.115625Q167.10938 26.115625 167.625 25.521875Q168.14062 24.928125 168.14062 23.709375Q168.14062 22.553125 167.60938 21.959375Q167.09375 21.365625 166.3125 21.365625Q165.53125 21.365625 165.0 21.959375Q164.48438 22.5375 164.48438 23.740625ZM170.79688 26.85L170.79688 20.63125L171.73438 20.63125L171.73438 21.50625Q172.03125 21.0375 172.51562 20.771875Q173.0 20.490625 173.625 20.490625Q174.3125 20.490625 174.75 20.771875Q175.20312 21.053125 175.375 21.56875Q176.125 20.490625 177.29688 20.490625Q178.23438 20.490625 178.71875 21.00625Q179.21875 21.50625 179.21875 22.584375L179.21875 26.85L178.17188 26.85L178.17188 22.928125Q178.17188 22.303125 178.0625 22.021875Q177.96875 21.740625 177.70312 21.56875Q177.4375 21.396875 177.0625 21.396875Q176.40625 21.396875 175.96875 21.834375Q175.54688 22.271875 175.54688 23.240625L175.54688 26.85L174.48438 26.85L174.48438 22.803125Q174.48438 22.1 174.21875 21.75625Q173.96875 21.396875 173.39062 21.396875Q172.9375 21.396875 172.5625 21.63125Q172.1875 21.865625 172.01562 22.31875Q171.84375 22.771875 171.84375 23.615625L171.84375 26.85L170.79688 26.85Z" fill-rule="nonzero"/><path fill="#ea4335" d="M196.0 17.85C196.0 17.297716 196.44771 16.85 197.0 16.85L207.0 16.85C207.55229 16.85 208.0 17.297716 208.0 17.85L208.0 27.85C208.0 28.402285 207.55229 28.85 207.0 28.85L197.0 28.85C196.44771 28.85 196.0 28.402285 196.0 27.85Z" fill-rule="nonzero"/><path fill="#1a1a1a" d="M216.96875 26.85L216.96875 18.25625L218.09375 18.25625L218.09375 21.7875L222.5625 21.7875L222.5625 18.25625L223.70312 18.25625L223.70312 26.85L222.5625 26.85L222.5625 22.803125L218.09375 22.803125L218.09375 26.85L216.96875 26.85ZM224.98438 26.85L228.28125 18.25625L229.5 18.25625L233.01562 26.85L231.73438 26.85L230.71875 24.240625L227.14062 24.240625L226.1875 26.85L224.98438 26.85ZM227.46875 23.31875L230.375 23.31875L229.48438 20.94375Q229.0625 19.865625 228.875 19.1625Q228.70312 19.990625 228.40625 20.803125L227.46875 23.31875ZM233.875 26.85L233.875 18.25625L235.01562 18.25625L235.01562 25.834375L239.25 25.834375L239.25 26.85L233.875 26.85ZM240.875 26.85L240.875 18.25625L242.01562 18.25625L242.01562 25.834375L246.25 25.834375L246.25 26.85L240.875 26.85ZM247.54688 24.084375L248.60938 23.990625Q248.6875 24.646875 248.96875 25.053125Q249.25 25.459375 249.82812 25.725Q250.42188 25.975 251.15625 25.975Q251.79688 25.975 252.29688 25.7875Q252.79688 25.584375 253.03125 25.25625Q253.28125 24.9125 253.28125 24.521875Q253.28125 24.115625 253.04688 23.81875Q252.8125 23.50625 252.28125 23.303125Q251.92188 23.1625 250.73438 22.88125Q249.5625 22.6 249.09375 22.35Q248.46875 22.021875 248.17188 21.553125Q247.875 21.06875 247.875 20.475Q247.875 19.834375 248.23438 19.271875Q248.60938 18.69375 249.3125 18.4125Q250.03125 18.115625 250.89062 18.115625Q251.84375 18.115625 252.57812 18.428125Q253.3125 18.725 253.70312 19.334375Q254.09375 19.928125 254.125 20.678125L253.03125 20.75625Q252.9375 19.94375 252.42188 19.5375Q251.92188 19.115625 250.9375 19.115625Q249.90625 19.115625 249.4375 19.490625Q248.96875 19.865625 248.96875 20.396875Q248.96875 20.865625 249.29688 21.1625Q249.625 21.459375 251.0 21.771875Q252.39062 22.084375 252.90625 22.31875Q253.65625 22.678125 254.01562 23.209375Q254.375 23.725 254.375 24.428125Q254.375 25.115625 253.98438 25.725Q253.59375 26.31875 252.85938 26.6625Q252.125 26.990625 251.20312 26.990625Q250.03125 26.990625 249.23438 26.6625Q248.45312 26.31875 248.0 25.63125Q247.5625 24.94375 247.54688 24.084375Z" fill-rule="nonzero"/><path fill="#fbbc04" d="M271.0 17.85C271.0 17.297716 271.44772 16.85 272.0 16.85L282.0 16.85C282.55228 16.85 283.0 17.297716 283.0 17.85L283.0 27.85C283.0 28.402285 282.55228 28.85 282.0 28.85L272.0 28.85C271.44772 28.85 271.0 28.402285 271.0 27.85Z" fill-rule="nonzero"/><path fill="#1a1a1a" d="M291.92188 26.85L291.92188 18.25625L295.17188 18.25625Q296.01562 18.25625 296.46875 18.334375Q297.10938 18.44375 297.53125 18.740625Q297.96875 19.0375 298.21875 19.56875Q298.48438 20.1 298.48438 20.740625Q298.48438 21.834375 297.78125 22.6Q297.09375 23.35 295.26562 23.35L293.0625 23.35L293.0625 26.85L291.92188 26.85ZM293.0625 22.35L295.28125 22.35Q296.39062 22.35 296.84375 21.94375Q297.3125 21.521875 297.3125 20.771875Q297.3125 20.240625 297.03125 19.865625Q296.76562 19.475 296.32812 19.35Q296.03125 19.271875 295.26562 19.271875L293.0625 19.271875L293.0625 22.35ZM299.78125 26.85L299.78125 20.63125L300.73438 20.63125L300.73438 21.56875Q301.09375 20.9125 301.39062 20.709375Q301.70312 20.490625 302.07812 20.490625Q302.60938 20.490625 303.15625 20.81875L302.79688 21.803125Q302.40625 21.56875 302.03125 21.56875Q301.67188 21.56875 301.39062 21.7875Q301.125 21.990625 301.01562 22.365625Q300.82812 22.928125 300.82812 23.584375L300.82812 26.85L299.78125 26.85ZM303.40625 23.740625Q303.40625 22.00625 304.35938 21.178125Q305.15625 20.490625 306.3125 20.490625Q307.59375 20.490625 308.40625 21.334375Q309.23438 22.1625 309.23438 23.646875Q309.23438 24.85 308.875 25.5375Q308.51562 26.225 307.8125 26.615625Q307.125 26.990625 306.3125 26.990625Q305.01562 26.990625 304.20312 26.1625Q303.40625 25.31875 303.40625 23.740625ZM304.48438 23.740625Q304.48438 24.928125 305.0 25.521875Q305.53125 26.115625 306.3125 26.115625Q307.10938 26.115625 307.625 25.521875Q308.14062 24.928125 308.14062 23.709375Q308.14062 22.553125 307.60938 21.959375Q307.09375 21.365625 306.3125 21.365625Q305.53125 21.365625 305.0 21.959375Q304.48438 22.5375 304.48438 23.740625ZM310.79688 29.240625L310.79688 20.63125L311.75 20.63125L311.75 21.428125Q312.09375 20.959375 312.51562 20.725Q312.95312 20.490625 313.5625 20.490625Q314.35938 20.490625 314.96875 20.896875Q315.57812 21.303125 315.875 22.053125Q316.1875 22.803125 316.1875 23.69375Q316.1875 24.646875 315.84375 25.4125Q315.51562 26.178125 314.85938 26.584375Q314.20312 26.990625 313.48438 26.990625Q312.95312 26.990625 312.53125 26.771875Q312.10938 26.5375 311.84375 26.209375L311.84375 29.240625L310.79688 29.240625ZM311.75 23.771875Q311.75 24.975 312.23438 25.553125Q312.71875 26.115625 313.40625 26.115625Q314.10938 26.115625 314.60938 25.521875Q315.10938 24.928125 315.10938 23.678125Q315.10938 22.490625 314.625 21.9125Q314.14062 21.31875 313.45312 21.31875Q312.78125 21.31875 312.26562 21.94375Q311.75 22.56875 311.75 23.771875ZM317.40625 23.740625Q317.40625 22.00625 318.35938 21.178125Q319.15625 20.490625 320.3125 20.490625Q321.59375 20.490625 322.40625 21.334375Q323.23438 22.1625 323.23438 23.646875Q323.23438 24.85 322.875 25.5375Q322.51562 26.225 321.8125 26.615625Q321.125 26.990625 320.3125 26.990625Q319.01562 26.990625 318.20312 26.1625Q317.40625 25.31875 317.40625 23.740625ZM318.48438 23.740625Q318.48438 24.928125 319.0 25.521875Q319.53125 26.115625 320.3125 26.115625Q321.10938 26.115625 321.625 25.521875Q322.14062 24.928125 322.14062 23.709375Q322.14062 22.553125 321.60938 21.959375Q321.09375 21.365625 320.3125 21.365625Q319.53125 21.365625 319.0 21.959375Q318.48438 22.5375 318.48438 23.740625ZM324.375 24.990625L325.40625 24.834375Q325.5 25.459375 325.89062 25.7875Q326.29688 26.115625 327.03125 26.115625Q327.75 26.115625 328.09375 25.834375Q328.45312 25.5375 328.45312 25.13125Q328.45312 24.771875 328.14062 24.56875Q327.92188 24.428125 327.0625 24.209375Q325.90625 23.9125 325.45312 23.709375Q325.01562 23.490625 324.78125 23.115625Q324.54688 22.740625 324.54688 22.271875Q324.54688 21.865625 324.73438 21.50625Q324.92188 21.146875 325.25 20.9125Q325.5 20.740625 325.92188 20.615625Q326.34375 20.490625 326.84375 20.490625Q327.5625 20.490625 328.10938 20.709375Q328.67188 20.9125 328.9375 21.271875Q329.20312 21.63125 329.29688 22.225L328.26562 22.365625Q328.20312 21.896875 327.85938 21.63125Q327.53125 21.35 326.90625 21.35Q326.1875 21.35 325.875 21.6Q325.5625 21.834375 325.5625 22.1625Q325.5625 22.365625 325.6875 22.521875Q325.82812 22.69375 326.09375 22.803125Q326.25 22.865625 327.03125 23.06875Q328.15625 23.38125 328.59375 23.56875Q329.03125 23.75625 329.28125 24.115625Q329.53125 24.475 329.53125 25.021875Q329.53125 25.553125 329.21875 26.021875Q328.92188 26.475 328.34375 26.740625Q327.76562 26.990625 327.03125 26.990625Q325.8125 26.990625 325.17188 26.490625Q324.54688 25.975 324.375 24.990625ZM335.04688 24.85L336.14062 24.975Q335.89062 25.928125 335.1875 26.459375Q334.48438 26.990625 333.40625 26.990625Q332.04688 26.990625 331.23438 26.146875Q330.4375 25.303125 330.4375 23.7875Q330.4375 22.225 331.25 21.365625Q332.0625 20.490625 333.34375 20.490625Q334.59375 20.490625 335.375 21.334375Q336.17188 22.178125 336.17188 23.725Q336.17188 23.81875 336.17188 24.00625L331.53125 24.00625Q331.59375 25.0375 332.10938 25.584375Q332.625 26.115625 333.40625 26.115625Q333.98438 26.115625 334.39062 25.81875Q334.8125 25.50625 335.04688 24.85ZM331.59375 23.146875L335.0625 23.146875Q335.0 22.35 334.67188 21.959375Q334.15625 21.35 333.35938 21.35Q332.625 21.35 332.125 21.834375Q331.64062 22.31875 331.59375 23.146875ZM341.82812 26.85L341.82812 26.06875Q341.23438 26.990625 340.09375 26.990625Q339.34375 26.990625 338.71875 26.584375Q338.09375 26.1625 337.75 25.428125Q337.40625 24.69375 337.40625 23.740625Q337.40625 22.81875 337.71875 22.053125Q338.03125 21.2875 338.65625 20.896875Q339.28125 20.490625 340.04688 20.490625Q340.60938 20.490625 341.04688 20.725Q341.48438 20.959375 341.76562 21.334375L341.76562 18.25625L342.8125 18.25625L342.8125 26.85L341.82812 26.85ZM338.5 23.740625Q338.5 24.94375 339.0 25.5375Q339.5 26.115625 340.1875 26.115625Q340.875 26.115625 341.35938 25.553125Q341.84375 24.990625 341.84375 23.834375Q341.84375 22.553125 341.34375 21.959375Q340.85938 21.365625 340.14062 21.365625Q339.4375 21.365625 338.96875 21.94375Q338.5 22.50625 338.5 23.740625ZM349.8125 29.38125Q348.9375 28.271875 348.32812 26.803125Q347.73438 25.31875 347.73438 23.740625Q347.73438 22.35 348.17188 21.06875Q348.70312 19.584375 349.8125 18.115625L350.5625 18.115625Q349.85938 19.334375 349.625 19.85Q349.26562 20.6625 349.0625 21.5375Q348.8125 22.63125 348.8125 23.740625Q348.8125 26.56875 350.5625 29.38125L349.8125 29.38125ZM351.92188 26.85L351.92188 18.25625L354.89062 18.25625Q355.89062 18.25625 356.42188 18.38125Q357.15625 18.553125 357.67188 18.990625Q358.35938 19.56875 358.6875 20.475Q359.03125 21.365625 359.03125 22.50625Q359.03125 23.490625 358.79688 24.240625Q358.57812 24.990625 358.21875 25.490625Q357.85938 25.990625 357.42188 26.271875Q357.0 26.553125 356.40625 26.709375Q355.8125 26.85 355.03125 26.85L351.92188 26.85ZM353.0625 25.834375L354.89062 25.834375Q355.75 25.834375 356.23438 25.678125Q356.71875 25.521875 357.0 25.225Q357.40625 24.834375 357.625 24.146875Q357.85938 23.459375 357.85938 22.490625Q357.85938 21.146875 357.40625 20.428125Q356.96875 19.69375 356.34375 19.44375Q355.875 19.271875 354.875 19.271875L353.0625 19.271875L353.0625 25.834375ZM359.98438 26.85L363.28125 18.25625L364.5 18.25625L368.01562 26.85L366.73438 26.85L365.71875 24.240625L362.14062 24.240625L361.1875 26.85L359.98438 26.85ZM362.46875 23.31875L365.375 23.31875L364.48438 20.94375Q364.0625 19.865625 363.875 19.1625Q363.70312 19.990625 363.40625 20.803125L362.46875 23.31875ZM368.89062 26.85L368.89062 18.25625L370.60938 18.25625L372.64062 24.334375Q372.92188 25.19375 373.04688 25.615625Q373.1875 25.146875 373.5 24.240625L375.5625 18.25625L377.09375 18.25625L377.09375 26.85L376.0 26.85L376.0 19.6625L373.5 26.85L372.46875 26.85L369.98438 19.5375L369.98438 26.85L368.89062 26.85ZM384.5625 18.25625L385.70312 18.25625L385.70312 23.225Q385.70312 24.521875 385.40625 25.2875Q385.10938 26.0375 384.34375 26.521875Q383.57812 26.990625 382.34375 26.990625Q381.14062 26.990625 380.35938 26.584375Q379.59375 26.1625 379.26562 25.38125Q378.9375 24.584375 378.9375 23.225L378.9375 18.25625L380.07812 18.25625L380.07812 23.209375Q380.07812 24.334375 380.28125 24.865625Q380.5 25.396875 381.0 25.69375Q381.51562 25.975 382.25 25.975Q383.5 25.975 384.03125 25.4125Q384.5625 24.834375 384.5625 23.209375L384.5625 18.25625ZM387.54688 24.084375L388.60938 23.990625Q388.6875 24.646875 388.96875 25.053125Q389.25 25.459375 389.82812 25.725Q390.42188 25.975 391.15625 25.975Q391.79688 25.975 392.29688 25.7875Q392.79688 25.584375 393.03125 25.25625Q393.28125 24.9125 393.28125 24.521875Q393.28125 24.115625 393.04688 23.81875Q392.8125 23.50625 392.28125 23.303125Q391.92188 23.1625 390.73438 22.88125Q389.5625 22.6 389.09375 22.35Q388.46875 22.021875 388.17188 21.553125Q387.875 21.06875 387.875 20.475Q387.875 19.834375 388.23438 19.271875Q388.60938 18.69375 389.3125 18.4125Q390.03125 18.115625 390.89062 18.115625Q391.84375 18.115625 392.57812 18.428125Q393.3125 18.725 393.70312 19.334375Q394.09375 19.928125 394.125 20.678125L393.03125 20.75625Q392.9375 19.94375 392.42188 19.5375Q391.92188 19.115625 390.9375 19.115625Q389.90625 19.115625 389.4375 19.490625Q388.96875 19.865625 388.96875 20.396875Q388.96875 20.865625 389.29688 21.1625Q389.625 21.459375 391.0 21.771875Q392.39062 22.084375 392.90625 22.31875Q393.65625 22.678125 394.01562 23.209375Q394.375 23.725 394.375 24.428125Q394.375 25.115625 393.98438 25.725Q393.59375 26.31875 392.85938 26.6625Q392.125 26.990625 391.20312 26.990625Q390.03125 26.990625 389.23438 26.6625Q388.45312 26.31875 388.0 25.63125Q387.5625 24.94375 387.54688 24.084375ZM396.48438 29.38125L395.73438 29.38125Q397.48438 26.56875 397.48438 23.740625Q397.48438 22.646875 397.23438 21.553125Q397.03125 20.678125 396.67188 19.865625Q396.4375 19.35 395.73438 18.115625L396.48438 18.115625Q397.57812 19.584375 398.10938 21.06875Q398.5625 22.35 398.5625 23.740625Q398.5625 25.31875 397.95312 26.803125Q397.34375 28.271875 396.48438 29.38125Z" fill-rule="nonzero"/></svg>