<svg version="1.1" viewBox="0.0 0.0 504.0 312.0" fill="none" stroke="none" stroke-linecap="square" stroke-miterlimit="10" width="504" height="312" xmlns:xlink="http://www.w3.org/1999/xlink" xmlns="http://www.w3.org/2000/svg"><path fill="#ffffff" d="M0 0L504.0 0L504.0 312.0L0 312.0L0 0Z" fill-rule="nonzero"/><path stroke="#333333" stroke-width="1.0" stroke-linecap="butt" d="M77.5 232.5L488.5 232.5" fill-rule="nonzero"/><path stroke="#cccccc" stroke-width="1.0" stroke-linecap="butt" d="M77.5 186.5L488.5 186.5" fill-rule="nonzero"/><path stroke="#cccccc" stroke-width="1.0" stroke-linecap="butt" d="M77.5 139.5L488.5 139.5" fill-rule="nonzero"/><path stroke="#cccccc" stroke-width="1.0" stroke-linecap="butt" d="M77.5 93.5L488.5 93.5" fill-rule="nonzero"/><path stroke="#cccccc" stroke-width="1.0" stroke-linecap="butt" d="M77.5 47.5L488.5 47.5" fill-rule="nonzero"/><clipPath id="id_0"><path d="M77.6 47.0L488.4 47.0L488.4 232.41724L77.6 232.41724L77.6 47.0Z" clip-rule="nonzero"/></clipPath><path stroke="#000000" stroke-width="0.0" stroke-linecap="butt" stroke-opacity="0.0" clip-path="url(#id_0)" d="M108.0 232.0L97.0 232.0L97.0 49.0C97.0 47.89543 97.89543 47.0 99.0 47.0L106.0 47.0C107.10457 47.0 108.0 47.89543 108.0 49.0Z" fill-rule="nonzero"/><path fill="#4285f4" clip-path="url(#id_0)" d="M108.0 232.0L97.0 232.0L97.0 49.0C97.0 47.89543 97.89543 47.0 99.0 47.0L106.0 47.0C107.10457 47.0 108.0 47.89543 108.0 49.0Z" fill-rule="nonzero"/><path stroke="#000000" stroke-width="0.0" stroke-linecap="butt" stroke-opacity="0.0" clip-path="url(#id_0)" d="M164.0 232.0L153.0 232.0L153.0 49.0C153.0 47.89543 153.89543 47.0 155.0 47.0L162.0 47.0C163.10457 47.0 164.0 47.89543 164.0 49.0Z" fill-rule="nonzero"/><path fill="#4285f4" clip-path="url(#id_0)" d="M164.0 232.0L153.0 232.0L153.0 49.0C153.0 47.89543 153.89543 47.0 155.0 47.0L162.0 47.0C163.10457 47.0 164.0 47.89543 164.0 49.0Z" fill-rule="nonzero"/><path stroke="#000000" stroke-width="0.0" stroke-linecap="butt" stroke-opacity="0.0" clip-path="url(#id_0)" d="M220.0 232.0L209.0 232.0L209.0 49.0C209.0 47.89543 209.89543 47.0 211.0 47.0L218.0 47.0C219.10457 47.0 220.0 47.89543 220.0 49.0Z" fill-rule="nonzero"/><path fill="#4285f4" clip-path="url(#id_0)" d="M220.0 232.0L209.0 232.0L209.0 49.0C209.0 47.89543 209.89543 47.0 211.0 47.0L218.0 47.0C219.10457 47.0 220.0 47.89543 220.0 49.0Z" fill-rule="nonzero"/><path stroke="#000000" stroke-width="0.0" stroke-linecap="butt" stroke-opacity="0.0" clip-path="url(#id_0)" d="M276.0 232.0L265.0 232.0L265.0 49.0C265.0 47.89543 265.89542 47.0 267.0 47.0L274.0 47.0C275.10458 47.0 276.0 47.89543 276.0 49.0Z" fill-rule="nonzero"/><path fill="#4285f4" clip-path="url(#id_0)" d="M276.0 232.0L265.0 232.0L265.0 49.0C265.0 47.89543 265.89542 47.0 267.0 47.0L274.0 47.0C275.10458 47.0 276.0 47.89543 276.0 49.0Z" fill-rule="nonzero"/><path stroke="#000000" stroke-width="0.0" stroke-linecap="butt" stroke-opacity="0.0" clip-path="url(#id_0)" d="M332.0 232.0L321.0 232.0L321.0 49.0C321.0 47.89543 321.89542 47.0 323.0 47.0L330.0 47.0C331.10458 47.0 332.0 47.89543 332.0 49.0Z" fill-rule="nonzero"/><path fill="#4285f4" clip-path="url(#id_0)" d="M332.0 232.0L321.0 232.0L321.0 49.0C321.0 47.89543 321.89542 47.0 323.0 47.0L330.0 47.0C331.10458 47.0 332.0 47.89543 332.0 49.0Z" fill-rule="nonzero"/><path stroke="#000000" stroke-width="0.0" stroke-linecap="butt" stroke-opacity="0.0" clip-path="url(#id_0)" d="M388.0 232.0L377.0 232.0L377.0 49.0C377.0 47.89543 377.89542 47.0 379.0 47.0L386.0 47.0C387.10458 47.0 388.0 47.89543 388.0 49.0Z" fill-rule="nonzero"/><path fill="#4285f4" clip-path="url(#id_0)" d="M388.0 232.0L377.0 232.0L377.0 49.0C377.0 47.89543 377.89542 47.0 379.0 47.0L386.0 47.0C387.10458 47.0 388.0 47.89543 388.0 49.0Z" fill-rule="nonzero"/><path stroke="#000000" stroke-width="0.0" stroke-linecap="butt" stroke-opacity="0.0" clip-path="url(#id_0)" d="M444.0 232.0L433.0 232.0L433.0 49.0C433.0 47.89543 433.89542 47.0 435.0 47.0L442.0 47.0C443.10458 47.0 444.0 47.89543 444.0 49.0Z" fill-rule="nonzero"/><path fill="#4285f4" clip-path="url(#id_0)" d="M444.0 232.0L433.0 232.0L433.0 49.0C433.0 47.89543 433.89542 47.0 435.0 47.0L442.0 47.0C443.10458 47.0 444.0 47.89543 444.0 49.0Z" fill-rule="nonzero"/><path stroke="#000000" stroke-width="0.0" stroke-linecap="butt" stroke-opacity="0.0" clip-path="url(#id_0)" d="M120.0 232.0L109.0 232.0L109.0 56.0C109.0 54.89543 109.89543 54.0 111.0 54.0L118.0 54.0C119.10457 54.0 120.0 54.89543 120.0 56.0Z" fill-rule="nonzero"/><path fill="#ea4335" clip-path="url(#id_0)" d="M120.0 232.0L109.0 232.0L109.0 56.0C109.0 54.89543 109.89543 54.0 111.0 54.0L118.0 54.0C119.10457 54.0 120.0 54.89543 120.0 56.0Z" fill-rule="nonzero"/><path stroke="#000000" stroke-width="0.0" stroke-linecap="butt" stroke-opacity="0.0" clip-path="url(#id_0)" d="M176.0 232.0L165.0 232.0L165.0 61.0C165.0 59.89543 165.89543 59.0 167.0 59.0L174.0 59.0C175.10457 59.0 176.0 59.89543 176.0 61.0Z" fill-rule="nonzero"/><path fill="#ea4335" clip-path="url(#id_0)" d="M176.0 232.0L165.0 232.0L165.0 61.0C165.0 59.89543 165.89543 59.0 167.0 59.0L174.0 59.0C175.10457 59.0 176.0 59.89543 176.0 61.0Z" fill-rule="nonzero"/><path stroke="#000000" stroke-width="0.0" stroke-linecap="butt" stroke-opacity="0.0" clip-path="url(#id_0)" d="M232.0 232.0L221.0 232.0L221.0 50.0C221.0 48.89543 221.89543 48.0 223.0 48.0L230.0 48.0C231.10457 48.0 232.0 48.89543 232.0 50.0Z" fill-rule="nonzero"/><path fill="#ea4335" clip-path="url(#id_0)" d="M232.0 232.0L221.0 232.0L221.0 50.0C221.0 48.89543 221.89543 48.0 223.0 48.0L230.0 48.0C231.10457 48.0 232.0 48.89543 232.0 50.0Z" fill-rule="nonzero"/><path stroke="#000000" stroke-width="0.0" stroke-linecap="butt" stroke-opacity="0.0" clip-path="url(#id_0)" d="M288.0 232.0L277.0 232.0L277.0 50.0C277.0 48.89543 277.89542 48.0 279.0 48.0L286.0 48.0C287.10458 48.0 288.0 48.89543 288.0 50.0Z" fill-rule="nonzero"/><path fill="#ea4335" clip-path="url(#id_0)" d="M288.0 232.0L277.0 232.0L277.0 50.0C277.0 48.89543 277.89542 48.0 279.0 48.0L286.0 48.0C287.10458 48.0 288.0 48.89543 288.0 50.0Z" fill-rule="nonzero"/><path stroke="#000000" stroke-width="0.0" stroke-linecap="butt" stroke-opacity="0.0" clip-path="url(#id_0)" d="M344.0 232.0L333.0 232.0L333.0 55.0C333.0 53.89543 333.89542 53.0 335.0 53.0L342.0 53.0C343.10458 53.0 344.0 53.89543 344.0 55.0Z" fill-rule="nonzero"/><path fill="#ea4335" clip-path="url(#id_0)" d="M344.0 232.0L333.0 232.0L333.0 55.0C333.0 53.89543 333.89542 53.0 335.0 53.0L342.0 53.0C343.10458 53.0 344.0 53.89543 344.0 55.0Z" fill-rule="nonzero"/><path stroke="#000000" stroke-width="0.0" stroke-linecap="butt" stroke-opacity="0.0" clip-path="url(#id_0)" d="M400.0 232.0L389.0 232.0L389.0 50.0C389.0 48.89543 389.89542 48.0 391.0 48.0L398.0 48.0C399.10458 48.0 400.0 48.89543 400.0 50.0Z" fill-rule="nonzero"/><path fill="#ea4335" clip-path="url(#id_0)" d="M400.0 232.0L389.0 232.0L389.0 50.0C389.0 48.89543 389.89542 48.0 391.0 48.0L398.0 48.0C399.10458 48.0 400.0 48.89543 400.0 50.0Z" fill-rule="nonzero"/><path stroke="#000000" stroke-width="0.0" stroke-linecap="butt" stroke-opacity="0.0" clip-path="url(#id_0)" d="M456.0 232.0L445.0 232.0L445.0 54.0C445.0 52.89543 445.89542 52.0 447.0 52.0L454.0 52.0C455.10458 52.0 456.0 52.89543 456.0 54.0Z" fill-rule="nonzero"/><path fill="#ea4335" clip-path="url(#id_0)" d="M456.0 232.0L445.0 232.0L445.0 54.0C445.0 52.89543 445.89542 52.0 447.0 52.0L454.0 52.0C455.10458 52.0 456.0 52.89543 456.0 54.0Z" fill-rule="nonzero"/><path stroke="#000000" stroke-width="0.0" stroke-linecap="butt" stroke-opacity="0.0" clip-path="url(#id_0)" d="M132.0 232.0L121.0 232.0L121.0 123.0C121.0 121.89543 121.89543 121.0 123.0 121.0L130.0 121.0C131.10457 121.0 132.0 121.89543 132.0 123.0Z" fill-rule="nonzero"/><path fill="#fbbc04" clip-path="url(#id_0)" d="M132.0 232.0L121.0 232.0L121.0 123.0C121.0 121.89543 121.89543 121.0 123.0 121.0L130.0 121.0C131.10457 121.0 132.0 121.89543 132.0 123.0Z" fill-rule="nonzero"/><path stroke="#000000" stroke-width="0.0" stroke-linecap="butt" stroke-opacity="0.0" clip-path="url(#id_0)" d="M188.0 232.0L177.0 232.0L177.0 209.0C177.0 207.89543 177.89543 207.0 179.0 207.0L186.0 207.0C187.10457 207.0 188.0 207.89543 188.0 209.0Z" fill-rule="nonzero"/><path fill="#fbbc04" clip-path="url(#id_0)" d="M188.0 232.0L177.0 232.0L177.0 209.0C177.0 207.89543 177.89543 207.0 179.0 207.0L186.0 207.0C187.10457 207.0 188.0 207.89543 188.0 209.0Z" fill-rule="nonzero"/><path stroke="#000000" stroke-width="0.0" stroke-linecap="butt" stroke-opacity="0.0" clip-path="url(#id_0)" d="M244.0 232.0L233.0 232.0L233.0 113.0C233.0 111.89543 233.89543 111.0 235.0 111.0L242.0 111.0C243.10457 111.0 244.0 111.89543 244.0 113.0Z" fill-rule="nonzero"/><path fill="#fbbc04" clip-path="url(#id_0)" d="M244.0 232.0L233.0 232.0L233.0 113.0C233.0 111.89543 233.89543 111.0 235.0 111.0L242.0 111.0C243.10457 111.0 244.0 111.89543 244.0 113.0Z" fill-rule="nonzero"/><path stroke="#000000" stroke-width="0.0" stroke-linecap="butt" stroke-opacity="0.0" clip-path="url(#id_0)" d="M300.0 232.0L289.0 232.0L289.0 159.0C289.0 157.89543 289.89542 157.0 291.0 157.0L298.0 157.0C299.10458 157.0 300.0 157.89543 300.0 159.0Z" fill-rule="nonzero"/><path fill="#fbbc04" clip-path="url(#id_0)" d="M300.0 232.0L289.0 232.0L289.0 159.0C289.0 157.89543 289.89542 157.0 291.0 157.0L298.0 157.0C299.10458 157.0 300.0 157.89543 300.0 159.0Z" fill-rule="nonzero"/><path stroke="#000000" stroke-width="0.0" stroke-linecap="butt" stroke-opacity="0.0" clip-path="url(#id_0)" d="M356.0 232.0L345.0 232.0L345.0 131.0C345.0 129.89543 345.89542 129.0 347.0 129.0L354.0 129.0C355.10458 129.0 356.0 129.89543 356.0 131.0Z" fill-rule="nonzero"/><path fill="#fbbc04" clip-path="url(#id_0)" d="M356.0 232.0L345.0 232.0L345.0 131.0C345.0 129.89543 345.89542 129.0 347.0 129.0L354.0 129.0C355.10458 129.0 356.0 129.89543 356.0 131.0Z" fill-rule="nonzero"/><path stroke="#000000" stroke-width="0.0" stroke-linecap="butt" stroke-opacity="0.0" clip-path="url(#id_0)" d="M412.0 232.0L401.0 232.0L401.0 58.0C401.0 56.89543 401.89542 56.0 403.0 56.0L410.0 56.0C411.10458 56.0 412.0 56.89543 412.0 58.0Z" fill-rule="nonzero"/><path fill="#fbbc04" clip-path="url(#id_0)" d="M412.0 232.0L401.0 232.0L401.0 58.0C401.0 56.89543 401.89542 56.0 403.0 56.0L410.0 56.0C411.10458 56.0 412.0 56.89543 412.0 58.0Z" fill-rule="nonzero"/><path stroke="#000000" stroke-width="0.0" stroke-linecap="butt" stroke-opacity="0.0" clip-path="url(#id_0)" d="M468.0 232.0L457.0 232.0L457.0 132.0C457.0 130.89543 457.89542 130.0 459.0 130.0L466.0 130.0C467.10458 130.0 468.0 130.89543 468.0 132.0Z" fill-rule="nonzero"/><path fill="#fbbc04" clip-path="url(#id_0)" d="M468.0 232.0L457.0 232.0L457.0 132.0C457.0 130.89543 457.89542 130.0 459.0 130.0L466.0 130.0C467.10458 130.0 468.0 130.89543 468.0 132.0Z" fill-rule="nonzero"/><path fill="#000000" d="M26.599995 214.77812L18.006245 214.77812L18.006245 213.62187L24.756245 209.10625L18.006245 209.10625L18.006245 208.0125L26.599995 208.0125L26.599995 209.18437L19.849995 213.7L26.599995 213.7L26.599995 214.77812ZM23.49062 206.29375Q21.756245 206.29375 20.92812 205.34062Q20.24062 204.54375 20.24062 203.3875Q20.24062 202.10625 21.08437 201.29375Q21.912495 200.46562 23.39687 200.46562Q24.599995 200.46562 25.287495 200.825Q25.974995 201.18437 26.36562 201.8875Q26.74062 202.575 26.74062 203.3875Q26.74062 204.68437 25.912495 205.49687Q25.068745 206.29375 23.49062 206.29375ZM23.49062 205.21562Q24.67812 205.21562 25.27187 204.7Q25.86562 204.16875 25.86562 203.3875Q25.86562 202.59062 25.27187 202.075Q24.67812 201.55937 23.45937 201.55937Q22.30312 201.55937 21.70937 202.09062Q21.11562 202.60625 21.11562 203.3875Q21.11562 204.16875 21.70937 204.7Q22.287495 205.21562 23.49062 205.21562ZM26.599995 198.91875L20.381245 198.91875L20.381245 197.96562L21.318745 197.96562Q20.662495 197.60625 20.45937 197.30937Q20.24062 196.99687 20.24062 196.62187Q20.24062 196.09062 20.568745 195.54375L21.55312 195.90312Q21.318745 196.29375 21.318745 196.66875Q21.318745 197.02812 21.537495 197.30937Q21.74062 197.575 22.11562 197.68437Q22.67812 197.87187 23.33437 197.87187L26.599995 197.87187L26.599995 198.91875ZM26.599995 194.90312L20.381245 194.90312L20.381245 193.96562L21.256245 193.96562Q20.787495 193.66875 20.52187 193.18437Q20.24062 192.7 20.24062 192.075Q20.24062 191.3875 20.52187 190.95Q20.80312 190.49687 21.318745 190.325Q20.24062 189.575 20.24062 188.40312Q20.24062 187.46562 20.756245 186.98125Q21.256245 186.48125 22.33437 186.48125L26.599995 186.48125L26.599995 187.52812L22.67812 187.52812Q22.05312 187.52812 21.77187 187.6375Q21.49062 187.73125 21.318745 187.99687Q21.14687 188.2625 21.14687 188.6375Q21.14687 189.29375 21.58437 189.73125Q22.02187 190.15312 22.99062 190.15312L26.599995 190.15312L26.599995 191.21562L22.55312 191.21562Q21.849995 191.21562 21.506245 191.48125Q21.14687 191.73125 21.14687 192.30937Q21.14687 192.7625 21.381245 193.1375Q21.61562 193.5125 22.068745 193.68437Q22.52187 193.85625 23.36562 193.85625L26.599995 193.85625L26.599995 194.90312ZM25.83437 180.84062Q26.33437 181.43437 26.537495 181.98125Q26.74062 182.5125 26.74062 183.1375Q26.74062 184.16875 26.24062 184.71562Q25.74062 185.2625 24.95937 185.2625Q24.506245 185.2625 24.131245 185.05937Q23.74062 184.85625 23.52187 184.5125Q23.287495 184.16875 23.17812 183.74687Q23.08437 183.45 23.006245 182.80937Q22.86562 181.54375 22.64687 180.93437Q22.42812 180.93437 22.381245 180.93437Q21.724995 180.93437 21.45937 181.23125Q21.11562 181.6375 21.11562 182.43437Q21.11562 183.16875 21.381245 183.52812Q21.631245 183.8875 22.287495 184.05937L22.14687 185.09062Q21.49062 184.95 21.08437 184.62187Q20.67812 184.29375 20.45937 183.68437Q20.24062 183.075 20.24062 182.27812Q20.24062 181.48125 20.42812 180.98125Q20.61562 180.48125 20.89687 180.24687Q21.17812 180.0125 21.61562 179.91875Q21.881245 179.87187 22.58437 179.87187L23.99062 179.87187Q25.45937 179.87187 25.849995 179.80937Q26.24062 179.73125 26.599995 179.52812L26.599995 180.6375Q26.27187 180.79375 25.83437 180.84062ZM23.474995 180.93437Q23.70937 181.5125 23.881245 182.65312Q23.974995 183.30937 24.099995 183.575Q24.20937 183.84062 24.42812 183.99687Q24.64687 184.1375 24.92812 184.1375Q25.349995 184.1375 25.631245 183.825Q25.912495 183.49687 25.912495 182.8875Q25.912495 182.27812 25.64687 181.80937Q25.381245 181.325 24.912495 181.10625Q24.55312 180.93437 23.86562 180.93437L23.474995 180.93437ZM26.599995 177.93437L18.006245 177.93437L18.006245 176.87187L26.599995 176.87187L26.599995 177.93437ZM19.224995 174.90312L18.006245 174.90312L18.006245 173.84062L19.224995 173.84062L19.224995 174.90312ZM26.599995 174.90312L20.381245 174.90312L20.381245 173.84062L26.599995 173.84062L26.599995 174.90312ZM24.74062 172.325L24.58437 171.29375Q25.20937 171.2 25.537495 170.80937Q25.86562 170.40312 25.86562 169.66875Q25.86562 168.95 25.58437 168.60625Q25.287495 168.24687 24.881245 168.24687Q24.52187 168.24687 24.318745 168.55937Q24.17812 168.77812 23.95937 169.6375Q23.662495 170.79375 23.45937 171.24687Q23.24062 171.68437 22.86562 171.91875Q22.49062 172.15312 22.02187 172.15312Q21.61562 172.15312 21.256245 171.96562Q20.89687 171.77812 20.662495 171.45Q20.49062 171.2 20.36562 170.77812Q20.24062 170.35625 20.24062 169.85625Q20.24062 169.1375 20.45937 168.59062Q20.662495 168.02812 21.02187 167.7625Q21.381245 167.49687 21.974995 167.40312L22.11562 168.43437Q21.64687 168.49687 21.381245 168.84062Q21.099995 169.16875 21.099995 169.79375Q21.099995 170.5125 21.349995 170.825Q21.58437 171.1375 21.912495 171.1375Q22.11562 171.1375 22.27187 171.0125Q22.443745 170.87187 22.55312 170.60625Q22.61562 170.45 22.818745 169.66875Q23.131245 168.54375 23.318745 168.10625Q23.506245 167.66875 23.86562 167.41875Q24.224995 167.16875 24.77187 167.16875Q25.30312 167.16875 25.77187 167.48125Q26.224995 167.77812 26.49062 168.35625Q26.74062 168.93437 26.74062 169.66875Q26.74062 170.8875 26.24062 171.52812Q25.724995 172.15312 24.74062 172.325ZM24.599995 161.65312L24.724995 160.55937Q25.67812 160.80937 26.20937 161.5125Q26.74062 162.21562 26.74062 163.29375Q26.74062 164.65312 25.89687 165.46562Q25.05312 166.2625 23.537495 166.2625Q21.974995 166.2625 21.11562 165.45Q20.24062 164.6375 20.24062 163.35625Q20.24062 162.10625 21.08437 161.325Q21.92812 160.52812 23.474995 160.52812Q23.568745 160.52812 23.756245 160.52812L23.756245 165.16875Q24.787495 165.10625 25.33437 164.59062Q25.86562 164.075 25.86562 163.29375Q25.86562 162.71562 25.568745 162.30937Q25.256245 161.8875 24.599995 161.65312ZM22.89687 165.10625L22.89687 161.6375Q22.099995 161.7 21.70937 162.02812Q21.099995 162.54375 21.099995 163.34062Q21.099995 164.075 21.58437 164.575Q22.068745 165.05937 22.89687 165.10625ZM26.599995 154.87187L25.818745 154.87187Q26.74062 155.46562 26.74062 156.60625Q26.74062 157.35625 26.33437 157.98125Q25.912495 158.60625 25.17812 158.95Q24.443745 159.29375 23.49062 159.29375Q22.568745 159.29375 21.80312 158.98125Q21.037495 158.66875 20.64687 158.04375Q20.24062 157.41875 20.24062 156.65312Q20.24062 156.09062 20.474995 155.65312Q20.70937 155.21562 21.08437 154.93437L18.006245 154.93437L18.006245 153.8875L26.599995 153.8875L26.599995 154.87187ZM23.49062 158.2Q24.693745 158.2 25.287495 157.7Q25.86562 157.2 25.86562 156.5125Q25.86562 155.825 25.30312 155.34062Q24.74062 154.85625 23.58437 154.85625Q22.30312 154.85625 21.70937 155.35625Q21.11562 155.84062 21.11562 156.55937Q21.11562 157.2625 21.693745 157.73125Q22.256245 158.2 23.49062 158.2ZM26.599995 148.80937L18.006245 148.80937L18.006245 147.09062L24.08437 145.05937Q24.943745 144.77812 25.36562 144.65312Q24.89687 144.5125 23.99062 144.2L18.006245 142.1375L18.006245 140.60625L26.599995 140.60625L26.599995 141.7L19.412495 141.7L26.599995 144.2L26.599995 145.23125L19.287495 147.71562L26.599995 147.71562L26.599995 148.80937ZM26.599995 138.77812L18.006245 138.77812L18.006245 135.52812Q18.006245 134.68437 18.08437 134.23125Q18.193745 133.59062 18.49062 133.16875Q18.787495 132.73125 19.318745 132.48125Q19.849995 132.21562 20.49062 132.21562Q21.58437 132.21562 22.349995 132.91875Q23.099995 133.60625 23.099995 135.43437L23.099995 137.6375L26.599995 137.6375L26.599995 138.77812ZM22.099995 137.6375L22.099995 135.41875Q22.099995 134.30937 21.693745 133.85625Q21.27187 133.3875 20.52187 133.3875Q19.99062 133.3875 19.61562 133.66875Q19.224995 133.93437 19.099995 134.37187Q19.02187 134.66875 19.02187 135.43437L19.02187 137.6375L22.099995 137.6375ZM26.599995 130.825L18.006245 130.825L18.006245 129.68437L22.27187 129.68437L18.006245 125.41875L18.006245 123.87187L21.49062 127.48125L26.599995 123.71562L26.599995 125.21562L22.256245 128.27812L23.61562 129.68437L26.599995 129.68437L26.599995 130.825ZM26.599995 122.575L18.006245 122.575L18.006245 121.45L26.599995 121.45L26.599995 122.575Z" fill-rule="nonzero"/><path fill="#000000" d="M48.1 232.18286Q48.1 230.65161 48.4125 229.72974Q48.725 228.79224 49.334373 228.29224Q49.959373 227.79224 50.896873 227.79224Q51.584373 227.79224 52.1 228.07349Q52.63125 228.35474 52.975 228.88599Q53.31875 229.40161 53.50625 230.15161Q53.69375 230.90161 53.69375 232.18286Q53.69375 233.69849 53.38125 234.62036Q53.084373 235.54224 52.459373 236.05786Q51.85 236.55786 50.896873 236.55786Q49.6625 236.55786 48.94375 235.66724Q48.1 234.60474 48.1 232.18286ZM49.178123 232.18286Q49.178123 234.29224 49.678123 234.99536Q50.178123 235.69849 50.896873 235.69849Q51.63125 235.69849 52.115623 234.99536Q52.615623 234.29224 52.615623 232.18286Q52.615623 230.05786 52.115623 229.37036Q51.63125 228.66724 50.88125 228.66724Q50.1625 228.66724 49.725 229.27661Q49.178123 230.05786 49.178123 232.18286ZM55.69375 236.41724L55.69375 235.21411L56.896873 235.21411L56.896873 236.41724L55.69375 236.41724ZM58.1 232.18286Q58.1 230.65161 58.4125 229.72974Q58.725 228.79224 59.334373 228.29224Q59.959373 227.79224 60.896873 227.79224Q61.584373 227.79224 62.1 228.07349Q62.63125 228.35474 62.975 228.88599Q63.31875 229.40161 63.50625 230.15161Q63.69375 230.90161 63.69375 232.18286Q63.69375 233.69849 63.38125 234.62036Q63.084373 235.54224 62.459373 236.05786Q61.85 236.55786 60.896873 236.55786Q59.6625 236.55786 58.94375 235.66724Q58.1 234.60474 58.1 232.18286ZM59.178123 232.18286Q59.178123 234.29224 59.678123 234.99536Q60.178123 235.69849 60.896873 235.69849Q61.63125 235.69849 62.115623 234.99536Q62.615623 234.29224 62.615623 232.18286Q62.615623 230.05786 62.115623 229.37036Q61.63125 228.66724 60.88125 228.66724Q60.1625 228.66724 59.725 229.27661Q59.178123 230.05786 59.178123 232.18286ZM65.1 232.18286Q65.1 230.65161 65.4125 229.72974Q65.725 228.79224 66.33437 228.29224Q66.95937 227.79224 67.89687 227.79224Q68.58437 227.79224 69.1 228.07349Q69.63125 228.35474 69.975 228.88599Q70.31875 229.40161 70.50625 230.15161Q70.69375 230.90161 70.69375 232.18286Q70.69375 233.69849 70.38125 234.62036Q70.08437 235.54224 69.45937 236.05786Q68.85 236.55786 67.89687 236.55786Q66.6625 236.55786 65.94375 235.66724Q65.1 234.60474 65.1 232.18286ZM66.17812 232.18286Q66.17812 234.29224 66.67812 234.99536Q67.17812 235.69849 67.89687 235.69849Q68.63125 235.69849 69.11562 234.99536Q69.61562 234.29224 69.61562 232.18286Q69.61562 230.05786 69.11562 229.37036Q68.63125 228.66724 67.88125 228.66724Q67.1625 228.66724 66.725 229.27661Q66.17812 230.05786 66.17812 232.18286Z" fill-rule="nonzero"/><path fill="#000000" d="M48.1 185.82855Q48.1 184.2973 48.4125 183.37543Q48.725 182.43793 49.334373 181.93793Q49.959373 181.43793 50.896873 181.43793Q51.584373 181.43793 52.1 181.71918Q52.63125 182.00043 52.975 182.53168Q53.31875 183.0473 53.50625 183.7973Q53.69375 184.5473 53.69375 185.82855Q53.69375 187.34418 53.38125 188.26605Q53.084373 189.18793 52.459373 189.70355Q51.85 190.20355 50.896873 190.20355Q49.6625 190.20355 48.94375 189.31293Q48.1 188.25043 48.1 185.82855ZM49.178123 185.82855Q49.178123 187.93793 49.678123 188.64105Q50.178123 189.34418 50.896873 189.34418Q51.63125 189.34418 52.115623 188.64105Q52.615623 187.93793 52.615623 185.82855Q52.615623 183.70355 52.115623 183.01605Q51.63125 182.31293 50.88125 182.31293Q50.1625 182.31293 49.725 182.9223Q49.178123 183.70355 49.178123 185.82855ZM55.69375 190.06293L55.69375 188.8598L56.896873 188.8598L56.896873 190.06293L55.69375 190.06293ZM63.646873 189.0473L63.646873 190.06293L57.959373 190.06293Q57.959373 189.68793 58.084373 189.32855Q58.303123 188.75043 58.771873 188.18793Q59.25625 187.62543 60.1625 186.89105Q61.56875 185.7348 62.053123 185.06293Q62.553123 184.39105 62.553123 183.7973Q62.553123 183.1723 62.1 182.75043Q61.646873 182.31293 60.928123 182.31293Q60.1625 182.31293 59.709373 182.76605Q59.25625 183.21918 59.240623 184.03168L58.1625 183.9223Q58.271873 182.70355 58.990623 182.07855Q59.725 181.43793 60.959373 181.43793Q62.19375 181.43793 62.9125 182.12543Q63.63125 182.81293 63.63125 183.82855Q63.63125 184.34418 63.4125 184.84418Q63.209373 185.32855 62.709373 185.89105Q62.225 186.43793 61.1 187.39105Q60.146873 188.18793 59.865623 188.4848Q59.6 188.76605 59.428123 189.0473L63.646873 189.0473ZM65.1 187.81293L66.20937 187.71918Q66.33437 188.53168 66.77187 188.93793Q67.225 189.34418 67.86562 189.34418Q68.61562 189.34418 69.14687 188.76605Q69.67812 188.18793 69.67812 187.25043Q69.67812 186.34418 69.1625 185.82855Q68.6625 185.2973 67.83437 185.2973Q67.33437 185.2973 66.9125 185.53168Q66.50625 185.76605 66.27187 186.12543L65.2875 186.00043L66.11562 181.59418L70.39687 181.59418L70.39687 182.59418L66.95937 182.59418L66.50625 184.90668Q67.27187 184.3598 68.11562 184.3598Q69.24062 184.3598 70.00625 185.14105Q70.7875 185.9223 70.7875 187.15668Q70.7875 188.31293 70.11562 189.1723Q69.2875 190.20355 67.86562 190.20355Q66.69375 190.20355 65.94375 189.5473Q65.20937 188.89105 65.1 187.81293Z" fill-rule="nonzero"/><path fill="#000000" d="M48.1 139.47424Q48.1 137.943 48.4125 137.02112Q48.725 136.08362 49.334373 135.58362Q49.959373 135.08362 50.896873 135.08362Q51.584373 135.08362 52.1 135.36487Q52.63125 135.64612 52.975 136.17737Q53.31875 136.693 53.50625 137.443Q53.69375 138.193 53.69375 139.47424Q53.69375 140.98987 53.38125 141.91174Q53.084373 142.83362 52.459373 143.34924Q51.85 143.84924 50.896873 143.84924Q49.6625 143.84924 48.94375 142.95862Q48.1 141.89612 48.1 139.47424ZM49.178123 139.47424Q49.178123 141.58362 49.678123 142.28674Q50.178123 142.98987 50.896873 142.98987Q51.63125 142.98987 52.115623 142.28674Q52.615623 141.58362 52.615623 139.47424Q52.615623 137.34924 52.115623 136.66174Q51.63125 135.95862 50.88125 135.95862Q50.1625 135.95862 49.725 136.568Q49.178123 137.34924 49.178123 139.47424ZM55.69375 143.70862L55.69375 142.5055L56.896873 142.5055L56.896873 143.70862L55.69375 143.70862ZM58.1 141.45862L59.209373 141.36487Q59.334373 142.17737 59.771873 142.58362Q60.225 142.98987 60.865623 142.98987Q61.615623 142.98987 62.146873 142.41174Q62.678123 141.83362 62.678123 140.89612Q62.678123 139.98987 62.1625 139.47424Q61.6625 138.943 60.834373 138.943Q60.334373 138.943 59.9125 139.17737Q59.50625 139.41174 59.271873 139.77112L58.2875 139.64612L59.115623 135.23987L63.396873 135.23987L63.396873 136.23987L59.959373 136.23987L59.50625 138.55237Q60.271873 138.0055 61.115623 138.0055Q62.240623 138.0055 63.00625 138.78674Q63.7875 139.568 63.7875 140.80237Q63.7875 141.95862 63.115623 142.818Q62.2875 143.84924 60.865623 143.84924Q59.69375 143.84924 58.94375 143.193Q58.209373 142.53674 58.1 141.45862ZM65.1 139.47424Q65.1 137.943 65.4125 137.02112Q65.725 136.08362 66.33437 135.58362Q66.95937 135.08362 67.89687 135.08362Q68.58437 135.08362 69.1 135.36487Q69.63125 135.64612 69.975 136.17737Q70.31875 136.693 70.50625 137.443Q70.69375 138.193 70.69375 139.47424Q70.69375 140.98987 70.38125 141.91174Q70.08437 142.83362 69.45937 143.34924Q68.85 143.84924 67.89687 143.84924Q66.6625 143.84924 65.94375 142.95862Q65.1 141.89612 65.1 139.47424ZM66.17812 139.47424Q66.17812 141.58362 66.67812 142.28674Q67.17812 142.98987 67.89687 142.98987Q68.63125 142.98987 69.11562 142.28674Q69.61562 141.58362 69.61562 139.47424Q69.61562 137.34924 69.11562 136.66174Q68.63125 135.95862 67.88125 135.95862Q67.1625 135.95862 66.725 136.568Q66.17812 137.34924 66.17812 139.47424Z" fill-rule="nonzero"/><path fill="#000000" d="M48.1 93.119934Q48.1 91.588684 48.4125 90.66681Q48.725 89.72931 49.334373 89.22931Q49.959373 88.72931 50.896873 88.72931Q51.584373 88.72931 52.1 89.01056Q52.63125 89.29181 52.975 89.82306Q53.31875 90.338684 53.50625 91.088684Q53.69375 91.838684 53.69375 93.119934Q53.69375 94.63556 53.38125 95.557434Q53.084373 96.47931 52.459373 96.994934Q51.85 97.494934 50.896873 97.494934Q49.6625 97.494934 48.94375 96.60431Q48.1 95.54181 48.1 93.119934ZM49.178123 93.119934Q49.178123 95.22931 49.678123 95.932434Q50.178123 96.63556 50.896873 96.63556Q51.63125 96.63556 52.115623 95.932434Q52.615623 95.22931 52.615623 93.119934Q52.615623 90.994934 52.115623 90.307434Q51.63125 89.60431 50.88125 89.60431Q50.1625 89.60431 49.725 90.213684Q49.178123 90.994934 49.178123 93.119934ZM55.69375 97.35431L55.69375 96.151184L56.896873 96.151184L56.896873 97.35431L55.69375 97.35431ZM58.1625 89.88556L58.1625 88.869934L63.725 88.869934L63.725 89.69806Q62.9125 90.57306 62.1 92.026184Q61.303123 93.463684 60.865623 94.994934Q60.5375 96.07306 60.459373 97.35431L59.365623 97.35431Q59.38125 96.338684 59.75625 94.901184Q60.146873 93.463684 60.85 92.13556Q61.56875 90.807434 62.38125 89.88556L58.1625 89.88556ZM65.1 95.10431L66.20937 95.01056Q66.33437 95.82306 66.77187 96.22931Q67.225 96.63556 67.86562 96.63556Q68.61562 96.63556 69.14687 96.057434Q69.67812 95.47931 69.67812 94.54181Q69.67812 93.63556 69.1625 93.119934Q68.6625 92.588684 67.83437 92.588684Q67.33437 92.588684 66.9125 92.82306Q66.50625 93.057434 66.27187 93.41681L65.2875 93.29181L66.11562 88.88556L70.39687 88.88556L70.39687 89.88556L66.95937 89.88556L66.50625 92.19806Q67.27187 91.651184 68.11562 91.651184Q69.24062 91.651184 70.00625 92.432434Q70.7875 93.213684 70.7875 94.44806Q70.7875 95.60431 70.11562 96.463684Q69.2875 97.494934 67.86562 97.494934Q66.69375 97.494934 65.94375 96.838684Q65.20937 96.182434 65.1 95.10431Z" fill-rule="nonzero"/><path fill="#000000" d="M52.06875 51.0L51.021873 51.0L51.021873 44.28125Q50.63125 44.640625 50.00625 45.015625Q49.396873 45.375 48.9125 45.546875L48.9125 44.53125Q49.7875 44.109375 50.44375 43.53125Q51.115623 42.9375 51.396873 42.375L52.06875 42.375L52.06875 51.0ZM55.69375 51.0L55.69375 49.796875L56.896873 49.796875L56.896873 51.0L55.69375 51.0ZM58.1 46.765625Q58.1 45.234375 58.4125 44.3125Q58.725 43.375 59.334373 42.875Q59.959373 42.375 60.896873 42.375Q61.584373 42.375 62.1 42.65625Q62.63125 42.9375 62.975 43.46875Q63.31875 43.984375 63.50625 44.734375Q63.69375 45.484375 63.69375 46.765625Q63.69375 48.28125 63.38125 49.203125Q63.084373 50.125 62.459373 50.640625Q61.85 51.140625 60.896873 51.140625Q59.6625 51.140625 58.94375 50.25Q58.1 49.1875 58.1 46.765625ZM59.178123 46.765625Q59.178123 48.875 59.678123 49.578125Q60.178123 50.28125 60.896873 50.28125Q61.63125 50.28125 62.115623 49.578125Q62.615623 48.875 62.615623 46.765625Q62.615623 44.640625 62.115623 43.953125Q61.63125 43.25 60.88125 43.25Q60.1625 43.25 59.725 43.859375Q59.178123 44.640625 59.178123 46.765625ZM65.1 46.765625Q65.1 45.234375 65.4125 44.3125Q65.725 43.375 66.33437 42.875Q66.95937 42.375 67.89687 42.375Q68.58437 42.375 69.1 42.65625Q69.63125 42.9375 69.975 43.46875Q70.31875 43.984375 70.50625 44.734375Q70.69375 45.484375 70.69375 46.765625Q70.69375 48.28125 70.38125 49.203125Q70.08437 50.125 69.45937 50.640625Q68.85 51.140625 67.89687 51.140625Q66.6625 51.140625 65.94375 50.25Q65.1 49.1875 65.1 46.765625ZM66.17812 46.765625Q66.17812 48.875 66.67812 49.578125Q67.17812 50.28125 67.89687 50.28125Q68.63125 50.28125 69.11562 49.578125Q69.61562 48.875 69.61562 46.765625Q69.61562 44.640625 69.11562 43.953125Q68.63125 43.25 67.88125 43.25Q67.1625 43.25 66.725 43.859375Q66.17812 44.640625 66.17812 46.765625Z" fill-rule="nonzero"/><path fill="#000000" d="M97.59363 271.7065L91.51693 265.62982L93.61615 263.53058Q94.32326 262.8235 94.78729 262.53622Q95.42811 262.13846 96.10207 262.08322Q96.997 262.0059 97.86984 262.41467Q98.742676 262.8014 99.54922 263.60794Q100.24528 264.304 100.60988 265.00003Q100.98553 265.68506 101.08497 266.29272Q101.1844 266.9004 101.07391 267.40863Q100.97448 267.90582 100.66512 268.43613Q100.34471 268.9554 99.79229 269.50784L97.59363 271.7065ZM97.682014 270.18182L98.97469 268.88913Q99.58237 268.28146 99.814384 267.82846Q100.0464 267.3755 100.035355 266.96667Q100.0464 266.4032 99.71494 265.7624Q99.39454 265.11053 98.709526 264.4255Q97.75935 263.47534 96.93071 263.2875Q96.10207 263.0776 95.48335 263.34277Q95.030365 263.55267 94.32326 264.2598L93.041626 265.5414L97.682014 270.18182ZM105.46019 261.0115L106.321976 260.3265Q106.81916 261.17725 106.697624 262.05008Q106.57609 262.9229 105.81374 263.68527Q104.852516 264.64648 103.68137 264.6244Q102.52128 264.59125 101.44957 263.51953Q100.34471 262.41467 100.31157 261.23248Q100.26737 260.03925 101.173355 259.13327Q102.057236 258.2494 103.20628 258.29358Q104.36639 258.32672 105.46019 259.42053Q105.52648 259.48682 105.659065 259.61942L102.37765 262.90082Q103.15105 263.58582 103.90234 263.60794Q104.64259 263.619 105.19502 263.06656Q105.60382 262.65775 105.68116 262.16055Q105.7585 261.6413 105.46019 261.0115ZM101.81417 262.24896L104.266945 259.79617Q103.65928 259.2769 103.15105 259.2327Q102.355545 259.1664 101.792076 259.7299Q101.27279 260.24918 101.26174 260.94522Q101.26174 261.63025 101.81417 262.24896ZM111.66947 257.63068L111.11704 257.07825Q111.34906 258.14993 110.54252 258.95648Q110.01219 259.48682 109.28298 259.6415Q108.54273 259.78513 107.78038 259.5089Q107.018036 259.2327 106.34407 258.55875Q105.69221 257.9069 105.3718 257.14453Q105.05139 256.38217 105.21712 255.66403Q105.3718 254.93481 105.91318 254.39345Q106.31093 253.9957 106.78601 253.85207Q107.2611 253.70844 107.72514 253.77472L105.54858 251.59816L106.288826 250.85791L112.36553 256.9346L111.66947 257.63068ZM107.11747 257.78534Q107.96821 258.63608 108.74161 258.70236Q109.50395 258.75763 109.99009 258.27148Q110.47623 257.78534 110.42098 257.0451Q110.365746 256.30484 109.54815 255.48724Q108.642166 254.58127 107.868774 254.51497Q107.10642 254.43764 106.59819 254.94586Q106.101006 255.44305 106.178345 256.18332Q106.24464 256.9125 107.11747 257.78534ZM116.65236 252.64778L116.000496 251.99591Q116.23251 253.2665 115.34863 254.15038Q114.96193 254.53708 114.4758 254.73595Q113.98966 254.91272 113.60297 254.85748Q113.205215 254.79118 112.80747 254.52603Q112.55335 254.36029 112.067215 253.87416L109.34927 251.15622L110.10058 250.40492L112.542305 252.84665Q113.11683 253.42117 113.37095 253.5869Q113.7245 253.80788 114.12224 253.76369Q114.51999 253.69739 114.862495 253.35489Q115.19395 253.02342 115.31548 252.57043Q115.43702 252.09535 115.26024 251.6755Q115.09451 251.24461 114.53104 250.68114L112.1777 248.3278L112.91795 247.58754L117.31527 251.98486L116.65236 252.64778ZM120.40886 252.27213L114.32111 246.18439L114.99508 245.51042L115.558556 246.0739Q115.47016 245.49937 115.602745 245.03532Q115.746376 244.56024 116.17727 244.12935Q116.740746 243.56587 117.4589 243.42224Q118.177055 243.27861 118.91731 243.59901Q119.66861 243.90839 120.29838 244.53815Q120.972336 245.21211 121.27065 245.99655Q121.58001 246.76996 121.40323 247.52126Q121.226456 248.27255 120.71822 248.78079Q120.342575 249.15643 119.88958 249.30006Q119.425545 249.43265 119.0057 249.38846L121.14912 251.53188L120.40886 252.27213ZM117.215836 247.73117Q118.066574 248.58191 118.81787 248.64821Q119.55813 248.70345 120.04426 248.21732Q120.54144 247.72012 120.47515 246.94673Q120.40886 246.17332 119.52498 245.28944Q118.68529 244.44975 117.93399 244.38347Q117.17164 244.30612 116.6855 244.79227Q116.21042 245.26735 116.28776 246.0739Q116.3651 246.88043 117.215836 247.73117Z" fill-rule="nonzero"/><path fill="#000000" d="M137.12189 284.15823L137.8069 283.34064Q138.32617 283.74942 138.81232 283.8378Q139.29845 283.9262 139.89507 283.70523Q140.4917 283.46216 141.01097 282.94287Q141.46396 282.4899 141.68494 282.00375Q141.89485 281.50656 141.82857 281.10883Q141.76227 280.68896 141.48605 280.41278Q141.19879 280.1255 140.82315 280.0813Q140.43645 280.02606 139.91716 280.2581Q139.56361 280.41278 138.52505 281.0536Q137.49754 281.68335 136.9893 281.838Q136.31534 282.04794 135.77396 281.92642Q135.22154 281.79382 134.8017 281.374Q134.34871 280.921 134.20506 280.26913Q134.06143 279.59518 134.35976 278.8991Q134.65807 278.18097 135.26573 277.5733Q135.9397 276.89932 136.67995 276.601Q137.40915 276.29166 138.11626 276.44635Q138.81232 276.58997 139.36475 277.0982L138.64659 277.92685Q138.00577 277.4186 137.35391 277.49594Q136.70204 277.55118 136.00598 278.24725Q135.27678 278.97644 135.2105 279.5731Q135.1442 280.1697 135.51985 280.54535Q135.8513 280.8768 136.29324 280.8547Q136.73518 280.8326 137.92844 280.0813Q139.13272 279.31897 139.66306 279.1201Q140.4475 278.84387 141.07727 278.9654Q141.69598 279.0759 142.19316 279.5731Q142.6793 280.0592 142.83398 280.76633Q142.97762 281.46237 142.7014 282.22473Q142.41414 282.976 141.76227 283.6279Q140.93364 284.45654 140.13814 284.788Q139.34264 285.09735 138.5361 284.9316Q137.7406 284.75485 137.12189 284.15823ZM145.71765 279.47363L139.97241 276.42426L140.7458 275.65085L143.98303 277.49594L145.18732 278.16992Q145.14313 278.0815 144.51337 277.03192L142.63512 273.76154L143.39746 272.9992L146.61258 274.8885L147.67325 275.5072L147.07663 274.40234L145.28676 271.1099L146.01596 270.38068L149.03221 276.1591L148.25882 276.93246L144.92216 274.98795L144.00513 274.42447L146.5021 278.68918L145.71765 279.47363ZM153.60631 270.50223Q153.54002 271.27563 153.29695 271.80594Q153.06494 272.32523 152.62299 272.76718Q151.89378 273.49637 151.15353 273.5295Q150.41328 273.56268 149.86086 273.01025Q149.54045 272.68982 149.41891 272.28104Q149.28633 271.8612 149.37473 271.46344Q149.45206 271.05466 149.67303 270.679Q149.81667 270.40277 150.21442 269.89456Q151.0099 268.90018 151.28612 268.3146Q151.13144 268.15994 151.0983 268.12677Q150.63426 267.66275 150.23651 267.68484Q149.70618 267.72903 149.1427 268.2925Q148.62341 268.8118 148.55713 269.25372Q148.47978 269.68463 148.8223 270.2702L147.99365 270.89996Q147.62904 270.3365 147.5738 269.8172Q147.51857 269.29794 147.79478 268.71237Q148.071 268.12677 148.63448 267.56332Q149.19794 266.99985 149.68408 266.77887Q150.17021 266.5579 150.53482 266.59103Q150.89941 266.62418 151.27507 266.86725Q151.49605 267.02194 151.99323 267.5191L152.9876 268.5135Q154.02615 269.55203 154.34656 269.78406Q154.67802 270.00504 155.07578 270.1155L154.29132 270.89996Q153.94882 270.77844 153.60631 270.50223ZM151.87169 268.90018Q151.62862 269.4747 150.94362 270.40277Q150.54587 270.9331 150.44643 271.20932Q150.33594 271.4745 150.38014 271.73965Q150.43538 271.99377 150.63426 272.19266Q150.93257 272.49097 151.35242 272.46887Q151.78331 272.43573 152.2142 272.00482Q152.6451 271.57394 152.78873 271.05466Q152.9434 270.52432 152.76662 270.03818Q152.63405 269.66254 152.1479 269.1764L151.87169 268.90018ZM157.91524 270.6569L151.8275 264.56915L152.50146 263.8952L153.06494 264.45868Q152.97655 263.88416 153.10913 263.4201Q153.25276 262.945 153.68365 262.51413Q154.24713 261.95065 154.96529 261.807Q155.68344 261.6634 156.42369 261.9838Q157.17499 262.29315 157.80476 262.9229Q158.47871 263.5969 158.77704 264.38132Q159.0864 265.15472 158.9096 265.90604Q158.73283 266.65732 158.22461 267.16556Q157.84895 267.5412 157.39597 267.68484Q156.93193 267.8174 156.51208 267.77322L158.6555 269.91666L157.91524 270.6569ZM154.72221 266.11594Q155.57295 266.96667 156.32425 267.033Q157.06451 267.08823 157.55064 266.60208Q158.04782 266.1049 157.98154 265.3315Q157.91524 264.5581 157.03136 263.67422Q156.19167 262.83453 155.44037 262.76825Q154.67802 262.6909 154.19188 263.17703Q153.7168 263.65213 153.79414 264.45868Q153.87148 265.2652 154.72221 266.11594ZM162.13579 261.72968L162.89813 262.27106Q162.64403 262.65775 162.40096 262.90082Q161.99216 263.30963 161.64966 263.40906Q161.2961 263.49744 160.98674 263.38696Q160.68843 263.2654 160.01447 262.59146L157.48434 260.06134L156.94298 260.60272L156.36845 260.0282L156.90982 259.48682L155.81602 258.393L156.11433 257.21082L157.65009 258.74658L158.40138 257.99527L158.9759 258.5698L158.22461 259.3211L160.79892 261.89542Q161.11932 262.21582 161.24086 262.27106Q161.37344 262.31525 161.51707 262.2821Q161.6607 262.24896 161.82643 262.08322Q161.95901 261.95065 162.13579 261.72968ZM158.08098 256.68048L157.2192 255.81871L157.97049 255.06741L158.83228 255.9292L158.08098 256.68048ZM163.29588 261.89542L158.89856 257.49808L159.64987 256.7468L164.04718 261.1441L163.29588 261.89542ZM162.94234 257.85165Q161.71594 256.62524 161.80434 255.36572Q161.88167 254.3161 162.69926 253.49852Q163.60524 252.59253 164.7764 252.61462Q165.94754 252.61462 166.99715 253.66425Q167.84789 254.51498 168.07991 255.25523Q168.31192 255.99548 168.09096 256.7689Q167.86998 257.52017 167.29546 258.0947Q166.37843 259.01175 165.21834 259.0007Q164.05823 258.96753 162.94234 257.85165ZM163.70468 257.0893Q164.54437 257.929 165.32881 257.98422Q166.12431 258.0284 166.67674 257.47598Q167.24022 256.9125 167.18497 256.12805Q167.12973 255.34363 166.26794 254.48183Q165.45035 253.66425 164.65486 253.62004Q163.8704 253.5648 163.31798 254.11723Q162.76555 254.66966 162.80975 255.46515Q162.85394 256.23856 163.70468 257.0893ZM170.36696 254.82434L165.96964 250.42702L166.63255 249.7641L167.25127 250.38283Q167.01924 249.17853 167.93628 248.2615Q168.33401 247.86375 168.80911 247.67593Q169.29524 247.47705 169.693 247.54335Q170.09074 247.60963 170.46638 247.8527Q170.70946 248.02948 171.22874 248.54877L173.93564 251.25566L173.19537 251.99591L170.52164 249.32216Q170.05759 248.85812 169.74823 248.72554Q169.43887 248.59296 169.08533 248.68135Q168.72072 248.75868 168.42241 249.05699Q167.94733 249.53209 167.90312 250.19499Q167.85893 250.83582 168.69862 251.6755L171.10721 254.08409L170.36696 254.82434ZM173.70361 248.85812L174.32233 248.01843Q174.83057 248.39409 175.33879 248.3499Q175.85808 248.29465 176.37737 247.77538Q176.88559 247.26714 176.9298 246.8252Q176.97398 246.36116 176.68672 246.0739Q176.4326 245.81978 176.06801 245.89711Q175.81389 245.95236 175.05153 246.40535Q174.02402 247.01302 173.55998 247.18979Q173.09595 247.34448 172.66505 247.24504Q172.23416 247.1456 171.9027 246.81415Q171.61543 246.52689 171.49391 246.14018Q171.37238 245.75348 171.43866 245.35574Q171.49391 245.05743 171.70383 244.67073Q171.91374 244.28403 172.2673 243.93048Q172.77554 243.42224 173.31691 243.19022Q173.85829 242.93611 174.30023 243.0024Q174.74217 243.0687 175.22832 243.42224L174.59854 244.25089Q174.2229 243.96362 173.792 244.01886Q173.36111 244.052 172.91917 244.49396Q172.41093 245.00218 172.36674 245.39993Q172.3115 245.78664 172.54352 246.01865Q172.68715 246.16228 172.88602 246.18437Q173.107 246.20648 173.37216 246.096Q173.52684 246.0297 174.2229 245.6209Q175.23936 245.04637 175.6813 244.8696Q176.12325 244.69283 176.55414 244.77016Q176.98503 244.8475 177.37173 245.2342Q177.74738 245.60985 177.85786 246.16228Q177.96835 246.69261 177.74738 247.28923Q177.51537 247.8748 176.99608 248.39409Q176.1343 249.25587 175.32774 249.35532Q174.52121 249.43265 173.70361 248.85812Z" fill-rule="nonzero"/><path fill="#000000" d="M198.81352 282.26892L192.73683 276.19223L196.83585 272.0932L197.554 272.81137L194.26154 276.10382L196.13979 277.9821L198.99031 275.13156L199.70847 275.8497L196.85794 278.70023L199.62007 281.46237L198.81352 282.26892ZM203.61964 277.4628L199.22232 273.0655L199.89629 272.3915L200.5592 273.05444Q200.34927 272.33627 200.41557 271.98273Q200.48186 271.6071 200.74702 271.34192Q201.12268 270.96625 201.7414 270.81158L202.18333 271.76175Q201.7414 271.87225 201.47623 272.1374Q201.2221 272.3915 201.17792 272.7451Q201.13373 273.07654 201.32155 273.41904Q201.58672 273.94937 202.05075 274.4134L204.3599 276.72256L203.61964 277.4628ZM208.05011 270.20392L208.9119 269.5189Q209.40909 270.36963 209.28755 271.24246Q209.16602 272.1153 208.40367 272.87766Q207.44244 273.83887 206.2713 273.81677Q205.1112 273.78363 204.03949 272.7119Q202.93463 271.6071 202.90149 270.42487Q202.8573 269.23163 203.76328 268.32565Q204.64716 267.44177 205.7962 267.48596Q206.9563 267.5191 208.05011 268.6129Q208.11641 268.6792 208.249 268.8118L204.96758 272.0932Q205.74097 272.77823 206.49226 272.80032Q207.23251 272.81137 207.78494 272.25894Q208.19374 271.85013 208.27109 271.35297Q208.34842 270.83368 208.05011 270.20392ZM204.4041 271.44135L206.85687 268.98856Q206.2492 268.4693 205.74097 268.42508Q204.94547 268.3588 204.38199 268.92227Q203.86272 269.44156 203.85167 270.1376Q203.85167 270.82263 204.4041 271.44135ZM215.90562 268.55768L213.75116 266.4032Q213.81746 266.82306 213.66277 267.3092Q213.50809 267.77322 213.15454 268.12677Q212.37009 268.91122 211.1879 268.856Q209.99466 268.7897 208.90085 267.6959Q208.23793 267.033 207.95067 266.28168Q207.65236 265.51932 207.8181 264.82327Q207.98383 264.1051 208.5031 263.58585Q209.3207 262.76825 210.46974 262.9892L209.88417 262.40363L210.55814 261.72968L216.64587 267.8174L215.90562 268.55768ZM209.69635 266.96667Q210.54709 267.8174 211.32048 267.88373Q212.10493 267.93896 212.60211 267.44177Q213.0772 266.96667 213.02196 266.22644Q212.95566 265.47513 212.13808 264.65753Q211.2542 263.77365 210.44765 263.69632Q209.65215 263.60794 209.15497 264.1051Q208.67989 264.5802 208.75722 265.34256Q208.82352 266.09384 209.69635 266.96667ZM216.35861 264.72385L211.9613 260.3265L212.6242 259.6636L213.24292 260.28232Q213.1214 259.74094 213.27608 259.2106Q213.41971 258.66922 213.86165 258.2273Q214.34778 257.74115 214.85602 257.63068Q215.37529 257.50912 215.86143 257.7522Q215.62941 256.45953 216.45805 255.63087Q217.12097 254.96797 217.82808 254.99007Q218.53519 254.99007 219.29753 255.75241L222.31378 258.76868L221.57353 259.5089L218.80034 256.73575Q218.3584 256.2938 218.08218 256.17227Q217.81703 256.03967 217.50766 256.10596Q217.1983 256.17227 216.93314 256.43744Q216.4691 256.90146 216.4691 257.52017Q216.48015 258.12784 217.16516 258.81287L219.71738 261.36508L218.96608 262.11636L216.1045 259.2548Q215.60732 258.75763 215.17642 258.70236Q214.74553 258.62503 214.33673 259.03384Q214.01633 259.35425 213.91689 259.78513Q213.81746 260.21603 214.01633 260.65796Q214.2152 261.0999 214.81181 261.69653L217.09886 263.98358L216.35861 264.72385ZM218.21477 252.43785L217.35298 251.57607L218.1043 250.82477L218.96608 251.68655L218.21477 252.43785ZM223.42969 257.65277L219.03236 253.25545L219.78366 252.50415L224.18098 256.90146L223.42969 257.65277ZM225.55101 255.53145L221.15369 251.13412L221.8166 250.4712L222.43532 251.08994Q222.2033 249.88564 223.12033 248.96861Q223.51807 248.57086 223.99316 248.38304Q224.4793 248.18416 224.87704 248.25046Q225.2748 248.31674 225.65044 248.55981Q225.89351 248.73659 226.4128 249.25587L229.11969 251.96277L228.37943 252.70302L225.70569 250.02927Q225.24164 249.56523 224.93228 249.43265Q224.62292 249.30006 224.26938 249.38846Q223.90477 249.46579 223.60646 249.7641Q223.13138 250.2392 223.08717 250.9021Q223.04298 251.54292 223.88268 252.38261L226.29126 254.7912L225.55101 255.53145ZM232.09174 246.16228L232.95352 245.47726Q233.45071 246.328 233.32918 247.20084Q233.20764 248.07367 232.4453 248.83603Q231.48407 249.79726 230.31293 249.77515Q229.15283 249.742 228.08112 248.6703Q226.97627 247.56544 226.94312 246.38326Q226.89893 245.19 227.8049 244.28403Q228.6888 243.40015 229.83784 243.44434Q230.99794 243.47748 232.09174 244.57129Q232.15804 244.63757 232.29062 244.77016L229.0092 248.05157Q229.7826 248.73659 230.5339 248.75868Q231.27415 248.76973 231.82658 248.21732Q232.23537 247.80852 232.31271 247.31133Q232.39006 246.79205 232.09174 246.16228ZM228.44572 247.39972L230.8985 244.94695Q230.29083 244.42766 229.7826 244.38347Q228.9871 244.31717 228.42363 244.88065Q227.90434 245.39993 227.8933 246.096Q227.8933 246.78099 228.44572 247.39972Z" fill-rule="nonzero"/><path fill="#000000" d="M236.17628 296.88614L236.8613 296.06854Q237.38057 296.47736 237.86671 296.56573Q238.35284 296.6541 238.94946 296.43314Q239.54608 296.1901 240.06537 295.6708Q240.51836 295.2178 240.73933 294.73166Q240.94925 294.2345 240.88297 293.83673Q240.81667 293.4169 240.54045 293.1407Q240.25319 292.85342 239.87755 292.80923Q239.49084 292.754 238.97156 292.986Q238.61801 293.1407 237.57945 293.7815Q236.55193 294.41125 236.0437 294.56595Q235.36974 294.77588 234.82835 294.65433Q234.27592 294.52176 233.85608 294.1019Q233.40309 293.64893 233.25946 292.99704Q233.11583 292.3231 233.41414 291.62704Q233.71245 290.90887 234.32013 290.3012Q234.99408 289.62726 235.73434 289.32895Q236.46355 289.0196 237.17065 289.17426Q237.86671 289.3179 238.41913 289.8261L237.70097 290.65475Q237.06017 290.1465 236.4083 290.22388Q235.75644 290.2791 235.06038 290.97516Q234.33118 291.70438 234.26488 292.301Q234.1986 292.8976 234.57425 293.27325Q234.9057 293.60474 235.34764 293.5826Q235.78958 293.56052 236.98282 292.80923Q238.18712 292.04688 238.71745 291.848Q239.50189 291.57178 240.13165 291.69333Q240.75038 291.8038 241.24756 292.301Q241.7337 292.78714 241.88838 293.49423Q242.03201 294.1903 241.7558 294.95264Q241.46854 295.70395 240.81667 296.3558Q239.98802 297.18445 239.19254 297.5159Q238.39703 297.82526 237.5905 297.65955Q236.795 297.48276 236.17628 296.88614ZM244.92673 290.72104L245.68907 291.26242Q245.43497 291.64914 245.1919 291.8922Q244.7831 292.301 244.4406 292.40042Q244.08704 292.48883 243.77768 292.37833Q243.47937 292.2568 242.8054 291.58282L240.27528 289.05273L239.73392 289.59412L239.1594 289.0196L239.70076 288.4782L238.60696 287.3844L238.90527 286.2022L240.44102 287.73795L241.19232 286.98663L241.76685 287.56116L241.01555 288.31247L243.58986 290.88678Q243.91026 291.20718 244.0318 291.26242Q244.16438 291.30664 244.30801 291.27347Q244.45164 291.24033 244.61737 291.07462Q244.74995 290.94202 244.92673 290.72104ZM246.07578 290.89783L241.67845 286.50052L242.35242 285.82654L243.01534 286.48947Q242.8054 285.7713 242.8717 285.41776Q242.93799 285.0421 243.20316 284.77695Q243.57881 284.40128 244.19753 284.2466L244.63947 285.19678Q244.19753 285.30728 243.93236 285.57242Q243.67824 285.82654 243.63405 286.1801Q243.58986 286.51157 243.77768 286.85406Q244.04285 287.3844 244.50688 287.84842L246.81602 290.15756L246.07578 290.89783ZM250.50624 283.63895L251.36803 282.95392Q251.86522 283.80466 251.74368 284.6775Q251.62215 285.55032 250.8598 286.31268Q249.89857 287.2739 248.72743 287.2518Q247.56732 287.21866 246.49562 286.14694Q245.39076 285.0421 245.35762 283.8599Q245.31343 282.66666 246.2194 281.76068Q247.10329 280.8768 248.25233 280.921Q249.41243 280.95413 250.50624 282.04794Q250.57253 282.11423 250.70511 282.24683L247.42369 285.52823Q248.1971 286.21326 248.9484 286.23535Q249.68864 286.2464 250.24107 285.69397Q250.64987 285.28516 250.72722 284.788Q250.80455 284.2687 250.50624 283.63895ZM246.86023 284.87637L249.313 282.42358Q248.70532 281.90433 248.1971 281.8601Q247.4016 281.79382 246.83812 282.3573Q246.31885 282.8766 246.3078 283.57263Q246.3078 284.25766 246.86023 284.87637ZM256.19626 279.6946Q256.12997 280.468 255.88689 280.99832Q255.65488 281.5176 255.21294 281.95953Q254.48373 282.68875 253.74347 282.7219Q253.00322 282.75507 252.45079 282.20264Q252.13037 281.88223 252.00885 281.47342Q251.87627 281.0536 251.96465 280.65582Q252.04199 280.247 252.26297 279.87137Q252.4066 279.59515 252.80435 279.0869Q253.59984 278.09256 253.87605 277.507Q253.72137 277.3523 253.68823 277.31915Q253.2242 276.85513 252.82645 276.87723Q252.29611 276.92142 251.73264 277.4849Q251.21336 278.00418 251.14706 278.4461Q251.06973 278.877 251.41223 279.4626L250.58359 280.09235Q250.21898 279.52887 250.16374 279.00958Q250.10849 278.49033 250.38472 277.90472Q250.66093 277.31915 251.22441 276.75568Q251.78789 276.1922 252.27402 275.97122Q252.76016 275.75027 253.12476 275.78342Q253.48936 275.81656 253.865 276.05963Q254.08598 276.2143 254.58316 276.7115L255.57753 277.70587Q256.6161 278.74442 256.9365 278.97644Q257.26797 279.19742 257.6657 279.3079L256.88126 280.09235Q256.53876 279.9708 256.19626 279.6946ZM254.46162 278.09256Q254.21857 278.66708 253.53355 279.59515Q253.1358 280.1255 253.03636 280.4017Q252.92589 280.66687 252.97008 280.93204Q253.02531 281.18616 253.2242 281.385Q253.5225 281.68332 253.94235 281.66122Q254.37325 281.62808 254.80414 281.1972Q255.23503 280.7663 255.37866 280.247Q255.53334 279.7167 255.35657 279.23056Q255.22398 278.85492 254.73784 278.36877L254.46162 278.09256ZM258.81476 278.15884L254.41743 273.76154L255.08035 273.0986L255.69907 273.71735Q255.57753 273.17596 255.73221 272.64563Q255.87584 272.10425 256.31778 271.6623Q256.80392 271.17618 257.31216 271.06567Q257.83145 270.94415 258.31757 271.18723Q258.08554 269.89453 258.91418 269.0659Q259.57712 268.40298 260.2842 268.42508Q260.99133 268.42508 261.75366 269.18744L264.76993 272.20367L264.02966 272.94394L261.25647 270.17075Q260.81454 269.72882 260.53833 269.60727Q260.27316 269.4747 259.9638 269.541Q259.65445 269.60727 259.38928 269.87244Q258.92523 270.3365 258.92523 270.9552Q258.93628 271.56287 259.6213 272.24786L262.17352 274.80008L261.4222 275.5514L258.56064 272.68982Q258.06345 272.19263 257.63257 272.1374Q257.20166 272.06006 256.79288 272.46884Q256.47247 272.78925 256.37302 273.22015Q256.2736 273.65103 256.47247 274.093Q256.67133 274.5349 257.26797 275.13156L259.55502 277.4186L258.81476 278.15884ZM267.14536 266.60208L267.974 265.9723Q268.60376 266.84515 268.53748 267.77322Q268.4712 268.7013 267.75302 269.41946Q266.84705 270.32544 265.70905 270.2923Q264.57104 270.23703 263.4662 269.1322Q262.7591 268.42508 262.4608 267.66272Q262.16248 266.8783 262.37238 266.13803Q262.59335 265.38672 263.16788 264.8122Q263.875 264.1051 264.6926 264.01672Q265.51016 263.90622 266.3167 264.4476L265.698 265.2873Q265.15662 264.9448 264.67047 264.98898Q264.1733 265.02213 263.79764 265.39777Q263.23416 265.96124 263.28943 266.7236Q263.33362 267.4749 264.20645 268.34775Q265.10138 269.24268 265.84164 269.2979Q266.58188 269.35315 267.12326 268.81177Q267.56522 268.36984 267.5873 267.8174Q267.62045 267.25394 267.14536 266.60208ZM270.10635 266.86725L264.02966 260.79053L264.78098 260.03925L270.85767 266.11594L270.10635 266.86725ZM275.13345 261.84015L274.4816 261.1883Q274.71362 262.45886 273.82974 263.34274Q273.44302 263.72946 272.95688 263.9283Q272.47076 264.1051 272.08405 264.04987Q271.6863 263.98358 271.28857 263.7184Q271.03445 263.55267 270.5483 263.06653L267.83038 260.3486L268.58167 259.5973L271.0234 262.03903Q271.59793 262.61356 271.85205 262.77927Q272.2056 263.00024 272.60333 262.95605Q273.0011 262.88977 273.3436 262.54724Q273.67505 262.2158 273.79657 261.76282Q273.91812 261.28772 273.74133 260.8679Q273.57562 260.43698 273.01215 259.8735L270.65878 257.52017L271.39905 256.7799L275.79636 261.17725L275.13345 261.84015ZM275.58646 258.7576L276.20517 257.9179Q276.7134 258.29358 277.22162 258.24936Q277.7409 258.19412 278.2602 257.67484Q278.76843 257.16663 278.81262 256.72467Q278.8568 256.26062 278.56955 255.97337Q278.31543 255.71925 277.95084 255.7966Q277.69672 255.85184 276.93436 256.30484Q275.90686 256.9125 275.4428 257.08926Q274.9788 257.24396 274.54788 257.14453Q274.117 257.04507 273.78552 256.71362Q273.49826 256.42636 273.37674 256.03967Q273.2552 255.65297 273.3215 255.25522Q273.37674 254.95691 273.58667 254.5702Q273.79657 254.1835 274.15015 253.82996Q274.65836 253.32172 275.19974 253.0897Q275.74112 252.83559 276.18307 252.90187Q276.625 252.96817 277.11115 253.32172L276.48138 254.15036Q276.1057 253.8631 275.67484 253.91835Q275.24393 253.95149 274.802 254.39343Q274.29376 254.90166 274.24957 255.29941Q274.19434 255.68611 274.42636 255.91814Q274.56998 256.06177 274.76886 256.08386Q274.98984 256.10596 275.25497 255.99547Q275.40967 255.92918 276.1057 255.52039Q277.1222 254.94586 277.56415 254.76909Q278.00607 254.5923 278.43698 254.66965Q278.86786 254.74698 279.25455 255.13368Q279.63022 255.50934 279.7407 256.06177Q279.8512 256.5921 279.63022 257.18872Q279.3982 257.7743 278.8789 258.29358Q278.01712 259.15536 277.21057 259.2548Q276.40405 259.33212 275.58646 258.7576ZM282.4034 253.24438L283.16574 253.78577Q282.91162 254.17245 282.66855 254.41553Q282.25977 254.82433 281.91727 254.92377Q281.56372 255.01215 281.25433 254.90166Q280.95602 254.78014 280.28207 254.10617L277.75195 251.57605L277.21057 252.11743L276.63605 251.54291L277.17743 251.00153L276.08362 249.90773L276.38193 248.72552L277.9177 250.26128L278.66898 249.50998L279.2435 250.0845L278.49222 250.8358L281.06653 253.41011Q281.38693 253.73051 281.50845 253.78577Q281.64105 253.82996 281.78467 253.79681Q281.9283 253.76367 282.09402 253.59793Q282.22662 253.46535 282.4034 253.24438ZM285.15448 248.99069L286.01627 248.30568Q286.51346 249.15642 286.3919 250.02925Q286.2704 250.90208 285.50803 251.66444Q284.5468 252.62567 283.37567 252.60356Q282.21558 252.57042 281.14386 251.49872Q280.039 250.39386 280.00586 249.21167Q279.96167 248.01842 280.86765 247.11244Q281.75153 246.22856 282.90057 246.27275Q284.06067 246.3059 285.15448 247.3997Q285.22076 247.46599 285.35336 247.59857L282.07193 250.87999Q282.84534 251.565 283.59665 251.5871Q284.33688 251.59814 284.8893 251.04572Q285.29813 250.63693 285.37546 250.13974Q285.4528 249.62045 285.15448 248.99069ZM281.50845 250.22813L283.96124 247.77536Q283.35358 247.25607 282.84534 247.21188Q282.04984 247.14558 281.48636 247.70906Q280.96707 248.22835 280.95602 248.92441Q280.95602 249.6094 281.50845 250.22813ZM288.5022 248.4714L284.10486 244.0741L284.77884 243.40013L285.44174 244.06305Q285.2318 243.3449 285.29813 242.99133Q285.3644 242.61568 285.62958 242.35052Q286.00522 241.97487 286.62393 241.82019L287.0659 242.77037Q286.62393 242.88084 286.35876 243.14601Q286.10464 243.40013 286.06046 243.75368Q286.01627 244.08514 286.2041 244.42764Q286.46927 244.95798 286.9333 245.42201L289.24243 247.73116L288.5022 248.4714Z" fill-rule="nonzero"/><path fill="#000000" d="M327.64374 265.221L326.95874 261.33194L323.36795 260.70215L324.29605 259.77408L325.99753 260.12762Q326.48364 260.23813 326.80405 260.31546Q326.70462 259.86246 326.64938 259.49786L326.35107 257.71906L327.246 256.82413L327.78738 260.4149L331.7538 261.11096L330.84784 262.01694L328.57184 261.5529L327.96414 261.43137L328.53867 264.32608L327.64374 265.221ZM335.37772 256.05072L336.0959 256.7689L332.07422 260.79056Q331.80905 260.5254 331.6433 260.1829Q331.3892 259.61942 331.3229 258.8902Q331.26767 258.14993 331.3892 256.98984Q331.56598 255.17789 331.4334 254.36029Q331.31186 253.53165 330.89203 253.11182Q330.45007 252.66986 329.83136 252.69197Q329.2016 252.70302 328.69336 253.21124Q328.15198 253.75262 328.15198 254.39343Q328.15198 255.03426 328.71545 255.61983L327.87576 256.30484Q327.0913 255.3657 327.15762 254.41554Q327.2239 253.44327 328.09674 252.57043Q328.96957 251.6976 329.96393 251.67549Q330.9583 251.6534 331.67645 252.37155Q332.04108 252.73616 332.23993 253.24438Q332.4388 253.73053 332.483 254.48183Q332.5272 255.21103 332.40567 256.68048Q332.2952 257.91794 332.30624 258.32672Q332.3173 258.7134 332.39462 259.0338L335.37772 256.05072ZM336.40524 247.28923L335.72025 248.08472Q335.17886 247.74222 334.8032 247.72012Q334.17343 247.70908 333.7315 248.15102Q333.37793 248.50456 333.3006 248.97966Q333.22327 249.58733 333.51053 250.29443Q333.7978 250.97945 334.69272 251.89647Q334.5491 251.2225 334.7369 250.63693Q334.9358 250.04031 335.36667 249.60942Q336.10693 248.86917 337.17865 248.90231Q338.2614 248.92441 339.1232 249.7862Q339.69772 250.36072 339.94077 251.11203Q340.18384 251.84123 340.01813 252.5373Q339.84134 253.22229 339.29996 253.76367Q338.36084 254.7028 337.09024 254.60336Q335.81967 254.50392 334.25076 252.93503Q332.483 251.16727 332.3394 249.71991Q332.2068 248.46037 333.16803 247.49915Q333.88617 246.78099 334.74796 246.7368Q335.60974 246.6705 336.40524 247.28923ZM335.9854 252.94608Q336.3721 253.33278 336.88034 253.53165Q337.38855 253.70844 337.86365 253.609Q338.3498 253.4985 338.68124 253.16705Q339.1453 252.70302 339.11212 251.98486Q339.06793 251.25566 338.41608 250.60379Q337.78632 249.97403 337.0792 249.95192Q336.38315 249.91878 335.8749 250.42702Q335.36667 250.93524 335.37772 251.6534Q335.39984 252.3605 335.9854 252.94608ZM344.45963 248.40514L343.00122 246.94672L340.37167 249.57628L339.68668 248.89127L338.52655 242.1848L339.13425 241.57713L343.0675 245.5104L343.8851 244.69283L344.57013 245.37782L343.75253 246.19542L345.21094 247.65382L344.45963 248.40514ZM342.31622 246.26172L339.58722 243.53271L340.41586 248.16206L342.31622 246.26172Z" fill-rule="nonzero"/><path fill="#000000" d="M353.05197 295.70395L346.97528 289.62726L351.07428 285.52826L351.79242 286.2464L348.49997 289.53888L350.3782 291.4171L353.22873 288.5666L353.9469 289.28476L351.09637 292.13528L353.85852 294.8974L353.05197 295.70395ZM357.84705 290.90887L351.77032 284.83218L352.52164 284.08087L358.59833 290.1576L357.84705 290.90887ZM362.8741 285.8818L362.22226 285.22992Q362.45428 286.50052 361.5704 287.3844Q361.1837 287.7711 360.69757 287.96997Q360.21143 288.14676 359.8247 288.0915Q359.42697 288.0252 359.02924 287.76004Q358.77512 287.59433 358.28897 287.1082L355.57104 284.39026L356.32233 283.63895L358.76407 286.08066Q359.3386 286.65518 359.5927 286.82092Q359.94626 287.0419 360.344 286.9977Q360.74176 286.9314 361.08426 286.5889Q361.4157 286.25745 361.53723 285.80444Q361.65878 285.32938 361.482 284.90952Q361.31628 284.47864 360.7528 283.91516L358.39948 281.56183L359.1397 280.82156L363.53702 285.21887L362.8741 285.8818ZM359.72528 278.6008L358.8635 277.739L359.6148 276.98773L360.4766 277.84952L359.72528 278.6008ZM364.9402 283.81573L360.54288 279.4184L361.2942 278.6671L365.6915 283.06442L364.9402 283.81573ZM369.91205 278.84387L369.35962 278.29144Q369.59164 279.36316 368.7851 280.1697Q368.25476 280.70004 367.52554 280.8547Q366.7853 280.99835 366.02295 280.72214Q365.26062 280.44592 364.58664 279.77194Q363.93478 279.1201 363.61438 278.35773Q363.29398 277.5954 363.4597 276.87723Q363.61438 276.14804 364.15576 275.60666Q364.5535 275.2089 365.0286 275.06528Q365.50366 274.92163 365.9677 274.98795L363.79114 272.81137L364.5314 272.0711L370.6081 278.14783L369.91205 278.84387ZM365.36005 278.99857Q366.2108 279.8493 366.9842 279.9156Q367.74652 279.97083 368.23267 279.48468Q368.7188 278.99857 368.66354 278.2583Q368.6083 277.51804 367.7907 276.70047Q366.88474 275.79446 366.11133 275.72818Q365.349 275.65085 364.84076 276.1591Q364.34357 276.65625 364.42093 277.3965Q364.4872 278.12573 365.36005 278.99857ZM374.3425 273.33066Q374.2762 274.10406 374.03314 274.63437Q373.80112 275.15366 373.3592 275.5956Q372.62997 276.3248 371.88974 276.35794Q371.14948 276.3911 370.59705 275.83868Q370.27664 275.51825 370.15512 275.10947Q370.02252 274.68964 370.1109 274.29187Q370.18826 273.8831 370.40924 273.50742Q370.55286 273.2312 370.9506 272.723Q371.7461 271.7286 372.0223 271.14304Q371.86765 270.98837 371.8345 270.95523Q371.37045 270.49118 370.97272 270.51328Q370.44238 270.55746 369.8789 271.12094Q369.35962 271.64023 369.29333 272.08215Q369.21597 272.51306 369.5585 273.09863L368.72986 273.7284Q368.36523 273.16492 368.31 272.64563Q368.25476 272.12637 368.53098 271.5408Q368.8072 270.95523 369.37067 270.39175Q369.93414 269.82828 370.4203 269.6073Q370.9064 269.38632 371.27103 269.41946Q371.63562 269.4526 372.01126 269.69568Q372.23224 269.85037 372.72943 270.34753L373.7238 271.34192Q374.76236 272.38046 375.08276 272.6125Q375.4142 272.83347 375.81195 272.94394L375.02753 273.7284Q374.68503 273.60687 374.3425 273.33066ZM372.60788 271.7286Q372.3648 272.30313 371.6798 273.2312Q371.28207 273.76154 371.18262 274.03775Q371.07214 274.30292 371.11633 274.56808Q371.17157 274.8222 371.37045 275.0211Q371.66876 275.3194 372.0886 275.2973Q372.5195 275.26416 372.95038 274.83325Q373.3813 274.40237 373.5249 273.8831Q373.6796 273.35275 373.5028 272.8666Q373.37024 272.49097 372.8841 272.00482L372.60788 271.7286ZM376.961 271.7949L372.5637 267.39758L373.2266 266.73468L373.84534 267.3534Q373.6133 266.1491 374.53033 265.23206Q374.92807 264.83432 375.40317 264.64648Q375.8893 264.44763 376.28705 264.51392Q376.6848 264.5802 377.06046 264.82327Q377.30353 265.00006 377.82278 265.51932L380.5297 268.22623L379.78943 268.9665L377.1157 266.29272Q376.65164 265.8287 376.3423 265.6961Q376.03293 265.56354 375.67938 265.65192Q375.3148 265.72925 375.01648 266.02756Q374.54138 266.50266 374.4972 267.16556Q374.453 267.80637 375.2927 268.64606L377.70126 271.05466L376.961 271.7949ZM376.69586 261.63025L375.83408 260.76846L376.58536 260.01715L377.44714 260.87894L376.69586 261.63025ZM381.91077 266.84515L377.51343 262.44785L378.26474 261.69653L382.66205 266.09384L381.91077 266.84515ZM384.03207 264.72385L379.63477 260.3265L380.29767 259.6636L380.91638 260.28232Q380.79486 259.74094 380.94952 259.2106Q381.09317 258.66925 381.5351 258.2273Q382.02124 257.74115 382.52948 257.63068Q383.04877 257.50912 383.53488 257.7522Q383.3029 256.45953 384.13153 255.63089Q384.79443 254.96797 385.50153 254.99007Q386.20865 254.99007 386.971 255.75243L389.98724 258.76868L389.24698 259.5089L386.47382 256.73575Q386.03186 256.2938 385.75565 256.17227Q385.49048 256.03967 385.18112 256.106Q384.87177 256.17227 384.6066 256.43744Q384.14258 256.90146 384.14258 257.52017Q384.15363 258.12787 384.83862 258.81287L387.39084 261.36508L386.63953 262.1164L383.77795 259.25482Q383.2808 258.75763 382.84988 258.7024Q382.419 258.62503 382.0102 259.03384Q381.6898 259.35425 381.59036 259.78513Q381.4909 260.21603 381.6898 260.65796Q381.88867 261.0999 382.4853 261.69653L384.77234 263.98358L384.03207 264.72385ZM393.4344 254.23877Q393.3681 255.01216 393.12503 255.5425Q392.893 256.06177 392.45108 256.50372Q391.72186 257.2329 390.98163 257.26608Q390.24136 257.29922 389.68893 256.7468Q389.36853 256.4264 389.24698 256.01758Q389.1144 255.59775 389.2028 255.2Q389.28015 254.7912 389.5011 254.41554Q389.64474 254.13933 390.04248 253.6311Q390.83798 252.63673 391.1142 252.05116Q390.9595 251.89648 390.92636 251.86333Q390.46234 251.39929 390.06458 251.42139Q389.53424 251.46559 388.9708 252.02907Q388.4515 252.54834 388.3852 252.99028Q388.30786 253.42117 388.65036 254.00674L387.82172 254.63652Q387.45712 254.07304 387.4019 253.55376Q387.34665 253.03448 387.62286 252.4489Q387.89908 251.86333 388.46255 251.29985Q389.02603 250.73637 389.51215 250.51541Q389.9983 250.29443 390.36288 250.32759Q390.7275 250.36073 391.10315 250.6038Q391.32413 250.75848 391.8213 251.25566L392.81567 252.25003Q393.85425 253.28859 394.17465 253.52061Q394.5061 253.7416 394.90384 253.85207L394.11942 254.63652Q393.7769 254.51498 393.4344 254.23877ZM391.69977 252.63673Q391.4567 253.21126 390.7717 254.13933Q390.37393 254.66966 390.2745 254.94588Q390.16403 255.21104 390.20822 255.47621Q390.26346 255.73032 390.46234 255.9292Q390.76065 256.2275 391.18048 256.2054Q391.6114 256.17227 392.04227 255.74138Q392.47318 255.31049 392.6168 254.7912Q392.77148 254.26086 392.5947 253.77473Q392.46213 253.39908 391.97598 252.91295L391.69977 252.63673ZM397.01413 250.41597L397.77646 250.95735Q397.52234 251.34406 397.2793 251.58711Q396.87048 251.99591 396.52798 252.09535Q396.17444 252.18375 395.86508 252.07326Q395.56677 251.95172 394.8928 251.27776L392.36267 248.74765L391.8213 249.28902L391.24677 248.7145L391.78815 248.17313L390.69437 247.07932L390.99268 245.89713L392.5284 247.43286L393.27972 246.68156L393.85425 247.25609L393.10294 248.00739L395.67725 250.5817Q395.99765 250.90211 396.1192 250.95735Q396.25177 251.00154 396.3954 250.9684Q396.53903 250.93526 396.70477 250.76953Q396.83734 250.63695 397.01413 250.41597ZM399.7652 246.16228L400.62698 245.47728Q401.12418 246.32802 401.00266 247.20085Q400.8811 248.07368 400.11877 248.83603Q399.15753 249.79726 397.9864 249.77516Q396.8263 249.74202 395.75458 248.6703Q394.64972 247.56544 394.61658 246.38326Q394.5724 245.19002 395.47836 244.28403Q396.36224 243.40015 397.5113 243.44434Q398.6714 243.4775 399.7652 244.57129Q399.8315 244.63759 399.96408 244.77017L396.68265 248.05159Q397.45605 248.73659 398.20737 248.7587Q398.9476 248.76974 399.50003 248.21732Q399.90884 247.80852 399.98618 247.31134Q400.0635 246.79205 399.7652 246.16228ZM396.1192 247.39972L398.57196 244.94695Q397.9643 244.42766 397.45605 244.38347Q396.66055 244.31718 396.09708 244.88065Q395.57782 245.39993 395.56677 246.096Q395.56677 246.781 396.1192 247.39972Z" fill-rule="nonzero"/><path fill="#000000" d="M425.9137 278.73337L422.16824 270.32544L423.03003 269.46365L431.59265 273.0544L430.68668 273.96042L428.1234 272.83347L425.5933 275.3636L426.76443 277.88263L425.9137 278.73337ZM425.17343 274.47968L427.2285 272.42465L424.91934 271.37506Q423.85867 270.911 423.2289 270.54642Q423.69293 271.2535 424.05756 272.03796L425.17343 274.47968ZM433.3604 271.28665L427.29477 268.55768L428.07922 267.77322L431.65894 269.4526Q432.23346 269.73987 432.81903 270.06027Q432.57596 269.61832 432.2666 268.9554L430.56512 265.2873L431.32748 264.52496L434.0565 270.5906L433.3604 271.28665ZM437.9787 263.83994L438.84048 263.15494Q439.33768 264.00568 439.21616 264.8785Q439.0946 265.75134 438.33224 266.5137Q437.37103 267.4749 436.1999 267.45282Q435.0398 267.41968 433.96808 266.34796Q432.86322 265.2431 432.83008 264.0609Q432.7859 262.86768 433.69186 261.9617Q434.57574 261.07782 435.7248 261.122Q436.8849 261.15515 437.9787 262.24896Q438.04498 262.31525 438.17758 262.4478L434.89615 265.72925Q435.66956 266.41425 436.42087 266.43634Q437.1611 266.4474 437.71353 265.89496Q438.12234 265.48618 438.19968 264.98898Q438.277 264.4697 437.9787 263.83994ZM434.33267 265.0774L436.78546 262.6246Q436.1778 262.10532 435.66956 262.06113Q434.87405 261.99484 434.31058 262.55832Q433.79132 263.0776 433.78027 263.77365Q433.78027 264.45865 434.33267 265.0774ZM441.32642 263.32065L436.9291 258.92334L437.60306 258.2494L438.26596 258.9123Q438.05606 258.19412 438.12234 257.84058Q438.18863 257.46494 438.4538 257.19977Q438.82944 256.82413 439.44815 256.66943L439.8901 257.6196Q439.44815 257.7301 439.18298 257.99527Q438.9289 258.2494 438.88467 258.60294Q438.84048 258.9344 439.02832 259.2769Q439.2935 259.80722 439.7575 260.27127L442.06668 262.5804L441.32642 263.32065ZM446.49713 257.06717Q446.43085 257.84058 446.18777 258.3709Q445.95575 258.8902 445.51382 259.33212Q444.7846 260.06134 444.04434 260.09448Q443.3041 260.12762 442.75168 259.5752Q442.43127 259.2548 442.30972 258.846Q442.17715 258.42615 442.26553 258.0284Q442.3429 257.6196 442.56384 257.24396Q442.7075 256.96774 443.10522 256.4595Q443.90073 255.46515 444.17694 254.87958Q444.02225 254.7249 443.9891 254.69174Q443.5251 254.2277 443.12732 254.2498Q442.597 254.294 442.0335 254.85748Q441.51425 255.37675 441.44794 255.8187Q441.3706 256.2496 441.7131 256.83517L440.88446 257.46494Q440.51987 256.90146 440.46463 256.38217Q440.4094 255.8629 440.6856 255.27731Q440.96182 254.69174 441.5253 254.12827Q442.08878 253.56479 442.5749 253.34383Q443.06104 253.12285 443.42563 253.156Q443.79025 253.18915 444.1659 253.43222Q444.38687 253.5869 444.88403 254.08408L445.87842 255.07845Q446.917 256.117 447.2374 256.34903Q447.56885 256.57 447.96658 256.68048L447.18213 257.46494Q446.83963 257.34338 446.49713 257.06717ZM444.7625 255.46515Q444.51944 256.03967 443.83444 256.96774Q443.43668 257.49808 443.33725 257.7743Q443.22678 258.03946 443.27097 258.30463Q443.3262 258.55875 443.5251 258.7576Q443.8234 259.0559 444.24323 259.0338Q444.67413 259.00067 445.105 258.5698Q445.53592 258.1389 445.67953 257.6196Q445.83423 257.0893 445.65744 256.60315Q445.52487 256.2275 445.03873 255.74136L444.7625 255.46515ZM449.3366 256.03967L450.1763 255.42094Q450.55194 255.7082 450.91656 255.65297Q451.40268 255.58669 451.87778 255.11159Q452.39706 254.59232 452.46335 254.10617Q452.54068 253.609 452.2755 253.14496Q452.1098 252.84663 451.36954 252.12848Q451.45792 253.18915 450.72873 253.91835Q449.82275 254.82433 448.6737 254.66965Q447.5136 254.50392 446.6076 253.59795Q445.97784 252.96817 445.6685 252.21687Q445.35913 251.44348 445.50278 250.72533Q445.6464 250.00717 446.23196 249.42159Q447.01642 248.63715 448.15442 248.75868L447.62408 248.22835L448.30908 247.54333L452.1098 251.34404Q453.1373 252.37155 453.35828 253.01237Q453.57925 253.65318 453.36932 254.34924Q453.17044 255.05635 452.50754 255.71927Q451.72308 256.50372 450.8834 256.6363Q450.0437 256.76886 449.3366 256.03967ZM447.31473 252.78035Q448.1765 253.64214 448.91678 253.69737Q449.657 253.75262 450.1763 253.23334Q450.6956 252.71405 450.64035 251.9738Q450.59613 251.2225 449.75644 250.38281Q448.94992 249.57628 448.1765 249.53207Q447.41415 249.47684 446.9059 249.98506Q446.40875 250.48225 446.464 251.2446Q446.51923 251.98485 447.31473 252.78035ZM455.65637 246.16228L456.51816 245.47726Q457.01535 246.328 456.8938 247.20084Q456.77228 248.07367 456.00992 248.83601Q455.0487 249.79724 453.87756 249.77515Q452.71747 249.742 451.64575 248.67029Q450.5409 247.56543 450.50775 246.38324Q450.46356 245.19 451.36954 244.28401Q452.25342 243.40013 453.40247 243.44434Q454.56256 243.47748 455.65637 244.57127Q455.72266 244.63757 455.85526 244.77016L452.57382 248.05157Q453.34723 248.73659 454.09854 248.75868Q454.83878 248.76973 455.3912 248.2173Q455.80002 247.8085 455.87735 247.31133Q455.95468 246.79204 455.65637 246.16228ZM452.01035 247.3997L454.46313 244.94693Q453.85547 244.42764 453.34723 244.38345Q452.55173 244.31717 451.98825 244.88065Q451.46896 245.39992 451.45792 246.09598Q451.45792 246.78099 452.01035 247.3997Z" fill-rule="nonzero"/><path fill="#4285f4" d="M109.0 17.6C109.0 17.047716 109.447716 16.6 110.0 16.6L120.0 16.6C120.552284 16.6 121.0 17.047716 121.0 17.6L121.0 27.6C121.0 28.152285 120.552284 28.6 120.0 28.6L110.0 28.6C109.447716 28.6 109.0 28.152285 109.0 27.6Z" fill-rule="nonzero"/><path fill="#1a1a1a" d="M129.9375 26.6L129.9375 18.00625L133.75 18.00625Q134.90625 18.00625 135.5 18.240625Q136.09375 18.475 136.45312 19.06875Q136.8125 19.646875 136.8125 20.35Q136.8125 21.271875 136.21875 21.896875Q135.625 22.521875 134.39062 22.69375Q134.84375 22.9125 135.07812 23.115625Q135.57812 23.56875 136.01562 24.25625L137.51562 26.6L136.07812 26.6L134.95312 24.81875Q134.45312 24.0375 134.125 23.63125Q133.8125 23.225 133.54688 23.06875Q133.29688 22.896875 133.03125 22.81875Q132.84375 22.7875 132.40625 22.7875L131.07812 22.7875L131.07812 26.6L129.9375 26.6ZM131.07812 21.803125L133.53125 21.803125Q134.29688 21.803125 134.73438 21.646875Q135.1875 21.475 135.40625 21.13125Q135.64062 20.771875 135.64062 20.35Q135.64062 19.740625 135.1875 19.35Q134.75 18.959375 133.79688 18.959375L131.07812 18.959375L131.07812 21.803125ZM142.85938 25.834375Q142.26562 26.334375 141.71875 26.5375Q141.1875 26.740625 140.5625 26.740625Q139.53125 26.740625 138.98438 26.240625Q138.4375 25.740625 138.4375 24.959375Q138.4375 24.50625 138.64062 24.13125Q138.84375 23.740625 139.1875 23.521875Q139.53125 23.2875 139.95312 23.178125Q140.25 23.084375 140.89062 23.00625Q142.15625 22.865625 142.76562 22.646875Q142.76562 22.428125 142.76562 22.38125Q142.76562 21.725 142.46875 21.459375Q142.0625 21.115625 141.26562 21.115625Q140.53125 21.115625 140.17188 21.38125Q139.8125 21.63125 139.64062 22.2875L138.60938 22.146875Q138.75 21.490625 139.07812 21.084375Q139.40625 20.678125 140.01562 20.459375Q140.625 20.240625 141.42188 20.240625Q142.21875 20.240625 142.71875 20.428125Q143.21875 20.615625 143.45312 20.896875Q143.6875 21.178125 143.78125 21.615625Q143.82812 21.88125 143.82812 22.584375L143.82812 23.990625Q143.82812 25.459375 143.89062 25.85Q143.96875 26.240625 144.17188 26.6L143.0625 26.6Q142.90625 26.271875 142.85938 25.834375ZM142.76562 23.475Q142.1875 23.709375 141.04688 23.88125Q140.39062 23.975 140.125 24.1Q139.85938 24.209375 139.70312 24.428125Q139.5625 24.646875 139.5625 24.928125Q139.5625 25.35 139.875 25.63125Q140.20312 25.9125 140.8125 25.9125Q141.42188 25.9125 141.89062 25.646875Q142.375 25.38125 142.59375 24.9125Q142.76562 24.553125 142.76562 23.865625L142.76562 23.475ZM145.79688 26.6L145.79688 20.38125L146.73438 20.38125L146.73438 21.25625Q147.42188 20.240625 148.71875 20.240625Q149.28125 20.240625 149.75 20.44375Q150.23438 20.646875 150.46875 20.975Q150.70312 21.303125 150.79688 21.740625Q150.84375 22.0375 150.84375 22.771875L150.84375 26.6L149.79688 26.6L149.79688 22.81875Q149.79688 22.1625 149.67188 21.85Q149.54688 21.5375 149.23438 21.35Q148.92188 21.146875 148.5 21.146875Q147.82812 21.146875 147.32812 21.584375Q146.84375 22.00625 146.84375 23.19375L146.84375 26.6L145.79688 26.6ZM156.82812 26.6L156.82812 25.81875Q156.23438 26.740625 155.09375 26.740625Q154.34375 26.740625 153.71875 26.334375Q153.09375 25.9125 152.75 25.178125Q152.40625 24.44375 152.40625 23.490625Q152.40625 22.56875 152.71875 21.803125Q153.03125 21.0375 153.65625 20.646875Q154.28125 20.240625 155.04688 20.240625Q155.60938 20.240625 156.04688 20.475Q156.48438 20.709375 156.76562 21.084375L156.76562 18.00625L157.8125 18.00625L157.8125 26.6L156.82812 26.6ZM153.5 23.490625Q153.5 24.69375 154.0 25.2875Q154.5 25.865625 155.1875 25.865625Q155.875 25.865625 156.35938 25.303125Q156.84375 24.740625 156.84375 23.584375Q156.84375 22.303125 156.34375 21.709375Q155.85938 21.115625 155.14062 21.115625Q154.4375 21.115625 153.96875 21.69375Q153.5 22.25625 153.5 23.490625ZM159.40625 23.490625Q159.40625 21.75625 160.35938 20.928125Q161.15625 20.240625 162.3125 20.240625Q163.59375 20.240625 164.40625 21.084375Q165.23438 21.9125 165.23438 23.396875Q165.23438 24.6 164.875 25.2875Q164.51562 25.975 163.8125 26.365625Q163.125 26.740625 162.3125 26.740625Q161.01562 26.740625 160.20312 25.9125Q159.40625 25.06875 159.40625 23.490625ZM160.48438 23.490625Q160.48438 24.678125 161.0 25.271875Q161.53125 25.865625 162.3125 25.865625Q163.10938 25.865625 163.625 25.271875Q164.14062 24.678125 164.14062 23.459375Q164.14062 22.303125 163.60938 21.709375Q163.09375 21.115625 162.3125 21.115625Q161.53125 21.115625 161.0 21.709375Q160.48438 22.2875 160.48438 23.490625ZM166.79688 26.6L166.79688 20.38125L167.73438 20.38125L167.73438 21.25625Q168.03125 20.7875 168.51562 20.521875Q169.0 20.240625 169.625 20.240625Q170.3125 20.240625 170.75 20.521875Q171.20312 20.803125 171.375 21.31875Q172.125 20.240625 173.29688 20.240625Q174.23438 20.240625 174.71875 20.75625Q175.21875 21.25625 175.21875 22.334375L175.21875 26.6L174.17188 26.6L174.17188 22.678125Q174.17188 22.053125 174.0625 21.771875Q173.96875 21.490625 173.70312 21.31875Q173.4375 21.146875 173.0625 21.146875Q172.40625 21.146875 171.96875 21.584375Q171.54688 22.021875 171.54688 22.990625L171.54688 26.6L170.48438 26.6L170.48438 22.553125Q170.48438 21.85 170.21875 21.50625Q169.96875 21.146875 169.39062 21.146875Q168.9375 21.146875 168.5625 21.38125Q168.1875 21.615625 168.01562 22.06875Q167.84375 22.521875 167.84375 23.365625L167.84375 26.6L166.79688 26.6Z" fill-rule="nonzero"/><path fill="#ea4335" d="M192.0 17.6C192.0 17.047716 192.44771 16.6 193.0 16.6L203.0 16.6C203.55229 16.6 204.0 17.047716 204.0 17.6L204.0 27.6C204.0 28.152285 203.55229 28.6 203.0 28.6L193.0 28.6C192.44771 28.6 192.0 28.152285 192.0 27.6Z" fill-rule="nonzero"/><path fill="#1a1a1a" d="M212.96875 26.6L212.96875 18.00625L214.09375 18.00625L214.09375 21.5375L218.5625 21.5375L218.5625 18.00625L219.70312 18.00625L219.70312 26.6L218.5625 26.6L218.5625 22.553125L214.09375 22.553125L214.09375 26.6L212.96875 26.6ZM220.98438 26.6L224.28125 18.00625L225.5 18.00625L229.01562 26.6L227.73438 26.6L226.71875 23.990625L223.14062 23.990625L222.1875 26.6L220.98438 26.6ZM223.46875 23.06875L226.375 23.06875L225.48438 20.69375Q225.0625 19.615625 224.875 18.9125Q224.70312 19.740625 224.40625 20.553125L223.46875 23.06875ZM229.875 26.6L229.875 18.00625L231.01562 18.00625L231.01562 25.584375L235.25 25.584375L235.25 26.6L229.875 26.6ZM236.875 26.6L236.875 18.00625L238.01562 18.00625L238.01562 25.584375L242.25 25.584375L242.25 26.6L236.875 26.6ZM243.54688 23.834375L244.60938 23.740625Q244.6875 24.396875 244.96875 24.803125Q245.25 25.209375 245.82812 25.475Q246.42188 25.725 247.15625 25.725Q247.79688 25.725 248.29688 25.5375Q248.79688 25.334375 249.03125 25.00625Q249.28125 24.6625 249.28125 24.271875Q249.28125 23.865625 249.04688 23.56875Q248.8125 23.25625 248.28125 23.053125Q247.92188 22.9125 246.73438 22.63125Q245.5625 22.35 245.09375 22.1Q244.46875 21.771875 244.17188 21.303125Q243.875 20.81875 243.875 20.225Q243.875 19.584375 244.23438 19.021875Q244.60938 18.44375 245.3125 18.1625Q246.03125 17.865625 246.89062 17.865625Q247.84375 17.865625 248.57812 18.178125Q249.3125 18.475 249.70312 19.084375Q250.09375 19.678125 250.125 20.428125L249.03125 20.50625Q248.9375 19.69375 248.42188 19.2875Q247.92188 18.865625 246.9375 18.865625Q245.90625 18.865625 245.4375 19.240625Q244.96875 19.615625 244.96875 20.146875Q244.96875 20.615625 245.29688 20.9125Q245.625 21.209375 247.0 21.521875Q248.39062 21.834375 248.90625 22.06875Q249.65625 22.428125 250.01562 22.959375Q250.375 23.475 250.375 24.178125Q250.375 24.865625 249.98438 25.475Q249.59375 26.06875 248.85938 26.4125Q248.125 26.740625 247.20312 26.740625Q246.03125 26.740625 245.23438 26.4125Q244.45312 26.06875 244.0 25.38125Q243.5625 24.69375 243.54688 23.834375Z" fill-rule="nonzero"/><path fill="#fbbc04" d="M267.0 17.6C267.0 17.047716 267.44772 16.6 268.0 16.6L278.0 16.6C278.55228 16.6 279.0 17.047716 279.0 17.6L279.0 27.6C279.0 28.152285 278.55228 28.6 278.0 28.6L268.0 28.6C267.44772 28.6 267.0 28.152285 267.0 27.6Z" fill-rule="nonzero"/><path fill="#1a1a1a" d="M287.92188 26.6L287.92188 18.00625L291.17188 18.00625Q292.01562 18.00625 292.46875 18.084375Q293.10938 18.19375 293.53125 18.490625Q293.96875 18.7875 294.21875 19.31875Q294.48438 19.85 294.48438 20.490625Q294.48438 21.584375 293.78125 22.35Q293.09375 23.1 291.26562 23.1L289.0625 23.1L289.0625 26.6L287.92188 26.6ZM289.0625 22.1L291.28125 22.1Q292.39062 22.1 292.84375 21.69375Q293.3125 21.271875 293.3125 20.521875Q293.3125 19.990625 293.03125 19.615625Q292.76562 19.225 292.32812 19.1Q292.03125 19.021875 291.26562 19.021875L289.0625 19.021875L289.0625 22.1ZM295.78125 26.6L295.78125 20.38125L296.73438 20.38125L296.73438 21.31875Q297.09375 20.6625 297.39062 20.459375Q297.70312 20.240625 298.07812 20.240625Q298.60938 20.240625 299.15625 20.56875L298.79688 21.553125Q298.40625 21.31875 298.03125 21.31875Q297.67188 21.31875 297.39062 21.5375Q297.125 21.740625 297.01562 22.115625Q296.82812 22.678125 296.82812 23.334375L296.82812 26.6L295.78125 26.6ZM299.40625 23.490625Q299.40625 21.75625 300.35938 20.928125Q301.15625 20.240625 302.3125 20.240625Q303.59375 20.240625 304.40625 21.084375Q305.23438 21.9125 305.23438 23.396875Q305.23438 24.6 304.875 25.2875Q304.51562 25.975 303.8125 26.365625Q303.125 26.740625 302.3125 26.740625Q301.01562 26.740625 300.20312 25.9125Q299.40625 25.06875 299.40625 23.490625ZM300.48438 23.490625Q300.48438 24.678125 301.0 25.271875Q301.53125 25.865625 302.3125 25.865625Q303.10938 25.865625 303.625 25.271875Q304.14062 24.678125 304.14062 23.459375Q304.14062 22.303125 303.60938 21.709375Q303.09375 21.115625 302.3125 21.115625Q301.53125 21.115625 301.0 21.709375Q300.48438 22.2875 300.48438 23.490625ZM306.79688 28.990625L306.79688 20.38125L307.75 20.38125L307.75 21.178125Q308.09375 20.709375 308.51562 20.475Q308.95312 20.240625 309.5625 20.240625Q310.35938 20.240625 310.96875 20.646875Q311.57812 21.053125 311.875 21.803125Q312.1875 22.553125 312.1875 23.44375Q312.1875 24.396875 311.84375 25.1625Q311.51562 25.928125 310.85938 26.334375Q310.20312 26.740625 309.48438 26.740625Q308.95312 26.740625 308.53125 26.521875Q308.10938 26.2875 307.84375 25.959375L307.84375 28.990625L306.79688 28.990625ZM307.75 23.521875Q307.75 24.725 308.23438 25.303125Q308.71875 25.865625 309.40625 25.865625Q310.10938 25.865625 310.60938 25.271875Q311.10938 24.678125 311.10938 23.428125Q311.10938 22.240625 310.625 21.6625Q310.14062 21.06875 309.45312 21.06875Q308.78125 21.06875 308.26562 21.69375Q307.75 22.31875 307.75 23.521875ZM313.40625 23.490625Q313.40625 21.75625 314.35938 20.928125Q315.15625 20.240625 316.3125 20.240625Q317.59375 20.240625 318.40625 21.084375Q319.23438 21.9125 319.23438 23.396875Q319.23438 24.6 318.875 25.2875Q318.51562 25.975 317.8125 26.365625Q317.125 26.740625 316.3125 26.740625Q315.01562 26.740625 314.20312 25.9125Q313.40625 25.06875 313.40625 23.490625ZM314.48438 23.490625Q314.48438 24.678125 315.0 25.271875Q315.53125 25.865625 316.3125 25.865625Q317.10938 25.865625 317.625 25.271875Q318.14062 24.678125 318.14062 23.459375Q318.14062 22.303125 317.60938 21.709375Q317.09375 21.115625 316.3125 21.115625Q315.53125 21.115625 315.0 21.709375Q314.48438 22.2875 314.48438 23.490625ZM320.375 24.740625L321.40625 24.584375Q321.5 25.209375 321.89062 25.5375Q322.29688 25.865625 323.03125 25.865625Q323.75 25.865625 324.09375 25.584375Q324.45312 25.2875 324.45312 24.88125Q324.45312 24.521875 324.14062 24.31875Q323.92188 24.178125 323.0625 23.959375Q321.90625 23.6625 321.45312 23.459375Q321.01562 23.240625 320.78125 22.865625Q320.54688 22.490625 320.54688 22.021875Q320.54688 21.615625 320.73438 21.25625Q320.92188 20.896875 321.25 20.6625Q321.5 20.490625 321.92188 20.365625Q322.34375 20.240625 322.84375 20.240625Q323.5625 20.240625 324.10938 20.459375Q324.67188 20.6625 324.9375 21.021875Q325.20312 21.38125 325.29688 21.975L324.26562 22.115625Q324.20312 21.646875 323.85938 21.38125Q323.53125 21.1 322.90625 21.1Q322.1875 21.1 321.875 21.35Q321.5625 21.584375 321.5625 21.9125Q321.5625 22.115625 321.6875 22.271875Q321.82812 22.44375 322.09375 22.553125Q322.25 22.615625 323.03125 22.81875Q324.15625 23.13125 324.59375 23.31875Q325.03125 23.50625 325.28125 23.865625Q325.53125 24.225 325.53125 24.771875Q325.53125 25.303125 325.21875 25.771875Q324.92188 26.225 324.34375 26.490625Q323.76562 26.740625 323.03125 26.740625Q321.8125 26.740625 321.17188 26.240625Q320.54688 25.725 320.375 24.740625ZM331.04688 24.6L332.14062 24.725Q331.89062 25.678125 331.1875 26.209375Q330.48438 26.740625 329.40625 26.740625Q328.04688 26.740625 327.23438 25.896875Q326.4375 25.053125 326.4375 23.5375Q326.4375 21.975 327.25 21.115625Q328.0625 20.240625 329.34375 20.240625Q330.59375 20.240625 331.375 21.084375Q332.17188 21.928125 332.17188 23.475Q332.17188 23.56875 332.17188 23.75625L327.53125 23.75625Q327.59375 24.7875 328.10938 25.334375Q328.625 25.865625 329.40625 25.865625Q329.98438 25.865625 330.39062 25.56875Q330.8125 25.25625 331.04688 24.6ZM327.59375 22.896875L331.0625 22.896875Q331.0 22.1 330.67188 21.709375Q330.15625 21.1 329.35938 21.1Q328.625 21.1 328.125 21.584375Q327.64062 22.06875 327.59375 22.896875ZM337.82812 26.6L337.82812 25.81875Q337.23438 26.740625 336.09375 26.740625Q335.34375 26.740625 334.71875 26.334375Q334.09375 25.9125 333.75 25.178125Q333.40625 24.44375 333.40625 23.490625Q333.40625 22.56875 333.71875 21.803125Q334.03125 21.0375 334.65625 20.646875Q335.28125 20.240625 336.04688 20.240625Q336.60938 20.240625 337.04688 20.475Q337.48438 20.709375 337.76562 21.084375L337.76562 18.00625L338.8125 18.00625L338.8125 26.6L337.82812 26.6ZM334.5 23.490625Q334.5 24.69375 335.0 25.2875Q335.5 25.865625 336.1875 25.865625Q336.875 25.865625 337.35938 25.303125Q337.84375 24.740625 337.84375 23.584375Q337.84375 22.303125 337.34375 21.709375Q336.85938 21.115625 336.14062 21.115625Q335.4375 21.115625 334.96875 21.69375Q334.5 22.25625 334.5 23.490625ZM345.8125 29.13125Q344.9375 28.021875 344.32812 26.553125Q343.73438 25.06875 343.73438 23.490625Q343.73438 22.1 344.17188 20.81875Q344.70312 19.334375 345.8125 17.865625L346.5625 17.865625Q345.85938 19.084375 345.625 19.6Q345.26562 20.4125 345.0625 21.2875Q344.8125 22.38125 344.8125 23.490625Q344.8125 26.31875 346.5625 29.13125L345.8125 29.13125ZM347.92188 26.6L347.92188 18.00625L350.89062 18.00625Q351.89062 18.00625 352.42188 18.13125Q353.15625 18.303125 353.67188 18.740625Q354.35938 19.31875 354.6875 20.225Q355.03125 21.115625 355.03125 22.25625Q355.03125 23.240625 354.79688 23.990625Q354.57812 24.740625 354.21875 25.240625Q353.85938 25.740625 353.42188 26.021875Q353.0 26.303125 352.40625 26.459375Q351.8125 26.6 351.03125 26.6L347.92188 26.6ZM349.0625 25.584375L350.89062 25.584375Q351.75 25.584375 352.23438 25.428125Q352.71875 25.271875 353.0 24.975Q353.40625 24.584375 353.625 23.896875Q353.85938 23.209375 353.85938 22.240625Q353.85938 20.896875 353.40625 20.178125Q352.96875 19.44375 352.34375 19.19375Q351.875 19.021875 350.875 19.021875L349.0625 19.021875L349.0625 25.584375ZM355.98438 26.6L359.28125 18.00625L360.5 18.00625L364.01562 26.6L362.73438 26.6L361.71875 23.990625L358.14062 23.990625L357.1875 26.6L355.98438 26.6ZM358.46875 23.06875L361.375 23.06875L360.48438 20.69375Q360.0625 19.615625 359.875 18.9125Q359.70312 19.740625 359.40625 20.553125L358.46875 23.06875ZM364.89062 26.6L364.89062 18.00625L366.60938 18.00625L368.64062 24.084375Q368.92188 24.94375 369.04688 25.365625Q369.1875 24.896875 369.5 23.990625L371.5625 18.00625L373.09375 18.00625L373.09375 26.6L372.0 26.6L372.0 19.4125L369.5 26.6L368.46875 26.6L365.98438 19.2875L365.98438 26.6L364.89062 26.6ZM380.5625 18.00625L381.70312 18.00625L381.70312 22.975Q381.70312 24.271875 381.40625 25.0375Q381.10938 25.7875 380.34375 26.271875Q379.57812 26.740625 378.34375 26.740625Q377.14062 26.740625 376.35938 26.334375Q375.59375 25.9125 375.26562 25.13125Q374.9375 24.334375 374.9375 22.975L374.9375 18.00625L376.07812 18.00625L376.07812 22.959375Q376.07812 24.084375 376.28125 24.615625Q376.5 25.146875 377.0 25.44375Q377.51562 25.725 378.25 25.725Q379.5 25.725 380.03125 25.1625Q380.5625 24.584375 380.5625 22.959375L380.5625 18.00625ZM383.54688 23.834375L384.60938 23.740625Q384.6875 24.396875 384.96875 24.803125Q385.25 25.209375 385.82812 25.475Q386.42188 25.725 387.15625 25.725Q387.79688 25.725 388.29688 25.5375Q388.79688 25.334375 389.03125 25.00625Q389.28125 24.6625 389.28125 24.271875Q389.28125 23.865625 389.04688 23.56875Q388.8125 23.25625 388.28125 23.053125Q387.92188 22.9125 386.73438 22.63125Q385.5625 22.35 385.09375 22.1Q384.46875 21.771875 384.17188 21.303125Q383.875 20.81875 383.875 20.225Q383.875 19.584375 384.23438 19.021875Q384.60938 18.44375 385.3125 18.1625Q386.03125 17.865625 386.89062 17.865625Q387.84375 17.865625 388.57812 18.178125Q389.3125 18.475 389.70312 19.084375Q390.09375 19.678125 390.125 20.428125L389.03125 20.50625Q388.9375 19.69375 388.42188 19.2875Q387.92188 18.865625 386.9375 18.865625Q385.90625 18.865625 385.4375 19.240625Q384.96875 19.615625 384.96875 20.146875Q384.96875 20.615625 385.29688 20.9125Q385.625 21.209375 387.0 21.521875Q388.39062 21.834375 388.90625 22.06875Q389.65625 22.428125 390.01562 22.959375Q390.375 23.475 390.375 24.178125Q390.375 24.865625 389.98438 25.475Q389.59375 26.06875 388.85938 26.4125Q388.125 26.740625 387.20312 26.740625Q386.03125 26.740625 385.23438 26.4125Q384.45312 26.06875 384.0 25.38125Q383.5625 24.69375 383.54688 23.834375ZM392.48438 29.13125L391.73438 29.13125Q393.48438 26.31875 393.48438 23.490625Q393.48438 22.396875 393.23438 21.303125Q393.03125 20.428125 392.67188 19.615625Q392.4375 19.1 391.73438 17.865625L392.48438 17.865625Q393.57812 19.334375 394.10938 20.81875Q394.5625 22.1 394.5625 23.490625Q394.5625 25.06875 393.95312 26.553125Q393.34375 28.021875 392.48438 29.13125Z" fill-rule="nonzero"/></svg>