<svg version="1.1" viewBox="0.0 0.0 503.0 311.0" fill="none" stroke="none" stroke-linecap="square" stroke-miterlimit="10" width="503" height="311" xmlns:xlink="http://www.w3.org/1999/xlink" xmlns="http://www.w3.org/2000/svg"><path fill="#ffffff" d="M0 0L503.0 0L503.0 311.0L0 311.0L0 0Z" fill-rule="nonzero"/><path stroke="#333333" stroke-width="1.0" stroke-linecap="butt" d="M77.5 231.5L487.5 231.5" fill-rule="nonzero"/><path stroke="#cccccc" stroke-width="1.0" stroke-linecap="butt" d="M77.5 185.5L487.5 185.5" fill-rule="nonzero"/><path stroke="#cccccc" stroke-width="1.0" stroke-linecap="butt" d="M77.5 139.5L487.5 139.5" fill-rule="nonzero"/><path stroke="#cccccc" stroke-width="1.0" stroke-linecap="butt" d="M77.5 93.5L487.5 93.5" fill-rule="nonzero"/><path stroke="#cccccc" stroke-width="1.0" stroke-linecap="butt" d="M77.5 46.5L487.5 46.5" fill-rule="nonzero"/><clipPath id="id_0"><path d="M77.55 46.916668L487.45 46.916668L487.45 231.46724L77.55 231.46724L77.55 46.916668Z" clip-rule="nonzero"/></clipPath><path stroke="#000000" stroke-width="0.0" stroke-linecap="butt" stroke-opacity="0.0" clip-path="url(#id_0)" d="M108.0 231.0L97.0 231.0L97.0 49.0C97.0 47.89543 97.89543 47.0 99.0 47.0L106.0 47.0C107.10457 47.0 108.0 47.89543 108.0 49.0Z" fill-rule="nonzero"/><path fill="#4285f4" clip-path="url(#id_0)" d="M108.0 231.0L97.0 231.0L97.0 49.0C97.0 47.89543 97.89543 47.0 99.0 47.0L106.0 47.0C107.10457 47.0 108.0 47.89543 108.0 49.0Z" fill-rule="nonzero"/><path stroke="#000000" stroke-width="0.0" stroke-linecap="butt" stroke-opacity="0.0" clip-path="url(#id_0)" d="M164.0 231.0L153.0 231.0L153.0 49.0C153.0 47.89543 153.89543 47.0 155.0 47.0L162.0 47.0C163.10457 47.0 164.0 47.89543 164.0 49.0Z" fill-rule="nonzero"/><path fill="#4285f4" clip-path="url(#id_0)" d="M164.0 231.0L153.0 231.0L153.0 49.0C153.0 47.89543 153.89543 47.0 155.0 47.0L162.0 47.0C163.10457 47.0 164.0 47.89543 164.0 49.0Z" fill-rule="nonzero"/><path stroke="#000000" stroke-width="0.0" stroke-linecap="butt" stroke-opacity="0.0" clip-path="url(#id_0)" d="M220.0 231.0L209.0 231.0L209.0 49.0C209.0 47.89543 209.89543 47.0 211.0 47.0L218.0 47.0C219.10457 47.0 220.0 47.89543 220.0 49.0Z" fill-rule="nonzero"/><path fill="#4285f4" clip-path="url(#id_0)" d="M220.0 231.0L209.0 231.0L209.0 49.0C209.0 47.89543 209.89543 47.0 211.0 47.0L218.0 47.0C219.10457 47.0 220.0 47.89543 220.0 49.0Z" fill-rule="nonzero"/><path stroke="#000000" stroke-width="0.0" stroke-linecap="butt" stroke-opacity="0.0" clip-path="url(#id_0)" d="M276.0 231.0L265.0 231.0L265.0 49.0C265.0 47.89543 265.89542 47.0 267.0 47.0L274.0 47.0C275.10458 47.0 276.0 47.89543 276.0 49.0Z" fill-rule="nonzero"/><path fill="#4285f4" clip-path="url(#id_0)" d="M276.0 231.0L265.0 231.0L265.0 49.0C265.0 47.89543 265.89542 47.0 267.0 47.0L274.0 47.0C275.10458 47.0 276.0 47.89543 276.0 49.0Z" fill-rule="nonzero"/><path stroke="#000000" stroke-width="0.0" stroke-linecap="butt" stroke-opacity="0.0" clip-path="url(#id_0)" d="M331.0 231.0L320.0 231.0L320.0 49.0C320.0 47.89543 320.89542 47.0 322.0 47.0L329.0 47.0C330.10458 47.0 331.0 47.89543 331.0 49.0Z" fill-rule="nonzero"/><path fill="#4285f4" clip-path="url(#id_0)" d="M331.0 231.0L320.0 231.0L320.0 49.0C320.0 47.89543 320.89542 47.0 322.0 47.0L329.0 47.0C330.10458 47.0 331.0 47.89543 331.0 49.0Z" fill-rule="nonzero"/><path stroke="#000000" stroke-width="0.0" stroke-linecap="butt" stroke-opacity="0.0" clip-path="url(#id_0)" d="M387.0 231.0L376.0 231.0L376.0 49.0C376.0 47.89543 376.89542 47.0 378.0 47.0L385.0 47.0C386.10458 47.0 387.0 47.89543 387.0 49.0Z" fill-rule="nonzero"/><path fill="#4285f4" clip-path="url(#id_0)" d="M387.0 231.0L376.0 231.0L376.0 49.0C376.0 47.89543 376.89542 47.0 378.0 47.0L385.0 47.0C386.10458 47.0 387.0 47.89543 387.0 49.0Z" fill-rule="nonzero"/><path stroke="#000000" stroke-width="0.0" stroke-linecap="butt" stroke-opacity="0.0" clip-path="url(#id_0)" d="M443.0 231.0L432.0 231.0L432.0 49.0C432.0 47.89543 432.89542 47.0 434.0 47.0L441.0 47.0C442.10458 47.0 443.0 47.89543 443.0 49.0Z" fill-rule="nonzero"/><path fill="#4285f4" clip-path="url(#id_0)" d="M443.0 231.0L432.0 231.0L432.0 49.0C432.0 47.89543 432.89542 47.0 434.0 47.0L441.0 47.0C442.10458 47.0 443.0 47.89543 443.0 49.0Z" fill-rule="nonzero"/><path stroke="#000000" stroke-width="0.0" stroke-linecap="butt" stroke-opacity="0.0" clip-path="url(#id_0)" d="M120.0 231.0L109.0 231.0L109.0 56.0C109.0 54.89543 109.89543 54.0 111.0 54.0L118.0 54.0C119.10457 54.0 120.0 54.89543 120.0 56.0Z" fill-rule="nonzero"/><path fill="#ea4335" clip-path="url(#id_0)" d="M120.0 231.0L109.0 231.0L109.0 56.0C109.0 54.89543 109.89543 54.0 111.0 54.0L118.0 54.0C119.10457 54.0 120.0 54.89543 120.0 56.0Z" fill-rule="nonzero"/><path stroke="#000000" stroke-width="0.0" stroke-linecap="butt" stroke-opacity="0.0" clip-path="url(#id_0)" d="M176.0 231.0L165.0 231.0L165.0 61.0C165.0 59.89543 165.89543 59.0 167.0 59.0L174.0 59.0C175.10457 59.0 176.0 59.89543 176.0 61.0Z" fill-rule="nonzero"/><path fill="#ea4335" clip-path="url(#id_0)" d="M176.0 231.0L165.0 231.0L165.0 61.0C165.0 59.89543 165.89543 59.0 167.0 59.0L174.0 59.0C175.10457 59.0 176.0 59.89543 176.0 61.0Z" fill-rule="nonzero"/><path stroke="#000000" stroke-width="0.0" stroke-linecap="butt" stroke-opacity="0.0" clip-path="url(#id_0)" d="M232.0 231.0L221.0 231.0L221.0 50.0C221.0 48.89543 221.89543 48.0 223.0 48.0L230.0 48.0C231.10457 48.0 232.0 48.89543 232.0 50.0Z" fill-rule="nonzero"/><path fill="#ea4335" clip-path="url(#id_0)" d="M232.0 231.0L221.0 231.0L221.0 50.0C221.0 48.89543 221.89543 48.0 223.0 48.0L230.0 48.0C231.10457 48.0 232.0 48.89543 232.0 50.0Z" fill-rule="nonzero"/><path stroke="#000000" stroke-width="0.0" stroke-linecap="butt" stroke-opacity="0.0" clip-path="url(#id_0)" d="M288.0 231.0L277.0 231.0L277.0 59.0C277.0 57.89543 277.89542 57.0 279.0 57.0L286.0 57.0C287.10458 57.0 288.0 57.89543 288.0 59.0Z" fill-rule="nonzero"/><path fill="#ea4335" clip-path="url(#id_0)" d="M288.0 231.0L277.0 231.0L277.0 59.0C277.0 57.89543 277.89542 57.0 279.0 57.0L286.0 57.0C287.10458 57.0 288.0 57.89543 288.0 59.0Z" fill-rule="nonzero"/><path stroke="#000000" stroke-width="0.0" stroke-linecap="butt" stroke-opacity="0.0" clip-path="url(#id_0)" d="M343.0 231.0L332.0 231.0L332.0 54.0C332.0 52.89543 332.89542 52.0 334.0 52.0L341.0 52.0C342.10458 52.0 343.0 52.89543 343.0 54.0Z" fill-rule="nonzero"/><path fill="#ea4335" clip-path="url(#id_0)" d="M343.0 231.0L332.0 231.0L332.0 54.0C332.0 52.89543 332.89542 52.0 334.0 52.0L341.0 52.0C342.10458 52.0 343.0 52.89543 343.0 54.0Z" fill-rule="nonzero"/><path stroke="#000000" stroke-width="0.0" stroke-linecap="butt" stroke-opacity="0.0" clip-path="url(#id_0)" d="M399.0 231.0L388.0 231.0L388.0 51.0C388.0 49.89543 388.89542 49.0 390.0 49.0L397.0 49.0C398.10458 49.0 399.0 49.89543 399.0 51.0Z" fill-rule="nonzero"/><path fill="#ea4335" clip-path="url(#id_0)" d="M399.0 231.0L388.0 231.0L388.0 51.0C388.0 49.89543 388.89542 49.0 390.0 49.0L397.0 49.0C398.10458 49.0 399.0 49.89543 399.0 51.0Z" fill-rule="nonzero"/><path stroke="#000000" stroke-width="0.0" stroke-linecap="butt" stroke-opacity="0.0" clip-path="url(#id_0)" d="M455.0 231.0L444.0 231.0L444.0 55.0C444.0 53.89543 444.89542 53.0 446.0 53.0L453.0 53.0C454.10458 53.0 455.0 53.89543 455.0 55.0Z" fill-rule="nonzero"/><path fill="#ea4335" clip-path="url(#id_0)" d="M455.0 231.0L444.0 231.0L444.0 55.0C444.0 53.89543 444.89542 53.0 446.0 53.0L453.0 53.0C454.10458 53.0 455.0 53.89543 455.0 55.0Z" fill-rule="nonzero"/><path stroke="#000000" stroke-width="0.0" stroke-linecap="butt" stroke-opacity="0.0" clip-path="url(#id_0)" d="M132.0 231.0L121.0 231.0L121.0 123.0C121.0 121.89543 121.89543 121.0 123.0 121.0L130.0 121.0C131.10457 121.0 132.0 121.89543 132.0 123.0Z" fill-rule="nonzero"/><path fill="#fbbc04" clip-path="url(#id_0)" d="M132.0 231.0L121.0 231.0L121.0 123.0C121.0 121.89543 121.89543 121.0 123.0 121.0L130.0 121.0C131.10457 121.0 132.0 121.89543 132.0 123.0Z" fill-rule="nonzero"/><path stroke="#000000" stroke-width="0.0" stroke-linecap="butt" stroke-opacity="0.0" clip-path="url(#id_0)" d="M188.0 231.0L177.0 231.0L177.0 224.0C177.0 222.89543 177.89543 222.0 179.0 222.0L186.0 222.0C187.10457 222.0 188.0 222.89543 188.0 224.0Z" fill-rule="nonzero"/><path fill="#fbbc04" clip-path="url(#id_0)" d="M188.0 231.0L177.0 231.0L177.0 224.0C177.0 222.89543 177.89543 222.0 179.0 222.0L186.0 222.0C187.10457 222.0 188.0 222.89543 188.0 224.0Z" fill-rule="nonzero"/><path stroke="#000000" stroke-width="0.0" stroke-linecap="butt" stroke-opacity="0.0" clip-path="url(#id_0)" d="M244.0 231.0L233.0 231.0L233.0 112.0C233.0 110.89543 233.89543 110.0 235.0 110.0L242.0 110.0C243.10457 110.0 244.0 110.89543 244.0 112.0Z" fill-rule="nonzero"/><path fill="#fbbc04" clip-path="url(#id_0)" d="M244.0 231.0L233.0 231.0L233.0 112.0C233.0 110.89543 233.89543 110.0 235.0 110.0L242.0 110.0C243.10457 110.0 244.0 110.89543 244.0 112.0Z" fill-rule="nonzero"/><path stroke="#000000" stroke-width="0.0" stroke-linecap="butt" stroke-opacity="0.0" clip-path="url(#id_0)" d="M300.0 231.0L289.0 231.0L289.0 166.0C289.0 164.89543 289.89542 164.0 291.0 164.0L298.0 164.0C299.10458 164.0 300.0 164.89543 300.0 166.0Z" fill-rule="nonzero"/><path fill="#fbbc04" clip-path="url(#id_0)" d="M300.0 231.0L289.0 231.0L289.0 166.0C289.0 164.89543 289.89542 164.0 291.0 164.0L298.0 164.0C299.10458 164.0 300.0 164.89543 300.0 166.0Z" fill-rule="nonzero"/><path stroke="#000000" stroke-width="0.0" stroke-linecap="butt" stroke-opacity="0.0" clip-path="url(#id_0)" d="M355.0 231.0L344.0 231.0L344.0 126.0C344.0 124.89543 344.89542 124.0 346.0 124.0L353.0 124.0C354.10458 124.0 355.0 124.89543 355.0 126.0Z" fill-rule="nonzero"/><path fill="#fbbc04" clip-path="url(#id_0)" d="M355.0 231.0L344.0 231.0L344.0 126.0C344.0 124.89543 344.89542 124.0 346.0 124.0L353.0 124.0C354.10458 124.0 355.0 124.89543 355.0 126.0Z" fill-rule="nonzero"/><path stroke="#000000" stroke-width="0.0" stroke-linecap="butt" stroke-opacity="0.0" clip-path="url(#id_0)" d="M411.0 231.0L400.0 231.0L400.0 59.0C400.0 57.89543 400.89542 57.0 402.0 57.0L409.0 57.0C410.10458 57.0 411.0 57.89543 411.0 59.0Z" fill-rule="nonzero"/><path fill="#fbbc04" clip-path="url(#id_0)" d="M411.0 231.0L400.0 231.0L400.0 59.0C400.0 57.89543 400.89542 57.0 402.0 57.0L409.0 57.0C410.10458 57.0 411.0 57.89543 411.0 59.0Z" fill-rule="nonzero"/><path stroke="#000000" stroke-width="0.0" stroke-linecap="butt" stroke-opacity="0.0" clip-path="url(#id_0)" d="M467.0 231.0L456.0 231.0L456.0 135.0C456.0 133.89543 456.89542 133.0 458.0 133.0L465.0 133.0C466.10458 133.0 467.0 133.89543 467.0 135.0Z" fill-rule="nonzero"/><path fill="#fbbc04" clip-path="url(#id_0)" d="M467.0 231.0L456.0 231.0L456.0 135.0C456.0 133.89543 456.89542 133.0 458.0 133.0L465.0 133.0C466.10458 133.0 467.0 133.89543 467.0 135.0Z" fill-rule="nonzero"/><path fill="#000000" d="M26.550013 229.76146L17.956263 229.76146L17.956263 228.60521L24.706263 224.08958L17.956263 224.08958L17.956263 222.99583L26.550013 222.99583L26.550013 224.16771L19.800013 228.68333L26.550013 228.68333L26.550013 229.76146ZM23.440638 221.27708Q21.706263 221.27708 20.878138 220.32396Q20.190638 219.52708 20.190638 218.37083Q20.190638 217.08958 21.034388 216.27708Q21.862513 215.44896 23.346888 215.44896Q24.550013 215.44896 25.237513 215.80833Q25.925013 216.16771 26.315638 216.87083Q26.690638 217.55833 26.690638 218.37083Q26.690638 219.66771 25.862513 220.48021Q25.018763 221.27708 23.440638 221.27708ZM23.440638 220.19896Q24.628138 220.19896 25.221888 219.68333Q25.815638 219.15208 25.815638 218.37083Q25.815638 217.57396 25.221888 217.05833Q24.628138 216.54271 23.409388 216.54271Q22.253138 216.54271 21.659388 217.07396Q21.065638 217.58958 21.065638 218.37083Q21.065638 219.15208 21.659388 219.68333Q22.237513 220.19896 23.440638 220.19896ZM26.550013 213.90208L20.331263 213.90208L20.331263 212.94896L21.268763 212.94896Q20.612513 212.58958 20.409388 212.29271Q20.190638 211.98021 20.190638 211.60521Q20.190638 211.07396 20.518763 210.52708L21.503138 210.88646Q21.268763 211.27708 21.268763 211.65208Q21.268763 212.01146 21.487513 212.29271Q21.690638 212.55833 22.065638 212.66771Q22.628138 212.85521 23.284388 212.85521L26.550013 212.85521L26.550013 213.90208ZM26.550013 209.88646L20.331263 209.88646L20.331263 208.94896L21.206263 208.94896Q20.737513 208.65208 20.471888 208.16771Q20.190638 207.68333 20.190638 207.05833Q20.190638 206.37083 20.471888 205.93333Q20.753138 205.48021 21.268763 205.30833Q20.190638 204.55833 20.190638 203.38646Q20.190638 202.44896 20.706263 201.96458Q21.206263 201.46458 22.284388 201.46458L26.550013 201.46458L26.550013 202.51146L22.628138 202.51146Q22.003138 202.51146 21.721888 202.62083Q21.440638 202.71458 21.268763 202.98021Q21.096888 203.24583 21.096888 203.62083Q21.096888 204.27708 21.534388 204.71458Q21.971888 205.13646 22.940638 205.13646L26.550013 205.13646L26.550013 206.19896L22.503138 206.19896Q21.800013 206.19896 21.456263 206.46458Q21.096888 206.71458 21.096888 207.29271Q21.096888 207.74583 21.331263 208.12083Q21.565638 208.49583 22.018763 208.66771Q22.471888 208.83958 23.315638 208.83958L26.550013 208.83958L26.550013 209.88646ZM25.784388 195.82396Q26.284388 196.41771 26.487513 196.96458Q26.690638 197.49583 26.690638 198.12083Q26.690638 199.15208 26.190638 199.69896Q25.690638 200.24583 24.909388 200.24583Q24.456263 200.24583 24.081263 200.04271Q23.690638 199.83958 23.471888 199.49583Q23.237513 199.15208 23.128138 198.73021Q23.034388 198.43333 22.956263 197.79271Q22.815638 196.52708 22.596888 195.91771Q22.378138 195.91771 22.331263 195.91771Q21.675013 195.91771 21.409388 196.21458Q21.065638 196.62083 21.065638 197.41771Q21.065638 198.15208 21.331263 198.51146Q21.581263 198.87083 22.237513 199.04271L22.096888 200.07396Q21.440638 199.93333 21.034388 199.60521Q20.628138 199.27708 20.409388 198.66771Q20.190638 198.05833 20.190638 197.26146Q20.190638 196.46458 20.378138 195.96458Q20.565638 195.46458 20.846888 195.23021Q21.128138 194.99583 21.565638 194.90208Q21.831263 194.85521 22.534388 194.85521L23.940638 194.85521Q25.409388 194.85521 25.800013 194.79271Q26.190638 194.71458 26.550013 194.51146L26.550013 195.62083Q26.221888 195.77708 25.784388 195.82396ZM23.425013 195.91771Q23.659388 196.49583 23.831263 197.63646Q23.925013 198.29271 24.050013 198.55833Q24.159388 198.82396 24.378138 198.98021Q24.596888 199.12083 24.878138 199.12083Q25.300013 199.12083 25.581263 198.80833Q25.862513 198.48021 25.862513 197.87083Q25.862513 197.26146 25.596888 196.79271Q25.331263 196.30833 24.862513 196.08958Q24.503138 195.91771 23.815638 195.91771L23.425013 195.91771ZM19.175013 192.88646L17.956263 192.88646L17.956263 191.82396L19.175013 191.82396L19.175013 192.88646ZM26.550013 192.88646L20.331263 192.88646L20.331263 191.82396L26.550013 191.82396L26.550013 192.88646ZM26.550013 189.91771L17.956263 189.91771L17.956263 188.85521L26.550013 188.85521L26.550013 189.91771ZM24.690638 187.30833L24.534388 186.27708Q25.159388 186.18333 25.487513 185.79271Q25.815638 185.38646 25.815638 184.65208Q25.815638 183.93333 25.534388 183.58958Q25.237513 183.23021 24.831263 183.23021Q24.471888 183.23021 24.268763 183.54271Q24.128138 183.76146 23.909388 184.62083Q23.612513 185.77708 23.409388 186.23021Q23.190638 186.66771 22.815638 186.90208Q22.440638 187.13646 21.971888 187.13646Q21.565638 187.13646 21.206263 186.94896Q20.846888 186.76146 20.612513 186.43333Q20.440638 186.18333 20.315638 185.76146Q20.190638 185.33958 20.190638 184.83958Q20.190638 184.12083 20.409388 183.57396Q20.612513 183.01146 20.971888 182.74583Q21.331263 182.48021 21.925013 182.38646L22.065638 183.41771Q21.596888 183.48021 21.331263 183.82396Q21.050013 184.15208 21.050013 184.77708Q21.050013 185.49583 21.300013 185.80833Q21.534388 186.12083 21.862513 186.12083Q22.065638 186.12083 22.221888 185.99583Q22.393763 185.85521 22.503138 185.58958Q22.565638 185.43333 22.768763 184.65208Q23.081263 183.52708 23.268763 183.08958Q23.456263 182.65208 23.815638 182.40208Q24.175013 182.15208 24.721888 182.15208Q25.253138 182.15208 25.721888 182.46458Q26.175013 182.76146 26.440638 183.33958Q26.690638 183.91771 26.690638 184.65208Q26.690638 185.87083 26.190638 186.51146Q25.675013 187.13646 24.690638 187.30833ZM24.550013 176.63646L24.675013 175.54271Q25.628138 175.79271 26.159388 176.49583Q26.690638 177.19896 26.690638 178.27708Q26.690638 179.63646 25.846888 180.44896Q25.003138 181.24583 23.487513 181.24583Q21.925013 181.24583 21.065638 180.43333Q20.190638 179.62083 20.190638 178.33958Q20.190638 177.08958 21.034388 176.30833Q21.878138 175.51146 23.425013 175.51146Q23.518763 175.51146 23.706263 175.51146L23.706263 180.15208Q24.737513 180.08958 25.284388 179.57396Q25.815638 179.05833 25.815638 178.27708Q25.815638 177.69896 25.518763 177.29271Q25.206263 176.87083 24.550013 176.63646ZM22.846888 180.08958L22.846888 176.62083Q22.050013 176.68333 21.659388 177.01146Q21.050013 177.52708 21.050013 178.32396Q21.050013 179.05833 21.534388 179.55833Q22.018763 180.04271 22.846888 180.08958ZM26.550013 169.85521L25.768763 169.85521Q26.690638 170.44896 26.690638 171.58958Q26.690638 172.33958 26.284388 172.96458Q25.862513 173.58958 25.128138 173.93333Q24.393763 174.27708 23.440638 174.27708Q22.518763 174.27708 21.753138 173.96458Q20.987513 173.65208 20.596888 173.02708Q20.190638 172.40208 20.190638 171.63646Q20.190638 171.07396 20.425013 170.63646Q20.659388 170.19896 21.034388 169.91771L17.956263 169.91771L17.956263 168.87083L26.550013 168.87083L26.550013 169.85521ZM23.440638 173.18333Q24.643763 173.18333 25.237513 172.68333Q25.815638 172.18333 25.815638 171.49583Q25.815638 170.80833 25.253138 170.32396Q24.690638 169.83958 23.534388 169.83958Q22.253138 169.83958 21.659388 170.33958Q21.065638 170.82396 21.065638 171.54271Q21.065638 172.24583 21.643763 172.71458Q22.206263 173.18333 23.440638 173.18333ZM26.550013 162.26146L17.956263 164.54271L17.956263 163.37083L23.596888 162.05833Q24.471888 161.85521 25.346888 161.69896Q23.971888 161.37083 23.753138 161.30833L17.956263 159.68333L17.956263 158.30833L22.300013 157.07396Q23.925013 156.62083 25.346888 156.40208Q24.534388 156.24583 23.471888 155.98021L17.956263 154.63646L17.956263 153.49583L26.550013 155.83958L26.550013 156.94896L20.003138 158.74583Q19.190638 158.98021 19.003138 159.02708Q19.581263 159.15208 20.003138 159.27708L26.550013 161.08958L26.550013 162.26146ZM26.550013 152.90208L20.331263 152.90208L20.331263 151.94896L21.268763 151.94896Q20.612513 151.58958 20.409388 151.29271Q20.190638 150.98021 20.190638 150.60521Q20.190638 150.07396 20.518763 149.52708L21.503138 149.88646Q21.268763 150.27708 21.268763 150.65208Q21.268763 151.01146 21.487513 151.29271Q21.690638 151.55833 22.065638 151.66771Q22.628138 151.85521 23.284388 151.85521L26.550013 151.85521L26.550013 152.90208ZM19.175013 148.88646L17.956263 148.88646L17.956263 147.82396L19.175013 147.82396L19.175013 148.88646ZM26.550013 148.88646L20.331263 148.88646L20.331263 147.82396L26.550013 147.82396L26.550013 148.88646ZM25.612513 143.58958L26.534388 143.43333Q26.628138 143.88646 26.628138 144.23021Q26.628138 144.80833 26.456263 145.12083Q26.268763 145.43333 25.971888 145.57396Q25.675013 145.69896 24.721888 145.69896L21.143763 145.69896L21.143763 146.46458L20.331263 146.46458L20.331263 145.69896L18.784388 145.69896L18.159388 144.65208L20.331263 144.65208L20.331263 143.58958L21.143763 143.58958L21.143763 144.65208L24.784388 144.65208Q25.237513 144.65208 25.362513 144.60521Q25.487513 144.54271 25.565638 144.41771Q25.643763 144.29271 25.643763 144.05833Q25.643763 143.87083 25.612513 143.58958ZM24.550013 138.63646L24.675013 137.54271Q25.628138 137.79271 26.159388 138.49583Q26.690638 139.19896 26.690638 140.27708Q26.690638 141.63646 25.846888 142.44896Q25.003138 143.24583 23.487513 143.24583Q21.925013 143.24583 21.065638 142.43333Q20.190638 141.62083 20.190638 140.33958Q20.190638 139.08958 21.034388 138.30833Q21.878138 137.51146 23.425013 137.51146Q23.518763 137.51146 23.706263 137.51146L23.706263 142.15208Q24.737513 142.08958 25.284388 141.57396Q25.815638 141.05833 25.815638 140.27708Q25.815638 139.69896 25.518763 139.29271Q25.206263 138.87083 24.550013 138.63646ZM22.846888 142.08958L22.846888 138.62083Q22.050013 138.68333 21.659388 139.01146Q21.050013 139.52708 21.050013 140.32396Q21.050013 141.05833 21.534388 141.55833Q22.018763 142.04271 22.846888 142.08958ZM26.550013 134.91771L26.550013 135.90208L17.956263 135.90208L17.956263 134.83958L21.018763 134.83958Q20.190638 134.16771 20.190638 133.13646Q20.190638 132.55833 20.425013 132.05833Q20.643763 131.54271 21.065638 131.21458Q21.487513 130.87083 22.081263 130.68333Q22.675013 130.49583 23.346888 130.49583Q24.940638 130.49583 25.815638 131.29271Q26.690638 132.08958 26.690638 133.18333Q26.690638 134.29271 25.768763 134.91771L26.550013 134.91771ZM23.393763 134.93333Q24.503138 134.93333 25.003138 134.62083Q25.815638 134.12083 25.815638 133.27708Q25.815638 132.58958 25.221888 132.08958Q24.628138 131.57396 23.425013 131.57396Q22.206263 131.57396 21.628138 132.05833Q21.050013 132.54271 21.050013 133.23021Q21.050013 133.91771 21.659388 134.43333Q22.253138 134.93333 23.393763 134.93333ZM25.784388 124.82396Q26.284388 125.41771 26.487513 125.964584Q26.690638 126.495834 26.690638 127.120834Q26.690638 128.15208 26.190638 128.69896Q25.690638 129.24583 24.909388 129.24583Q24.456263 129.24583 24.081263 129.04271Q23.690638 128.83958 23.471888 128.49583Q23.237513 128.15208 23.128138 127.73021Q23.034388 127.433334 22.956263 126.79271Q22.815638 125.527084 22.596888 124.91771Q22.378138 124.91771 22.331263 124.91771Q21.675013 124.91771 21.409388 125.214584Q21.065638 125.620834 21.065638 126.41771Q21.065638 127.152084 21.331263 127.51146Q21.581263 127.870834 22.237513 128.04271L22.096888 129.07396Q21.440638 128.93333 21.034388 128.60521Q20.628138 128.27708 20.409388 127.66771Q20.190638 127.058334 20.190638 126.26146Q20.190638 125.464584 20.378138 124.964584Q20.565638 124.464584 20.846888 124.23021Q21.128138 123.995834 21.565638 123.902084Q21.831263 123.85521 22.534388 123.85521L23.940638 123.85521Q25.409388 123.85521 25.800013 123.79271Q26.190638 123.714584 26.550013 123.51146L26.550013 124.620834Q26.221888 124.777084 25.784388 124.82396ZM23.425013 124.91771Q23.659388 125.495834 23.831263 126.63646Q23.925013 127.29271 24.050013 127.558334Q24.159388 127.82396 24.378138 127.98021Q24.596888 128.12083 24.878138 128.12083Q25.300013 128.12083 25.581263 127.808334Q25.862513 127.48021 25.862513 126.870834Q25.862513 126.26146 25.596888 125.79271Q25.331263 125.308334 24.862513 125.089584Q24.503138 124.91771 23.815638 124.91771L23.425013 124.91771ZM24.268763 117.82396L24.409388 116.79271Q25.471888 116.964584 26.081263 117.66771Q26.690638 118.370834 26.690638 119.38646Q26.690638 120.66771 25.862513 121.44896Q25.018763 122.214584 23.456263 122.214584Q22.456263 122.214584 21.706263 121.88646Q20.940638 121.54271 20.565638 120.870834Q20.190638 120.183334 20.190638 119.370834Q20.190638 118.370834 20.706263 117.73021Q21.206263 117.07396 22.159388 116.88646L22.315638 117.91771Q21.690638 118.058334 21.378138 118.433334Q21.050013 118.808334 21.050013 119.339584Q21.050013 120.13646 21.628138 120.63646Q22.190638 121.13646 23.425013 121.13646Q24.690638 121.13646 25.253138 120.652084Q25.815638 120.16771 25.815638 119.402084Q25.815638 118.777084 25.440638 118.370834Q25.065638 117.94896 24.268763 117.82396ZM26.550013 115.88646L17.956263 115.88646L17.956263 114.82396L22.862513 114.82396L20.331263 112.339584L20.331263 110.964584L22.628138 113.35521L26.550013 110.73021L26.550013 112.027084L23.362513 114.089584L24.081263 114.82396L26.550013 114.82396L26.550013 115.88646ZM24.690638 110.308334L24.534388 109.277084Q25.159388 109.183334 25.487513 108.79271Q25.815638 108.38646 25.815638 107.652084Q25.815638 106.933334 25.534388 106.589584Q25.237513 106.23021 24.831263 106.23021Q24.471888 106.23021 24.268763 106.54271Q24.128138 106.76146 23.909388 107.620834Q23.612513 108.777084 23.409388 109.23021Q23.190638 109.66771 22.815638 109.902084Q22.440638 110.13646 21.971888 110.13646Q21.565638 110.13646 21.206263 109.94896Q20.846888 109.76146 20.612513 109.433334Q20.440638 109.183334 20.315638 108.76146Q20.190638 108.339584 20.190638 107.839584Q20.190638 107.120834 20.409388 106.57396Q20.612513 106.01146 20.971888 105.745834Q21.331263 105.48021 21.925013 105.38646L22.065638 106.41771Q21.596888 106.48021 21.331263 106.82396Q21.050013 107.152084 21.050013 107.777084Q21.050013 108.495834 21.300013 108.808334Q21.534388 109.120834 21.862513 109.120834Q22.065638 109.120834 22.221888 108.995834Q22.393763 108.85521 22.503138 108.589584Q22.565638 108.433334 22.768763 107.652084Q23.081263 106.527084 23.268763 106.089584Q23.456263 105.652084 23.815638 105.402084Q24.175013 105.152084 24.721888 105.152084Q25.253138 105.152084 25.721888 105.464584Q26.175013 105.76146 26.440638 106.339584Q26.690638 106.91771 26.690638 107.652084Q26.690638 108.870834 26.190638 109.51146Q25.675013 110.13646 24.690638 110.308334Z" fill-rule="nonzero"/><path fill="#000000" d="M48.05 231.23286Q48.05 229.70161 48.3625 228.77974Q48.675 227.84224 49.284374 227.34224Q49.909374 226.84224 50.846874 226.84224Q51.534374 226.84224 52.05 227.12349Q52.58125 227.40474 52.925 227.93599Q53.26875 228.45161 53.45625 229.20161Q53.64375 229.95161 53.64375 231.23286Q53.64375 232.74849 53.33125 233.67036Q53.034374 234.59224 52.409374 235.10786Q51.8 235.60786 50.846874 235.60786Q49.6125 235.60786 48.89375 234.71724Q48.05 233.65474 48.05 231.23286ZM49.128124 231.23286Q49.128124 233.34224 49.628124 234.04536Q50.128124 234.74849 50.846874 234.74849Q51.58125 234.74849 52.065624 234.04536Q52.565624 233.34224 52.565624 231.23286Q52.565624 229.10786 52.065624 228.42036Q51.58125 227.71724 50.83125 227.71724Q50.1125 227.71724 49.675 228.32661Q49.128124 229.10786 49.128124 231.23286ZM55.64375 235.46724L55.64375 234.26411L56.846874 234.26411L56.846874 235.46724L55.64375 235.46724ZM58.05 231.23286Q58.05 229.70161 58.3625 228.77974Q58.675 227.84224 59.284374 227.34224Q59.909374 226.84224 60.846874 226.84224Q61.534374 226.84224 62.05 227.12349Q62.58125 227.40474 62.925 227.93599Q63.26875 228.45161 63.45625 229.20161Q63.64375 229.95161 63.64375 231.23286Q63.64375 232.74849 63.33125 233.67036Q63.034374 234.59224 62.409374 235.10786Q61.8 235.60786 60.846874 235.60786Q59.6125 235.60786 58.89375 234.71724Q58.05 233.65474 58.05 231.23286ZM59.128124 231.23286Q59.128124 233.34224 59.628124 234.04536Q60.128124 234.74849 60.846874 234.74849Q61.58125 234.74849 62.065624 234.04536Q62.565624 233.34224 62.565624 231.23286Q62.565624 229.10786 62.065624 228.42036Q61.58125 227.71724 60.83125 227.71724Q60.1125 227.71724 59.675 228.32661Q59.128124 229.10786 59.128124 231.23286ZM65.05 231.23286Q65.05 229.70161 65.3625 228.77974Q65.675 227.84224 66.28438 227.34224Q66.90938 226.84224 67.84688 226.84224Q68.53438 226.84224 69.05 227.12349Q69.58125 227.40474 69.925 227.93599Q70.26875 228.45161 70.45625 229.20161Q70.64375 229.95161 70.64375 231.23286Q70.64375 232.74849 70.33125 233.67036Q70.03438 234.59224 69.40938 235.10786Q68.8 235.60786 67.84688 235.60786Q66.6125 235.60786 65.89375 234.71724Q65.05 233.65474 65.05 231.23286ZM66.12813 231.23286Q66.12813 233.34224 66.62813 234.04536Q67.12813 234.74849 67.84688 234.74849Q68.58125 234.74849 69.06563 234.04536Q69.56563 233.34224 69.56563 231.23286Q69.56563 229.10786 69.06563 228.42036Q68.58125 227.71724 67.83125 227.71724Q67.1125 227.71724 66.675 228.32661Q66.12813 229.10786 66.12813 231.23286Z" fill-rule="nonzero"/><path fill="#000000" d="M48.05 185.09523Q48.05 183.56398 48.3625 182.6421Q48.675 181.7046 49.284374 181.2046Q49.909374 180.7046 50.846874 180.7046Q51.534374 180.7046 52.05 180.98586Q52.58125 181.2671 52.925 181.79836Q53.26875 182.31398 53.45625 183.06398Q53.64375 183.81398 53.64375 185.09523Q53.64375 186.61086 53.33125 187.53273Q53.034374 188.4546 52.409374 188.97023Q51.8 189.47023 50.846874 189.47023Q49.6125 189.47023 48.89375 188.5796Q48.05 187.5171 48.05 185.09523ZM49.128124 185.09523Q49.128124 187.2046 49.628124 187.90773Q50.128124 188.61086 50.846874 188.61086Q51.58125 188.61086 52.065624 187.90773Q52.565624 187.2046 52.565624 185.09523Q52.565624 182.97023 52.065624 182.28273Q51.58125 181.5796 50.83125 181.5796Q50.1125 181.5796 49.675 182.18898Q49.128124 182.97023 49.128124 185.09523ZM55.64375 189.3296L55.64375 188.12648L56.846874 188.12648L56.846874 189.3296L55.64375 189.3296ZM63.596874 188.31398L63.596874 189.3296L57.909374 189.3296Q57.909374 188.9546 58.034374 188.59523Q58.253124 188.0171 58.721874 187.4546Q59.20625 186.8921 60.1125 186.15773Q61.51875 185.00148 62.003124 184.3296Q62.503124 183.65773 62.503124 183.06398Q62.503124 182.43898 62.05 182.0171Q61.596874 181.5796 60.878124 181.5796Q60.1125 181.5796 59.659374 182.03273Q59.20625 182.48586 59.190624 183.29836L58.1125 183.18898Q58.221874 181.97023 58.940624 181.34523Q59.675 180.7046 60.909374 180.7046Q62.14375 180.7046 62.8625 181.3921Q63.58125 182.0796 63.58125 183.09523Q63.58125 183.61086 63.3625 184.11086Q63.159374 184.59523 62.659374 185.15773Q62.175 185.7046 61.05 186.65773Q60.096874 187.4546 59.815624 187.75148Q59.55 188.03273 59.378124 188.31398L63.596874 188.31398ZM65.05 187.0796L66.15938 186.98586Q66.28438 187.79836 66.72188 188.2046Q67.175 188.61086 67.81563 188.61086Q68.56563 188.61086 69.09688 188.03273Q69.62813 187.4546 69.62813 186.5171Q69.62813 185.61086 69.1125 185.09523Q68.6125 184.56398 67.78438 184.56398Q67.28438 184.56398 66.8625 184.79836Q66.45625 185.03273 66.22188 185.3921L65.2375 185.2671L66.06563 180.86086L70.34688 180.86086L70.34688 181.86086L66.90938 181.86086L66.45625 184.17336Q67.22188 183.62648 68.06563 183.62648Q69.19063 183.62648 69.95625 184.40773Q70.7375 185.18898 70.7375 186.42336Q70.7375 187.5796 70.06563 188.43898Q69.2375 189.47023 67.81563 189.47023Q66.64375 189.47023 65.89375 188.81398Q65.15938 188.15773 65.05 187.0796Z" fill-rule="nonzero"/><path fill="#000000" d="M48.05 138.95758Q48.05 137.42633 48.3625 136.50446Q48.675 135.56696 49.284374 135.06696Q49.909374 134.56696 50.846874 134.56696Q51.534374 134.56696 52.05 134.8482Q52.58125 135.12946 52.925 135.6607Q53.26875 136.17633 53.45625 136.92633Q53.64375 137.67633 53.64375 138.95758Q53.64375 140.4732 53.33125 141.39508Q53.034374 142.31696 52.409374 142.83258Q51.8 143.33258 50.846874 143.33258Q49.6125 143.33258 48.89375 142.44196Q48.05 141.37946 48.05 138.95758ZM49.128124 138.95758Q49.128124 141.06696 49.628124 141.77008Q50.128124 142.4732 50.846874 142.4732Q51.58125 142.4732 52.065624 141.77008Q52.565624 141.06696 52.565624 138.95758Q52.565624 136.83258 52.065624 136.14508Q51.58125 135.44196 50.83125 135.44196Q50.1125 135.44196 49.675 136.05133Q49.128124 136.83258 49.128124 138.95758ZM55.64375 143.19196L55.64375 141.98883L56.846874 141.98883L56.846874 143.19196L55.64375 143.19196ZM58.05 140.94196L59.159374 140.8482Q59.284374 141.6607 59.721874 142.06696Q60.175 142.4732 60.815624 142.4732Q61.565624 142.4732 62.096874 141.89508Q62.628124 141.31696 62.628124 140.37946Q62.628124 139.4732 62.1125 138.95758Q61.6125 138.42633 60.784374 138.42633Q60.284374 138.42633 59.8625 138.6607Q59.45625 138.89508 59.221874 139.25446L58.2375 139.12946L59.065624 134.7232L63.346874 134.7232L63.346874 135.7232L59.909374 135.7232L59.45625 138.0357Q60.221874 137.48883 61.065624 137.48883Q62.190624 137.48883 62.95625 138.27008Q63.7375 139.05133 63.7375 140.2857Q63.7375 141.44196 63.065624 142.30133Q62.2375 143.33258 60.815624 143.33258Q59.64375 143.33258 58.89375 142.67633Q58.159374 142.02008 58.05 140.94196ZM65.05 138.95758Q65.05 137.42633 65.3625 136.50446Q65.675 135.56696 66.28438 135.06696Q66.90938 134.56696 67.84688 134.56696Q68.53438 134.56696 69.05 134.8482Q69.58125 135.12946 69.925 135.6607Q70.26875 136.17633 70.45625 136.92633Q70.64375 137.67633 70.64375 138.95758Q70.64375 140.4732 70.33125 141.39508Q70.03438 142.31696 69.40938 142.83258Q68.8 143.33258 67.84688 143.33258Q66.6125 143.33258 65.89375 142.44196Q65.05 141.37946 65.05 138.95758ZM66.12813 138.95758Q66.12813 141.06696 66.62813 141.77008Q67.12813 142.4732 67.84688 142.4732Q68.58125 142.4732 69.06563 141.77008Q69.56563 141.06696 69.56563 138.95758Q69.56563 136.83258 69.06563 136.14508Q68.58125 135.44196 67.83125 135.44196Q67.1125 135.44196 66.675 136.05133Q66.12813 136.83258 66.12813 138.95758Z" fill-rule="nonzero"/><path fill="#000000" d="M48.05 92.81994Q48.05 91.28869 48.3625 90.36681Q48.675 89.42931 49.284374 88.92931Q49.909374 88.42931 50.846874 88.42931Q51.534374 88.42931 52.05 88.71056Q52.58125 88.99181 52.925 89.52306Q53.26875 90.03869 53.45625 90.78869Q53.64375 91.53869 53.64375 92.81994Q53.64375 94.33556 53.33125 95.25744Q53.034374 96.17931 52.409374 96.69494Q51.8 97.19494 50.846874 97.19494Q49.6125 97.19494 48.89375 96.30431Q48.05 95.24181 48.05 92.81994ZM49.128124 92.81994Q49.128124 94.92931 49.628124 95.63244Q50.128124 96.33556 50.846874 96.33556Q51.58125 96.33556 52.065624 95.63244Q52.565624 94.92931 52.565624 92.81994Q52.565624 90.69494 52.065624 90.00744Q51.58125 89.30431 50.83125 89.30431Q50.1125 89.30431 49.675 89.91369Q49.128124 90.69494 49.128124 92.81994ZM55.64375 97.05431L55.64375 95.85119L56.846874 95.85119L56.846874 97.05431L55.64375 97.05431ZM58.1125 89.58556L58.1125 88.56994L63.675 88.56994L63.675 89.39806Q62.8625 90.27306 62.05 91.72619Q61.253124 93.16369 60.815624 94.69494Q60.4875 95.77306 60.409374 97.05431L59.315624 97.05431Q59.33125 96.03869 59.70625 94.60119Q60.096874 93.16369 60.8 91.83556Q61.51875 90.50744 62.33125 89.58556L58.1125 89.58556ZM65.05 94.80431L66.15938 94.71056Q66.28438 95.52306 66.72188 95.92931Q67.175 96.33556 67.81563 96.33556Q68.56563 96.33556 69.09688 95.75744Q69.62813 95.17931 69.62813 94.24181Q69.62813 93.33556 69.1125 92.81994Q68.6125 92.28869 67.78438 92.28869Q67.28438 92.28869 66.8625 92.52306Q66.45625 92.75744 66.22188 93.11681L65.2375 92.99181L66.06563 88.58556L70.34688 88.58556L70.34688 89.58556L66.90938 89.58556L66.45625 91.89806Q67.22188 91.35119 68.06563 91.35119Q69.19063 91.35119 69.95625 92.13244Q70.7375 92.91369 70.7375 94.14806Q70.7375 95.30431 70.06563 96.16369Q69.2375 97.19494 67.81563 97.19494Q66.64375 97.19494 65.89375 96.53869Q65.15938 95.88244 65.05 94.80431Z" fill-rule="nonzero"/><path fill="#000000" d="M52.01875 50.916668L50.971874 50.916668L50.971874 44.197918Q50.58125 44.557293 49.95625 44.932293Q49.346874 45.291668 48.8625 45.463543L48.8625 44.447918Q49.7375 44.026043 50.39375 43.447918Q51.065624 42.854168 51.346874 42.291668L52.01875 42.291668L52.01875 50.916668ZM55.64375 50.916668L55.64375 49.713543L56.846874 49.713543L56.846874 50.916668L55.64375 50.916668ZM58.05 46.682293Q58.05 45.151043 58.3625 44.229168Q58.675 43.291668 59.284374 42.791668Q59.909374 42.291668 60.846874 42.291668Q61.534374 42.291668 62.05 42.572918Q62.58125 42.854168 62.925 43.385418Q63.26875 43.901043 63.45625 44.651043Q63.64375 45.401043 63.64375 46.682293Q63.64375 48.197918 63.33125 49.119793Q63.034374 50.041668 62.409374 50.557293Q61.8 51.057293 60.846874 51.057293Q59.6125 51.057293 58.89375 50.166668Q58.05 49.104168 58.05 46.682293ZM59.128124 46.682293Q59.128124 48.791668 59.628124 49.494793Q60.128124 50.197918 60.846874 50.197918Q61.58125 50.197918 62.065624 49.494793Q62.565624 48.791668 62.565624 46.682293Q62.565624 44.557293 62.065624 43.869793Q61.58125 43.166668 60.83125 43.166668Q60.1125 43.166668 59.675 43.776043Q59.128124 44.557293 59.128124 46.682293ZM65.05 46.682293Q65.05 45.151043 65.3625 44.229168Q65.675 43.291668 66.28438 42.791668Q66.90938 42.291668 67.84688 42.291668Q68.53438 42.291668 69.05 42.572918Q69.58125 42.854168 69.925 43.385418Q70.26875 43.901043 70.45625 44.651043Q70.64375 45.401043 70.64375 46.682293Q70.64375 48.197918 70.33125 49.119793Q70.03438 50.041668 69.40938 50.557293Q68.8 51.057293 67.84688 51.057293Q66.6125 51.057293 65.89375 50.166668Q65.05 49.104168 65.05 46.682293ZM66.12813 46.682293Q66.12813 48.791668 66.62813 49.494793Q67.12813 50.197918 67.84688 50.197918Q68.58125 50.197918 69.06563 49.494793Q69.56563 48.791668 69.56563 46.682293Q69.56563 44.557293 69.06563 43.869793Q68.58125 43.166668 67.83125 43.166668Q67.1125 43.166668 66.675 43.776043Q66.12813 44.557293 66.12813 46.682293Z" fill-rule="nonzero"/><path fill="#000000" d="M97.46095 270.7565L91.384254 264.6798L93.48348 262.58057Q94.19058 261.87347 94.654625 261.5862Q95.29544 261.18845 95.9694 261.1332Q96.864334 261.05588 97.73717 261.46466Q98.61 261.85138 99.41655 262.65793Q100.1126 263.35397 100.47721 264.05002Q100.85286 264.73505 100.95229 265.3427Q101.051735 265.95038 100.941246 266.45862Q100.84181 266.9558 100.53245 267.48615Q100.21204 268.0054 99.659615 268.55783L97.46095 270.7565ZM97.54935 269.2318L98.842026 267.93912Q99.44969 267.33145 99.68171 266.87845Q99.913734 266.42548 99.90268 266.01666Q99.913734 265.4532 99.582275 264.81238Q99.26186 264.16052 98.57686 263.4755Q97.626686 262.52533 96.79804 262.3375Q95.9694 262.1276 95.350685 262.39276Q94.89769 262.60266 94.19058 263.30978L92.90896 264.5914L97.54935 269.2318ZM105.327515 260.06152L106.1893 259.3765Q106.686485 260.22723 106.56496 261.10007Q106.44342 261.9729 105.68107 262.73526Q104.71985 263.69647 103.548706 263.67438Q102.3886 263.64124 101.316895 262.56952Q100.21204 261.46466 100.178894 260.28247Q100.134705 259.08923 101.04068 258.18326Q101.92457 257.29938 103.073616 257.34357Q104.23371 257.3767 105.327515 258.47052Q105.39381 258.5368 105.52639 258.6694L102.24497 261.9508Q103.01837 262.63583 103.76968 262.65793Q104.509926 262.66898 105.062355 262.11655Q105.471146 261.70773 105.54849 261.21057Q105.62583 260.69128 105.327515 260.06152ZM101.681496 261.29895L104.13428 258.84616Q103.5266 258.32687 103.01837 258.28268Q102.22288 258.2164 101.6594 258.77988Q101.14012 259.29916 101.129074 259.9952Q101.129074 260.68024 101.681496 261.29895ZM111.5368 256.68066L110.984375 256.12823Q111.21639 257.19995 110.40985 258.00647Q109.87952 258.5368 109.150314 258.6915Q108.410065 258.8351 107.64771 258.5589Q106.88536 258.28268 106.2114 257.60873Q105.55954 256.95688 105.23913 256.19452Q104.918724 255.43217 105.08445 254.71402Q105.23913 253.98482 105.78051 253.44344Q106.17825 253.04568 106.65334 252.90205Q107.12843 252.75842 107.59247 252.8247L105.41591 250.64815L106.15616 249.9079L112.23286 255.9846L111.5368 256.68066ZM106.9848 256.83533Q107.83554 257.68607 108.60893 257.75235Q109.371284 257.80762 109.85742 257.32147Q110.34356 256.83533 110.288315 256.0951Q110.23307 255.35483 109.41548 254.53723Q108.5095 253.63126 107.7361 253.56497Q106.97375 253.48763 106.465515 253.99586Q105.96833 254.49304 106.04567 255.23329Q106.11196 255.9625 106.9848 256.83533ZM116.51969 251.69775L115.86783 251.0459Q116.099846 252.31648 115.215965 253.20036Q114.82926 253.58707 114.34313 253.78593Q113.856995 253.9627 113.47029 253.90747Q113.07255 253.84119 112.6748 253.57602Q112.420685 253.41028 111.93455 252.92415L109.216606 250.2062L109.9679 249.45491L112.40964 251.89664Q112.98416 252.47116 113.23827 252.63689Q113.59183 252.85786 113.98958 252.81366Q114.38732 252.74738 114.72983 252.40486Q115.06129 252.07341 115.182816 251.62042Q115.30435 251.14534 115.12758 250.7255Q114.961845 250.2946 114.39837 249.73112L112.04503 247.37778L112.785286 246.63753L117.1826 251.03485L116.51969 251.69775ZM120.2762 251.32211L114.188446 245.23436L114.86241 244.56041L115.42589 245.12387Q115.3375 244.54935 115.47008 244.08531Q115.61371 243.61023 116.0446 243.17934Q116.60808 242.61586 117.32623 242.47223Q118.04439 242.3286 118.784645 242.649Q119.53594 242.95836 120.16571 243.58813Q120.839676 244.26208 121.137985 245.04654Q121.44734 245.81993 121.27057 246.57124Q121.09379 247.32254 120.585556 247.83076Q120.20991 248.20642 119.75691 248.35005Q119.29288 248.48264 118.87303 248.43845L121.01645 250.58186L120.2762 251.32211ZM117.08317 246.78116Q117.93391 247.6319 118.6852 247.6982Q119.42546 247.75343 119.9116 247.26729Q120.40878 246.77011 120.34249 245.99672Q120.2762 245.22331 119.39231 244.33943Q118.55263 243.49974 117.80132 243.43346Q117.03897 243.35611 116.55284 243.84225Q116.07775 244.31734 116.15509 245.12387Q116.23243 245.93042 117.08317 246.78116Z" fill-rule="nonzero"/><path fill="#000000" d="M136.86678 283.20822L137.55177 282.39062Q138.07106 282.7994 138.55719 282.8878Q139.04333 282.9762 139.63995 282.75522Q140.23657 282.51215 140.75586 281.99286Q141.20885 281.5399 141.42982 281.05374Q141.63974 280.55655 141.57346 280.1588Q141.50716 279.73895 141.23094 279.46274Q140.94368 279.17548 140.56804 279.1313Q140.18134 279.07605 139.66205 279.30807Q139.3085 279.46274 138.26993 280.10358Q137.24242 280.73334 136.73419 280.888Q136.06023 281.09793 135.51884 280.9764Q134.96642 280.8438 134.54657 280.42398Q134.09358 279.97098 133.94995 279.31912Q133.80632 278.64517 134.10463 277.9491Q134.40294 277.23096 135.01062 276.62326Q135.68457 275.9493 136.42482 275.651Q137.15404 275.34164 137.86115 275.49634Q138.55719 275.63995 139.10962 276.1482L138.39146 276.97684Q137.75066 276.4686 137.09879 276.54593Q136.44693 276.60117 135.75087 277.29724Q135.02167 278.02643 134.95537 278.62305Q134.88908 279.2197 135.26472 279.59534Q135.59619 279.9268 136.03813 279.9047Q136.48007 279.8826 137.67331 279.1313Q138.87761 278.36896 139.40793 278.17007Q140.19238 277.89386 140.82214 278.01538Q141.44087 278.1259 141.93805 278.62305Q142.42418 279.1092 142.57887 279.8163Q142.7225 280.51236 142.44629 281.27472Q142.15903 282.026 141.50716 282.6779Q140.67851 283.50653 139.88303 283.83798Q139.08752 284.14734 138.28098 283.9816Q137.48549 283.80484 136.86678 283.20822ZM145.46254 278.52362L139.7173 275.4742L140.49069 274.70084L143.72792 276.54593L144.9322 277.2199Q144.88802 277.1315 144.25824 276.0819L142.37999 272.81152L143.14235 272.04916L146.35747 273.93848L147.41812 274.5572L146.8215 273.45233L145.03165 270.15988L145.76085 269.43066L148.7771 275.20908L148.00371 275.98245L144.66704 274.0379L143.75002 273.47443L146.24698 277.73917L145.46254 278.52362ZM153.3512 269.55222Q153.28491 270.3256 153.04184 270.85593Q152.80981 271.3752 152.36787 271.81717Q151.63867 272.54636 150.89842 272.5795Q150.15817 272.61264 149.60574 272.06024Q149.28534 271.7398 149.1638 271.33102Q149.03122 270.9112 149.1196 270.51343Q149.19695 270.10464 149.41791 269.72897Q149.56154 269.45276 149.95929 268.94455Q150.75479 267.95016 151.031 267.3646Q150.87633 267.20993 150.84317 267.17676Q150.37914 266.71274 149.98138 266.73483Q149.45107 266.77902 148.88759 267.3425Q148.3683 267.8618 148.30202 268.3037Q148.22467 268.73462 148.56718 269.3202L147.73854 269.94995Q147.37393 269.38647 147.3187 268.8672Q147.26344 268.34793 147.53966 267.76233Q147.81587 267.17676 148.37935 266.61328Q148.94283 266.0498 149.42897 265.82886Q149.9151 265.60788 150.2797 265.64102Q150.6443 265.67416 151.01996 265.91724Q151.24092 266.07193 151.73811 266.5691L152.73248 267.56348Q153.77104 268.60202 154.09145 268.83405Q154.4229 269.05502 154.82065 269.1655L154.03621 269.94995Q153.6937 269.82843 153.3512 269.55222ZM151.61658 267.95016Q151.3735 268.5247 150.68849 269.45276Q150.29076 269.9831 150.19131 270.2593Q150.08083 270.52448 150.12502 270.78964Q150.18027 271.04376 150.37914 271.24265Q150.67744 271.54095 151.09729 271.51886Q151.52818 271.48572 151.95908 271.0548Q152.38997 270.6239 152.5336 270.10464Q152.68828 269.5743 152.5115 269.08817Q152.37892 268.71252 151.89279 268.22638L151.61658 267.95016ZM157.66013 269.70688L151.57239 263.61914L152.24634 262.9452L152.80981 263.50867Q152.72144 262.93414 152.85402 262.4701Q152.99765 261.995 153.42854 261.56412Q153.992 261.00064 154.71017 260.857Q155.42833 260.71338 156.16858 261.03378Q156.91988 261.34314 157.54964 261.9729Q158.2236 262.64688 158.52191 263.4313Q158.83127 264.2047 158.6545 264.95602Q158.47772 265.7073 157.96948 266.21555Q157.59384 266.5912 157.14085 266.73483Q156.6768 266.8674 156.25696 266.8232L158.40038 268.96664L157.66013 269.70688ZM154.4671 265.16592Q155.31784 266.01666 156.06914 266.08298Q156.80939 266.1382 157.29553 265.65207Q157.79271 265.15488 157.72643 264.3815Q157.66013 263.6081 156.77625 262.7242Q155.93655 261.88452 155.18526 261.81824Q154.4229 261.74088 153.93677 262.22702Q153.46169 262.70212 153.53902 263.50867Q153.61636 264.3152 154.4671 265.16592ZM161.88068 260.77966L162.64302 261.32104Q162.3889 261.70773 162.14584 261.9508Q161.73705 262.35962 161.39453 262.45905Q161.04099 262.54742 160.73163 262.43695Q160.43332 262.3154 159.75935 261.64145L157.22923 259.11133L156.68785 259.6527L156.11333 259.0782L156.65471 258.5368L155.5609 257.443L155.85922 256.2608L157.39496 257.79657L158.14627 257.04526L158.7208 257.61978L157.96948 258.3711L160.5438 260.9454Q160.86421 261.2658 160.98573 261.32104Q161.11832 261.36523 161.26195 261.3321Q161.40558 261.29895 161.57132 261.1332Q161.70389 261.00064 161.88068 260.77966ZM157.82585 255.73048L156.96407 254.8687L157.71538 254.11739L158.57716 254.97917L157.82585 255.73048ZM163.04077 260.9454L158.64345 256.54807L159.39474 255.79677L163.79207 260.1941L163.04077 260.9454ZM162.68721 256.9016Q161.46083 255.67523 161.54921 254.41571Q161.62656 253.36609 162.44415 252.5485Q163.35013 251.64252 164.52127 251.66461Q165.69241 251.66461 166.74203 252.71423Q167.59277 253.56497 167.82478 254.30522Q168.05681 255.04547 167.83583 255.81886Q167.61487 256.57016 167.04034 257.14468Q166.1233 258.06174 164.96321 258.05066Q163.80312 258.01752 162.68721 256.9016ZM163.44957 256.13928Q164.28926 256.97897 165.0737 257.0342Q165.8692 257.0784 166.42162 256.52597Q166.98509 255.9625 166.92986 255.17805Q166.87462 254.3936 166.01283 253.53181Q165.19524 252.71423 164.39973 252.67003Q163.6153 252.61479 163.06287 253.16722Q162.51044 253.71965 162.55463 254.51514Q162.59883 255.28854 163.44957 256.13928ZM170.11183 253.87433L165.71452 249.477L166.37743 248.81409L166.99615 249.43282Q166.76413 248.22852 167.68115 247.3115Q168.0789 246.91374 168.55399 246.72592Q169.04013 246.52704 169.43788 246.59334Q169.83562 246.65962 170.21127 246.9027Q170.45435 247.07947 170.97362 247.59875L173.68051 250.30565L172.94026 251.0459L170.26651 248.37215Q169.80247 247.90811 169.49312 247.77553Q169.18376 247.64294 168.8302 247.73134Q168.4656 247.80867 168.1673 248.10698Q167.6922 248.58208 167.64801 249.24498Q167.60382 249.8858 168.44351 250.7255L170.8521 253.13408L170.11183 253.87433ZM173.4485 247.90811L174.06721 247.06842Q174.57545 247.44408 175.08368 247.39987Q175.60297 247.34464 176.12224 246.82535Q176.63048 246.31712 176.67467 245.87518Q176.71887 245.41113 176.43161 245.12387Q176.17749 244.86977 175.81288 244.9471Q175.55876 245.00235 174.79642 245.45534Q173.7689 246.063 173.30487 246.23978Q172.84082 246.39445 172.40993 246.29503Q171.97903 246.19559 171.64758 245.86414Q171.36032 245.57687 171.23878 245.19017Q171.11725 244.80347 171.18355 244.40572Q171.23878 244.1074 171.44872 243.72072Q171.65863 243.33401 172.01219 242.98045Q172.52042 242.47223 173.0618 242.2402Q173.60318 241.9861 174.04512 242.05238Q174.48706 242.11867 174.97319 242.47223L174.34343 243.30087Q173.96777 243.01361 173.53688 243.06885Q173.10599 243.10199 172.66405 243.54393Q172.15582 244.05217 172.11162 244.44992Q172.05638 244.83661 172.2884 245.06863Q172.43204 245.21227 172.6309 245.23436Q172.85188 245.25645 173.11703 245.14598Q173.27171 245.07968 173.96777 244.67088Q174.98424 244.09636 175.4262 243.91959Q175.86813 243.74281 176.29903 243.82014Q176.72992 243.89749 177.11661 244.2842Q177.49226 244.65984 177.60275 245.21227Q177.71324 245.7426 177.49226 246.33922Q177.26024 246.92479 176.74097 247.44408Q175.87918 248.30586 175.07263 248.40529Q174.26608 248.48264 173.4485 247.90811Z" fill-rule="nonzero"/><path fill="#000000" d="M198.43596 281.3189L192.35927 275.24222L196.45827 271.1432L197.17642 271.86136L193.88396 275.1538L195.7622 277.03207L198.61273 274.18155L199.33089 274.8997L196.48038 277.7502L199.24251 280.51236L198.43596 281.3189ZM203.24208 276.5128L198.84476 272.11548L199.51872 271.4415L200.18163 272.10443Q199.97171 271.38626 200.038 271.0327Q200.1043 270.65707 200.36946 270.3919Q200.7451 270.01624 201.36383 269.86157L201.80577 270.81174Q201.36383 270.92224 201.09866 271.18738Q200.84454 271.4415 200.80035 271.79507Q200.75615 272.12653 200.94398 272.46902Q201.20915 272.99936 201.67319 273.46338L203.98233 275.77255L203.24208 276.5128ZM207.67255 269.2539L208.53433 268.56888Q209.03151 269.41962 208.90999 270.29245Q208.78845 271.16528 208.0261 271.92764Q207.06488 272.88885 205.89372 272.86676Q204.73363 272.83362 203.66193 271.7619Q202.55707 270.65707 202.52393 269.47485Q202.47974 268.28162 203.38571 267.37564Q204.26959 266.49176 205.41864 266.53595Q206.57874 266.5691 207.67255 267.6629Q207.73883 267.7292 207.87141 267.8618L204.59 271.1432Q205.3634 271.82822 206.1147 271.8503Q206.85495 271.86136 207.40738 271.30893Q207.81618 270.90012 207.89351 270.40295Q207.97086 269.88367 207.67255 269.2539ZM204.02652 270.49133L206.47931 268.03854Q205.87163 267.5193 205.3634 267.47507Q204.5679 267.40878 204.00443 267.97226Q203.48515 268.49155 203.47409 269.1876Q203.47409 269.87262 204.02652 270.49133ZM215.52806 267.60767L213.3736 265.4532Q213.43988 265.87305 213.2852 266.3592Q213.13052 266.8232 212.77698 267.17676Q211.99252 267.9612 210.81033 267.90598Q209.61708 267.8397 208.52328 266.74588Q207.86037 266.08298 207.5731 265.33167Q207.2748 264.5693 207.44052 263.87326Q207.60625 263.1551 208.12553 262.63583Q208.94313 261.81824 210.09218 262.03918L209.5066 261.4536L210.18056 260.77966L216.26831 266.8674L215.52806 267.60767ZM209.31877 266.01666Q210.16951 266.8674 210.94292 266.93372Q211.72736 266.98895 212.22455 266.49176Q212.69963 266.01666 212.6444 265.27643Q212.5781 264.52512 211.7605 263.70752Q210.87662 262.82364 210.07008 262.7463Q209.27458 262.65793 208.7774 263.1551Q208.3023 263.6302 208.37965 264.39255Q208.44594 265.14383 209.31877 266.01666ZM215.98105 263.77383L211.58372 259.3765L212.24664 258.7136L212.86536 259.3323Q212.74382 258.79092 212.8985 258.2606Q213.04213 257.7192 213.48409 257.27728Q213.97021 256.79114 214.47845 256.68066Q214.99773 256.5591 215.48387 256.8022Q215.25185 255.5095 216.08049 254.68086Q216.7434 254.01796 217.4505 254.04005Q218.15761 254.04005 218.91997 254.8024L221.93622 257.81866L221.19597 258.5589L218.42278 255.78572Q217.98083 255.34378 217.70462 255.22224Q217.43945 255.08966 217.1301 255.15596Q216.82074 255.22224 216.55557 255.48741Q216.09154 255.95145 216.09154 256.57016Q216.10258 257.17783 216.7876 257.86285L219.33981 260.41507L218.5885 261.16635L215.72693 258.30478Q215.22975 257.80762 214.79886 257.75235Q214.36797 257.67502 213.95917 258.08383Q213.63876 258.40424 213.53932 258.8351Q213.43988 259.26602 213.63876 259.70795Q213.83763 260.1499 214.43425 260.74652L216.7213 263.03357L215.98105 263.77383ZM217.8372 251.48784L216.97542 250.62605L217.72672 249.87476L218.5885 250.73654L217.8372 251.48784ZM223.05212 256.70276L218.6548 252.30544L219.4061 251.55414L223.80342 255.95145L223.05212 256.70276ZM225.17343 254.58144L220.77612 250.18411L221.43903 249.5212L222.05775 250.13992Q221.82573 248.93562 222.74275 248.0186Q223.1405 247.62085 223.61559 247.43303Q224.10173 247.23415 224.49948 247.30045Q224.89722 247.36673 225.27287 247.6098Q225.51595 247.78658 226.03522 248.30586L228.74211 251.01276L228.00186 251.753L225.32811 249.07925Q224.86407 248.61522 224.55472 248.48264Q224.24536 248.35005 223.8918 248.43845Q223.5272 248.51578 223.2289 248.81409Q222.7538 249.28918 222.70961 249.95209Q222.66542 250.59291 223.50511 251.4326L225.9137 253.84119L225.17343 254.58144ZM231.71417 245.21227L232.57596 244.52725Q233.07315 245.37799 232.95161 246.25082Q232.83008 247.12366 232.06773 247.88602Q231.1065 248.84724 229.93536 248.82513Q228.77527 248.79199 227.70355 247.72029Q226.5987 246.61543 226.56555 245.43324Q226.52136 244.23999 227.42734 243.33401Q228.31122 242.45013 229.46027 242.49432Q230.62038 242.52747 231.71417 243.62128Q231.78047 243.68756 231.91306 243.82014L228.63164 247.10156Q229.40503 247.78658 230.15633 247.80867Q230.89658 247.81972 231.449 247.2673Q231.8578 246.8585 231.93515 246.36131Q232.01248 245.84204 231.71417 245.21227ZM228.06816 246.4497L230.52094 243.99693Q229.91327 243.47765 229.40503 243.43346Q228.60953 243.36716 228.04605 243.93063Q227.52678 244.44992 227.51573 245.14598Q227.51573 245.83098 228.06816 246.4497Z" fill-rule="nonzero"/><path fill="#000000" d="M235.67627 295.93613L236.36127 295.11853Q236.88055 295.52734 237.36668 295.61572Q237.85283 295.7041 238.44945 295.48315Q239.04607 295.24008 239.56535 294.7208Q240.01834 294.2678 240.2393 293.78168Q240.44923 293.2845 240.38293 292.88672Q240.31665 292.4669 240.04044 292.19067Q239.75317 291.9034 239.37752 291.85922Q238.99083 291.804 238.47154 292.03598Q238.118 292.19067 237.07942 292.83148Q236.05191 293.46124 235.54369 293.61594Q234.86972 293.82587 234.32834 293.7043Q233.77591 293.57175 233.35606 293.1519Q232.90308 292.6989 232.75945 292.04703Q232.61581 291.37308 232.91412 290.67703Q233.21243 289.95886 233.82011 289.3512Q234.49406 288.67725 235.23431 288.37894Q235.96353 288.06958 236.67062 288.22424Q237.36668 288.3679 237.91911 288.8761L237.20096 289.70474Q236.56015 289.19653 235.90828 289.27386Q235.25642 289.3291 234.56036 290.02515Q233.83116 290.75436 233.76486 291.35098Q233.69858 291.9476 234.07422 292.32324Q234.40569 292.65472 234.84763 292.63263Q235.28957 292.6105 236.4828 291.85922Q237.6871 291.09686 238.21742 290.89798Q239.00188 290.6218 239.63164 290.74332Q240.25037 290.8538 240.74754 291.35098Q241.23367 291.83713 241.38835 292.54422Q241.53198 293.2403 241.25578 294.00262Q240.96852 294.75394 240.31665 295.4058Q239.488 296.23444 238.69252 296.5659Q237.89702 296.87524 237.09047 296.70953Q236.29498 296.53275 235.67627 295.93613ZM244.42671 289.77106L245.18906 290.3124Q244.93494 290.69913 244.69188 290.9422Q244.28308 291.35098 243.94057 291.4504Q243.58702 291.53882 243.27766 291.4283Q242.97935 291.3068 242.30539 290.63284L239.77527 288.10272L239.23389 288.6441L238.65936 288.06958L239.20074 287.5282L238.10695 286.4344L238.40526 285.2522L239.941 286.78793L240.6923 286.03662L241.26683 286.61115L240.51552 287.36246L243.08983 289.93677Q243.41025 290.25717 243.53177 290.3124Q243.66435 290.35663 243.80798 290.32346Q243.95161 290.2903 244.11736 290.1246Q244.24994 289.992 244.42671 289.77106ZM245.57576 289.9478L241.17844 285.5505L241.8524 284.87653L242.5153 285.53946Q242.30539 284.8213 242.37167 284.46774Q242.43797 284.0921 242.70314 283.82693Q243.07878 283.45126 243.69751 283.2966L244.13945 284.24677Q243.69751 284.35727 243.43234 284.62244Q243.17822 284.87653 243.13403 285.2301Q243.08983 285.56155 243.27766 285.90405Q243.54283 286.4344 244.00687 286.8984L246.31601 289.20758L245.57576 289.9478ZM250.00623 282.68893L250.86801 282.0039Q251.36519 282.85464 251.24365 283.72748Q251.12213 284.6003 250.35977 285.36267Q249.39856 286.32388 248.2274 286.3018Q247.0673 286.26865 245.9956 285.19696Q244.89075 284.0921 244.8576 282.9099Q244.8134 281.71664 245.71939 280.81067Q246.60327 279.9268 247.75232 279.97098Q248.91241 280.00412 250.00623 281.09793Q250.07251 281.1642 250.2051 281.2968L246.92368 284.57822Q247.69708 285.26324 248.44838 285.28534Q249.18863 285.2964 249.74106 284.74396Q250.14986 284.33517 250.22719 283.83798Q250.30453 283.3187 250.00623 282.68893ZM246.3602 283.92636L248.81297 281.47357Q248.2053 280.9543 247.69708 280.91013Q246.90158 280.8438 246.3381 281.4073Q245.81883 281.92657 245.80777 282.62265Q245.80777 283.30765 246.3602 283.92636ZM255.69621 278.7446Q255.62991 279.518 255.38686 280.04834Q255.15483 280.56763 254.71289 281.00955Q253.9837 281.73874 253.24344 281.7719Q252.50319 281.80505 251.95076 281.25262Q251.63036 280.93222 251.50882 280.5234Q251.37624 280.10358 251.46463 279.7058Q251.54198 279.29703 251.76294 278.9214Q251.90656 278.64517 252.3043 278.13693Q253.09981 277.14258 253.37602 276.557Q253.22134 276.4023 253.18819 276.36917Q252.72415 275.90512 252.3264 275.92722Q251.79608 275.97144 251.2326 276.5349Q250.71332 277.05417 250.64703 277.49612Q250.5697 277.927 250.9122 278.51257L250.08356 279.14233Q249.71896 278.57886 249.66371 278.0596Q249.60847 277.5403 249.88469 276.95474Q250.16089 276.36917 250.72437 275.8057Q251.28784 275.24222 251.77397 275.02124Q252.26012 274.80026 252.62471 274.83344Q252.98932 274.86658 253.36497 275.10965Q253.58594 275.2643 254.08313 275.7615L255.0775 276.75586Q256.11606 277.79443 256.43646 278.02646Q256.7679 278.24744 257.16568 278.3579L256.38123 279.14236Q256.03873 279.0208 255.69621 278.7446ZM253.9616 277.14258Q253.71852 277.7171 253.03351 278.64517Q252.63577 279.1755 252.53633 279.45172Q252.42586 279.71686 252.47005 279.98203Q252.52528 280.23615 252.72417 280.43503Q253.02248 280.73334 253.44232 280.71124Q253.8732 280.6781 254.3041 280.24722Q254.73499 279.8163 254.87862 279.29703Q255.0333 278.7667 254.85652 278.28058Q254.72394 277.9049 254.23781 277.4188L253.9616 277.14258ZM258.31473 277.20886L253.91739 272.81155L254.5803 272.14862L255.19902 272.76733Q255.0775 272.22595 255.23218 271.69565Q255.37581 271.15427 255.81775 270.7123Q256.3039 270.22617 256.8121 270.1157Q257.3314 269.99417 257.81754 270.23724Q257.5855 268.94455 258.41415 268.1159Q259.07706 267.453 259.78418 267.4751Q260.49127 267.4751 261.25363 268.23746L264.26987 271.2537L263.52963 271.99396L260.75644 269.22076Q260.3145 268.7788 260.0383 268.6573Q259.77313 268.52472 259.46378 268.591Q259.15442 268.6573 258.88925 268.92245Q258.4252 269.3865 258.4252 270.00522Q258.43625 270.61288 259.12125 271.29788L261.67346 273.8501L260.92218 274.6014L258.0606 271.73984Q257.56342 271.24265 257.1325 271.1874Q256.70163 271.11008 256.29285 271.51886Q255.97243 271.83926 255.87299 272.27017Q255.77354 272.70105 255.97243 273.143Q256.1713 273.58493 256.7679 274.18155L259.05496 276.4686L258.31473 277.20886ZM266.64532 265.65207L267.47397 265.0223Q268.10373 265.89514 268.03745 266.82324Q267.97113 267.7513 267.253 268.46945Q266.34702 269.37543 265.209 269.3423Q264.071 269.28705 262.96616 268.1822Q262.25903 267.4751 261.96072 266.71274Q261.6624 265.92828 261.87234 265.18805Q262.09332 264.43674 262.66785 263.8622Q263.37494 263.15512 264.19254 263.0667Q265.01013 262.95624 265.81668 263.49762L265.19797 264.3373Q264.6566 263.9948 264.17044 264.039Q263.67325 264.07214 263.2976 264.44778Q262.73413 265.01126 262.78937 265.77362Q262.83356 266.52493 263.70642 267.39777Q264.60135 268.2927 265.34158 268.34793Q266.08185 268.40317 266.62323 267.8618Q267.06516 267.41986 267.08725 266.86743Q267.1204 266.30396 266.64532 265.65207ZM269.60632 265.91724L263.52963 259.84055L264.28094 259.08923L270.35764 265.16595L269.60632 265.91724ZM274.63342 260.89017L273.98154 260.2383Q274.21356 261.50888 273.32968 262.39276Q272.943 262.77945 272.45685 262.97833Q271.9707 263.15512 271.584 263.09988Q271.18628 263.03357 270.7885 262.7684Q270.5344 262.6027 270.04828 262.11655L267.33032 259.39862L268.08163 258.6473L270.52335 261.08902Q271.09787 261.66354 271.352 261.82928Q271.70557 262.05026 272.1033 262.00607Q272.50104 261.93976 272.84354 261.59726Q273.17502 261.2658 273.29654 260.81284Q273.4181 260.33774 273.2413 259.91788Q273.07556 259.487 272.5121 258.92352L270.15875 256.5702L270.89902 255.82993L275.29633 260.22723L274.63342 260.89017ZM275.0864 257.80762L275.70514 256.96793Q276.21335 257.34357 276.7216 257.29938Q277.24088 257.24414 277.76016 256.72485Q278.26837 256.2166 278.3126 255.77469Q278.35678 255.31065 278.06952 255.02339Q277.8154 254.76927 277.4508 254.8466Q277.1967 254.90186 276.43433 255.35484Q275.4068 255.96251 274.94278 256.13928Q274.47873 256.29398 274.04785 256.19452Q273.61694 256.0951 273.2855 255.76364Q272.99823 255.47638 272.8767 255.08968Q272.75516 254.70297 272.82144 254.30522Q272.8767 254.00691 273.0866 253.62022Q273.29654 253.23352 273.6501 252.87997Q274.15833 252.37173 274.6997 252.13971Q275.2411 251.8856 275.683 251.95189Q276.12497 252.01817 276.6111 252.37173L275.98132 253.20038Q275.60568 252.91312 275.1748 252.96835Q274.7439 253.0015 274.30197 253.44344Q273.79373 253.95168 273.74954 254.34943Q273.69427 254.73613 273.9263 254.96814Q274.06995 255.11177 274.2688 255.13387Q274.48978 255.15596 274.75494 255.04549Q274.90964 254.97919 275.60568 254.57039Q276.62216 253.99586 277.0641 253.81909Q277.50604 253.64232 277.93692 253.71965Q278.36783 253.797 278.75452 254.1837Q279.13016 254.55934 279.24066 255.11177Q279.35114 255.6421 279.13016 256.23874Q278.89816 256.8243 278.37888 257.34357Q277.5171 258.20535 276.71054 258.3048Q275.904 258.38214 275.0864 257.80762ZM281.90335 252.29439L282.6657 252.83577Q282.4116 253.22247 282.16852 253.46555Q281.75974 253.87433 281.4172 253.97377Q281.06366 254.06216 280.7543 253.95168Q280.456 253.83014 279.78204 253.15617L277.25192 250.62607L276.71054 251.16745L276.13602 250.59293L276.6774 250.05154L275.5836 248.95773L275.8819 247.77554L277.41763 249.3113L278.16895 248.55998L278.74347 249.1345L277.9922 249.88582L280.5665 252.46013Q280.8869 252.78053 281.00842 252.83577Q281.14102 252.87997 281.28464 252.84682Q281.42828 252.81367 281.594 252.64795Q281.7266 252.51537 281.90335 252.29439ZM284.65445 248.04071L285.51624 247.3557Q286.01343 248.20644 285.89188 249.07927Q285.77036 249.9521 285.008 250.71445Q284.04678 251.67567 282.87564 251.65358Q281.71555 251.62044 280.64383 250.54872Q279.53897 249.44386 279.50583 248.26167Q279.46164 247.06844 280.3676 246.16245Q281.2515 245.27856 282.40054 245.32277Q283.56064 245.35591 284.65445 246.4497Q284.72073 246.516 284.85333 246.64859L281.5719 249.93001Q282.3453 250.61502 283.0966 250.63712Q283.83685 250.64816 284.38928 250.09573Q284.79807 249.68694 284.87543 249.18976Q284.95276 248.67047 284.65445 248.04071ZM281.00842 249.27814L283.4612 246.82536Q282.85355 246.30608 282.3453 246.26189Q281.5498 246.1956 280.98633 246.75908Q280.46704 247.27835 280.456 247.97441Q280.456 248.65942 281.00842 249.27814ZM288.00217 247.52142L283.60483 243.1241L284.2788 242.45013L284.9417 243.11305Q284.73178 242.3949 284.79807 242.04135Q284.86438 241.6657 285.12952 241.40053Q285.5052 241.02489 286.1239 240.8702L286.56586 241.82037Q286.1239 241.93086 285.85873 242.19603Q285.6046 242.45013 285.56042 242.8037Q285.51624 243.13515 285.70407 243.47766Q285.9692 244.00798 286.43326 244.47203L288.7424 246.78117L288.00217 247.52142Z" fill-rule="nonzero"/><path fill="#000000" d="M327.0213 264.271L326.33627 260.3819L322.7455 259.75214L323.67358 258.82407L325.37506 259.1776Q325.8612 259.2881 326.1816 259.36545Q326.08215 258.91245 326.02692 258.54785L325.7286 256.76904L326.62354 255.8741L327.16492 259.46487L331.13135 260.16095L330.22537 261.06693L327.94937 260.60287L327.3417 260.48135L327.91623 263.37607L327.0213 264.271ZM334.75528 255.10071L335.47342 255.81886L331.45175 259.8405Q331.18658 259.57535 331.02087 259.23285Q330.76675 258.66937 330.70047 257.9402Q330.6452 257.19992 330.76675 256.03983Q330.9435 254.22787 330.81094 253.41028Q330.6894 252.58163 330.26956 252.16179Q329.8276 251.71985 329.2089 251.74194Q328.57913 251.75299 328.0709 252.26123Q327.5295 252.80261 327.5295 253.44342Q327.5295 254.08424 328.093 254.66982L327.2533 255.35481Q326.46887 254.4157 326.53516 253.46552Q326.60144 252.49324 327.47427 251.6204Q328.3471 250.74757 329.3415 250.72548Q330.33585 250.70338 331.05402 251.42154Q331.4186 251.78613 331.6175 252.29437Q331.81635 252.7805 331.86057 253.53181Q331.90475 254.26102 331.7832 255.73047Q331.67273 256.9679 331.68378 257.3767Q331.69482 257.7634 331.77216 258.0838L334.75528 255.10071ZM335.78278 246.3392L335.09778 247.1347Q334.5564 246.79219 334.18076 246.7701Q333.55096 246.75905 333.10904 247.20099Q332.7555 247.55455 332.67813 248.02963Q332.6008 248.6373 332.88806 249.3444Q333.17532 250.02942 334.07025 250.94646Q333.92664 250.27249 334.11444 249.68692Q334.31332 249.0903 334.74423 248.65941Q335.48447 247.91914 336.55618 247.9523Q337.63895 247.9744 338.50073 248.83618Q339.07526 249.4107 339.31833 250.162Q339.5614 250.8912 339.39566 251.58727Q339.21887 252.27228 338.6775 252.81366Q337.73837 253.75278 336.4678 253.65335Q335.1972 253.55391 333.62833 251.98502Q331.86057 250.21724 331.71692 248.76988Q331.58435 247.51036 332.54556 246.54913Q333.2637 245.83098 334.1255 245.78677Q334.9873 245.72049 335.78278 246.3392ZM335.36295 251.99606Q335.74963 252.38277 336.25787 252.58163Q336.7661 252.7584 337.24118 252.65898Q337.72733 252.5485 338.05878 252.21703Q338.52283 251.75299 338.4897 251.03484Q338.4455 250.30563 337.7936 249.65378Q337.16385 249.024 336.45676 249.0019Q335.76068 248.96877 335.25244 249.47699Q334.74423 249.98523 334.75528 250.70338Q334.77737 251.41049 335.36295 251.99606ZM343.83716 247.45511L342.37875 245.9967L339.7492 248.62625L339.0642 247.94125L337.9041 241.23479L338.51178 240.6271L342.44507 244.5604L343.26263 243.7428L343.94766 244.42781L343.13007 245.2454L344.58847 246.70381L343.83716 247.45511ZM341.69376 245.31169L338.96475 242.5827L339.7934 247.21204L341.69376 245.31169Z" fill-rule="nonzero"/><path fill="#000000" d="M352.30707 294.75394L346.23038 288.67722L350.32938 284.57822L351.04755 285.2964L347.75507 288.58884L349.63333 290.4671L352.48386 287.61658L353.202 288.33472L350.35147 291.18524L353.11362 293.9474L352.30707 294.75394ZM357.10214 289.95886L351.02542 283.88217L351.77673 283.13086L357.85342 289.20755L357.10214 289.95886ZM362.1292 284.93176L361.47736 284.2799Q361.70938 285.55048 360.8255 286.4344Q360.43878 286.82108 359.95267 287.01996Q359.46652 287.19672 359.07983 287.14148Q358.68207 287.0752 358.28433 286.81003Q358.0302 286.6443 357.54407 286.15817L354.82614 283.44022L355.57742 282.6889L358.01917 285.13065Q358.5937 285.70517 358.8478 285.8709Q359.20135 286.09186 359.5991 286.04767Q359.99686 285.98138 360.33936 285.6389Q360.6708 285.30743 360.79236 284.85443Q360.91388 284.37933 360.7371 283.9595Q360.57138 283.5286 360.0079 282.96512L357.65457 280.6118L358.3948 279.87155L362.79214 284.26886L362.1292 284.93176ZM358.98038 277.6508L358.1186 276.789L358.8699 276.0377L359.7317 276.89948L358.98038 277.6508ZM364.1953 282.8657L359.79797 278.46838L360.5493 277.71707L364.9466 282.11438L364.1953 282.8657ZM369.16714 277.89386L368.61472 277.34143Q368.84674 278.41312 368.0402 279.21967Q367.50986 279.75 366.78067 279.9047Q366.0404 280.0483 365.27805 279.7721Q364.51572 279.49588 363.84174 278.82193Q363.18988 278.17007 362.86948 277.4077Q362.54907 276.64536 362.71478 275.92722Q362.86948 275.198 363.41086 274.65662Q363.8086 274.25888 364.2837 274.11523Q364.7588 273.97162 365.2228 274.0379L363.04626 271.86133L363.7865 271.1211L369.8632 277.19778L369.16714 277.89386ZM364.61514 278.04852Q365.46588 278.89926 366.2393 278.96555Q367.00162 279.0208 367.48776 278.53467Q367.9739 278.04852 367.91867 277.3083Q367.8634 276.56802 367.04584 275.75043Q366.13983 274.84445 365.36646 274.77817Q364.6041 274.7008 364.09586 275.20905Q363.59866 275.70624 363.67603 276.4465Q363.7423 277.1757 364.61514 278.04852ZM373.5976 272.3806Q373.5313 273.15402 373.28824 273.68436Q373.05624 274.20364 372.6143 274.64557Q371.88507 275.3748 371.14484 275.40793Q370.40457 275.44107 369.85214 274.88864Q369.53174 274.56824 369.41022 274.15945Q369.27762 273.7396 369.36603 273.34186Q369.44336 272.93304 369.66434 272.5574Q369.80795 272.2812 370.20572 271.77295Q371.0012 270.7786 371.2774 270.19302Q371.12274 270.03833 371.0896 270.0052Q370.62555 269.54114 370.2278 269.56323Q369.69748 269.60745 369.134 270.17093Q368.61472 270.6902 368.54843 271.13214Q368.4711 271.56302 368.8136 272.14862L367.98495 272.77838Q367.62036 272.2149 367.5651 271.69562Q367.50986 271.17633 367.78607 270.59076Q368.0623 270.0052 368.62576 269.4417Q369.18924 268.87823 369.67538 268.65726Q370.1615 268.4363 370.52612 268.46945Q370.89072 268.5026 371.26636 268.74567Q371.48734 268.90033 371.98453 269.39752L372.97888 270.39188Q374.01746 271.43045 374.33786 271.66248Q374.6693 271.88345 375.06708 271.99393L374.28262 272.77838Q373.94012 272.65683 373.5976 272.3806ZM371.86298 270.7786Q371.61993 271.35312 370.9349 272.2812Q370.53717 272.81152 370.4377 273.08774Q370.32724 273.3529 370.37143 273.61807Q370.42667 273.8722 370.62555 274.07104Q370.92386 274.36935 371.34372 274.34726Q371.7746 274.31412 372.2055 273.88324Q372.63638 273.45233 372.78003 272.93304Q372.9347 272.4027 372.75793 271.9166Q372.62534 271.54092 372.1392 271.0548L371.86298 270.7786ZM376.21613 270.84488L371.8188 266.44757L372.48172 265.78464L373.10043 266.40335Q372.8684 265.19907 373.78543 264.28204Q374.1832 263.8843 374.65826 263.69647Q375.1444 263.4976 375.54214 263.56387Q375.9399 263.6302 376.31555 263.87326Q376.55862 264.05002 377.0779 264.5693L379.7848 267.27618L379.04456 268.01645L376.3708 265.3427Q375.90677 264.87866 375.59738 264.7461Q375.28802 264.6135 374.93448 264.70187Q374.5699 264.77924 374.27158 265.07755Q373.79648 265.5526 373.7523 266.21555Q373.7081 266.85635 374.5478 267.69604L376.95636 270.1046L376.21613 270.84488ZM375.95096 260.6802L375.08917 259.81842L375.84045 259.06714L376.70224 259.92892L375.95096 260.6802ZM381.16586 265.89514L376.76855 261.4978L377.51984 260.74652L381.91718 265.14383L381.16586 265.89514ZM383.28717 263.7738L378.88986 259.3765L379.55276 258.71356L380.17148 259.3323Q380.04996 258.79092 380.20465 258.2606Q380.34827 257.7192 380.79022 257.27725Q381.27634 256.79114 381.78458 256.68063Q382.30386 256.5591 382.79 256.8022Q382.55798 255.5095 383.38663 254.68086Q384.04953 254.01794 384.75665 254.04004Q385.46375 254.04004 386.2261 254.8024L389.24234 257.81863L388.5021 258.5589L385.7289 255.7857Q385.28696 255.34377 385.01074 255.22224Q384.74557 255.08966 384.43622 255.15594Q384.12686 255.22224 383.8617 255.4874Q383.39767 255.95145 383.39767 256.57016Q383.40872 257.17783 384.09372 257.86282L386.64594 260.41504L385.89462 261.16635L383.03305 258.30478Q382.5359 257.8076 382.10498 257.75235Q381.6741 257.67502 381.2653 258.0838Q380.9449 258.4042 380.84546 258.8351Q380.746 259.266 380.9449 259.70795Q381.14377 260.1499 381.7404 260.74652L384.02744 263.03357L383.28717 263.7738ZM392.68948 253.28874Q392.6232 254.06213 392.38013 254.59247Q392.1481 255.11176 391.70618 255.5537Q390.97696 256.2829 390.23672 256.31604Q389.49646 256.34918 388.94403 255.79677Q388.62363 255.47635 388.5021 255.06755Q388.3695 254.6477 388.4579 254.24997Q388.53525 253.84117 388.75623 253.46552Q388.89984 253.1893 389.29758 252.68108Q390.09308 251.6867 390.3693 251.10114Q390.21463 250.94646 390.1815 250.9133Q389.71744 250.44926 389.31967 250.47136Q388.78937 250.51556 388.2259 251.07904Q387.7066 251.59831 387.64032 252.04025Q387.56296 252.47115 387.9055 253.05672L387.07684 253.6865Q386.71222 253.12302 386.65698 252.60373Q386.60175 252.08446 386.87796 251.49887Q387.15417 250.9133 387.71765 250.34982Q388.28113 249.78635 388.76727 249.56538Q389.2534 249.3444 389.618 249.37756Q389.9826 249.4107 390.35825 249.65378Q390.57922 249.80846 391.07642 250.30563L392.07077 251.3Q393.10934 252.33856 393.42975 252.57059Q393.7612 252.79155 394.15894 252.90204L393.3745 253.6865Q393.03198 253.56496 392.68948 253.28874ZM390.95486 251.6867Q390.7118 252.26123 390.0268 253.1893Q389.62906 253.71964 389.5296 253.99585Q389.41913 254.26102 389.46332 254.52618Q389.51855 254.78029 389.71744 254.97917Q390.01575 255.27748 390.43558 255.25539Q390.8665 255.22224 391.29736 254.79134Q391.72827 254.36044 391.8719 253.84117Q392.02658 253.31084 391.8498 252.8247Q391.71722 252.44905 391.23108 251.96292L390.95486 251.6867ZM396.26923 249.46594L397.03156 250.00732Q396.77747 250.39403 396.5344 250.63708Q396.12558 251.04588 395.78308 251.14532Q395.42953 251.23372 395.12018 251.12323Q394.82187 251.0017 394.1479 250.32773L391.6178 247.79762L391.07642 248.33899L390.5019 247.76447L391.04327 247.2231L389.94946 246.12929L390.24777 244.9471L391.7835 246.48283L392.53482 245.73154L393.10934 246.30606L392.35803 247.05736L394.93234 249.63167Q395.25275 249.95209 395.3743 250.00732Q395.50687 250.05151 395.6505 250.01837Q395.79413 249.98523 395.95987 249.8195Q396.09244 249.68692 396.26923 249.46594ZM399.0203 245.21225L399.88208 244.52725Q400.37927 245.37799 400.25775 246.25082Q400.1362 247.12366 399.37387 247.886Q398.41263 248.84723 397.2415 248.82513Q396.0814 248.79198 395.00967 247.72028Q393.90485 246.61542 393.87167 245.43323Q393.82748 244.23999 394.73346 243.334Q395.61737 242.45012 396.76642 242.49431Q397.9265 242.52747 399.0203 243.62126Q399.0866 243.68756 399.21918 243.82014L395.93777 247.10156Q396.71115 247.78656 397.46246 247.80867Q398.20273 247.81972 398.75516 247.26729Q399.16394 246.85849 399.24127 246.3613Q399.3186 245.84203 399.0203 245.21225ZM395.3743 246.44969L397.82706 243.99692Q397.2194 243.47763 396.71115 243.43344Q395.91568 243.36716 395.3522 243.93062Q394.83292 244.4499 394.82187 245.14597Q394.82187 245.83098 395.3743 246.44969Z" fill-rule="nonzero"/><path fill="#000000" d="M425.04633 277.78336L421.30087 269.37543L422.16266 268.51364L430.72528 272.1044L429.8193 273.0104L427.25604 271.88345L424.72592 274.41354L425.89706 276.93262L425.04633 277.78336ZM424.3061 273.52966L426.3611 271.47464L424.05197 270.42502Q422.9913 269.961 422.36154 269.5964Q422.8256 270.3035 423.1902 271.08795L424.3061 273.52966ZM432.49304 270.33664L426.4274 267.60767L427.21185 266.8232L430.79156 268.5026Q431.3661 268.78986 431.9517 269.11026Q431.70862 268.6683 431.39926 268.0054L429.69778 264.33728L430.4601 263.57492L433.18912 269.6406L432.49304 270.33664ZM437.11136 262.88992L437.97314 262.20493Q438.4703 263.05566 438.3488 263.9285Q438.22723 264.80133 437.4649 265.56366Q436.50366 266.5249 435.33252 266.5028Q434.17242 266.46967 433.10074 265.39795Q431.99588 264.2931 431.96274 263.1109Q431.91852 261.91766 432.82452 261.0117Q433.7084 260.12778 434.85745 260.172Q436.01755 260.20514 437.11136 261.29895Q437.17764 261.36523 437.3102 261.4978L434.0288 264.77924Q434.8022 265.46423 435.5535 265.48633Q436.29376 265.49738 436.8462 264.94495Q437.25497 264.53616 437.3323 264.03897Q437.40967 263.51968 437.11136 262.88992ZM433.46533 264.12735L435.9181 261.6746Q435.31042 261.1553 434.8022 261.1111Q434.0067 261.04483 433.44324 261.6083Q432.92395 262.12756 432.9129 262.82364Q432.9129 263.50864 433.46533 264.12735ZM440.45905 262.37064L436.06174 257.97333L436.7357 257.29938L437.39862 257.96228Q437.1887 257.2441 437.25497 256.89056Q437.32126 256.51492 437.58643 256.24976Q437.9621 255.8741 438.5808 255.71942L439.02274 256.6696Q438.5808 256.7801 438.31564 257.04526Q438.06152 257.29938 438.01733 257.65292Q437.97314 257.98438 438.16095 258.32687Q438.42612 258.8572 438.89017 259.32126L441.1993 261.6304L440.45905 262.37064ZM445.62976 256.11716Q445.56348 256.89056 445.3204 257.4209Q445.08838 257.9402 444.64645 258.3821Q443.91724 259.11133 443.177 259.14447Q442.43674 259.1776 441.8843 258.62518Q441.5639 258.30478 441.44238 257.896Q441.30978 257.47614 441.3982 257.0784Q441.47552 256.6696 441.6965 256.29395Q441.84012 256.01773 442.23788 255.5095Q443.03336 254.51514 443.30957 253.92955Q443.1549 253.77487 443.12177 253.74173Q442.6577 253.2777 442.25998 253.29979Q441.72964 253.34398 441.16617 253.90746Q440.64688 254.42674 440.5806 254.86868Q440.50323 255.29958 440.84576 255.88515L440.01712 256.51492Q439.6525 255.95145 439.59726 255.43216Q439.54202 254.91287 439.81824 254.3273Q440.09445 253.74173 440.65793 253.17825Q441.2214 252.61478 441.70755 252.39381Q442.19366 252.17284 442.5583 252.20598Q442.92288 252.23914 443.29852 252.4822Q443.5195 252.63687 444.0167 253.13406L445.01105 254.12843Q446.04962 255.16699 446.37003 255.39902Q446.70148 255.61998 447.09924 255.73047L446.3148 256.51492Q445.9723 256.39337 445.62976 256.11716ZM443.89514 254.51514Q443.65207 255.08966 442.96707 256.01773Q442.56934 256.54807 442.46988 256.82428Q442.3594 257.08945 442.4036 257.3546Q442.45883 257.60873 442.6577 257.8076Q442.95602 258.1059 443.37585 258.0838Q443.80676 258.05066 444.23767 257.61978Q444.66855 257.18887 444.8122 256.6696Q444.96686 256.13925 444.79007 255.65314Q444.6575 255.27748 444.17136 254.79135L443.89514 254.51514ZM448.46924 255.08966L449.30893 254.47093Q449.6846 254.7582 450.0492 254.70296Q450.53534 254.63666 451.0104 254.16158Q451.5297 253.64229 451.59598 253.15616Q451.67334 252.65898 451.40817 252.19493Q451.24243 251.89662 450.50217 251.17847Q450.59058 252.23914 449.86136 252.96834Q448.95538 253.87431 447.80634 253.71964Q446.64624 253.55391 445.74026 252.64793Q445.1105 252.01816 444.80112 251.26686Q444.49176 250.49345 444.6354 249.7753Q444.77902 249.05714 445.3646 248.47157Q446.14905 247.68713 447.28705 247.80867L446.7567 247.27834L447.44174 246.59332L451.24243 250.39403Q452.26996 251.42154 452.4909 252.06235Q452.71188 252.70317 452.50195 253.39923Q452.3031 254.10634 451.64017 254.76924Q450.85574 255.5537 450.01605 255.68628Q449.17636 255.81886 448.46924 255.08966ZM446.44736 251.83034Q447.30914 252.69212 448.0494 252.74736Q448.78964 252.80261 449.30893 252.28333Q449.82822 251.76404 449.77298 251.02379Q449.7288 250.27249 448.8891 249.4328Q448.08255 248.62625 447.30914 248.58206Q446.5468 248.52682 446.03857 249.03505Q445.54138 249.53224 445.59662 250.29459Q445.65186 251.03484 446.44736 251.83034ZM454.789 245.21225L455.6508 244.52725Q456.14798 245.37799 456.02646 246.25082Q455.9049 247.12366 455.14258 247.886Q454.18134 248.84723 453.0102 248.82513Q451.8501 248.79199 450.77838 247.72028Q449.67355 246.61542 449.64038 245.43323Q449.5962 244.23999 450.50217 243.334Q451.38608 242.45012 452.53513 242.49431Q453.69522 242.52747 454.789 243.62126Q454.85532 243.68756 454.98788 243.82014L451.70648 247.10156Q452.47986 247.78656 453.23117 247.80867Q453.97144 247.81972 454.52386 247.26729Q454.93265 246.85849 455.00998 246.3613Q455.0873 245.84203 454.789 245.21225ZM451.143 246.44969L453.59576 243.99692Q452.9881 243.47763 452.47986 243.43344Q451.6844 243.36716 451.1209 243.93062Q450.60162 244.4499 450.59058 245.14597Q450.59058 245.83098 451.143 246.44969Z" fill-rule="nonzero"/><path fill="#4285f4" d="M108.5 17.55C108.5 16.997715 108.947716 16.55 109.5 16.55L119.5 16.55C120.052284 16.55 120.5 16.997715 120.5 17.55L120.5 27.55C120.5 28.102285 120.052284 28.55 119.5 28.55L109.5 28.55C108.947716 28.55 108.5 28.102285 108.5 27.55Z" fill-rule="nonzero"/><path fill="#1a1a1a" d="M129.4375 26.55L129.4375 17.95625L133.25 17.95625Q134.40625 17.95625 135.0 18.190624Q135.59375 18.425 135.95312 19.01875Q136.3125 19.596874 136.3125 20.3Q136.3125 21.221874 135.71875 21.846874Q135.125 22.471874 133.89062 22.64375Q134.34375 22.8625 134.57812 23.065624Q135.07812 23.51875 135.51562 24.20625L137.01562 26.55L135.57812 26.55L134.45312 24.76875Q133.95312 23.9875 133.625 23.58125Q133.3125 23.175 133.04688 23.01875Q132.79688 22.846874 132.53125 22.76875Q132.34375 22.7375 131.90625 22.7375L130.57812 22.7375L130.57812 26.55L129.4375 26.55ZM130.57812 21.753124L133.03125 21.753124Q133.79688 21.753124 134.23438 21.596874Q134.6875 21.425 134.90625 21.08125Q135.14062 20.721874 135.14062 20.3Q135.14062 19.690624 134.6875 19.3Q134.25 18.909374 133.29688 18.909374L130.57812 18.909374L130.57812 21.753124ZM142.35938 25.784374Q141.76562 26.284374 141.21875 26.4875Q140.6875 26.690624 140.0625 26.690624Q139.03125 26.690624 138.48438 26.190624Q137.9375 25.690624 137.9375 24.909374Q137.9375 24.45625 138.14062 24.08125Q138.34375 23.690624 138.6875 23.471874Q139.03125 23.2375 139.45312 23.128124Q139.75 23.034374 140.39062 22.95625Q141.65625 22.815624 142.26562 22.596874Q142.26562 22.378124 142.26562 22.33125Q142.26562 21.675 141.96875 21.409374Q141.5625 21.065624 140.76562 21.065624Q140.03125 21.065624 139.67188 21.33125Q139.3125 21.58125 139.14062 22.2375L138.10938 22.096874Q138.25 21.440624 138.57812 21.034374Q138.90625 20.628124 139.51562 20.409374Q140.125 20.190624 140.92188 20.190624Q141.71875 20.190624 142.21875 20.378124Q142.71875 20.565624 142.95312 20.846874Q143.1875 21.128124 143.28125 21.565624Q143.32812 21.83125 143.32812 22.534374L143.32812 23.940624Q143.32812 25.409374 143.39062 25.8Q143.46875 26.190624 143.67188 26.55L142.5625 26.55Q142.40625 26.221874 142.35938 25.784374ZM142.26562 23.425Q141.6875 23.659374 140.54688 23.83125Q139.89062 23.925 139.625 24.05Q139.35938 24.159374 139.20312 24.378124Q139.0625 24.596874 139.0625 24.878124Q139.0625 25.3 139.375 25.58125Q139.70312 25.8625 140.3125 25.8625Q140.92188 25.8625 141.39062 25.596874Q141.875 25.33125 142.09375 24.8625Q142.26562 24.503124 142.26562 23.815624L142.26562 23.425ZM145.29688 26.55L145.29688 20.33125L146.23438 20.33125L146.23438 21.20625Q146.92188 20.190624 148.21875 20.190624Q148.78125 20.190624 149.25 20.39375Q149.73438 20.596874 149.96875 20.925Q150.20312 21.253124 150.29688 21.690624Q150.34375 21.9875 150.34375 22.721874L150.34375 26.55L149.29688 26.55L149.29688 22.76875Q149.29688 22.1125 149.17188 21.8Q149.04688 21.4875 148.73438 21.3Q148.42188 21.096874 148.0 21.096874Q147.32812 21.096874 146.82812 21.534374Q146.34375 21.95625 146.34375 23.14375L146.34375 26.55L145.29688 26.55ZM156.32812 26.55L156.32812 25.76875Q155.73438 26.690624 154.59375 26.690624Q153.84375 26.690624 153.21875 26.284374Q152.59375 25.8625 152.25 25.128124Q151.90625 24.39375 151.90625 23.440624Q151.90625 22.51875 152.21875 21.753124Q152.53125 20.9875 153.15625 20.596874Q153.78125 20.190624 154.54688 20.190624Q155.10938 20.190624 155.54688 20.425Q155.98438 20.659374 156.26562 21.034374L156.26562 17.95625L157.3125 17.95625L157.3125 26.55L156.32812 26.55ZM153.0 23.440624Q153.0 24.64375 153.5 25.2375Q154.0 25.815624 154.6875 25.815624Q155.375 25.815624 155.85938 25.253124Q156.34375 24.690624 156.34375 23.534374Q156.34375 22.253124 155.84375 21.659374Q155.35938 21.065624 154.64062 21.065624Q153.9375 21.065624 153.46875 21.64375Q153.0 22.20625 153.0 23.440624ZM158.90625 23.440624Q158.90625 21.70625 159.85938 20.878124Q160.65625 20.190624 161.8125 20.190624Q163.09375 20.190624 163.90625 21.034374Q164.73438 21.8625 164.73438 23.346874Q164.73438 24.55 164.375 25.2375Q164.01562 25.925 163.3125 26.315624Q162.625 26.690624 161.8125 26.690624Q160.51562 26.690624 159.70312 25.8625Q158.90625 25.01875 158.90625 23.440624ZM159.98438 23.440624Q159.98438 24.628124 160.5 25.221874Q161.03125 25.815624 161.8125 25.815624Q162.60938 25.815624 163.125 25.221874Q163.64062 24.628124 163.64062 23.409374Q163.64062 22.253124 163.10938 21.659374Q162.59375 21.065624 161.8125 21.065624Q161.03125 21.065624 160.5 21.659374Q159.98438 22.2375 159.98438 23.440624ZM166.29688 26.55L166.29688 20.33125L167.23438 20.33125L167.23438 21.20625Q167.53125 20.7375 168.01562 20.471874Q168.5 20.190624 169.125 20.190624Q169.8125 20.190624 170.25 20.471874Q170.70312 20.753124 170.875 21.26875Q171.625 20.190624 172.79688 20.190624Q173.73438 20.190624 174.21875 20.70625Q174.71875 21.20625 174.71875 22.284374L174.71875 26.55L173.67188 26.55L173.67188 22.628124Q173.67188 22.003124 173.5625 21.721874Q173.46875 21.440624 173.20312 21.26875Q172.9375 21.096874 172.5625 21.096874Q171.90625 21.096874 171.46875 21.534374Q171.04688 21.971874 171.04688 22.940624L171.04688 26.55L169.98438 26.55L169.98438 22.503124Q169.98438 21.8 169.71875 21.45625Q169.46875 21.096874 168.89062 21.096874Q168.4375 21.096874 168.0625 21.33125Q167.6875 21.565624 167.51562 22.01875Q167.34375 22.471874 167.34375 23.315624L167.34375 26.55L166.29688 26.55Z" fill-rule="nonzero"/><path fill="#ea4335" d="M191.5 17.55C191.5 16.997715 191.94771 16.55 192.5 16.55L202.5 16.55C203.05229 16.55 203.5 16.997715 203.5 17.55L203.5 27.55C203.5 28.102285 203.05229 28.55 202.5 28.55L192.5 28.55C191.94771 28.55 191.5 28.102285 191.5 27.55Z" fill-rule="nonzero"/><path fill="#1a1a1a" d="M212.46875 26.55L212.46875 17.95625L213.59375 17.95625L213.59375 21.4875L218.0625 21.4875L218.0625 17.95625L219.20312 17.95625L219.20312 26.55L218.0625 26.55L218.0625 22.503124L213.59375 22.503124L213.59375 26.55L212.46875 26.55ZM220.48438 26.55L223.78125 17.95625L225.0 17.95625L228.51562 26.55L227.23438 26.55L226.21875 23.940624L222.64062 23.940624L221.6875 26.55L220.48438 26.55ZM222.96875 23.01875L225.875 23.01875L224.98438 20.64375Q224.5625 19.565624 224.375 18.8625Q224.20312 19.690624 223.90625 20.503124L222.96875 23.01875ZM229.375 26.55L229.375 17.95625L230.51562 17.95625L230.51562 25.534374L234.75 25.534374L234.75 26.55L229.375 26.55ZM236.375 26.55L236.375 17.95625L237.51562 17.95625L237.51562 25.534374L241.75 25.534374L241.75 26.55L236.375 26.55ZM243.04688 23.784374L244.10938 23.690624Q244.1875 24.346874 244.46875 24.753124Q244.75 25.159374 245.32812 25.425Q245.92188 25.675 246.65625 25.675Q247.29688 25.675 247.79688 25.4875Q248.29688 25.284374 248.53125 24.95625Q248.78125 24.6125 248.78125 24.221874Q248.78125 23.815624 248.54688 23.51875Q248.3125 23.20625 247.78125 23.003124Q247.42188 22.8625 246.23438 22.58125Q245.0625 22.3 244.59375 22.05Q243.96875 21.721874 243.67188 21.253124Q243.375 20.76875 243.375 20.175Q243.375 19.534374 243.73438 18.971874Q244.10938 18.39375 244.8125 18.1125Q245.53125 17.815624 246.39062 17.815624Q247.34375 17.815624 248.07812 18.128124Q248.8125 18.425 249.20312 19.034374Q249.59375 19.628124 249.625 20.378124L248.53125 20.45625Q248.4375 19.64375 247.92188 19.2375Q247.42188 18.815624 246.4375 18.815624Q245.40625 18.815624 244.9375 19.190624Q244.46875 19.565624 244.46875 20.096874Q244.46875 20.565624 244.79688 20.8625Q245.125 21.159374 246.5 21.471874Q247.89062 21.784374 248.40625 22.01875Q249.15625 22.378124 249.51562 22.909374Q249.875 23.425 249.875 24.128124Q249.875 24.815624 249.48438 25.425Q249.09375 26.01875 248.35938 26.3625Q247.625 26.690624 246.70312 26.690624Q245.53125 26.690624 244.73438 26.3625Q243.95312 26.01875 243.5 25.33125Q243.0625 24.64375 243.04688 23.784374Z" fill-rule="nonzero"/><path fill="#fbbc04" d="M266.5 17.55C266.5 16.997715 266.94772 16.55 267.5 16.55L277.5 16.55C278.05228 16.55 278.5 16.997715 278.5 17.55L278.5 27.55C278.5 28.102285 278.05228 28.55 277.5 28.55L267.5 28.55C266.94772 28.55 266.5 28.102285 266.5 27.55Z" fill-rule="nonzero"/><path fill="#1a1a1a" d="M287.42188 26.55L287.42188 17.95625L290.67188 17.95625Q291.51562 17.95625 291.96875 18.034374Q292.60938 18.14375 293.03125 18.440624Q293.46875 18.7375 293.71875 19.26875Q293.98438 19.8 293.98438 20.440624Q293.98438 21.534374 293.28125 22.3Q292.59375 23.05 290.76562 23.05L288.5625 23.05L288.5625 26.55L287.42188 26.55ZM288.5625 22.05L290.78125 22.05Q291.89062 22.05 292.34375 21.64375Q292.8125 21.221874 292.8125 20.471874Q292.8125 19.940624 292.53125 19.565624Q292.26562 19.175 291.82812 19.05Q291.53125 18.971874 290.76562 18.971874L288.5625 18.971874L288.5625 22.05ZM295.28125 26.55L295.28125 20.33125L296.23438 20.33125L296.23438 21.26875Q296.59375 20.6125 296.89062 20.409374Q297.20312 20.190624 297.57812 20.190624Q298.10938 20.190624 298.65625 20.51875L298.29688 21.503124Q297.90625 21.26875 297.53125 21.26875Q297.17188 21.26875 296.89062 21.4875Q296.625 21.690624 296.51562 22.065624Q296.32812 22.628124 296.32812 23.284374L296.32812 26.55L295.28125 26.55ZM298.90625 23.440624Q298.90625 21.70625 299.85938 20.878124Q300.65625 20.190624 301.8125 20.190624Q303.09375 20.190624 303.90625 21.034374Q304.73438 21.8625 304.73438 23.346874Q304.73438 24.55 304.375 25.2375Q304.01562 25.925 303.3125 26.315624Q302.625 26.690624 301.8125 26.690624Q300.51562 26.690624 299.70312 25.8625Q298.90625 25.01875 298.90625 23.440624ZM299.98438 23.440624Q299.98438 24.628124 300.5 25.221874Q301.03125 25.815624 301.8125 25.815624Q302.60938 25.815624 303.125 25.221874Q303.64062 24.628124 303.64062 23.409374Q303.64062 22.253124 303.10938 21.659374Q302.59375 21.065624 301.8125 21.065624Q301.03125 21.065624 300.5 21.659374Q299.98438 22.2375 299.98438 23.440624ZM306.29688 28.940624L306.29688 20.33125L307.25 20.33125L307.25 21.128124Q307.59375 20.659374 308.01562 20.425Q308.45312 20.190624 309.0625 20.190624Q309.85938 20.190624 310.46875 20.596874Q311.07812 21.003124 311.375 21.753124Q311.6875 22.503124 311.6875 23.39375Q311.6875 24.346874 311.34375 25.1125Q311.01562 25.878124 310.35938 26.284374Q309.70312 26.690624 308.98438 26.690624Q308.45312 26.690624 308.03125 26.471874Q307.60938 26.2375 307.34375 25.909374L307.34375 28.940624L306.29688 28.940624ZM307.25 23.471874Q307.25 24.675 307.73438 25.253124Q308.21875 25.815624 308.90625 25.815624Q309.60938 25.815624 310.10938 25.221874Q310.60938 24.628124 310.60938 23.378124Q310.60938 22.190624 310.125 21.6125Q309.64062 21.01875 308.95312 21.01875Q308.28125 21.01875 307.76562 21.64375Q307.25 22.26875 307.25 23.471874ZM312.90625 23.440624Q312.90625 21.70625 313.85938 20.878124Q314.65625 20.190624 315.8125 20.190624Q317.09375 20.190624 317.90625 21.034374Q318.73438 21.8625 318.73438 23.346874Q318.73438 24.55 318.375 25.2375Q318.01562 25.925 317.3125 26.315624Q316.625 26.690624 315.8125 26.690624Q314.51562 26.690624 313.70312 25.8625Q312.90625 25.01875 312.90625 23.440624ZM313.98438 23.440624Q313.98438 24.628124 314.5 25.221874Q315.03125 25.815624 315.8125 25.815624Q316.60938 25.815624 317.125 25.221874Q317.64062 24.628124 317.64062 23.409374Q317.64062 22.253124 317.10938 21.659374Q316.59375 21.065624 315.8125 21.065624Q315.03125 21.065624 314.5 21.659374Q313.98438 22.2375 313.98438 23.440624ZM319.875 24.690624L320.90625 24.534374Q321.0 25.159374 321.39062 25.4875Q321.79688 25.815624 322.53125 25.815624Q323.25 25.815624 323.59375 25.534374Q323.95312 25.2375 323.95312 24.83125Q323.95312 24.471874 323.64062 24.26875Q323.42188 24.128124 322.5625 23.909374Q321.40625 23.6125 320.95312 23.409374Q320.51562 23.190624 320.28125 22.815624Q320.04688 22.440624 320.04688 21.971874Q320.04688 21.565624 320.23438 21.20625Q320.42188 20.846874 320.75 20.6125Q321.0 20.440624 321.42188 20.315624Q321.84375 20.190624 322.34375 20.190624Q323.0625 20.190624 323.60938 20.409374Q324.17188 20.6125 324.4375 20.971874Q324.70312 21.33125 324.79688 21.925L323.76562 22.065624Q323.70312 21.596874 323.35938 21.33125Q323.03125 21.05 322.40625 21.05Q321.6875 21.05 321.375 21.3Q321.0625 21.534374 321.0625 21.8625Q321.0625 22.065624 321.1875 22.221874Q321.32812 22.39375 321.59375 22.503124Q321.75 22.565624 322.53125 22.76875Q323.65625 23.08125 324.09375 23.26875Q324.53125 23.45625 324.78125 23.815624Q325.03125 24.175 325.03125 24.721874Q325.03125 25.253124 324.71875 25.721874Q324.42188 26.175 323.84375 26.440624Q323.26562 26.690624 322.53125 26.690624Q321.3125 26.690624 320.67188 26.190624Q320.04688 25.675 319.875 24.690624ZM330.54688 24.55L331.64062 24.675Q331.39062 25.628124 330.6875 26.159374Q329.98438 26.690624 328.90625 26.690624Q327.54688 26.690624 326.73438 25.846874Q325.9375 25.003124 325.9375 23.4875Q325.9375 21.925 326.75 21.065624Q327.5625 20.190624 328.84375 20.190624Q330.09375 20.190624 330.875 21.034374Q331.67188 21.878124 331.67188 23.425Q331.67188 23.51875 331.67188 23.70625L327.03125 23.70625Q327.09375 24.7375 327.60938 25.284374Q328.125 25.815624 328.90625 25.815624Q329.48438 25.815624 329.89062 25.51875Q330.3125 25.20625 330.54688 24.55ZM327.09375 22.846874L330.5625 22.846874Q330.5 22.05 330.17188 21.659374Q329.65625 21.05 328.85938 21.05Q328.125 21.05 327.625 21.534374Q327.14062 22.01875 327.09375 22.846874ZM337.32812 26.55L337.32812 25.76875Q336.73438 26.690624 335.59375 26.690624Q334.84375 26.690624 334.21875 26.284374Q333.59375 25.8625 333.25 25.128124Q332.90625 24.39375 332.90625 23.440624Q332.90625 22.51875 333.21875 21.753124Q333.53125 20.9875 334.15625 20.596874Q334.78125 20.190624 335.54688 20.190624Q336.10938 20.190624 336.54688 20.425Q336.98438 20.659374 337.26562 21.034374L337.26562 17.95625L338.3125 17.95625L338.3125 26.55L337.32812 26.55ZM334.0 23.440624Q334.0 24.64375 334.5 25.2375Q335.0 25.815624 335.6875 25.815624Q336.375 25.815624 336.85938 25.253124Q337.34375 24.690624 337.34375 23.534374Q337.34375 22.253124 336.84375 21.659374Q336.35938 21.065624 335.64062 21.065624Q334.9375 21.065624 334.46875 21.64375Q334.0 22.20625 334.0 23.440624ZM345.3125 29.08125Q344.4375 27.971874 343.82812 26.503124Q343.23438 25.01875 343.23438 23.440624Q343.23438 22.05 343.67188 20.76875Q344.20312 19.284374 345.3125 17.815624L346.0625 17.815624Q345.35938 19.034374 345.125 19.55Q344.76562 20.3625 344.5625 21.2375Q344.3125 22.33125 344.3125 23.440624Q344.3125 26.26875 346.0625 29.08125L345.3125 29.08125ZM347.42188 26.55L347.42188 17.95625L350.39062 17.95625Q351.39062 17.95625 351.92188 18.08125Q352.65625 18.253124 353.17188 18.690624Q353.85938 19.26875 354.1875 20.175Q354.53125 21.065624 354.53125 22.20625Q354.53125 23.190624 354.29688 23.940624Q354.07812 24.690624 353.71875 25.190624Q353.35938 25.690624 352.92188 25.971874Q352.5 26.253124 351.90625 26.409374Q351.3125 26.55 350.53125 26.55L347.42188 26.55ZM348.5625 25.534374L350.39062 25.534374Q351.25 25.534374 351.73438 25.378124Q352.21875 25.221874 352.5 24.925Q352.90625 24.534374 353.125 23.846874Q353.35938 23.159374 353.35938 22.190624Q353.35938 20.846874 352.90625 20.128124Q352.46875 19.39375 351.84375 19.14375Q351.375 18.971874 350.375 18.971874L348.5625 18.971874L348.5625 25.534374ZM355.48438 26.55L358.78125 17.95625L360.0 17.95625L363.51562 26.55L362.23438 26.55L361.21875 23.940624L357.64062 23.940624L356.6875 26.55L355.48438 26.55ZM357.96875 23.01875L360.875 23.01875L359.98438 20.64375Q359.5625 19.565624 359.375 18.8625Q359.20312 19.690624 358.90625 20.503124L357.96875 23.01875ZM364.39062 26.55L364.39062 17.95625L366.10938 17.95625L368.14062 24.034374Q368.42188 24.89375 368.54688 25.315624Q368.6875 24.846874 369.0 23.940624L371.0625 17.95625L372.59375 17.95625L372.59375 26.55L371.5 26.55L371.5 19.3625L369.0 26.55L367.96875 26.55L365.48438 19.2375L365.48438 26.55L364.39062 26.55ZM380.0625 17.95625L381.20312 17.95625L381.20312 22.925Q381.20312 24.221874 380.90625 24.9875Q380.60938 25.7375 379.84375 26.221874Q379.07812 26.690624 377.84375 26.690624Q376.64062 26.690624 375.85938 26.284374Q375.09375 25.8625 374.76562 25.08125Q374.4375 24.284374 374.4375 22.925L374.4375 17.95625L375.57812 17.95625L375.57812 22.909374Q375.57812 24.034374 375.78125 24.565624Q376.0 25.096874 376.5 25.39375Q377.01562 25.675 377.75 25.675Q379.0 25.675 379.53125 25.1125Q380.0625 24.534374 380.0625 22.909374L380.0625 17.95625ZM383.04688 23.784374L384.10938 23.690624Q384.1875 24.346874 384.46875 24.753124Q384.75 25.159374 385.32812 25.425Q385.92188 25.675 386.65625 25.675Q387.29688 25.675 387.79688 25.4875Q388.29688 25.284374 388.53125 24.95625Q388.78125 24.6125 388.78125 24.221874Q388.78125 23.815624 388.54688 23.51875Q388.3125 23.20625 387.78125 23.003124Q387.42188 22.8625 386.23438 22.58125Q385.0625 22.3 384.59375 22.05Q383.96875 21.721874 383.67188 21.253124Q383.375 20.76875 383.375 20.175Q383.375 19.534374 383.73438 18.971874Q384.10938 18.39375 384.8125 18.1125Q385.53125 17.815624 386.39062 17.815624Q387.34375 17.815624 388.07812 18.128124Q388.8125 18.425 389.20312 19.034374Q389.59375 19.628124 389.625 20.378124L388.53125 20.45625Q388.4375 19.64375 387.92188 19.2375Q387.42188 18.815624 386.4375 18.815624Q385.40625 18.815624 384.9375 19.190624Q384.46875 19.565624 384.46875 20.096874Q384.46875 20.565624 384.79688 20.8625Q385.125 21.159374 386.5 21.471874Q387.89062 21.784374 388.40625 22.01875Q389.15625 22.378124 389.51562 22.909374Q389.875 23.425 389.875 24.128124Q389.875 24.815624 389.48438 25.425Q389.09375 26.01875 388.35938 26.3625Q387.625 26.690624 386.70312 26.690624Q385.53125 26.690624 384.73438 26.3625Q383.95312 26.01875 383.5 25.33125Q383.0625 24.64375 383.04688 23.784374ZM391.98438 29.08125L391.23438 29.08125Q392.98438 26.26875 392.98438 23.440624Q392.98438 22.346874 392.73438 21.253124Q392.53125 20.378124 392.17188 19.565624Q391.9375 19.05 391.23438 17.815624L391.98438 17.815624Q393.07812 19.284374 393.60938 20.76875Q394.0625 22.05 394.0625 23.440624Q394.0625 25.01875 393.45312 26.503124Q392.84375 27.971874 391.98438 29.08125Z" fill-rule="nonzero"/></svg>